G04*
G04 #@! TF.GenerationSoftware,Altium Limited,Altium Designer,24.5.2 (23)*
G04*
G04 Layer_Color=16711935*
%FSLAX44Y44*%
%MOMM*%
G71*
G04*
G04 #@! TF.SameCoordinates,7688A6CE-4724-4EBB-A06F-6B4FEE905E02*
G04*
G04*
G04 #@! TF.FilePolarity,Negative*
G04*
G01*
G75*
%ADD44C,1.7032*%
%ADD45C,1.5032*%
%ADD46C,1.7272*%
%ADD47R,1.4232X1.4232*%
%ADD48C,1.4232*%
%ADD49C,1.5732*%
%ADD50R,1.5732X1.5732*%
%ADD51R,2.2032X5.2032*%
%ADD52R,5.2032X2.2032*%
%ADD53R,1.4232X1.4232*%
%ADD54C,3.5132*%
%ADD55C,2.7132*%
%ADD56C,3.8832*%
%ADD57C,2.3782*%
D44*
X25000Y195000D02*
D03*
Y275000D02*
D03*
D45*
Y215000D02*
D03*
Y235000D02*
D03*
Y255000D02*
D03*
D46*
X395000Y28000D02*
D03*
X365000D02*
D03*
D47*
X121500Y75000D02*
D03*
X423500Y830000D02*
D03*
Y800000D02*
D03*
X263500Y800000D02*
D03*
Y830000D02*
D03*
D48*
X146900Y75000D02*
D03*
X172300D02*
D03*
X197700D02*
D03*
X223100D02*
D03*
X248500D02*
D03*
X398100Y830000D02*
D03*
X372700D02*
D03*
X347300D02*
D03*
X321900D02*
D03*
X296500D02*
D03*
X398100Y800000D02*
D03*
X372700D02*
D03*
X347300D02*
D03*
X321900D02*
D03*
X296500D02*
D03*
X238100Y800000D02*
D03*
X212700D02*
D03*
X187300D02*
D03*
X161900D02*
D03*
X136500D02*
D03*
X238100Y830000D02*
D03*
X212700D02*
D03*
X187300D02*
D03*
X161900D02*
D03*
X136500D02*
D03*
X1330000Y608100D02*
D03*
Y582700D02*
D03*
Y557300D02*
D03*
Y531900D02*
D03*
Y506500D02*
D03*
X1300000Y608100D02*
D03*
Y582700D02*
D03*
Y557300D02*
D03*
Y531900D02*
D03*
Y506500D02*
D03*
X1330000Y338100D02*
D03*
Y312700D02*
D03*
Y287300D02*
D03*
Y261900D02*
D03*
Y236500D02*
D03*
X1300000Y338100D02*
D03*
Y312700D02*
D03*
Y287300D02*
D03*
Y261900D02*
D03*
Y236500D02*
D03*
D49*
X195000Y375200D02*
D03*
D50*
Y349800D02*
D03*
D51*
X145000Y347500D02*
D03*
X83000D02*
D03*
D52*
X113000Y300500D02*
D03*
D53*
X1330000Y633500D02*
D03*
X1300000D02*
D03*
X1330000Y363500D02*
D03*
X1300000D02*
D03*
D54*
X1148900Y640150D02*
D03*
X596900D02*
D03*
X1148900Y230150D02*
D03*
X596900D02*
D03*
D55*
X1231100Y465000D02*
D03*
Y55000D02*
D03*
D56*
X596900Y465000D02*
D03*
X1148900Y815000D02*
D03*
X596900Y55000D02*
D03*
X1148900Y405000D02*
D03*
D57*
X1231100Y735650D02*
D03*
X508900D02*
D03*
Y544350D02*
D03*
X1231100D02*
D03*
Y325650D02*
D03*
X508900D02*
D03*
Y134350D02*
D03*
X1231100D02*
D03*
M02*
