G04*
G04 #@! TF.GenerationSoftware,Altium Limited,Altium Designer,24.5.2 (23)*
G04*
G04 Layer_Physical_Order=1*
G04 Layer_Color=255*
%FSLAX44Y44*%
%MOMM*%
G71*
G04*
G04 #@! TF.SameCoordinates,7688A6CE-4724-4EBB-A06F-6B4FEE905E02*
G04*
G04*
G04 #@! TF.FilePolarity,Positive*
G04*
G01*
G75*
%ADD17C,0.2030*%
%ADD18R,1.0000X0.9000*%
%ADD19R,1.1500X1.7000*%
%ADD20R,1.0200X0.9400*%
%ADD21R,1.3000X1.2000*%
%ADD22R,3.5000X1.8500*%
%ADD23R,2.1000X1.5000*%
%ADD24R,0.2000X0.7000*%
%ADD25R,0.9000X0.2000*%
%ADD26R,1.0000X0.2000*%
%ADD27R,0.9400X1.0200*%
%ADD28R,2.2000X2.7000*%
%ADD29R,3.1000X2.2000*%
%ADD30R,1.8500X3.5000*%
%ADD58C,0.8000*%
%ADD59C,0.2032*%
%ADD60C,0.5000*%
%ADD61C,0.6000*%
%ADD62C,0.9000*%
%ADD63C,1.5000*%
%ADD64C,1.3000*%
%ADD65C,1.5240*%
%ADD66R,1.2200X1.2200*%
%ADD67C,1.2200*%
%ADD68C,1.3700*%
%ADD69R,1.3700X1.3700*%
%ADD70R,2.0000X5.0000*%
%ADD71R,5.0000X2.0000*%
%ADD72R,1.2200X1.2200*%
%ADD73C,3.3100*%
%ADD74C,2.5100*%
%ADD75C,3.6800*%
%ADD76C,2.1750*%
%ADD77C,0.6000*%
G36*
X272500Y666125D02*
X263519Y662757D01*
X263519Y660000D01*
X261500Y660000D01*
X261500Y662864D01*
X253500Y667000D01*
Y730000D01*
X272500D01*
Y666125D01*
D02*
G37*
G36*
X445894Y660641D02*
X445710Y660418D01*
X445547Y660188D01*
X445406Y659951D01*
X445287Y659706D01*
X445189Y659455D01*
X445113Y659196D01*
X445059Y658930D01*
X445027Y658657D01*
X445016Y658377D01*
X442984D01*
X442973Y658657D01*
X442941Y658930D01*
X442886Y659196D01*
X442811Y659455D01*
X442713Y659706D01*
X442594Y659951D01*
X442453Y660188D01*
X442290Y660418D01*
X442106Y660641D01*
X441900Y660858D01*
X446100D01*
X445894Y660641D01*
D02*
G37*
G36*
X258000Y655000D02*
X219000D01*
Y661000D01*
X258000D01*
Y655000D01*
D02*
G37*
G36*
X445026Y656110D02*
X445057Y655759D01*
X445107Y655450D01*
X445178Y655182D01*
X445270Y654955D01*
X445382Y654769D01*
X445514Y654625D01*
X445666Y654521D01*
X445839Y654460D01*
X446032Y654439D01*
X441968D01*
X442161Y654460D01*
X442334Y654521D01*
X442486Y654625D01*
X442618Y654769D01*
X442730Y654955D01*
X442821Y655182D01*
X442892Y655450D01*
X442943Y655759D01*
X442974Y656110D01*
X442984Y656501D01*
X445016D01*
X445026Y656110D01*
D02*
G37*
G36*
X324394Y650641D02*
X324210Y650418D01*
X324047Y650188D01*
X323906Y649951D01*
X323787Y649706D01*
X323689Y649455D01*
X323614Y649196D01*
X323559Y648930D01*
X323527Y648657D01*
X323516Y648377D01*
X321484D01*
X321473Y648657D01*
X321441Y648930D01*
X321386Y649196D01*
X321311Y649455D01*
X321213Y649706D01*
X321094Y649951D01*
X320953Y650188D01*
X320790Y650418D01*
X320606Y650641D01*
X320400Y650858D01*
X324600D01*
X324394Y650641D01*
D02*
G37*
G36*
X455561Y647768D02*
X455540Y647961D01*
X455478Y648134D01*
X455375Y648286D01*
X455231Y648418D01*
X455045Y648530D01*
X454818Y648622D01*
X454550Y648693D01*
X454241Y648743D01*
X453890Y648774D01*
X453498Y648784D01*
Y650816D01*
X453890Y650826D01*
X454241Y650857D01*
X454550Y650908D01*
X454818Y650979D01*
X455045Y651070D01*
X455231Y651182D01*
X455375Y651314D01*
X455478Y651466D01*
X455540Y651639D01*
X455561Y651832D01*
Y647768D01*
D02*
G37*
G36*
X449060Y651639D02*
X449122Y651466D01*
X449225Y651314D01*
X449369Y651182D01*
X449555Y651070D01*
X449781Y650979D01*
X450050Y650908D01*
X450359Y650857D01*
X450710Y650826D01*
X451101Y650816D01*
Y648784D01*
X450710Y648774D01*
X450359Y648743D01*
X450050Y648693D01*
X449781Y648622D01*
X449555Y648530D01*
X449369Y648418D01*
X449225Y648286D01*
X449122Y648134D01*
X449060Y647961D01*
X449039Y647768D01*
Y651832D01*
X449060Y651639D01*
D02*
G37*
G36*
X323526Y645615D02*
X323557Y645270D01*
X323607Y644965D01*
X323679Y644701D01*
X323770Y644477D01*
X323882Y644295D01*
X324014Y644152D01*
X324166Y644051D01*
X324339Y643990D01*
X324532Y643969D01*
X320468D01*
X320661Y643990D01*
X320834Y644051D01*
X320986Y644152D01*
X321118Y644295D01*
X321230Y644477D01*
X321321Y644701D01*
X321393Y644965D01*
X321443Y645270D01*
X321474Y645615D01*
X321484Y646002D01*
X323516D01*
X323526Y645615D01*
D02*
G37*
G36*
X317561Y637468D02*
X317540Y637661D01*
X317479Y637834D01*
X317375Y637986D01*
X317231Y638118D01*
X317045Y638230D01*
X316819Y638321D01*
X316550Y638393D01*
X316241Y638443D01*
X315890Y638474D01*
X315499Y638484D01*
Y640516D01*
X315890Y640526D01*
X316241Y640557D01*
X316550Y640607D01*
X316819Y640679D01*
X317045Y640770D01*
X317231Y640882D01*
X317375Y641014D01*
X317479Y641166D01*
X317540Y641339D01*
X317561Y641532D01*
Y637468D01*
D02*
G37*
G36*
X309560Y641339D02*
X309622Y641166D01*
X309725Y641014D01*
X309869Y640882D01*
X310055Y640770D01*
X310282Y640679D01*
X310550Y640607D01*
X310859Y640557D01*
X311210Y640526D01*
X311602Y640516D01*
Y638484D01*
X311210Y638474D01*
X310859Y638443D01*
X310550Y638393D01*
X310282Y638321D01*
X310055Y638230D01*
X309869Y638118D01*
X309725Y637986D01*
X309622Y637834D01*
X309560Y637661D01*
X309539Y637468D01*
Y641532D01*
X309560Y641339D01*
D02*
G37*
G36*
X431000Y651000D02*
X403234Y638109D01*
Y636000D01*
X400764D01*
Y638110D01*
X373000Y651000D01*
Y668000D01*
X431000D01*
Y651000D01*
D02*
G37*
G36*
X398000Y631000D02*
X369000D01*
Y637000D01*
X398000D01*
Y631000D01*
D02*
G37*
G36*
X100000Y864392D02*
X1268261D01*
X1268222D01*
X1268261Y864392D01*
X1270000Y864392D01*
X1271668Y864127D01*
X1271706Y864119D01*
X1273153Y863153D01*
X1274119Y861706D01*
X1274127Y861668D01*
X1274392Y860000D01*
X1274422Y859849D01*
X1274422Y858222D01*
X1274426Y782465D01*
X1274461Y782290D01*
X1274409Y781231D01*
X1274876Y771738D01*
X1276270Y762336D01*
X1278580Y753116D01*
X1281782Y744167D01*
X1285845Y735575D01*
X1290732Y727423D01*
X1296393Y719789D01*
X1302776Y712746D01*
X1309819Y706364D01*
X1317453Y700702D01*
X1325605Y695815D01*
X1334197Y691752D01*
X1343146Y688550D01*
X1352366Y686240D01*
X1361768Y684846D01*
X1364392Y684717D01*
Y461608D01*
X1355000D01*
X1355000Y461608D01*
Y461608D01*
X1354785Y461565D01*
X1350842Y461255D01*
X1346786Y460281D01*
X1342932Y458685D01*
X1339375Y456505D01*
X1336204Y453796D01*
X1333495Y450625D01*
X1331315Y447068D01*
X1329719Y443214D01*
X1328745Y439158D01*
X1328418Y435000D01*
X1328745Y430842D01*
X1329719Y426786D01*
X1331315Y422932D01*
X1333495Y419375D01*
X1336204Y416204D01*
X1339375Y413495D01*
X1342932Y411315D01*
X1346786Y409719D01*
X1350842Y408745D01*
X1354785Y408435D01*
X1355000Y408392D01*
X1364392D01*
Y185287D01*
X1361771Y185159D01*
X1352368Y183764D01*
X1343148Y181454D01*
X1334198Y178252D01*
X1325605Y174188D01*
X1317453Y169301D01*
X1309818Y163639D01*
X1302775Y157255D01*
X1296391Y150212D01*
X1290729Y142578D01*
X1285842Y134424D01*
X1281778Y125832D01*
X1278576Y116882D01*
X1276266Y107662D01*
X1274871Y98259D01*
X1274864Y98114D01*
X1273086Y98158D01*
Y172000D01*
X1272743Y174611D01*
X1271735Y177043D01*
X1270132Y179132D01*
X1268043Y180735D01*
X1265611Y181743D01*
X1263000Y182086D01*
X712000D01*
X709389Y181743D01*
X706957Y180735D01*
X704868Y179132D01*
X620822Y95086D01*
X530000D01*
X530000Y95086D01*
X527389Y94743D01*
X524957Y93735D01*
X522868Y92132D01*
X522868Y92132D01*
X500822Y70086D01*
X459000D01*
X456390Y69743D01*
X453957Y68735D01*
X452000Y67233D01*
X450043Y68735D01*
X447611Y69743D01*
X445000Y70086D01*
X421908Y70086D01*
X383130Y109431D01*
X383816Y111072D01*
X397960D01*
Y110770D01*
X407000D01*
Y109500D01*
X408270D01*
Y100960D01*
X416040D01*
Y100960D01*
X417068D01*
Y100960D01*
X424837D01*
Y109500D01*
X427378D01*
Y100960D01*
X435148D01*
Y100960D01*
X436107Y100960D01*
Y100960D01*
X443877D01*
Y109500D01*
X445147D01*
Y110770D01*
X454187D01*
Y111072D01*
X473595D01*
X473943Y111055D01*
X474865Y110871D01*
X475503Y110607D01*
X476077Y110223D01*
X476565Y109735D01*
X476949Y109161D01*
X477213Y108523D01*
X477397Y107601D01*
X477426Y107005D01*
X477618Y105951D01*
X477757Y104889D01*
X477853Y104659D01*
X477897Y104414D01*
X478355Y103446D01*
X478765Y102457D01*
X478917Y102259D01*
X479023Y102034D01*
X479716Y101218D01*
X480368Y100368D01*
X480565Y100216D01*
X480727Y100026D01*
X481607Y99417D01*
X482457Y98765D01*
X482687Y98670D01*
X482892Y98528D01*
X483900Y98167D01*
X484889Y97757D01*
X485136Y97725D01*
X485371Y97641D01*
X486438Y97554D01*
X487500Y97414D01*
X530000D01*
X532611Y97757D01*
X535043Y98765D01*
X537132Y100368D01*
X538735Y102457D01*
X539743Y104889D01*
X540086Y107500D01*
Y155000D01*
X539743Y157611D01*
X538735Y160043D01*
X537132Y162132D01*
X535043Y163735D01*
X532611Y164743D01*
X530000Y165086D01*
X487500D01*
X486438Y164946D01*
X485371Y164859D01*
X485136Y164775D01*
X484889Y164743D01*
X483900Y164333D01*
X482892Y163972D01*
X482687Y163830D01*
X482457Y163735D01*
X481607Y163083D01*
X480727Y162474D01*
X480565Y162284D01*
X480368Y162132D01*
X479716Y161282D01*
X479023Y160466D01*
X477341Y161068D01*
X477086Y161241D01*
Y255500D01*
Y317000D01*
Y397764D01*
X477086Y397765D01*
X477086Y431980D01*
X477087Y434930D01*
X477001Y435586D01*
X477001Y436247D01*
X476233Y442097D01*
X476062Y442736D01*
X475976Y443391D01*
X474451Y449091D01*
X474198Y449702D01*
X474027Y450341D01*
X471771Y455793D01*
X471440Y456365D01*
X471187Y456976D01*
X468238Y462087D01*
X467836Y462612D01*
X467505Y463184D01*
X463914Y467866D01*
X463447Y468334D01*
X463045Y468858D01*
X458873Y473031D01*
X458349Y473434D01*
X457881Y473901D01*
X453201Y477494D01*
X452628Y477825D01*
X452103Y478227D01*
X449086Y479970D01*
Y518709D01*
X449000Y519364D01*
X449000Y520025D01*
X448829Y520664D01*
X448743Y521319D01*
X448490Y521930D01*
X448318Y522569D01*
X447862Y523671D01*
X447531Y524244D01*
X447278Y524854D01*
X446876Y525379D01*
X446545Y525952D01*
X446078Y526419D01*
X445675Y526943D01*
X444831Y527787D01*
X444307Y528190D01*
X443840Y528657D01*
X443267Y528988D01*
X442743Y529390D01*
X442132Y529643D01*
X441559Y529974D01*
X440457Y530430D01*
X439818Y530602D01*
X439207Y530854D01*
X438552Y530941D01*
X437913Y531112D01*
X437252Y531112D01*
X436597Y531198D01*
X436086D01*
X436086Y581996D01*
X436086Y582000D01*
Y593866D01*
X443900D01*
X446247Y594333D01*
X448237Y595663D01*
X448337Y595763D01*
X449667Y597753D01*
X450134Y600100D01*
X449667Y602447D01*
X448337Y604437D01*
X446347Y605767D01*
X444000Y606234D01*
X443497Y606134D01*
X436086D01*
Y630689D01*
X435957Y631670D01*
X435892Y632657D01*
X435624Y634010D01*
X435305Y634946D01*
X435050Y635902D01*
X434522Y637176D01*
X434027Y638032D01*
X433590Y638919D01*
X433487Y639074D01*
X433985Y641265D01*
X435247Y641852D01*
X435627Y642093D01*
X436043Y642265D01*
X436735Y642796D01*
X437471Y643263D01*
X437775Y643594D01*
X437950Y643728D01*
X438745Y643708D01*
X440000Y643382D01*
X440098Y643222D01*
X440304Y642725D01*
X440781Y642103D01*
X441190Y641434D01*
X441252Y641375D01*
X441339Y641002D01*
X441308Y640174D01*
X441080Y639425D01*
X440902Y639166D01*
X439663Y638337D01*
X438333Y636347D01*
X437866Y634000D01*
Y615900D01*
X438333Y613553D01*
X439663Y611563D01*
X441653Y610233D01*
X444000Y609766D01*
X462000D01*
X464347Y610233D01*
X466337Y611563D01*
X467667Y613553D01*
X468134Y615900D01*
Y633500D01*
X467667Y635847D01*
X466337Y637837D01*
X464347Y639167D01*
X463804Y639275D01*
X463575Y639556D01*
X463200Y640576D01*
X463178Y641212D01*
X463410Y641434D01*
X463819Y642103D01*
X464296Y642725D01*
X464502Y643222D01*
X464782Y643681D01*
X464944Y644232D01*
X466337Y645163D01*
X467667Y647153D01*
X468134Y649500D01*
X467667Y651847D01*
X466337Y653837D01*
X466037Y654137D01*
X465198Y654698D01*
X465004Y655167D01*
X464782Y655919D01*
X464502Y656378D01*
X464296Y656875D01*
X463819Y657497D01*
X463410Y658166D01*
X463021Y658537D01*
X462693Y658964D01*
X462071Y659441D01*
X461503Y659982D01*
X461031Y660239D01*
X460604Y660567D01*
X459880Y660867D01*
X459192Y661242D01*
X458669Y661369D01*
X458172Y661575D01*
X457394Y661677D01*
X456632Y661861D01*
X456095Y661848D01*
X456066Y661852D01*
X455999Y662282D01*
X455843Y663468D01*
X455796Y663580D01*
X455777Y663701D01*
X455293Y664795D01*
X454835Y665901D01*
X454761Y665997D01*
X454712Y666108D01*
X453961Y667040D01*
X453232Y667990D01*
X453135Y668064D01*
X453059Y668158D01*
X452093Y668864D01*
X451143Y669593D01*
X451031Y669639D01*
X450933Y669711D01*
X449816Y670142D01*
X448711Y670600D01*
X448590Y670616D01*
X448476Y670660D01*
X447286Y670788D01*
X446100Y670944D01*
X441900D01*
X440714Y670788D01*
X440671Y670783D01*
X439735Y673043D01*
X438132Y675132D01*
X436043Y676735D01*
X433610Y677743D01*
X431000Y678086D01*
X373000D01*
X370389Y677743D01*
X367957Y676735D01*
X365868Y675132D01*
X364265Y673043D01*
X363257Y670611D01*
X362914Y668000D01*
Y651000D01*
X362972Y650554D01*
X362953Y650104D01*
X363144Y649253D01*
X363257Y648390D01*
X363429Y647974D01*
X363528Y647534D01*
X363550Y647491D01*
X363957Y645735D01*
X361868Y644132D01*
X360265Y642043D01*
X359257Y639610D01*
X358914Y637000D01*
Y631000D01*
X359257Y628390D01*
X360265Y625957D01*
X360707Y625381D01*
X359663Y624337D01*
X358333Y622347D01*
X357866Y620000D01*
Y607500D01*
X358333Y605153D01*
X359663Y603163D01*
X361653Y601833D01*
X364000Y601366D01*
X366347Y601833D01*
X368337Y603163D01*
X369667Y605153D01*
X370134Y607500D01*
Y617459D01*
X370541Y617866D01*
X381000D01*
X383347Y618333D01*
X385337Y619663D01*
X386541Y620866D01*
X389729D01*
X390632Y619766D01*
Y618307D01*
X386280Y613955D01*
X382784D01*
X380437Y613488D01*
X378447Y612158D01*
X377526Y611237D01*
X376196Y609247D01*
X375729Y606900D01*
X376196Y604553D01*
X377526Y602563D01*
X379516Y601233D01*
X381863Y600766D01*
X384210Y601233D01*
X384890Y601687D01*
X386866D01*
Y597131D01*
X385088Y596180D01*
X384210Y596767D01*
X381863Y597234D01*
X364600D01*
X362253Y596767D01*
X360263Y595437D01*
X359663Y594837D01*
X358333Y592847D01*
X357866Y590500D01*
X358333Y588153D01*
X359663Y586163D01*
X361653Y584833D01*
X364000Y584366D01*
X366347Y584833D01*
X366547Y584966D01*
X381863D01*
X384210Y585433D01*
X385438Y586254D01*
X387207Y585870D01*
X387471Y585636D01*
X388663Y583853D01*
X387924Y582078D01*
X387500D01*
X385151Y581768D01*
X382961Y580861D01*
X381081Y579419D01*
X379639Y577539D01*
X378732Y575350D01*
X378422Y573000D01*
X378732Y570650D01*
X379639Y568461D01*
X381081Y566581D01*
X382961Y565139D01*
X383387Y564962D01*
Y563038D01*
X382961Y562862D01*
X381081Y561419D01*
X379639Y559539D01*
X378732Y557350D01*
X378422Y555000D01*
X378732Y552650D01*
X379639Y550461D01*
X381081Y548581D01*
X382961Y547139D01*
X385150Y546232D01*
X387500Y545922D01*
X398500D01*
X398577Y545933D01*
X399914Y544760D01*
Y531708D01*
X399404Y531198D01*
X398748Y531112D01*
X398087D01*
X397448Y530941D01*
X396793Y530855D01*
X396182Y530602D01*
X395544Y530430D01*
X394441Y529974D01*
X393868Y529643D01*
X393257Y529390D01*
X392733Y528988D01*
X392160Y528657D01*
X391693Y528190D01*
X391169Y527787D01*
X390325Y526943D01*
X389922Y526419D01*
X389455Y525951D01*
X389124Y525379D01*
X388722Y524854D01*
X388469Y524244D01*
X388138Y523671D01*
X387681Y522568D01*
X387510Y521930D01*
X387257Y521319D01*
X387171Y520663D01*
X387000Y520025D01*
Y519364D01*
X386914Y518708D01*
X386914Y518111D01*
Y487086D01*
X309087Y487086D01*
Y518709D01*
X309000Y519364D01*
X309000Y520025D01*
X308829Y520664D01*
X308743Y521319D01*
X308490Y521930D01*
X308319Y522569D01*
X307862Y523671D01*
X307532Y524244D01*
X307279Y524854D01*
X306876Y525379D01*
X306546Y525952D01*
X306078Y526419D01*
X305676Y526943D01*
X304832Y527787D01*
X304307Y528190D01*
X303840Y528657D01*
X303267Y528988D01*
X302743Y529390D01*
X302132Y529643D01*
X301560Y529974D01*
X300457Y530430D01*
X299818Y530602D01*
X299208Y530854D01*
X298552Y530941D01*
X297914Y531112D01*
X297253Y531112D01*
X296597Y531198D01*
X296087D01*
X296086Y581318D01*
X297864Y582966D01*
X304500D01*
X306847Y583433D01*
X308837Y584763D01*
X310167Y586753D01*
X310634Y589100D01*
X310167Y591447D01*
X308837Y593437D01*
X306847Y594767D01*
X304500Y595234D01*
X298941D01*
X298634Y595541D01*
Y599650D01*
X299409Y600113D01*
X300412Y600396D01*
X302153Y599233D01*
X304500Y598766D01*
X322500D01*
X324847Y599233D01*
X326837Y600563D01*
X328167Y602553D01*
X328634Y604900D01*
Y622500D01*
X328167Y624847D01*
X326837Y626837D01*
X324847Y628167D01*
X324389Y629167D01*
X324356Y630078D01*
X324693Y630336D01*
X325021Y630763D01*
X325410Y631134D01*
X325819Y631803D01*
X326296Y632425D01*
X326502Y632922D01*
X326782Y633381D01*
X327004Y634133D01*
X327037Y634213D01*
X327142Y634227D01*
X327874Y634530D01*
X328633Y634755D01*
X329085Y635032D01*
X329575Y635234D01*
X330203Y635716D01*
X330878Y636130D01*
X331243Y636515D01*
X331664Y636837D01*
X332146Y637466D01*
X332691Y638040D01*
X332944Y638506D01*
X333267Y638926D01*
X333570Y639658D01*
X333948Y640353D01*
X334072Y640869D01*
X334275Y641359D01*
X334378Y642144D01*
X334563Y642914D01*
X334549Y643444D01*
X334618Y643969D01*
X334515Y644754D01*
X334494Y645546D01*
X334344Y646054D01*
X334275Y646580D01*
X333972Y647311D01*
X333965Y647335D01*
X334343Y648247D01*
X334358Y648368D01*
X334402Y648481D01*
X334530Y649671D01*
X334686Y650858D01*
X334670Y650978D01*
X334683Y651099D01*
X334499Y652282D01*
X334343Y653468D01*
X334296Y653580D01*
X334277Y653701D01*
X333793Y654795D01*
X333335Y655901D01*
X333261Y655997D01*
X333212Y656108D01*
X332461Y657040D01*
X331732Y657990D01*
X331636Y658064D01*
X331559Y658158D01*
X330593Y658864D01*
X329643Y659593D01*
X329531Y659639D01*
X329432Y659711D01*
X328316Y660142D01*
X327211Y660600D01*
X327090Y660616D01*
X326977Y660660D01*
X325786Y660788D01*
X324600Y660944D01*
X320400D01*
X319214Y660788D01*
X318023Y660660D01*
X317910Y660616D01*
X317789Y660600D01*
X316684Y660142D01*
X315567Y659711D01*
X315469Y659639D01*
X315357Y659593D01*
X314407Y658864D01*
X313441Y658158D01*
X313364Y658064D01*
X313268Y657990D01*
X312539Y657040D01*
X311788Y656108D01*
X311739Y655997D01*
X311665Y655901D01*
X311207Y654795D01*
X310723Y653701D01*
X310704Y653580D01*
X310657Y653468D01*
X310501Y652282D01*
X310381Y651514D01*
X310316Y651516D01*
X309539Y651618D01*
X309006Y651548D01*
X308468Y651561D01*
X307705Y651377D01*
X306929Y651275D01*
X306431Y651069D01*
X305908Y650942D01*
X305220Y650567D01*
X304496Y650267D01*
X304069Y649939D01*
X303596Y649682D01*
X303029Y649141D01*
X302407Y648664D01*
X302079Y648237D01*
X301690Y647866D01*
X301281Y647197D01*
X300804Y646575D01*
X300598Y646078D01*
X300318Y645619D01*
X300096Y644867D01*
X299796Y644143D01*
X299726Y643609D01*
X299574Y643093D01*
X299555Y642309D01*
X299542Y642208D01*
X298833Y641147D01*
X298366Y638800D01*
X298833Y636453D01*
X299771Y635048D01*
X299796Y634857D01*
X300096Y634133D01*
X300318Y633381D01*
X300598Y632922D01*
X300804Y632425D01*
X301281Y631803D01*
X301690Y631134D01*
X302079Y630763D01*
X302278Y630505D01*
X302221Y629672D01*
X301891Y628493D01*
X301888Y628490D01*
X300163Y627337D01*
X298833Y625347D01*
X298640Y624379D01*
X298634Y624371D01*
X296690Y623689D01*
X296086Y624198D01*
Y654689D01*
X295957Y655670D01*
X295893Y656657D01*
X295623Y658010D01*
X295306Y658946D01*
X295049Y659902D01*
X294522Y661176D01*
X294027Y662032D01*
X293590Y662919D01*
X292824Y664066D01*
X292171Y664809D01*
X291569Y665594D01*
X290594Y666569D01*
X289810Y667171D01*
X289066Y667824D01*
X287919Y668590D01*
X287032Y669027D01*
X286176Y669522D01*
X284902Y670050D01*
X283946Y670305D01*
X283010Y670623D01*
X282586Y670708D01*
Y730000D01*
X282243Y732610D01*
X281235Y735043D01*
X279632Y737132D01*
X277543Y738735D01*
X275110Y739743D01*
X272500Y740086D01*
X253500D01*
X250889Y739743D01*
X248457Y738735D01*
X246368Y737132D01*
X244765Y735043D01*
X243757Y732610D01*
X243414Y730000D01*
Y671086D01*
X219000D01*
X216390Y670743D01*
X213957Y669735D01*
X211868Y668132D01*
X210265Y666043D01*
X209257Y663611D01*
X208914Y661000D01*
Y655000D01*
X209257Y652390D01*
X210265Y649957D01*
X211868Y647868D01*
X213957Y646265D01*
X216390Y645257D01*
X217739Y645080D01*
X218428Y644119D01*
Y631619D01*
X218895Y629272D01*
X220224Y627282D01*
X222214Y625952D01*
X224562Y625485D01*
X226909Y625952D01*
X228899Y627282D01*
X230228Y629272D01*
X230695Y631619D01*
Y641579D01*
X231102Y641985D01*
X241562D01*
X243909Y642452D01*
X245899Y643782D01*
X247031Y644914D01*
X250529D01*
X251318Y643952D01*
Y640493D01*
X247859Y637034D01*
X241500D01*
X239153Y636567D01*
X237163Y635237D01*
X235833Y633247D01*
X235366Y630900D01*
X235833Y628553D01*
X237163Y626563D01*
X239153Y625233D01*
X241500Y624766D01*
X247596D01*
Y620006D01*
X245837Y619437D01*
X243847Y620767D01*
X241500Y621234D01*
X239153Y620767D01*
X238953Y620634D01*
X223500D01*
X221153Y620167D01*
X219163Y618837D01*
X217833Y616847D01*
X217366Y614500D01*
X217833Y612153D01*
X219163Y610163D01*
X221153Y608833D01*
X223500Y608366D01*
X240900D01*
X243247Y608833D01*
X245237Y610163D01*
X245818Y610743D01*
X245903Y610742D01*
X247596Y610194D01*
Y608771D01*
X248062Y606423D01*
X249392Y604433D01*
X250705Y603120D01*
X252695Y601791D01*
X255042Y601324D01*
X257270D01*
X258753Y600333D01*
X259914Y600102D01*
Y594133D01*
X248500D01*
X246153Y593666D01*
X244163Y592337D01*
X242834Y590347D01*
X242367Y588000D01*
X242834Y585653D01*
X244163Y583663D01*
X246153Y582334D01*
X248500Y581867D01*
X259914D01*
Y575133D01*
X248500D01*
X246153Y574666D01*
X244163Y573336D01*
X242834Y571347D01*
X242367Y569000D01*
X242834Y566653D01*
X244163Y564664D01*
X246153Y563334D01*
X248500Y562867D01*
X259914D01*
Y531708D01*
X259404Y531198D01*
X258748Y531112D01*
X258087D01*
X257449Y530941D01*
X256793Y530855D01*
X256183Y530602D01*
X255544Y530430D01*
X254441Y529974D01*
X253869Y529643D01*
X253258Y529390D01*
X252733Y528988D01*
X252161Y528657D01*
X251693Y528190D01*
X251169Y527787D01*
X250325Y526943D01*
X249922Y526419D01*
X249455Y525951D01*
X249125Y525379D01*
X248722Y524854D01*
X248469Y524244D01*
X248139Y523671D01*
X247682Y522568D01*
X247511Y521930D01*
X247258Y521319D01*
X247171Y520663D01*
X247000Y520025D01*
Y519364D01*
X246914Y518708D01*
X246914Y518111D01*
Y487086D01*
X203836D01*
Y582500D01*
X203493Y585111D01*
X202485Y587543D01*
X200882Y589632D01*
X198793Y591235D01*
X196360Y592243D01*
X193750Y592586D01*
X151250D01*
X148639Y592243D01*
X146207Y591235D01*
X144118Y589632D01*
X142515Y587543D01*
X141507Y585111D01*
X141164Y582500D01*
Y475402D01*
X139434Y474488D01*
X137488Y475294D01*
X135400Y475569D01*
X133312Y475294D01*
X131365Y474488D01*
X129694Y473206D01*
X128412Y471535D01*
X127606Y469588D01*
X127422Y468193D01*
X127417Y468153D01*
X125616Y468094D01*
X125572Y468313D01*
X125267Y469847D01*
X123937Y471837D01*
X121947Y473167D01*
X119600Y473634D01*
X100000D01*
X97653Y473167D01*
X95663Y471837D01*
X94333Y469847D01*
X93866Y467500D01*
X94333Y465153D01*
X95663Y463163D01*
X97653Y461833D01*
X100000Y461366D01*
X119600D01*
X121947Y461833D01*
X123937Y463163D01*
X125267Y465153D01*
X125511Y466378D01*
X125553Y466591D01*
X127331Y466416D01*
Y446084D01*
X125553Y445909D01*
X125267Y447347D01*
X123937Y449337D01*
X121947Y450667D01*
X119600Y451134D01*
X100000D01*
X97653Y450667D01*
X95663Y449337D01*
X94333Y447347D01*
X93866Y445000D01*
X94333Y442653D01*
X95663Y440663D01*
X97653Y439333D01*
X100000Y438866D01*
X119600D01*
X121947Y439333D01*
X123937Y440663D01*
X125267Y442653D01*
X125553Y444091D01*
X127331Y443916D01*
Y423584D01*
X125553Y423409D01*
X125511Y423622D01*
X125267Y424847D01*
X123937Y426837D01*
X121947Y428167D01*
X119600Y428634D01*
X100000D01*
X97653Y428167D01*
X95663Y426837D01*
X94333Y424847D01*
X93866Y422500D01*
X94333Y420153D01*
X95663Y418163D01*
X97653Y416833D01*
X100000Y416366D01*
X119600D01*
X121947Y416833D01*
X123937Y418163D01*
X125267Y420153D01*
X125572Y421687D01*
X125616Y421906D01*
X127417Y421847D01*
X127422Y421807D01*
X127606Y420412D01*
X128412Y418465D01*
X129694Y416794D01*
X131365Y415512D01*
X133312Y414706D01*
X135400Y414431D01*
X137488Y414706D01*
X139434Y415512D01*
X141164Y414598D01*
Y414504D01*
X141507Y411893D01*
X142515Y409461D01*
X144118Y407372D01*
X146207Y405769D01*
X148639Y404761D01*
X151250Y404417D01*
X154003D01*
X154389Y404257D01*
X157000Y403914D01*
X404446Y403914D01*
X405163Y403838D01*
X407428Y403350D01*
X409431Y402607D01*
X411307Y401587D01*
X413019Y400309D01*
X414531Y398800D01*
X415812Y397090D01*
X415914Y396905D01*
Y317000D01*
X415914Y317000D01*
Y260766D01*
X414540Y259790D01*
X414136Y259790D01*
X395770D01*
Y248000D01*
Y236210D01*
X414136D01*
X414540Y236210D01*
X415914Y235234D01*
Y233000D01*
Y183040D01*
X412422D01*
Y174500D01*
X409882D01*
Y183040D01*
X402338D01*
Y183040D01*
X394568D01*
Y174500D01*
X393298D01*
Y173230D01*
X384258D01*
Y172138D01*
Y169742D01*
X351000Y149566D01*
X347000D01*
Y166000D01*
X353311Y177952D01*
Y182261D01*
X354331Y183281D01*
X355051Y184358D01*
X355090Y184398D01*
X356420Y186388D01*
X356877Y188685D01*
X358102Y189910D01*
X359432Y191900D01*
X359898Y194247D01*
Y196953D01*
X363586D01*
Y213449D01*
X364809Y213610D01*
X366998Y214517D01*
X368878Y215959D01*
X370321Y217840D01*
X371227Y220029D01*
X371537Y222378D01*
X371227Y224728D01*
X370321Y226917D01*
X368878Y228797D01*
X366998Y230240D01*
X364809Y231147D01*
X363586Y231308D01*
Y232153D01*
X348617D01*
Y232153D01*
X313548D01*
Y216231D01*
X312211Y215058D01*
X312000Y215086D01*
X210540D01*
Y223730D01*
X192500D01*
Y226270D01*
X210540D01*
Y238540D01*
X212267Y238664D01*
X220000D01*
X222610Y239007D01*
X225043Y240015D01*
X227132Y241618D01*
X228735Y243707D01*
X229743Y246140D01*
X230086Y248750D01*
Y284866D01*
X230464Y285365D01*
X230835Y285481D01*
X232274Y285650D01*
X232813Y284911D01*
X232909Y284834D01*
X232984Y284736D01*
X233932Y284008D01*
X234862Y283258D01*
X234975Y283208D01*
X235073Y283133D01*
X236177Y282675D01*
X236806Y282397D01*
X237000Y282248D01*
Y279600D01*
X266592D01*
X266923Y279251D01*
X267449Y277822D01*
X267085Y277373D01*
X267030Y277251D01*
X266949Y277145D01*
X266496Y276050D01*
X266279Y275563D01*
X265933Y275113D01*
X265730Y274623D01*
X265453Y274170D01*
X265228Y273411D01*
X264925Y272680D01*
X264856Y272154D01*
X264706Y271646D01*
X264685Y270854D01*
X264582Y270070D01*
X264651Y269544D01*
X264637Y269014D01*
X264822Y268244D01*
X264925Y267459D01*
X265128Y266969D01*
X265252Y266453D01*
X265630Y265758D01*
X265933Y265026D01*
X266256Y264606D01*
X266509Y264140D01*
X267000Y263622D01*
Y254900D01*
X291110D01*
X291196Y254818D01*
X291669Y254561D01*
X292096Y254233D01*
X292820Y253933D01*
X293508Y253558D01*
X294031Y253431D01*
X294165Y253376D01*
X294389Y253097D01*
X295118Y252148D01*
X295214Y252074D01*
X295291Y251979D01*
X296258Y251273D01*
X297207Y250545D01*
X297319Y250499D01*
X297417Y250427D01*
X298534Y249995D01*
X299640Y249537D01*
X299760Y249522D01*
X299873Y249478D01*
X301063Y249350D01*
X302250Y249194D01*
X302371Y249210D01*
X302491Y249197D01*
X303674Y249381D01*
X304861Y249537D01*
X304973Y249584D01*
X305093Y249603D01*
X306187Y250087D01*
X307293Y250545D01*
X307390Y250619D01*
X307501Y250668D01*
X308432Y251419D01*
X309382Y252148D01*
X312352Y255118D01*
X312877Y255801D01*
X313355Y255757D01*
X314290Y255599D01*
X314661Y255635D01*
X315032Y255600D01*
X315622Y255700D01*
X317400Y254900D01*
Y254900D01*
X341511D01*
X341596Y254818D01*
X342069Y254561D01*
X342496Y254233D01*
X343220Y253933D01*
X343908Y253558D01*
X344431Y253431D01*
X344929Y253225D01*
X345706Y253123D01*
X346468Y252939D01*
X347005Y252952D01*
X347539Y252882D01*
X348316Y252984D01*
X349100Y253003D01*
X349616Y253155D01*
X350149Y253225D01*
X350874Y253525D01*
X351442Y253693D01*
X351641Y253615D01*
X352747Y253157D01*
X352868Y253141D01*
X352981Y253098D01*
X354171Y252970D01*
X355358Y252814D01*
X355478Y252830D01*
X355599Y252817D01*
X356782Y253001D01*
X357968Y253157D01*
X358080Y253204D01*
X358201Y253223D01*
X359295Y253707D01*
X360401Y254165D01*
X360497Y254239D01*
X360608Y254288D01*
X361540Y255039D01*
X362490Y255768D01*
X362564Y255865D01*
X362658Y255941D01*
X363364Y256907D01*
X364093Y257857D01*
X364139Y257969D01*
X364211Y258067D01*
X364642Y259184D01*
X365100Y260289D01*
X365116Y260410D01*
X365160Y260523D01*
X365288Y261714D01*
X365444Y262900D01*
Y267100D01*
X365288Y268286D01*
X365160Y269477D01*
X365116Y269590D01*
X365100Y269711D01*
X364642Y270816D01*
X364211Y271933D01*
X364139Y272031D01*
X364093Y272143D01*
X363364Y273093D01*
X362658Y274059D01*
X362564Y274136D01*
X362490Y274232D01*
X361540Y274961D01*
X360608Y275712D01*
X360497Y275761D01*
X360401Y275835D01*
X359295Y276293D01*
X358201Y276777D01*
X358080Y276796D01*
X357968Y276843D01*
X356782Y276999D01*
X355599Y277183D01*
X355478Y277170D01*
X355358Y277186D01*
X354172Y277030D01*
X352981Y276902D01*
X352868Y276859D01*
X352747Y276843D01*
X351642Y276385D01*
X351442Y276307D01*
X350874Y276475D01*
X350149Y276775D01*
X349616Y276845D01*
X349100Y276997D01*
X348380Y277014D01*
X348236Y277202D01*
X347814Y277526D01*
X347448Y277911D01*
X346774Y278323D01*
X346147Y278804D01*
X345656Y279008D01*
X345202Y279286D01*
X344445Y279510D01*
X343972Y279706D01*
X343274Y280241D01*
X343191Y280275D01*
X343182Y280282D01*
X343161Y280453D01*
X343594Y282060D01*
X356540D01*
Y290830D01*
X343500D01*
Y292100D01*
X342230D01*
Y302140D01*
X333634D01*
Y305000D01*
X359000D01*
Y330000D01*
X328000D01*
Y328253D01*
X327608Y327953D01*
X327052Y327705D01*
X325955Y327251D01*
X325851Y327171D01*
X325731Y327117D01*
X324808Y326371D01*
X323866Y325648D01*
X323786Y325544D01*
X323684Y325461D01*
X322986Y324501D01*
X322263Y323559D01*
X322213Y323438D01*
X322136Y323331D01*
X321710Y322223D01*
X321256Y321127D01*
X321239Y320996D01*
X321191Y320873D01*
X321067Y319693D01*
X320912Y318516D01*
Y316484D01*
X321067Y315307D01*
X321191Y314127D01*
X321239Y314004D01*
X321256Y313874D01*
X321366Y313607D01*
Y280800D01*
X321620Y279525D01*
X321190Y278977D01*
X320033Y278391D01*
X319217Y278737D01*
X318135Y279228D01*
X318007Y279249D01*
X317888Y279300D01*
X316710Y279465D01*
X315538Y279660D01*
X315409Y279647D01*
X315280Y279665D01*
X314100Y279520D01*
X312917Y279405D01*
X312796Y279359D01*
X312667Y279343D01*
X311565Y278897D01*
X310452Y278479D01*
X310346Y278404D01*
X310226Y278356D01*
X309277Y277640D01*
X308310Y276948D01*
X305242Y274080D01*
X305198Y274027D01*
X304469Y274617D01*
X304349Y274671D01*
X304245Y274751D01*
X303148Y275205D01*
X302592Y275453D01*
X302182Y275767D01*
X301685Y275973D01*
X301226Y276253D01*
X300474Y276475D01*
X299750Y276775D01*
X299216Y276845D01*
X298700Y276997D01*
X297916Y277016D01*
X297139Y277118D01*
X296605Y277048D01*
X296068Y277061D01*
X295306Y276877D01*
X294529Y276775D01*
X294031Y276569D01*
X293508Y276442D01*
X292820Y276067D01*
X292096Y275767D01*
X291669Y275439D01*
X291196Y275182D01*
X291110Y275100D01*
X287472D01*
X287467Y275113D01*
X287121Y275563D01*
X286904Y276050D01*
X286451Y277145D01*
X286370Y277251D01*
X286315Y277373D01*
X285569Y278294D01*
X284848Y279234D01*
X284742Y279315D01*
X284658Y279419D01*
X283699Y280115D01*
X282834Y280779D01*
Y305800D01*
X282367Y308147D01*
X281037Y310137D01*
X275040Y316134D01*
X275086Y316484D01*
Y318516D01*
X274931Y319693D01*
X274807Y320874D01*
X274760Y320996D01*
X274743Y321127D01*
X274288Y322223D01*
X273862Y323331D01*
X273785Y323438D01*
X273735Y323559D01*
X273012Y324501D01*
X272314Y325461D01*
X272212Y325544D01*
X272132Y325648D01*
X271190Y326371D01*
X270267Y327118D01*
X270147Y327171D01*
X270043Y327251D01*
X268946Y327705D01*
X268389Y327953D01*
X268000Y328252D01*
Y330000D01*
X237000D01*
Y310816D01*
X236759Y309053D01*
X235576Y308869D01*
X234389Y308713D01*
X234277Y308666D01*
X234157Y308647D01*
X233063Y308163D01*
X231957Y307705D01*
X231860Y307631D01*
X231749Y307582D01*
X230086Y308525D01*
Y315000D01*
X229743Y317611D01*
X228735Y320043D01*
X227132Y322132D01*
X217586Y331678D01*
Y361547D01*
X217500Y362203D01*
Y362864D01*
X217329Y363502D01*
X217243Y364158D01*
X216990Y364769D01*
X216819Y365407D01*
X216488Y365980D01*
X216235Y366591D01*
X215833Y367115D01*
X215502Y367688D01*
X215035Y368155D01*
X214632Y368680D01*
X214107Y369082D01*
X213640Y369549D01*
X213068Y369880D01*
X212543Y370282D01*
X211932Y370535D01*
X211360Y370866D01*
X209717Y371546D01*
X209079Y371717D01*
X208468Y371970D01*
X207812Y372057D01*
X207174Y372228D01*
X206513D01*
X205857Y372314D01*
X205786Y372305D01*
X204727Y373223D01*
X204389Y373930D01*
X195000D01*
Y375200D01*
X193730D01*
Y384581D01*
X191376Y383950D01*
X189234Y382714D01*
X187486Y380966D01*
X186874Y379905D01*
X184692Y379573D01*
X179632Y384632D01*
X177543Y386235D01*
X175110Y387243D01*
X172500Y387586D01*
X130000D01*
X127389Y387243D01*
X124957Y386235D01*
X122868Y384632D01*
X121265Y382543D01*
X120257Y380111D01*
X119914Y377500D01*
Y320500D01*
X95540D01*
Y346230D01*
X83000D01*
X70460D01*
Y319960D01*
X78000D01*
Y280500D01*
X135421D01*
X136323Y278722D01*
X135150Y276966D01*
X133034Y274850D01*
X130546Y273188D01*
X127781Y272042D01*
X124602Y271410D01*
X123102Y271336D01*
X43515D01*
X42387Y272711D01*
X42500Y273276D01*
Y276724D01*
X41828Y280105D01*
X40508Y283289D01*
X38593Y286156D01*
X36156Y288593D01*
X33289Y290508D01*
X30105Y291828D01*
X26724Y292500D01*
X23276D01*
X19895Y291828D01*
X16711Y290508D01*
X13844Y288593D01*
X11407Y286156D01*
X9492Y283289D01*
X8173Y280105D01*
X7500Y276724D01*
Y273276D01*
X8173Y269895D01*
X9492Y266711D01*
X11236Y264100D01*
X10378Y262816D01*
X9134Y259813D01*
X8500Y256625D01*
Y253375D01*
X9134Y250187D01*
X10378Y247184D01*
X11837Y245000D01*
X10378Y242816D01*
X9134Y239813D01*
X8500Y236625D01*
Y233375D01*
X9134Y230187D01*
X10378Y227184D01*
X11837Y225000D01*
X10378Y222816D01*
X9134Y219813D01*
X8500Y216625D01*
Y213375D01*
X9134Y210187D01*
X10378Y207184D01*
X11236Y205900D01*
X9492Y203289D01*
X8173Y200105D01*
X7500Y196724D01*
Y193276D01*
X8173Y189895D01*
X9466Y186773D01*
X9143Y185942D01*
X8612Y185102D01*
X8229Y185159D01*
X5608Y185287D01*
Y408392D01*
X15000D01*
X15000Y408392D01*
Y408392D01*
X15215Y408435D01*
X19158Y408745D01*
X23214Y409719D01*
X27068Y411315D01*
X30624Y413495D01*
X33796Y416204D01*
X36505Y419375D01*
X38685Y422932D01*
X40281Y426786D01*
X42056Y426563D01*
Y422900D01*
X42212Y421714D01*
X42340Y420523D01*
X42384Y420410D01*
X42400Y420289D01*
X42858Y419184D01*
X43289Y418068D01*
X43361Y417969D01*
X43407Y417857D01*
X44136Y416907D01*
X44842Y415941D01*
X44936Y415864D01*
X45010Y415768D01*
X45960Y415039D01*
X46891Y414288D01*
X47003Y414239D01*
X47099Y414165D01*
X48205Y413707D01*
X49299Y413223D01*
X49419Y413204D01*
X49532Y413157D01*
X50718Y413001D01*
X51901Y412817D01*
X52022Y412830D01*
X52142Y412814D01*
X53328Y412970D01*
X54519Y413098D01*
X54632Y413142D01*
X54753Y413157D01*
X54934Y413232D01*
X54950Y413225D01*
X55484Y413155D01*
X56000Y413003D01*
X56784Y412984D01*
X57561Y412882D01*
X58095Y412952D01*
X58632Y412939D01*
X59394Y413123D01*
X60171Y413225D01*
X60669Y413431D01*
X61192Y413558D01*
X61880Y413933D01*
X62604Y414233D01*
X63031Y414561D01*
X63504Y414818D01*
X64071Y415359D01*
X64693Y415836D01*
X65021Y416263D01*
X65163Y416399D01*
X67347Y416833D01*
X69337Y418163D01*
X70667Y420153D01*
X71134Y422500D01*
X70667Y424847D01*
X69337Y426837D01*
X67502Y428672D01*
X67374Y429109D01*
X67304Y429642D01*
X67004Y430367D01*
X66782Y431119D01*
X66502Y431578D01*
X66296Y432075D01*
X65819Y432697D01*
X65410Y433366D01*
X65021Y433737D01*
X64909Y433883D01*
X64785Y435000D01*
X64909Y436117D01*
X65021Y436263D01*
X65410Y436634D01*
X65819Y437303D01*
X66296Y437925D01*
X66502Y438422D01*
X66782Y438881D01*
X66888Y439242D01*
X67347Y439333D01*
X69337Y440663D01*
X70667Y442653D01*
X71134Y445000D01*
X70667Y447347D01*
X69337Y449337D01*
X67347Y450667D01*
X66888Y450758D01*
X66782Y451119D01*
X66502Y451578D01*
X66296Y452075D01*
X65819Y452697D01*
X65410Y453366D01*
X65154Y453610D01*
X65186Y453858D01*
X65170Y453978D01*
X65183Y454099D01*
X64999Y455282D01*
X64843Y456468D01*
X64796Y456581D01*
X64777Y456701D01*
X64293Y457795D01*
X63835Y458901D01*
X63761Y458997D01*
X63712Y459109D01*
X62961Y460040D01*
X62232Y460990D01*
X62136Y461064D01*
X62059Y461158D01*
X61093Y461864D01*
X60143Y462593D01*
X60031Y462639D01*
X59932Y462711D01*
X58816Y463142D01*
X57710Y463600D01*
X57590Y463616D01*
X57477Y463660D01*
X56286Y463788D01*
X55100Y463944D01*
X50900D01*
X49714Y463788D01*
X48524Y463660D01*
X48410Y463616D01*
X48289Y463600D01*
X47184Y463142D01*
X46068Y462711D01*
X45969Y462639D01*
X45857Y462593D01*
X44907Y461864D01*
X43941Y461158D01*
X43864Y461064D01*
X43768Y460990D01*
X43039Y460040D01*
X42288Y459109D01*
X42239Y458997D01*
X42165Y458901D01*
X41707Y457795D01*
X41223Y456701D01*
X41204Y456581D01*
X41157Y456468D01*
X41001Y455282D01*
X40817Y454099D01*
X40830Y453978D01*
X40814Y453858D01*
X40970Y452672D01*
X41098Y451481D01*
X41142Y451368D01*
X41157Y451247D01*
X41615Y450141D01*
X42047Y449025D01*
X42119Y448927D01*
X42165Y448814D01*
X42288Y448654D01*
X42317Y448585D01*
X42350Y448392D01*
X42819Y447372D01*
X43249Y446334D01*
X43369Y446178D01*
X43451Y446000D01*
X44168Y445136D01*
X44852Y444245D01*
X45008Y444126D01*
X45133Y443974D01*
X45442Y443756D01*
X45567Y442807D01*
X45691Y441627D01*
X45739Y441504D01*
X45756Y441373D01*
X46210Y440277D01*
X46636Y439169D01*
X46713Y439062D01*
X46764Y438941D01*
X47486Y437999D01*
X47530Y437939D01*
X47532Y437934D01*
X47107Y435872D01*
X47007Y435764D01*
X47003Y435761D01*
X46891Y435712D01*
X45960Y434961D01*
X45010Y434232D01*
X44936Y434136D01*
X44842Y434059D01*
X44136Y433093D01*
X43407Y432143D01*
X43361Y432031D01*
X43289Y431932D01*
X43082Y431396D01*
X41330Y431794D01*
X41582Y435000D01*
X41255Y439158D01*
X40281Y443214D01*
X38685Y447068D01*
X36505Y450625D01*
X33796Y453796D01*
X30624Y456505D01*
X27068Y458685D01*
X23214Y460281D01*
X19158Y461255D01*
X15215Y461565D01*
X15000Y461608D01*
X5578D01*
Y684711D01*
X8229Y684841D01*
X17631Y686236D01*
X26852Y688546D01*
X35802Y691748D01*
X44394Y695812D01*
X52547Y700699D01*
X60182Y706361D01*
X67225Y712745D01*
X73609Y719788D01*
X79271Y727422D01*
X84158Y735575D01*
X88222Y744168D01*
X91424Y753118D01*
X93734Y762339D01*
X95129Y771741D01*
X95595Y781235D01*
X95543Y782295D01*
X95578Y782470D01*
Y859849D01*
X95608Y860000D01*
X95608D01*
X95873Y861668D01*
X95881Y861706D01*
X96847Y863153D01*
X98294Y864119D01*
X99833Y864426D01*
X100000Y864392D01*
D02*
G37*
G36*
X281042Y660731D02*
X282316Y660203D01*
X283462Y659437D01*
X284437Y658462D01*
X285203Y657316D01*
X285731Y656042D01*
X286000Y654689D01*
Y654000D01*
Y606000D01*
X286000D01*
X286000Y524112D01*
X286058Y523527D01*
X286506Y522445D01*
X287334Y521618D01*
X288415Y521170D01*
X289000Y521112D01*
X296597D01*
X297700Y520655D01*
X298544Y519811D01*
X299000Y518709D01*
Y518112D01*
Y477000D01*
X397000Y477000D01*
Y518112D01*
X397000Y518709D01*
X397457Y519811D01*
X398301Y520655D01*
X399403Y521112D01*
X400000Y521112D01*
X400000Y521112D01*
X406000D01*
X406780Y521189D01*
X408222Y521786D01*
X409326Y522890D01*
X409923Y524332D01*
X410000Y525112D01*
X410000Y525112D01*
Y594000D01*
X410780Y594077D01*
X412222Y594674D01*
X413326Y595778D01*
X413923Y597220D01*
X414000Y598000D01*
Y629000D01*
X413962Y629390D01*
X413663Y630111D01*
X413111Y630663D01*
X412390Y630962D01*
X412000Y631000D01*
X408000D01*
Y637000D01*
X419689D01*
X421042Y636731D01*
X422316Y636203D01*
X423462Y635437D01*
X424437Y634462D01*
X425203Y633316D01*
X425731Y632042D01*
X426000Y630689D01*
Y630000D01*
Y582000D01*
X425999D01*
X426000Y524112D01*
X426058Y523527D01*
X426506Y522445D01*
X427333Y521618D01*
X428415Y521170D01*
X429000Y521112D01*
X436597D01*
X437699Y520655D01*
X438543Y519811D01*
X439000Y518709D01*
Y518112D01*
Y473666D01*
X441950Y472443D01*
X447059Y469493D01*
X451740Y465900D01*
X455911Y461727D01*
X459502Y457046D01*
X462451Y451935D01*
X464707Y446483D01*
X466233Y440784D01*
X467001Y434934D01*
X467000Y431984D01*
X467000Y397764D01*
X467000D01*
Y317000D01*
Y233000D01*
Y141553D01*
X348673D01*
Y143553D01*
X350000D01*
X381508Y162000D01*
Y162052D01*
X426000D01*
Y233000D01*
Y317000D01*
X426000D01*
Y397764D01*
X426720D01*
X426034Y399419D01*
X424316Y402562D01*
X422168Y405428D01*
X419633Y407958D01*
X416763Y410101D01*
X413616Y411813D01*
X410258Y413058D01*
X406757Y413812D01*
X404975Y414000D01*
X157000Y414000D01*
Y414504D01*
X151250D01*
Y582500D01*
X193750D01*
Y477000D01*
X257000Y477000D01*
Y518112D01*
X257000Y518709D01*
X257457Y519811D01*
X258301Y520655D01*
X259404Y521112D01*
X260000Y521112D01*
X260000Y521112D01*
X266000D01*
X266781Y521189D01*
X268223Y521786D01*
X269326Y522890D01*
X269923Y524332D01*
X270000Y525112D01*
X270000Y525112D01*
Y615880D01*
X270781Y615957D01*
X272222Y616554D01*
X273326Y617658D01*
X273923Y619099D01*
X274000Y619880D01*
Y653000D01*
X273962Y653390D01*
X273663Y654111D01*
X273111Y654663D01*
X272390Y654962D01*
X272000Y655000D01*
X268000D01*
Y661000D01*
X279689D01*
X281042Y660731D01*
D02*
G37*
G36*
X54894Y453642D02*
X54710Y453418D01*
X54547Y453188D01*
X54406Y452951D01*
X54287Y452706D01*
X54189Y452455D01*
X54114Y452196D01*
X54059Y451930D01*
X54027Y451657D01*
X54016Y451377D01*
X51984D01*
X51973Y451657D01*
X51941Y451930D01*
X51886Y452196D01*
X51811Y452455D01*
X51713Y452706D01*
X51594Y452951D01*
X51453Y453188D01*
X51290Y453418D01*
X51106Y453642D01*
X50900Y453858D01*
X55100D01*
X54894Y453642D01*
D02*
G37*
G36*
X57561Y442968D02*
X57540Y443161D01*
X57478Y443334D01*
X57375Y443486D01*
X57231Y443618D01*
X57045Y443730D01*
X56818Y443821D01*
X56550Y443893D01*
X56241Y443943D01*
X55890Y443974D01*
X55498Y443984D01*
Y446016D01*
X55890Y446026D01*
X56241Y446057D01*
X56550Y446107D01*
X56818Y446179D01*
X57045Y446270D01*
X57231Y446382D01*
X57375Y446514D01*
X57478Y446666D01*
X57540Y446839D01*
X57561Y447032D01*
Y442968D01*
D02*
G37*
G36*
Y422968D02*
X57540Y423161D01*
X57478Y423334D01*
X57375Y423486D01*
X57231Y423618D01*
X57045Y423730D01*
X56818Y423821D01*
X56550Y423893D01*
X56241Y423943D01*
X55890Y423974D01*
X55498Y423984D01*
Y426016D01*
X55890Y426026D01*
X56241Y426057D01*
X56550Y426107D01*
X56818Y426179D01*
X57045Y426270D01*
X57231Y426382D01*
X57375Y426514D01*
X57478Y426666D01*
X57540Y426839D01*
X57561Y427032D01*
Y422968D01*
D02*
G37*
G36*
X52358Y426894D02*
X52582Y426710D01*
X52812Y426547D01*
X53049Y426406D01*
X53294Y426287D01*
X53545Y426189D01*
X53804Y426114D01*
X54070Y426059D01*
X54343Y426027D01*
X54623Y426016D01*
Y423984D01*
X54343Y423973D01*
X54070Y423941D01*
X53804Y423886D01*
X53545Y423811D01*
X53294Y423713D01*
X53049Y423594D01*
X52812Y423453D01*
X52582Y423290D01*
X52358Y423106D01*
X52142Y422900D01*
Y427100D01*
X52358Y426894D01*
D02*
G37*
G36*
X262960Y319338D02*
X263022Y319165D01*
X263125Y319013D01*
X263269Y318881D01*
X263454Y318770D01*
X263681Y318678D01*
X263949Y318607D01*
X264258Y318557D01*
X264608Y318526D01*
X265000Y318516D01*
Y316484D01*
X264608Y316474D01*
X264258Y316443D01*
X263949Y316393D01*
X263681Y316322D01*
X263454Y316230D01*
X263269Y316119D01*
X263125Y315987D01*
X263022Y315835D01*
X262960Y315662D01*
X262939Y315469D01*
Y319531D01*
X262960Y319338D01*
D02*
G37*
G36*
X333061Y315468D02*
X333040Y315661D01*
X332979Y315834D01*
X332875Y315986D01*
X332731Y316118D01*
X332545Y316230D01*
X332318Y316321D01*
X332050Y316393D01*
X331741Y316443D01*
X331390Y316474D01*
X330998Y316484D01*
Y318516D01*
X331390Y318526D01*
X331741Y318557D01*
X332050Y318607D01*
X332318Y318679D01*
X332545Y318770D01*
X332731Y318882D01*
X332875Y319014D01*
X332979Y319166D01*
X333040Y319339D01*
X333061Y319532D01*
Y315468D01*
D02*
G37*
G36*
X237007Y298672D02*
X237034Y298384D01*
X237082Y298106D01*
X237150Y297838D01*
X237239Y297581D01*
X237348Y297334D01*
X237477Y297098D01*
X237627Y296871D01*
X237797Y296655D01*
X237987Y296450D01*
X236550Y295013D01*
X236345Y295203D01*
X236129Y295373D01*
X235902Y295523D01*
X235666Y295652D01*
X235419Y295761D01*
X235162Y295849D01*
X234894Y295918D01*
X234617Y295965D01*
X234328Y295993D01*
X234030Y296000D01*
X237000Y298970D01*
X237007Y298672D01*
D02*
G37*
G36*
X242061Y290970D02*
X242041Y291140D01*
X241983Y291293D01*
X241886Y291428D01*
X241750Y291544D01*
X241575Y291643D01*
X241361Y291724D01*
X241108Y291787D01*
X240816Y291832D01*
X240486Y291859D01*
X240116Y291868D01*
Y293900D01*
X240486Y293909D01*
X240816Y293936D01*
X241108Y293981D01*
X241361Y294044D01*
X241575Y294125D01*
X241750Y294223D01*
X241886Y294340D01*
X241983Y294475D01*
X242041Y294628D01*
X242061Y294798D01*
Y290970D01*
D02*
G37*
G36*
X277726Y271715D02*
X277757Y271370D01*
X277807Y271065D01*
X277878Y270801D01*
X277970Y270578D01*
X278082Y270395D01*
X278214Y270252D01*
X278366Y270151D01*
X278539Y270090D01*
X278732Y270070D01*
X274668D01*
X274861Y270090D01*
X275034Y270151D01*
X275186Y270252D01*
X275318Y270395D01*
X275430Y270578D01*
X275521Y270801D01*
X275592Y271065D01*
X275643Y271370D01*
X275674Y271715D01*
X275684Y272101D01*
X277716D01*
X277726Y271715D01*
D02*
G37*
G36*
X338647Y271104D02*
X339394Y270472D01*
X339725Y270242D01*
X340027Y270070D01*
X340299Y269955D01*
X340544Y269897D01*
X340759D01*
X340946Y269955D01*
X341104Y270070D01*
X338231Y267196D01*
X338345Y267354D01*
X338403Y267541D01*
Y267756D01*
X338345Y268001D01*
X338231Y268274D01*
X338058Y268575D01*
X337828Y268906D01*
X337541Y269265D01*
X336794Y270070D01*
X338231Y271506D01*
X338647Y271104D01*
D02*
G37*
G36*
X315195Y269283D02*
X315214Y268997D01*
X315254Y268720D01*
X315317Y268454D01*
X315400Y268197D01*
X315505Y267951D01*
X315632Y267714D01*
X315780Y267488D01*
X315949Y267271D01*
X316140Y267064D01*
X314652Y265679D01*
X314447Y265869D01*
X314232Y266039D01*
X314006Y266190D01*
X313770Y266322D01*
X313523Y266435D01*
X313265Y266529D01*
X312997Y266603D01*
X312718Y266658D01*
X312429Y266695D01*
X312129Y266711D01*
X315197Y269579D01*
X315195Y269283D01*
D02*
G37*
G36*
X347560Y266839D02*
X347621Y266666D01*
X347725Y266514D01*
X347869Y266382D01*
X348055Y266270D01*
X348282Y266179D01*
X348550Y266107D01*
X348859Y266057D01*
X349210Y266026D01*
X349602Y266016D01*
Y263984D01*
X349210Y263974D01*
X348859Y263943D01*
X348550Y263893D01*
X348282Y263821D01*
X348055Y263730D01*
X347869Y263618D01*
X347725Y263486D01*
X347621Y263334D01*
X347560Y263161D01*
X347539Y262968D01*
Y267032D01*
X347560Y266839D01*
D02*
G37*
G36*
X297160D02*
X297222Y266666D01*
X297325Y266514D01*
X297469Y266382D01*
X297655Y266270D01*
X297882Y266179D01*
X298150Y266107D01*
X298459Y266057D01*
X298810Y266026D01*
X299202Y266016D01*
Y263984D01*
X298810Y263974D01*
X298459Y263943D01*
X298150Y263893D01*
X297882Y263821D01*
X297655Y263730D01*
X297469Y263618D01*
X297325Y263486D01*
X297222Y263334D01*
X297160Y263161D01*
X297139Y262968D01*
Y267032D01*
X297160Y266839D01*
D02*
G37*
G36*
X355358Y262900D02*
X355141Y263106D01*
X354918Y263290D01*
X354688Y263453D01*
X354451Y263594D01*
X354206Y263713D01*
X353955Y263811D01*
X353696Y263886D01*
X353430Y263941D01*
X353157Y263973D01*
X352877Y263984D01*
Y266016D01*
X353157Y266027D01*
X353430Y266059D01*
X353696Y266114D01*
X353955Y266189D01*
X354206Y266287D01*
X354451Y266406D01*
X354688Y266547D01*
X354918Y266710D01*
X355141Y266894D01*
X355358Y267100D01*
Y262900D01*
D02*
G37*
G36*
X302905Y263047D02*
X303121Y262877D01*
X303348Y262727D01*
X303584Y262598D01*
X303831Y262489D01*
X304088Y262400D01*
X304356Y262332D01*
X304634Y262285D01*
X304922Y262257D01*
X305220Y262250D01*
X302250Y259280D01*
X302243Y259578D01*
X302215Y259867D01*
X302168Y260144D01*
X302099Y260412D01*
X302011Y260669D01*
X301902Y260916D01*
X301773Y261152D01*
X301623Y261379D01*
X301453Y261595D01*
X301263Y261800D01*
X302700Y263237D01*
X302905Y263047D01*
D02*
G37*
G36*
X178570Y371430D02*
X178797Y370285D01*
X180068Y367219D01*
X181912Y364459D01*
X184259Y362112D01*
X185970Y360968D01*
X185610Y359190D01*
X185610D01*
Y351070D01*
X195000D01*
X204390D01*
Y359190D01*
X204390D01*
X204030Y360968D01*
X205741Y362112D01*
X205857Y362228D01*
X207500Y361547D01*
Y327500D01*
X220000Y315000D01*
Y248750D01*
X23757D01*
X21460Y249701D01*
X19701Y251460D01*
X18750Y253757D01*
Y255000D01*
Y256243D01*
X19701Y258540D01*
X21460Y260299D01*
X23757Y261250D01*
X123350D01*
X125840Y261372D01*
X130723Y262344D01*
X135323Y264249D01*
X139464Y267015D01*
X142984Y270536D01*
X145751Y274676D01*
X147656Y279277D01*
X148628Y284160D01*
X148750Y286650D01*
Y317500D01*
X130000D01*
Y320500D01*
Y377500D01*
X172500D01*
X178570Y371430D01*
D02*
G37*
G36*
X174460Y238540D02*
Y227320D01*
X172682Y226966D01*
X172197Y228138D01*
X170638Y229697D01*
X168770Y230470D01*
Y225000D01*
Y219530D01*
X170638Y220303D01*
X172197Y221862D01*
X172682Y223034D01*
X174460Y222680D01*
Y215086D01*
X105086D01*
Y218352D01*
X104957Y219332D01*
X104893Y220319D01*
X103916Y225227D01*
X103598Y226164D01*
X103342Y227119D01*
X101428Y231741D01*
X100933Y232598D01*
X100496Y233485D01*
X98223Y236886D01*
X99148Y238664D01*
X172733D01*
X174460Y238540D01*
D02*
G37*
G36*
X340356Y201993D02*
X340183Y201931D01*
X340031Y201828D01*
X339899Y201684D01*
X339787Y201498D01*
X339696Y201271D01*
X339624Y201003D01*
X339574Y200694D01*
X339543Y200343D01*
X339533Y199951D01*
X337501D01*
X337491Y200343D01*
X337460Y200694D01*
X337410Y201003D01*
X337338Y201271D01*
X337247Y201498D01*
X337135Y201684D01*
X337003Y201828D01*
X336851Y201931D01*
X336678Y201993D01*
X336485Y202014D01*
X340549D01*
X340356Y201993D01*
D02*
G37*
G36*
X325487D02*
X325314Y201931D01*
X325162Y201828D01*
X325029Y201684D01*
X324918Y201498D01*
X324826Y201271D01*
X324755Y201003D01*
X324704Y200694D01*
X324674Y200343D01*
X324664Y199951D01*
X322632D01*
X322621Y200343D01*
X322591Y200694D01*
X322540Y201003D01*
X322469Y201271D01*
X322378Y201498D01*
X322266Y201684D01*
X322134Y201828D01*
X321981Y201931D01*
X321809Y201993D01*
X321616Y202014D01*
X325680D01*
X325487Y201993D01*
D02*
G37*
G36*
X340155Y198797D02*
X340371Y198627D01*
X340598Y198477D01*
X340834Y198348D01*
X341081Y198239D01*
X341338Y198151D01*
X341606Y198082D01*
X341884Y198034D01*
X342172Y198007D01*
X342470Y198000D01*
X339500Y195030D01*
X339493Y195328D01*
X339465Y195616D01*
X339418Y195894D01*
X339350Y196162D01*
X339261Y196419D01*
X339152Y196666D01*
X339023Y196902D01*
X338873Y197129D01*
X338703Y197345D01*
X338513Y197550D01*
X339950Y198987D01*
X340155Y198797D01*
D02*
G37*
G36*
X344394Y192642D02*
X344210Y192418D01*
X344047Y192188D01*
X343906Y191951D01*
X343787Y191706D01*
X343689Y191455D01*
X343614Y191196D01*
X343559Y190930D01*
X343527Y190657D01*
X343516Y190377D01*
X341484D01*
X341473Y190657D01*
X341441Y190930D01*
X341386Y191196D01*
X341311Y191455D01*
X341213Y191706D01*
X341094Y191951D01*
X340953Y192188D01*
X340790Y192418D01*
X340606Y192642D01*
X340400Y192858D01*
X344600D01*
X344394Y192642D01*
D02*
G37*
G36*
X336894Y185142D02*
X336710Y184918D01*
X336547Y184688D01*
X336406Y184451D01*
X336287Y184206D01*
X336189Y183955D01*
X336114Y183696D01*
X336059Y183430D01*
X336027Y183157D01*
X336016Y182877D01*
X333984D01*
X333973Y183157D01*
X333941Y183430D01*
X333886Y183696D01*
X333811Y183955D01*
X333713Y184206D01*
X333594Y184451D01*
X333453Y184688D01*
X333290Y184918D01*
X333106Y185142D01*
X332900Y185358D01*
X337100D01*
X336894Y185142D01*
D02*
G37*
G36*
X327834Y173941D02*
X327802Y173677D01*
X327799Y173419D01*
X327823Y173167D01*
X327876Y172923D01*
X327958Y172684D01*
X328068Y172452D01*
X328206Y172227D01*
X328373Y172008D01*
X328568Y171795D01*
X326727Y170762D01*
X326532Y170946D01*
X326325Y171119D01*
X326107Y171280D01*
X325878Y171430D01*
X325638Y171569D01*
X325387Y171696D01*
X325124Y171812D01*
X324566Y172009D01*
X324270Y172090D01*
X327895Y174212D01*
X327834Y173941D01*
D02*
G37*
G36*
X77009Y240274D02*
X81631Y238359D01*
X85792Y235579D01*
X89329Y232041D01*
X92109Y227881D01*
X94024Y223259D01*
X95000Y218352D01*
Y215850D01*
Y213550D01*
X95041Y212712D01*
X95368Y211068D01*
X96010Y209520D01*
X96941Y208126D01*
X98126Y206941D01*
X99520Y206010D01*
X101068Y205368D01*
X102712Y205041D01*
X103550Y205000D01*
X312000D01*
Y181000D01*
X321000Y172000D01*
Y160000D01*
X324904Y156096D01*
Y149581D01*
X237139D01*
X235609Y149886D01*
X234168Y150483D01*
X232871Y151349D01*
X231768Y152452D01*
X230901Y153749D01*
X230304Y155190D01*
X230000Y156720D01*
Y157500D01*
Y160000D01*
X229904Y160975D01*
X229157Y162778D01*
X227778Y164157D01*
X225975Y164904D01*
X225000Y165000D01*
X81400D01*
X79669Y165000D01*
X76238Y165452D01*
X72895Y166347D01*
X69698Y167672D01*
X66701Y169402D01*
X63956Y171509D01*
X61509Y173956D01*
X59402Y176701D01*
X57672Y179698D01*
X56347Y182896D01*
X55452Y186238D01*
X55000Y189669D01*
X55000Y191400D01*
Y198239D01*
Y211250D01*
X54916Y212965D01*
X54246Y216330D01*
X52934Y219499D01*
X51028Y222352D01*
X48602Y224778D01*
X45749Y226684D01*
X42580Y227996D01*
X39215Y228666D01*
X37500Y228750D01*
X23757D01*
X21460Y229701D01*
X19701Y231460D01*
X18750Y233757D01*
Y235000D01*
Y236243D01*
X19701Y238540D01*
X21460Y240299D01*
X23757Y241250D01*
X72102D01*
X77009Y240274D01*
D02*
G37*
G36*
X530000Y107500D02*
X487500D01*
X487434Y108839D01*
X486912Y111465D01*
X485887Y113938D01*
X484400Y116165D01*
X482506Y118058D01*
X480280Y119545D01*
X477807Y120570D01*
X475181Y121092D01*
X473842Y121158D01*
X363407D01*
X347000Y137565D01*
Y139540D01*
X421000D01*
Y139446D01*
X471946D01*
X473470Y139521D01*
X476461Y140116D01*
X479278Y141283D01*
X481813Y142977D01*
X483969Y145133D01*
X485663Y147668D01*
X486830Y150485D01*
X487425Y153475D01*
X487500Y155000D01*
X530000D01*
Y107500D01*
D02*
G37*
G36*
X324490Y145565D02*
X320565D01*
X316000Y141000D01*
Y137000D01*
X309000Y130000D01*
X297000D01*
X293000Y126000D01*
Y104000D01*
X289000Y100000D01*
X235000D01*
X235000Y143000D01*
X314000D01*
X318531Y147531D01*
X324490D01*
Y145565D01*
D02*
G37*
G36*
X70285Y156605D02*
X73628Y155709D01*
X74283Y155623D01*
X74922Y155452D01*
X78353Y155000D01*
X79014D01*
X79669Y154914D01*
X81400Y154914D01*
X158460D01*
Y146960D01*
X176540D01*
Y154914D01*
X178460D01*
Y152030D01*
X181706D01*
X181513Y152010D01*
X181340Y151949D01*
X181187Y151848D01*
X181055Y151705D01*
X180944Y151523D01*
X180852Y151299D01*
X180781Y151035D01*
X180730Y150730D01*
X180701Y150398D01*
X180733Y150129D01*
X180787Y149863D01*
X180863Y149604D01*
X180961Y149353D01*
X181080Y149108D01*
X181221Y148871D01*
X181383Y148640D01*
X181568Y148417D01*
X181774Y148201D01*
X178460D01*
Y146960D01*
X196540D01*
Y148203D01*
X192714D01*
X192920Y148419D01*
X193104Y148643D01*
X193267Y148873D01*
X193408Y149110D01*
X193527Y149355D01*
X193625Y149606D01*
X193701Y149865D01*
X193755Y150131D01*
X193787Y150399D01*
X193757Y150730D01*
X193707Y151035D01*
X193636Y151299D01*
X193544Y151523D01*
X193432Y151705D01*
X193300Y151848D01*
X193148Y151949D01*
X192975Y152010D01*
X192782Y152030D01*
X196540D01*
Y154914D01*
X198460D01*
Y146960D01*
X216540D01*
Y154914D01*
X220097D01*
X220107Y154753D01*
X220412Y153223D01*
X220730Y152286D01*
X220986Y151330D01*
X221583Y149889D01*
X222077Y149032D01*
X222515Y148145D01*
X223381Y146848D01*
X224034Y146105D01*
X224636Y145320D01*
X225151Y144804D01*
X224914Y143000D01*
X224914Y100000D01*
X225257Y97389D01*
X226265Y94957D01*
X227868Y92868D01*
X229261Y91799D01*
X228364Y90246D01*
X227796Y90481D01*
X224686Y91100D01*
X221514D01*
X218404Y90481D01*
X215474Y89268D01*
X212837Y87506D01*
X211623Y86292D01*
X210400Y85404D01*
X209177Y86292D01*
X207963Y87506D01*
X205326Y89268D01*
X202396Y90481D01*
X199286Y91100D01*
X196114D01*
X193004Y90481D01*
X190074Y89268D01*
X187437Y87506D01*
X186223Y86292D01*
X185000Y85404D01*
X183777Y86292D01*
X182563Y87506D01*
X179926Y89268D01*
X176996Y90481D01*
X173886Y91100D01*
X170714D01*
X167604Y90481D01*
X164674Y89268D01*
X162037Y87506D01*
X160823Y86292D01*
X159600Y85404D01*
X158377Y86292D01*
X157163Y87506D01*
X154526Y89268D01*
X151596Y90481D01*
X148486Y91100D01*
X145314D01*
X142204Y90481D01*
X139274Y89268D01*
X139168Y89197D01*
X137600Y90035D01*
Y91100D01*
X105400D01*
Y58900D01*
X137600D01*
Y59965D01*
X139168Y60803D01*
X139274Y60732D01*
X142204Y59519D01*
X145314Y58900D01*
X148486D01*
X151596Y59519D01*
X154526Y60732D01*
X157163Y62494D01*
X158377Y63708D01*
X159600Y64596D01*
X160823Y63708D01*
X162037Y62494D01*
X164674Y60732D01*
X167604Y59519D01*
X170714Y58900D01*
X173886D01*
X176996Y59519D01*
X179926Y60732D01*
X182563Y62494D01*
X183777Y63708D01*
X185000Y64596D01*
X186223Y63708D01*
X187437Y62494D01*
X190074Y60732D01*
X193004Y59519D01*
X196114Y58900D01*
X199286D01*
X202396Y59519D01*
X205326Y60732D01*
X207963Y62494D01*
X209177Y63708D01*
X210400Y64596D01*
X211623Y63708D01*
X212837Y62494D01*
X215474Y60732D01*
X218404Y59519D01*
X221514Y58900D01*
X224686D01*
X227796Y59519D01*
X230726Y60732D01*
X233363Y62494D01*
X234577Y63708D01*
X235800Y64596D01*
X237023Y63708D01*
X238237Y62494D01*
X240874Y60732D01*
X243804Y59519D01*
X246914Y58900D01*
X250086D01*
X253196Y59519D01*
X256126Y60732D01*
X258763Y62494D01*
X261006Y64737D01*
X262768Y67374D01*
X263981Y70304D01*
X264600Y73414D01*
Y76586D01*
X263981Y79696D01*
X262768Y82626D01*
X261006Y85263D01*
X258763Y87506D01*
X257820Y88136D01*
X258360Y89914D01*
X270683D01*
X271718Y88136D01*
X271683Y88074D01*
X271077Y87080D01*
X271034Y86931D01*
X270957Y86797D01*
X270664Y85670D01*
X270336Y84553D01*
X270332Y84399D01*
X270293Y84249D01*
X270301Y83085D01*
X270274Y81921D01*
X270310Y81771D01*
X270311Y81616D01*
X270620Y80493D01*
X270895Y79362D01*
X270969Y79226D01*
X271010Y79077D01*
X271600Y78073D01*
X272046Y77257D01*
X272082Y77179D01*
X272228Y76667D01*
X272633Y75989D01*
X272966Y75273D01*
X273307Y74864D01*
X273580Y74408D01*
X274147Y73858D01*
X274654Y73252D01*
X275089Y72946D01*
X275471Y72575D01*
X276161Y72191D01*
X276807Y71737D01*
X277307Y71554D01*
X277721Y71323D01*
X278163Y70663D01*
X289986Y58840D01*
X291976Y57510D01*
X294233Y57061D01*
Y55670D01*
X301773D01*
Y53130D01*
X294233D01*
Y47360D01*
X294233Y47360D01*
X294233D01*
X294233Y47360D01*
X293836Y45747D01*
X290948D01*
Y26347D01*
Y10547D01*
X311148D01*
Y11370D01*
X311489Y13007D01*
X317859D01*
Y20247D01*
X320399D01*
Y13007D01*
X326769D01*
X327464Y11516D01*
Y10547D01*
X347663D01*
Y19064D01*
X349260Y19602D01*
X349441Y19570D01*
X351314Y16768D01*
X353768Y14314D01*
X356654Y12385D01*
X359860Y11057D01*
X363265Y10380D01*
X366735D01*
X370140Y11057D01*
X373346Y12385D01*
X376232Y14314D01*
X378686Y16768D01*
X380615Y19654D01*
X381943Y22860D01*
X382620Y26265D01*
Y29735D01*
X382123Y32236D01*
X382520Y32996D01*
X383266Y33773D01*
X384858Y33726D01*
X385709Y32228D01*
X385532Y31922D01*
X384840Y29338D01*
Y29270D01*
X395000D01*
Y28000D01*
X396270D01*
Y17840D01*
X396338D01*
X398922Y18532D01*
X399374Y18793D01*
X400914Y17904D01*
Y5608D01*
X100000D01*
X99833Y5574D01*
X98294Y5881D01*
X96847Y6847D01*
X95881Y8294D01*
X95873Y8332D01*
X95608Y10000D01*
X95608D01*
X95578Y10151D01*
Y87530D01*
X95543Y87705D01*
X95595Y88765D01*
X95129Y98259D01*
X93734Y107662D01*
X91424Y116882D01*
X88222Y125832D01*
X84158Y134424D01*
X79271Y142578D01*
X73609Y150212D01*
X69123Y155162D01*
X70173Y156651D01*
X70285Y156605D01*
D02*
G37*
G36*
X284282Y83332D02*
X284122Y83082D01*
X283980Y82829D01*
X283857Y82573D01*
X283753Y82315D01*
X283667Y82053D01*
X283601Y81788D01*
X283554Y81519D01*
X283526Y81248D01*
X283516Y80974D01*
X281484Y80674D01*
X281472Y80958D01*
X281437Y81231D01*
X281378Y81493D01*
X281295Y81743D01*
X281189Y81982D01*
X281059Y82209D01*
X280905Y82424D01*
X280728Y82628D01*
X280527Y82821D01*
X280302Y83001D01*
X284462Y83578D01*
X284282Y83332D01*
D02*
G37*
G36*
X356969Y76710D02*
X357000Y76359D01*
X357051Y76050D01*
X357122Y75781D01*
X357213Y75555D01*
X357325Y75369D01*
X357457Y75225D01*
X357610Y75121D01*
X357782Y75060D01*
X357975Y75039D01*
X353911D01*
X354104Y75060D01*
X354277Y75121D01*
X354430Y75225D01*
X354562Y75369D01*
X354673Y75555D01*
X354765Y75781D01*
X354836Y76050D01*
X354887Y76359D01*
X354917Y76710D01*
X354927Y77101D01*
X356959D01*
X356969Y76710D01*
D02*
G37*
G36*
X338525Y76005D02*
X338556Y75655D01*
X338606Y75346D01*
X338677Y75078D01*
X338769Y74851D01*
X338880Y74666D01*
X339012Y74522D01*
X339165Y74419D01*
X339337Y74357D01*
X339530Y74336D01*
X335470D01*
X335663Y74357D01*
X335835Y74419D01*
X335988Y74522D01*
X336120Y74666D01*
X336231Y74851D01*
X336323Y75078D01*
X336394Y75346D01*
X336444Y75655D01*
X336475Y76005D01*
X336485Y76397D01*
X338515D01*
X338525Y76005D01*
D02*
G37*
G36*
X368637Y68768D02*
X368617Y68961D01*
X368555Y69134D01*
X368452Y69286D01*
X368307Y69418D01*
X368122Y69530D01*
X367895Y69622D01*
X367627Y69693D01*
X367317Y69743D01*
X366967Y69774D01*
X366575Y69784D01*
Y71816D01*
X366967Y71826D01*
X367317Y71857D01*
X367627Y71908D01*
X367895Y71979D01*
X368122Y72070D01*
X368307Y72182D01*
X368452Y72314D01*
X368555Y72466D01*
X368617Y72639D01*
X368637Y72832D01*
Y68768D01*
D02*
G37*
G36*
X361033Y72639D02*
X361094Y72466D01*
X361196Y72314D01*
X361338Y72182D01*
X361521Y72070D01*
X361744Y71979D01*
X362009Y71908D01*
X362313Y71857D01*
X362659Y71826D01*
X363045Y71816D01*
Y69784D01*
X362659Y69774D01*
X362313Y69743D01*
X362009Y69693D01*
X361744Y69622D01*
X361521Y69530D01*
X361338Y69418D01*
X361196Y69286D01*
X361094Y69134D01*
X361033Y68961D01*
X361013Y68768D01*
Y72832D01*
X361033Y72639D01*
D02*
G37*
G36*
X344070Y58567D02*
X343665Y58148D01*
X343026Y57397D01*
X342793Y57065D01*
X342618Y56763D01*
X342500Y56491D01*
X342439Y56247D01*
X342436Y56033D01*
X342491Y55848D01*
X342603Y55693D01*
X339759Y58536D01*
X339915Y58425D01*
X340099Y58370D01*
X340313Y58373D01*
X340557Y58434D01*
X340829Y58552D01*
X341131Y58727D01*
X341463Y58960D01*
X341824Y59250D01*
X342633Y60004D01*
X344070Y58567D01*
D02*
G37*
G36*
X320968Y50340D02*
X320796Y50278D01*
X320643Y50175D01*
X320511Y50031D01*
X320399Y49845D01*
X320308Y49618D01*
X320237Y49350D01*
X320186Y49041D01*
X320155Y48690D01*
X320145Y48298D01*
X318113D01*
X318103Y48690D01*
X318073Y49041D01*
X318022Y49350D01*
X317951Y49618D01*
X317859Y49845D01*
X317747Y50031D01*
X317615Y50175D01*
X317463Y50278D01*
X317290Y50340D01*
X317097Y50361D01*
X321161D01*
X320968Y50340D01*
D02*
G37*
G36*
X339403Y49238D02*
X339230Y49176D01*
X339077Y49073D01*
X338945Y48928D01*
X338834Y48743D01*
X338742Y48516D01*
X338671Y48248D01*
X338620Y47938D01*
X338590Y47588D01*
X338579Y47196D01*
X336548D01*
X336537Y47588D01*
X336507Y47938D01*
X336456Y48248D01*
X336385Y48516D01*
X336293Y48743D01*
X336182Y48928D01*
X336050Y49073D01*
X335897Y49176D01*
X335725Y49238D01*
X335532Y49258D01*
X339595D01*
X339403Y49238D01*
D02*
G37*
G36*
X338590Y42357D02*
X338620Y42006D01*
X338671Y41697D01*
X338742Y41428D01*
X338834Y41202D01*
X338945Y41016D01*
X339077Y40872D01*
X339230Y40768D01*
X339403Y40707D01*
X339595Y40686D01*
X335532D01*
X335725Y40707D01*
X335897Y40768D01*
X336050Y40872D01*
X336182Y41016D01*
X336293Y41202D01*
X336385Y41428D01*
X336456Y41697D01*
X336507Y42006D01*
X336537Y42357D01*
X336548Y42748D01*
X338579D01*
X338590Y42357D01*
D02*
G37*
G36*
X320155Y42356D02*
X320186Y42006D01*
X320237Y41696D01*
X320308Y41428D01*
X320399Y41201D01*
X320511Y41016D01*
X320643Y40871D01*
X320796Y40768D01*
X320968Y40706D01*
X321161Y40686D01*
X317097D01*
X317290Y40706D01*
X317463Y40768D01*
X317615Y40871D01*
X317747Y41016D01*
X317859Y41201D01*
X317951Y41428D01*
X318022Y41696D01*
X318073Y42006D01*
X318103Y42356D01*
X318113Y42748D01*
X320145D01*
X320155Y42356D01*
D02*
G37*
G36*
X307554Y40716D02*
X307152Y40300D01*
X306520Y39552D01*
X306290Y39222D01*
X306117Y38920D01*
X306002Y38647D01*
X305945Y38403D01*
Y38187D01*
X306002Y38001D01*
X306117Y37843D01*
X303244Y40716D01*
X303402Y40601D01*
X303588Y40544D01*
X303804D01*
X304048Y40601D01*
X304321Y40716D01*
X304623Y40889D01*
X304953Y41119D01*
X305313Y41406D01*
X306117Y42153D01*
X307554Y40716D01*
D02*
G37*
G36*
Y24916D02*
X307152Y24500D01*
X306520Y23752D01*
X306290Y23422D01*
X306117Y23120D01*
X306002Y22847D01*
X305945Y22603D01*
Y22387D01*
X306002Y22201D01*
X306117Y22043D01*
X303244Y24916D01*
X303402Y24801D01*
X303588Y24744D01*
X303804D01*
X304048Y24801D01*
X304321Y24916D01*
X304623Y25089D01*
X304953Y25319D01*
X305313Y25606D01*
X306117Y26353D01*
X307554Y24916D01*
D02*
G37*
G36*
X332911Y25951D02*
X333658Y25319D01*
X333988Y25089D01*
X334290Y24916D01*
X334563Y24801D01*
X334807Y24744D01*
X335023D01*
X335210Y24801D01*
X335368Y24916D01*
X332494Y22043D01*
X332609Y22201D01*
X332666Y22387D01*
Y22603D01*
X332609Y22847D01*
X332494Y23120D01*
X332322Y23422D01*
X332092Y23753D01*
X331804Y24112D01*
X331057Y24916D01*
X332494Y26353D01*
X332911Y25951D01*
D02*
G37*
G36*
X1263000Y5000D02*
X459000D01*
Y60000D01*
X505000D01*
X530000Y85000D01*
X625000D01*
X712000Y172000D01*
X1263000D01*
Y5000D01*
D02*
G37*
G36*
X417688Y60000D02*
X445000Y60000D01*
Y5000D01*
X411000D01*
Y44000D01*
X383000D01*
Y78000D01*
X380000Y81000D01*
X365724D01*
X343133Y103591D01*
Y133549D01*
X345198D01*
X417688Y60000D01*
D02*
G37*
%LPC*%
G36*
X432140Y838640D02*
X424770D01*
Y831270D01*
X432140D01*
Y838640D01*
D02*
G37*
G36*
X262230Y838640D02*
X254860D01*
Y831270D01*
X262230D01*
Y838640D01*
D02*
G37*
G36*
X239370Y838605D02*
Y831270D01*
X246705D01*
X246151Y833335D01*
X245014Y835305D01*
X243405Y836914D01*
X241435Y838051D01*
X239370Y838605D01*
D02*
G37*
G36*
X236830D02*
X234765Y838051D01*
X232795Y836914D01*
X231186Y835305D01*
X230049Y833335D01*
X229496Y831270D01*
X236830D01*
Y838605D01*
D02*
G37*
G36*
X213970D02*
Y831270D01*
X221304D01*
X220751Y833335D01*
X219614Y835305D01*
X218005Y836914D01*
X216035Y838051D01*
X213970Y838605D01*
D02*
G37*
G36*
X211430D02*
X209365Y838051D01*
X207395Y836914D01*
X205786Y835305D01*
X204649Y833335D01*
X204095Y831270D01*
X211430D01*
Y838605D01*
D02*
G37*
G36*
X188570D02*
Y831270D01*
X195905D01*
X195351Y833335D01*
X194214Y835305D01*
X192605Y836914D01*
X190635Y838051D01*
X188570Y838605D01*
D02*
G37*
G36*
X411000Y852086D02*
X360000D01*
X357389Y851743D01*
X354957Y850735D01*
X352868Y849132D01*
X351265Y847043D01*
X350257Y844611D01*
X349914Y842000D01*
Y839705D01*
X348570Y838674D01*
Y830000D01*
X346030D01*
Y838605D01*
X345497Y838462D01*
X344086Y839544D01*
Y842000D01*
X343743Y844611D01*
X342735Y847043D01*
X341132Y849132D01*
X339043Y850735D01*
X336610Y851743D01*
X334000Y852086D01*
X284000D01*
X281390Y851743D01*
X278957Y850735D01*
X276868Y849132D01*
X275265Y847043D01*
X274257Y844611D01*
X273914Y842000D01*
Y838650D01*
X272136Y838640D01*
X264770D01*
Y830000D01*
Y821360D01*
X272136D01*
X273914Y821350D01*
Y808650D01*
X272136Y808640D01*
X264770D01*
Y800000D01*
Y791360D01*
X272136D01*
X273914Y791350D01*
Y788000D01*
X274257Y785389D01*
X275265Y782957D01*
X276868Y780868D01*
X278957Y779265D01*
X281390Y778257D01*
X284000Y777914D01*
X284038Y777870D01*
X283751Y775689D01*
X283754D01*
X284063Y773339D01*
X284970Y771150D01*
X286413Y769270D01*
X288293Y767827D01*
X288687Y767664D01*
X288861Y766600D01*
X288775Y765703D01*
X287101Y764419D01*
X285659Y762539D01*
X284752Y760350D01*
X284443Y758000D01*
X284752Y755650D01*
X285659Y753461D01*
X287101Y751581D01*
X288981Y750139D01*
X289187Y750053D01*
Y748129D01*
X288447Y747822D01*
X286502Y746329D01*
X285009Y744385D01*
X284071Y742119D01*
X283751Y739689D01*
X283754D01*
X284063Y737339D01*
X284970Y735150D01*
X286413Y733270D01*
X288293Y731827D01*
X290482Y730920D01*
X292832Y730611D01*
X293143Y730338D01*
Y730147D01*
X294931Y730887D01*
X296641Y730922D01*
X305500D01*
X306636Y731072D01*
X308414Y729661D01*
Y719000D01*
X308757Y716389D01*
X309765Y713957D01*
X311368Y711868D01*
X313457Y710265D01*
X315889Y709257D01*
X318500Y708914D01*
X333500D01*
X336110Y709257D01*
X338543Y710265D01*
X340632Y711868D01*
X342235Y713957D01*
X343243Y716389D01*
X343586Y719000D01*
Y785012D01*
X343743Y785389D01*
X344086Y788000D01*
Y790456D01*
X345497Y791538D01*
X346030Y791396D01*
Y800000D01*
X348570D01*
Y791326D01*
X349914Y790295D01*
Y788000D01*
X350257Y785389D01*
X351265Y782957D01*
X352868Y780868D01*
X354957Y779265D01*
X357389Y778257D01*
X359589Y777968D01*
X359726Y777916D01*
X360359Y777318D01*
X361072Y776136D01*
X360922Y775000D01*
X361232Y772651D01*
X362138Y770461D01*
X363581Y768581D01*
X365461Y767139D01*
X367650Y766232D01*
X370000Y765922D01*
X383000D01*
X383824Y765000D01*
X383346Y764465D01*
X382695Y764078D01*
X370000D01*
X367650Y763768D01*
X365461Y762861D01*
X363581Y761419D01*
X362138Y759539D01*
X361232Y757349D01*
X360922Y755000D01*
X361232Y752651D01*
X362138Y750461D01*
X363581Y748581D01*
X365461Y747139D01*
X367650Y746232D01*
X370000Y745922D01*
X378576D01*
X378912Y744144D01*
X369324Y740393D01*
X368659Y740026D01*
X367957Y739735D01*
X367511Y739393D01*
X367019Y739121D01*
X366471Y738595D01*
X365868Y738132D01*
X365526Y737686D01*
X365121Y737297D01*
X364728Y736646D01*
X364265Y736043D01*
X364050Y735524D01*
X363759Y735043D01*
X363548Y734313D01*
X363257Y733611D01*
X363184Y733053D01*
X363028Y732513D01*
X363013Y731753D01*
X362914Y731000D01*
Y714000D01*
X363257Y711389D01*
X364265Y708957D01*
X365868Y706868D01*
X367957Y705265D01*
X370389Y704257D01*
X373000Y703914D01*
X431000D01*
X433610Y704257D01*
X436043Y705265D01*
X438132Y706868D01*
X439735Y708957D01*
X440743Y711389D01*
X441086Y714000D01*
Y731000D01*
X441020Y731505D01*
X441035Y732014D01*
X440849Y732805D01*
X440743Y733611D01*
X440548Y734081D01*
X440431Y734577D01*
X440046Y735293D01*
X439735Y736043D01*
X439425Y736447D01*
X439183Y736896D01*
X438627Y737487D01*
X438132Y738132D01*
X437728Y738442D01*
X437379Y738813D01*
X436688Y739240D01*
X436043Y739735D01*
X435572Y739930D01*
X435209Y740154D01*
X434819Y740474D01*
X434422Y742049D01*
X434735Y742457D01*
X435670Y744713D01*
X435811Y744931D01*
X437695Y746094D01*
X439000Y745922D01*
X450143D01*
Y745916D01*
X452672Y746249D01*
X455029Y747226D01*
X457053Y748779D01*
X458606Y750803D01*
X459582Y753159D01*
X459915Y755689D01*
X459909D01*
X459600Y758038D01*
X458693Y760227D01*
X457250Y762107D01*
X455370Y763550D01*
X453181Y764457D01*
X450832Y764766D01*
X450143Y764822D01*
D01*
X448515Y764461D01*
X448482Y764457D01*
X447566Y764078D01*
X447566Y764078D01*
X446703Y764078D01*
X439000D01*
X437695Y763906D01*
X435811Y765069D01*
X435670Y765286D01*
X434735Y767543D01*
X433132Y769632D01*
X431043Y771235D01*
X428610Y772243D01*
X426000Y772586D01*
X421086D01*
Y791360D01*
X422230D01*
Y800000D01*
Y808640D01*
X421086D01*
Y821360D01*
X422230D01*
Y830000D01*
Y838640D01*
X421086D01*
Y842000D01*
X420743Y844611D01*
X419735Y847043D01*
X418132Y849132D01*
X416043Y850735D01*
X413610Y851743D01*
X411000Y852086D01*
D02*
G37*
G36*
X246705Y828730D02*
X239370D01*
Y821395D01*
X241435Y821949D01*
X243405Y823086D01*
X245014Y824695D01*
X246151Y826665D01*
X246705Y828730D01*
D02*
G37*
G36*
X236830D02*
X229496D01*
X230049Y826665D01*
X231186Y824695D01*
X232795Y823086D01*
X234765Y821949D01*
X236830Y821395D01*
Y828730D01*
D02*
G37*
G36*
X221304D02*
X213970D01*
Y821395D01*
X216035Y821949D01*
X218005Y823086D01*
X219614Y824695D01*
X220751Y826665D01*
X221304Y828730D01*
D02*
G37*
G36*
X211430D02*
X204095D01*
X204649Y826665D01*
X205786Y824695D01*
X207395Y823086D01*
X209365Y821949D01*
X211430Y821395D01*
Y828730D01*
D02*
G37*
G36*
X195905D02*
X188570D01*
Y821395D01*
X190635Y821949D01*
X192605Y823086D01*
X194214Y824695D01*
X195351Y826665D01*
X195905Y828730D01*
D02*
G37*
G36*
X174000Y852086D02*
X124000D01*
X121390Y851743D01*
X118957Y850735D01*
X116868Y849132D01*
X115265Y847043D01*
X114257Y844611D01*
X113914Y842000D01*
Y788927D01*
X113939Y788737D01*
X113921Y788547D01*
X114110Y787435D01*
X114257Y786317D01*
X114331Y786140D01*
X114363Y785951D01*
X114833Y784926D01*
X115265Y783884D01*
X115381Y783732D01*
X115461Y783558D01*
X116181Y782690D01*
X116868Y781795D01*
X117020Y781679D01*
X117142Y781531D01*
X142414Y758098D01*
Y610000D01*
X142757Y607389D01*
X143765Y604957D01*
X145368Y602868D01*
X147457Y601265D01*
X149889Y600257D01*
X152500Y599914D01*
X192500D01*
X195110Y600257D01*
X197543Y601265D01*
X199632Y602868D01*
X201235Y604957D01*
X202243Y607389D01*
X202586Y610000D01*
Y772500D01*
X202547Y772798D01*
X202569Y773098D01*
X202376Y774099D01*
X202243Y775110D01*
X202128Y775388D01*
X202071Y775683D01*
X201625Y776601D01*
X201235Y777543D01*
X201052Y777782D01*
X200921Y778052D01*
X200253Y778823D01*
X199632Y779632D01*
X199394Y779815D01*
X199197Y780042D01*
X188296Y789722D01*
X188969Y791502D01*
X190635Y791949D01*
X192605Y793086D01*
X194214Y794695D01*
X195351Y796665D01*
X195905Y798730D01*
X187300D01*
Y800000D01*
X186030D01*
Y808605D01*
X185497Y808462D01*
X184086Y809544D01*
Y820456D01*
X185497Y821538D01*
X186030Y821395D01*
Y830000D01*
Y838605D01*
X185497Y838462D01*
X184086Y839544D01*
Y842000D01*
X183743Y844611D01*
X182735Y847043D01*
X181132Y849132D01*
X179043Y850735D01*
X176611Y851743D01*
X174000Y852086D01*
D02*
G37*
G36*
X432140Y828730D02*
X424770D01*
Y821360D01*
X432140D01*
Y828730D01*
D02*
G37*
G36*
X262230Y828730D02*
X254860D01*
Y821360D01*
X262230D01*
Y828730D01*
D02*
G37*
G36*
X432140Y808640D02*
X424770D01*
Y801270D01*
X432140D01*
Y808640D01*
D02*
G37*
G36*
X262230Y808640D02*
X254860D01*
Y801270D01*
X262230D01*
Y808640D01*
D02*
G37*
G36*
X239370Y808605D02*
Y801270D01*
X246705D01*
X246151Y803335D01*
X245014Y805305D01*
X243405Y806914D01*
X241435Y808051D01*
X239370Y808605D01*
D02*
G37*
G36*
X236830D02*
X234765Y808051D01*
X232795Y806914D01*
X231186Y805305D01*
X230049Y803335D01*
X229496Y801270D01*
X236830D01*
Y808605D01*
D02*
G37*
G36*
X213970D02*
Y801270D01*
X221304D01*
X220751Y803335D01*
X219614Y805305D01*
X218005Y806914D01*
X216035Y808051D01*
X213970Y808605D01*
D02*
G37*
G36*
X211430D02*
X209365Y808051D01*
X207395Y806914D01*
X205786Y805305D01*
X204649Y803335D01*
X204095Y801270D01*
X211430D01*
Y808605D01*
D02*
G37*
G36*
X188570D02*
Y801270D01*
X195905D01*
X195351Y803335D01*
X194214Y805305D01*
X192605Y806914D01*
X190635Y808051D01*
X188570Y808605D01*
D02*
G37*
G36*
X1150962Y835940D02*
X1146838D01*
X1142792Y835135D01*
X1138981Y833557D01*
X1135552Y831265D01*
X1132635Y828348D01*
X1130343Y824919D01*
X1128765Y821108D01*
X1127960Y817062D01*
Y812938D01*
X1128765Y808892D01*
X1130343Y805081D01*
X1132635Y801652D01*
X1135552Y798735D01*
X1138981Y796443D01*
X1142792Y794865D01*
X1146838Y794060D01*
X1150962D01*
X1155008Y794865D01*
X1158819Y796443D01*
X1162249Y798735D01*
X1165165Y801652D01*
X1167457Y805081D01*
X1169035Y808892D01*
X1169840Y812938D01*
Y817062D01*
X1169035Y821108D01*
X1167457Y824919D01*
X1165165Y828348D01*
X1162249Y831265D01*
X1158819Y833557D01*
X1155008Y835135D01*
X1150962Y835940D01*
D02*
G37*
G36*
X246705Y798730D02*
X239370D01*
Y791395D01*
X241435Y791949D01*
X243405Y793086D01*
X245014Y794695D01*
X246151Y796665D01*
X246705Y798730D01*
D02*
G37*
G36*
X236830D02*
X229496D01*
X230049Y796665D01*
X231186Y794695D01*
X232795Y793086D01*
X234765Y791949D01*
X236830Y791395D01*
Y798730D01*
D02*
G37*
G36*
X221304D02*
X213970D01*
Y791395D01*
X216035Y791949D01*
X218005Y793086D01*
X219614Y794695D01*
X220751Y796665D01*
X221304Y798730D01*
D02*
G37*
G36*
X211430D02*
X204095D01*
X204649Y796665D01*
X205786Y794695D01*
X207395Y793086D01*
X209365Y791949D01*
X211430Y791395D01*
Y798730D01*
D02*
G37*
G36*
X432140Y798730D02*
X424770D01*
Y791360D01*
X432140D01*
Y798730D01*
D02*
G37*
G36*
X262230Y798730D02*
X254860D01*
Y791360D01*
X262230D01*
Y798730D01*
D02*
G37*
G36*
X510666Y749065D02*
X510170D01*
Y736920D01*
X522315D01*
Y737416D01*
X521401Y740828D01*
X519635Y743887D01*
X517137Y746385D01*
X514078Y748151D01*
X510666Y749065D01*
D02*
G37*
G36*
X507630D02*
X507134D01*
X503722Y748151D01*
X500663Y746385D01*
X498165Y743887D01*
X496399Y740828D01*
X495485Y737416D01*
Y736920D01*
X507630D01*
Y749065D01*
D02*
G37*
G36*
X522315Y734380D02*
X510170D01*
Y722235D01*
X510666D01*
X514078Y723149D01*
X517137Y724915D01*
X519635Y727413D01*
X521401Y730472D01*
X522315Y733884D01*
Y734380D01*
D02*
G37*
G36*
X507630D02*
X495485D01*
Y733884D01*
X496399Y730472D01*
X498165Y727413D01*
X500663Y724915D01*
X503722Y723149D01*
X507134Y722235D01*
X507630D01*
Y734380D01*
D02*
G37*
G36*
X1233156Y756525D02*
X1229044D01*
X1225011Y755723D01*
X1221212Y754149D01*
X1217793Y751865D01*
X1214885Y748957D01*
X1212601Y745538D01*
X1211027Y741739D01*
X1210225Y737706D01*
Y733594D01*
X1211027Y729561D01*
X1212601Y725762D01*
X1214885Y722343D01*
X1217793Y719435D01*
X1221212Y717151D01*
X1225011Y715577D01*
X1229044Y714775D01*
X1233156D01*
X1237189Y715577D01*
X1240988Y717151D01*
X1244407Y719435D01*
X1247315Y722343D01*
X1249599Y725762D01*
X1251173Y729561D01*
X1251975Y733594D01*
Y737706D01*
X1251173Y741739D01*
X1249599Y745538D01*
X1247315Y748957D01*
X1244407Y751865D01*
X1240988Y754149D01*
X1237189Y755723D01*
X1233156Y756525D01*
D02*
G37*
G36*
X1308640Y642140D02*
X1301270D01*
Y634770D01*
X1308640D01*
Y642140D01*
D02*
G37*
G36*
X1298730D02*
X1291360D01*
Y634770D01*
X1298730D01*
Y642140D01*
D02*
G37*
G36*
X1338640D02*
X1331270D01*
Y634770D01*
X1338640D01*
Y642140D01*
D02*
G37*
G36*
X1328730D02*
X1321360D01*
Y634770D01*
X1328730D01*
Y642140D01*
D02*
G37*
G36*
X1338640Y632230D02*
X1331270D01*
Y624860D01*
X1338640D01*
Y632230D01*
D02*
G37*
G36*
X1328730D02*
X1321360D01*
Y624860D01*
X1328730D01*
Y632230D01*
D02*
G37*
G36*
X1308640Y632230D02*
X1301270D01*
Y624860D01*
X1308640D01*
Y632230D01*
D02*
G37*
G36*
X1298730D02*
X1291360D01*
Y624860D01*
X1298730D01*
Y632230D01*
D02*
G37*
G36*
X1150780Y659240D02*
X1147020D01*
X1143332Y658506D01*
X1139857Y657067D01*
X1136731Y654978D01*
X1134072Y652319D01*
X1131983Y649193D01*
X1130544Y645718D01*
X1129810Y642030D01*
Y638270D01*
X1130544Y634582D01*
X1131983Y631107D01*
X1134072Y627981D01*
X1136731Y625322D01*
X1139857Y623233D01*
X1143332Y621794D01*
X1147020Y621060D01*
X1150780D01*
X1154468Y621794D01*
X1157943Y623233D01*
X1161069Y625322D01*
X1163728Y627981D01*
X1165817Y631107D01*
X1167256Y634582D01*
X1167990Y638270D01*
Y642030D01*
X1167256Y645718D01*
X1165817Y649193D01*
X1163728Y652319D01*
X1161069Y654978D01*
X1157943Y657067D01*
X1154468Y658506D01*
X1150780Y659240D01*
D02*
G37*
G36*
X598780D02*
X595020D01*
X591332Y658506D01*
X587858Y657067D01*
X584731Y654978D01*
X582072Y652319D01*
X579983Y649193D01*
X578544Y645718D01*
X577810Y642030D01*
Y638270D01*
X578544Y634582D01*
X579983Y631107D01*
X582072Y627981D01*
X584731Y625322D01*
X587858Y623233D01*
X591332Y621794D01*
X595020Y621060D01*
X598780D01*
X602468Y621794D01*
X605942Y623233D01*
X609069Y625322D01*
X611728Y627981D01*
X613817Y631107D01*
X615256Y634582D01*
X615990Y638270D01*
Y642030D01*
X615256Y645718D01*
X613817Y649193D01*
X611728Y652319D01*
X609069Y654978D01*
X605942Y657067D01*
X602468Y658506D01*
X598780Y659240D01*
D02*
G37*
G36*
X1301270Y616704D02*
Y609370D01*
X1308604D01*
X1308051Y611435D01*
X1306914Y613405D01*
X1305305Y615014D01*
X1303335Y616151D01*
X1301270Y616704D01*
D02*
G37*
G36*
X1298730D02*
X1296665Y616151D01*
X1294695Y615014D01*
X1293086Y613405D01*
X1291949Y611435D01*
X1291396Y609370D01*
X1298730D01*
Y616704D01*
D02*
G37*
G36*
X1331270Y616704D02*
Y609370D01*
X1338604D01*
X1338051Y611435D01*
X1336914Y613405D01*
X1335305Y615014D01*
X1333335Y616151D01*
X1331270Y616704D01*
D02*
G37*
G36*
X1328730Y616704D02*
X1326665Y616151D01*
X1324695Y615014D01*
X1323086Y613405D01*
X1321949Y611435D01*
X1321396Y609370D01*
X1328730D01*
Y616704D01*
D02*
G37*
G36*
X1338604Y606830D02*
X1331270D01*
Y599496D01*
X1333335Y600049D01*
X1335305Y601186D01*
X1336914Y602795D01*
X1338051Y604765D01*
X1338604Y606830D01*
D02*
G37*
G36*
X1308604Y606830D02*
X1301270D01*
Y599496D01*
X1303335Y600049D01*
X1305305Y601186D01*
X1306914Y602795D01*
X1308051Y604765D01*
X1308604Y606830D01*
D02*
G37*
G36*
X1298730D02*
X1291396D01*
X1291949Y604765D01*
X1293086Y602795D01*
X1294695Y601186D01*
X1296665Y600049D01*
X1298730Y599496D01*
Y606830D01*
D02*
G37*
G36*
X1328730Y606830D02*
X1321396D01*
X1321949Y604765D01*
X1323086Y602795D01*
X1324695Y601186D01*
X1326665Y600049D01*
X1328730Y599496D01*
Y606830D01*
D02*
G37*
G36*
X1301270Y591305D02*
Y583970D01*
X1308604D01*
X1308051Y586035D01*
X1306914Y588005D01*
X1305305Y589614D01*
X1303335Y590751D01*
X1301270Y591305D01*
D02*
G37*
G36*
X1298730D02*
X1296665Y590751D01*
X1294695Y589614D01*
X1293086Y588005D01*
X1291949Y586035D01*
X1291396Y583970D01*
X1298730D01*
Y591305D01*
D02*
G37*
G36*
X1331270Y591305D02*
Y583970D01*
X1338604D01*
X1338051Y586035D01*
X1336914Y588005D01*
X1335305Y589614D01*
X1333335Y590751D01*
X1331270Y591305D01*
D02*
G37*
G36*
X1328730Y591305D02*
X1326665Y590751D01*
X1324695Y589614D01*
X1323086Y588005D01*
X1321949Y586035D01*
X1321396Y583970D01*
X1328730D01*
Y591305D01*
D02*
G37*
G36*
X1338604Y581430D02*
X1331270D01*
Y574095D01*
X1333335Y574649D01*
X1335305Y575786D01*
X1336914Y577395D01*
X1338051Y579365D01*
X1338604Y581430D01*
D02*
G37*
G36*
X1308604Y581430D02*
X1301270D01*
Y574095D01*
X1303335Y574649D01*
X1305305Y575786D01*
X1306914Y577395D01*
X1308051Y579365D01*
X1308604Y581430D01*
D02*
G37*
G36*
X1298730D02*
X1291396D01*
X1291949Y579365D01*
X1293086Y577395D01*
X1294695Y575786D01*
X1296665Y574649D01*
X1298730Y574095D01*
Y581430D01*
D02*
G37*
G36*
X1328730Y581430D02*
X1321396D01*
X1321949Y579365D01*
X1323086Y577395D01*
X1324695Y575786D01*
X1326665Y574649D01*
X1328730Y574095D01*
Y581430D01*
D02*
G37*
G36*
X1301270Y565905D02*
Y558570D01*
X1308604D01*
X1308051Y560635D01*
X1306914Y562605D01*
X1305305Y564214D01*
X1303335Y565351D01*
X1301270Y565905D01*
D02*
G37*
G36*
X1298730D02*
X1296665Y565351D01*
X1294695Y564214D01*
X1293086Y562605D01*
X1291949Y560635D01*
X1291396Y558570D01*
X1298730D01*
Y565905D01*
D02*
G37*
G36*
X1331270Y565905D02*
Y558570D01*
X1338604D01*
X1338051Y560635D01*
X1336914Y562605D01*
X1335305Y564214D01*
X1333335Y565351D01*
X1331270Y565905D01*
D02*
G37*
G36*
X1328730Y565905D02*
X1326665Y565351D01*
X1324695Y564214D01*
X1323086Y562605D01*
X1321949Y560635D01*
X1321396Y558570D01*
X1328730D01*
Y565905D01*
D02*
G37*
G36*
X1338604Y556030D02*
X1331270D01*
Y548695D01*
X1333335Y549249D01*
X1335305Y550386D01*
X1336914Y551995D01*
X1338051Y553965D01*
X1338604Y556030D01*
D02*
G37*
G36*
X1308604Y556030D02*
X1301270D01*
Y548695D01*
X1303335Y549249D01*
X1305305Y550386D01*
X1306914Y551995D01*
X1308051Y553965D01*
X1308604Y556030D01*
D02*
G37*
G36*
X1298730D02*
X1291396D01*
X1291949Y553965D01*
X1293086Y551995D01*
X1294695Y550386D01*
X1296665Y549249D01*
X1298730Y548695D01*
Y556030D01*
D02*
G37*
G36*
X1328730Y556030D02*
X1321396D01*
X1321949Y553965D01*
X1323086Y551995D01*
X1324695Y550386D01*
X1326665Y549249D01*
X1328730Y548695D01*
Y556030D01*
D02*
G37*
G36*
X1301270Y540504D02*
Y533170D01*
X1308604D01*
X1308051Y535235D01*
X1306914Y537205D01*
X1305305Y538814D01*
X1303335Y539951D01*
X1301270Y540504D01*
D02*
G37*
G36*
X1298730D02*
X1296665Y539951D01*
X1294695Y538814D01*
X1293086Y537205D01*
X1291949Y535235D01*
X1291396Y533170D01*
X1298730D01*
Y540504D01*
D02*
G37*
G36*
X1331270Y540504D02*
Y533170D01*
X1338604D01*
X1338051Y535235D01*
X1336914Y537205D01*
X1335305Y538814D01*
X1333335Y539951D01*
X1331270Y540504D01*
D02*
G37*
G36*
X1328730Y540504D02*
X1326665Y539951D01*
X1324695Y538814D01*
X1323086Y537205D01*
X1321949Y535235D01*
X1321396Y533170D01*
X1328730D01*
Y540504D01*
D02*
G37*
G36*
X1233156Y565225D02*
X1229044D01*
X1225011Y564423D01*
X1221212Y562849D01*
X1217793Y560565D01*
X1214885Y557657D01*
X1212601Y554238D01*
X1211027Y550439D01*
X1210225Y546406D01*
Y542294D01*
X1211027Y538261D01*
X1212601Y534462D01*
X1214885Y531043D01*
X1217793Y528135D01*
X1221212Y525851D01*
X1225011Y524277D01*
X1229044Y523475D01*
X1233156D01*
X1237189Y524277D01*
X1240988Y525851D01*
X1244407Y528135D01*
X1247315Y531043D01*
X1249599Y534462D01*
X1251173Y538261D01*
X1251975Y542294D01*
Y546406D01*
X1251173Y550439D01*
X1249599Y554238D01*
X1247315Y557657D01*
X1244407Y560565D01*
X1240988Y562849D01*
X1237189Y564423D01*
X1233156Y565225D01*
D02*
G37*
G36*
X510956D02*
X506844D01*
X502811Y564423D01*
X499012Y562849D01*
X495593Y560565D01*
X492685Y557657D01*
X490401Y554238D01*
X488827Y550439D01*
X488025Y546406D01*
Y542294D01*
X488827Y538261D01*
X490401Y534462D01*
X492685Y531043D01*
X495593Y528135D01*
X499012Y525851D01*
X502811Y524277D01*
X506844Y523475D01*
X510956D01*
X514989Y524277D01*
X518788Y525851D01*
X522207Y528135D01*
X525115Y531043D01*
X527399Y534462D01*
X528973Y538261D01*
X529775Y542294D01*
Y546406D01*
X528973Y550439D01*
X527399Y554238D01*
X525115Y557657D01*
X522207Y560565D01*
X518788Y562849D01*
X514989Y564423D01*
X510956Y565225D01*
D02*
G37*
G36*
X1338604Y530630D02*
X1331270D01*
Y523296D01*
X1333335Y523849D01*
X1335305Y524986D01*
X1336914Y526595D01*
X1338051Y528565D01*
X1338604Y530630D01*
D02*
G37*
G36*
X1308604Y530630D02*
X1301270D01*
Y523296D01*
X1303335Y523849D01*
X1305305Y524986D01*
X1306914Y526595D01*
X1308051Y528565D01*
X1308604Y530630D01*
D02*
G37*
G36*
X1298730D02*
X1291396D01*
X1291949Y528565D01*
X1293086Y526595D01*
X1294695Y524986D01*
X1296665Y523849D01*
X1298730Y523296D01*
Y530630D01*
D02*
G37*
G36*
X1328730Y530630D02*
X1321396D01*
X1321949Y528565D01*
X1323086Y526595D01*
X1324695Y524986D01*
X1326665Y523849D01*
X1328730Y523296D01*
Y530630D01*
D02*
G37*
G36*
X1301270Y515104D02*
Y507770D01*
X1308604D01*
X1308051Y509835D01*
X1306914Y511805D01*
X1305305Y513414D01*
X1303335Y514551D01*
X1301270Y515104D01*
D02*
G37*
G36*
X1298730D02*
X1296665Y514551D01*
X1294695Y513414D01*
X1293086Y511805D01*
X1291949Y509835D01*
X1291396Y507770D01*
X1298730D01*
Y515104D01*
D02*
G37*
G36*
X1331270Y515104D02*
Y507770D01*
X1338604D01*
X1338051Y509835D01*
X1336914Y511805D01*
X1335305Y513414D01*
X1333335Y514551D01*
X1331270Y515104D01*
D02*
G37*
G36*
X1328730Y515104D02*
X1326665Y514551D01*
X1324695Y513414D01*
X1323086Y511805D01*
X1321949Y509835D01*
X1321396Y507770D01*
X1328730D01*
Y515104D01*
D02*
G37*
G36*
X1338604Y505230D02*
X1331270D01*
Y497896D01*
X1333335Y498449D01*
X1335305Y499586D01*
X1336914Y501195D01*
X1338051Y503165D01*
X1338604Y505230D01*
D02*
G37*
G36*
X1308604Y505230D02*
X1301270D01*
Y497896D01*
X1303335Y498449D01*
X1305305Y499586D01*
X1306914Y501195D01*
X1308051Y503165D01*
X1308604Y505230D01*
D02*
G37*
G36*
X1298730D02*
X1291396D01*
X1291949Y503165D01*
X1293086Y501195D01*
X1294695Y499586D01*
X1296665Y498449D01*
X1298730Y497896D01*
Y505230D01*
D02*
G37*
G36*
X1328730Y505230D02*
X1321396D01*
X1321949Y503165D01*
X1323086Y501195D01*
X1324695Y499586D01*
X1326665Y498449D01*
X1328730Y497896D01*
Y505230D01*
D02*
G37*
G36*
X67667Y493404D02*
X66480Y493247D01*
X65290Y493120D01*
X65177Y493076D01*
X65057Y493060D01*
X63951Y492602D01*
X62834Y492170D01*
X62736Y492099D01*
X62624Y492052D01*
X61674Y491324D01*
X60708Y490618D01*
X60631Y490523D01*
X60535Y490449D01*
X59806Y489499D01*
X59055Y488568D01*
X59006Y488457D01*
X58932Y488360D01*
X58474Y487254D01*
X57990Y486160D01*
X57971Y486040D01*
X57924Y485928D01*
X57898Y485727D01*
X57870Y485659D01*
X57756Y485498D01*
X57367Y484445D01*
X56937Y483408D01*
X56912Y483213D01*
X56843Y483028D01*
X56740Y481910D01*
X56593Y480797D01*
X56619Y480602D01*
X56601Y480406D01*
X56791Y479299D01*
X56937Y478186D01*
X57012Y478005D01*
X57045Y477811D01*
X57515Y476791D01*
X57945Y475754D01*
X58064Y475598D01*
X58147Y475420D01*
X58864Y474556D01*
X59255Y474047D01*
X59333Y473653D01*
X60663Y471663D01*
X62653Y470333D01*
X64694Y469927D01*
X65131Y469726D01*
X65325Y469693D01*
X65506Y469618D01*
X66619Y469471D01*
X67726Y469281D01*
X67922Y469300D01*
X68117Y469274D01*
X69229Y469420D01*
X70348Y469524D01*
X70532Y469592D01*
X70727Y469618D01*
X71764Y470047D01*
X72818Y470437D01*
X72978Y470550D01*
X73047Y470578D01*
X73247Y470605D01*
X73360Y470651D01*
X73480Y470670D01*
X74575Y471155D01*
X75680Y471613D01*
X75776Y471686D01*
X75887Y471736D01*
X76819Y472487D01*
X77769Y473215D01*
X77843Y473312D01*
X77937Y473388D01*
X78643Y474355D01*
X79372Y475304D01*
X79418Y475416D01*
X79490Y475515D01*
X79922Y476632D01*
X80379Y477737D01*
X80395Y477857D01*
X80439Y477971D01*
X80567Y479161D01*
X80723Y480348D01*
X80707Y480468D01*
X80720Y480589D01*
X80536Y481771D01*
X80379Y482958D01*
X80333Y483070D01*
X80314Y483190D01*
X79830Y484285D01*
X79372Y485391D01*
X79298Y485487D01*
X79249Y485598D01*
X78498Y486530D01*
X77769Y487480D01*
X74799Y490449D01*
X73849Y491178D01*
X72918Y491929D01*
X72807Y491978D01*
X72710Y492052D01*
X71604Y492510D01*
X70510Y492995D01*
X70390Y493013D01*
X70278Y493060D01*
X69091Y493216D01*
X67908Y493401D01*
X67788Y493388D01*
X67667Y493404D01*
D02*
G37*
G36*
X1232586Y480090D02*
X1229614D01*
X1226698Y479510D01*
X1223952Y478373D01*
X1221481Y476721D01*
X1219379Y474619D01*
X1217727Y472148D01*
X1216590Y469402D01*
X1216010Y466486D01*
Y463514D01*
X1216590Y460598D01*
X1217727Y457852D01*
X1219379Y455381D01*
X1221481Y453279D01*
X1223952Y451627D01*
X1226698Y450490D01*
X1229614Y449910D01*
X1232586D01*
X1235502Y450490D01*
X1238248Y451627D01*
X1240719Y453279D01*
X1242821Y455381D01*
X1244473Y457852D01*
X1245610Y460598D01*
X1246190Y463514D01*
Y466486D01*
X1245610Y469402D01*
X1244473Y472148D01*
X1242821Y474619D01*
X1240719Y476721D01*
X1238248Y478373D01*
X1235502Y479510D01*
X1232586Y480090D01*
D02*
G37*
G36*
X598962Y485940D02*
X594838D01*
X590792Y485135D01*
X586981Y483557D01*
X583551Y481265D01*
X580635Y478348D01*
X578343Y474919D01*
X576765Y471108D01*
X575960Y467062D01*
Y462938D01*
X576765Y458892D01*
X578343Y455081D01*
X580635Y451651D01*
X583551Y448735D01*
X586981Y446443D01*
X590792Y444865D01*
X594838Y444060D01*
X598962D01*
X603008Y444865D01*
X606819Y446443D01*
X610248Y448735D01*
X613165Y451651D01*
X615457Y455081D01*
X617035Y458892D01*
X617840Y462938D01*
Y467062D01*
X617035Y471108D01*
X615457Y474919D01*
X613165Y478348D01*
X610248Y481265D01*
X606819Y483557D01*
X603008Y485135D01*
X598962Y485940D01*
D02*
G37*
G36*
X1150962Y425940D02*
X1146838D01*
X1142792Y425135D01*
X1138981Y423557D01*
X1135552Y421265D01*
X1132635Y418349D01*
X1130343Y414919D01*
X1128765Y411108D01*
X1127960Y407062D01*
Y402938D01*
X1128765Y398892D01*
X1130343Y395081D01*
X1132635Y391651D01*
X1135552Y388735D01*
X1138981Y386443D01*
X1142792Y384865D01*
X1146838Y384060D01*
X1150962D01*
X1155008Y384865D01*
X1158819Y386443D01*
X1162249Y388735D01*
X1165165Y391651D01*
X1167457Y395081D01*
X1169035Y398892D01*
X1169840Y402938D01*
Y407062D01*
X1169035Y411108D01*
X1167457Y414919D01*
X1165165Y418349D01*
X1162249Y421265D01*
X1158819Y423557D01*
X1155008Y425135D01*
X1150962Y425940D01*
D02*
G37*
G36*
X196270Y384581D02*
Y376470D01*
X204381D01*
X203750Y378824D01*
X202514Y380966D01*
X200766Y382714D01*
X198624Y383950D01*
X196270Y384581D01*
D02*
G37*
G36*
X1308640Y372140D02*
X1301270D01*
Y364770D01*
X1308640D01*
Y372140D01*
D02*
G37*
G36*
X1298730D02*
X1291360D01*
Y364770D01*
X1298730D01*
Y372140D01*
D02*
G37*
G36*
X1338640D02*
X1331270D01*
Y364770D01*
X1338640D01*
Y372140D01*
D02*
G37*
G36*
X1328730D02*
X1321360D01*
Y364770D01*
X1328730D01*
Y372140D01*
D02*
G37*
G36*
X1338640Y362230D02*
X1331270D01*
Y354860D01*
X1338640D01*
Y362230D01*
D02*
G37*
G36*
X1328730D02*
X1321360D01*
Y354860D01*
X1328730D01*
Y362230D01*
D02*
G37*
G36*
X1308640Y362230D02*
X1301270D01*
Y354860D01*
X1308640D01*
Y362230D01*
D02*
G37*
G36*
X1298730D02*
X1291360D01*
Y354860D01*
X1298730D01*
Y362230D01*
D02*
G37*
G36*
X95540Y375040D02*
X84270D01*
Y348770D01*
X95540D01*
Y375040D01*
D02*
G37*
G36*
X81730D02*
X70460D01*
Y348770D01*
X81730D01*
Y375040D01*
D02*
G37*
G36*
X1301270Y346704D02*
Y339370D01*
X1308604D01*
X1308051Y341435D01*
X1306914Y343405D01*
X1305305Y345014D01*
X1303335Y346151D01*
X1301270Y346704D01*
D02*
G37*
G36*
X1298730Y346704D02*
X1296665Y346151D01*
X1294695Y345014D01*
X1293086Y343405D01*
X1291949Y341435D01*
X1291396Y339370D01*
X1298730D01*
Y346704D01*
D02*
G37*
G36*
X1331270Y346704D02*
Y339370D01*
X1338604D01*
X1338051Y341435D01*
X1336914Y343405D01*
X1335305Y345014D01*
X1333335Y346151D01*
X1331270Y346704D01*
D02*
G37*
G36*
X1328730Y346704D02*
X1326665Y346151D01*
X1324695Y345014D01*
X1323086Y343405D01*
X1321949Y341435D01*
X1321396Y339370D01*
X1328730D01*
Y346704D01*
D02*
G37*
G36*
X1338604Y336830D02*
X1331270D01*
Y329496D01*
X1333335Y330049D01*
X1335305Y331186D01*
X1336914Y332795D01*
X1338051Y334765D01*
X1338604Y336830D01*
D02*
G37*
G36*
X1308604Y336830D02*
X1301270D01*
Y329496D01*
X1303335Y330049D01*
X1305305Y331186D01*
X1306914Y332795D01*
X1308051Y334765D01*
X1308604Y336830D01*
D02*
G37*
G36*
X1298730D02*
X1291396D01*
X1291949Y334765D01*
X1293086Y332795D01*
X1294695Y331186D01*
X1296665Y330049D01*
X1298730Y329496D01*
Y336830D01*
D02*
G37*
G36*
X1328730Y336830D02*
X1321396D01*
X1321949Y334765D01*
X1323086Y332795D01*
X1324695Y331186D01*
X1326665Y330049D01*
X1328730Y329496D01*
Y336830D01*
D02*
G37*
G36*
X510666Y339065D02*
X510170D01*
Y326920D01*
X522315D01*
Y327416D01*
X521401Y330828D01*
X519635Y333887D01*
X517137Y336385D01*
X514078Y338151D01*
X510666Y339065D01*
D02*
G37*
G36*
X507630D02*
X507134D01*
X503722Y338151D01*
X500663Y336385D01*
X498165Y333887D01*
X496399Y330828D01*
X495485Y327416D01*
Y326920D01*
X507630D01*
Y339065D01*
D02*
G37*
G36*
X1301270Y321305D02*
Y313970D01*
X1308604D01*
X1308051Y316035D01*
X1306914Y318005D01*
X1305305Y319614D01*
X1303335Y320751D01*
X1301270Y321305D01*
D02*
G37*
G36*
X1298730Y321305D02*
X1296665Y320751D01*
X1294695Y319614D01*
X1293086Y318005D01*
X1291949Y316035D01*
X1291396Y313970D01*
X1298730D01*
Y321305D01*
D02*
G37*
G36*
X1331270Y321305D02*
Y313970D01*
X1338604D01*
X1338051Y316035D01*
X1336914Y318005D01*
X1335305Y319614D01*
X1333335Y320751D01*
X1331270Y321305D01*
D02*
G37*
G36*
X1328730Y321305D02*
X1326665Y320751D01*
X1324695Y319614D01*
X1323086Y318005D01*
X1321949Y316035D01*
X1321396Y313970D01*
X1328730D01*
Y321305D01*
D02*
G37*
G36*
X522315Y324380D02*
X510170D01*
Y312235D01*
X510666D01*
X514078Y313149D01*
X517137Y314915D01*
X519635Y317413D01*
X521401Y320472D01*
X522315Y323884D01*
Y324380D01*
D02*
G37*
G36*
X507630D02*
X495485D01*
Y323884D01*
X496399Y320472D01*
X498165Y317413D01*
X500663Y314915D01*
X503722Y313149D01*
X507134Y312235D01*
X507630D01*
Y324380D01*
D02*
G37*
G36*
X1233156Y346525D02*
X1229044D01*
X1225011Y345723D01*
X1221212Y344149D01*
X1217793Y341865D01*
X1214885Y338957D01*
X1212601Y335538D01*
X1211027Y331739D01*
X1210225Y327706D01*
Y323594D01*
X1211027Y319561D01*
X1212601Y315762D01*
X1214885Y312343D01*
X1217793Y309435D01*
X1221212Y307151D01*
X1225011Y305577D01*
X1229044Y304775D01*
X1233156D01*
X1237189Y305577D01*
X1240988Y307151D01*
X1244407Y309435D01*
X1247315Y312343D01*
X1249599Y315762D01*
X1251173Y319561D01*
X1251975Y323594D01*
Y327706D01*
X1251173Y331739D01*
X1249599Y335538D01*
X1247315Y338957D01*
X1244407Y341865D01*
X1240988Y344149D01*
X1237189Y345723D01*
X1233156Y346525D01*
D02*
G37*
G36*
X1338604Y311430D02*
X1331270D01*
Y304096D01*
X1333335Y304649D01*
X1335305Y305786D01*
X1336914Y307395D01*
X1338051Y309365D01*
X1338604Y311430D01*
D02*
G37*
G36*
X1308604Y311430D02*
X1301270D01*
Y304096D01*
X1303335Y304649D01*
X1305305Y305786D01*
X1306914Y307395D01*
X1308051Y309365D01*
X1308604Y311430D01*
D02*
G37*
G36*
X1298730D02*
X1291396D01*
X1291949Y309365D01*
X1293086Y307395D01*
X1294695Y305786D01*
X1296665Y304649D01*
X1298730Y304095D01*
Y311430D01*
D02*
G37*
G36*
X1328730Y311430D02*
X1321396D01*
X1321949Y309365D01*
X1323086Y307395D01*
X1324695Y305786D01*
X1326665Y304649D01*
X1328730Y304095D01*
Y311430D01*
D02*
G37*
G36*
X356540Y302140D02*
X344770D01*
Y293370D01*
X356540D01*
Y302140D01*
D02*
G37*
G36*
X1301270Y295905D02*
Y288570D01*
X1308604D01*
X1308051Y290635D01*
X1306914Y292605D01*
X1305305Y294214D01*
X1303335Y295351D01*
X1301270Y295905D01*
D02*
G37*
G36*
X1298730Y295905D02*
X1296665Y295351D01*
X1294695Y294214D01*
X1293086Y292605D01*
X1291949Y290635D01*
X1291396Y288570D01*
X1298730D01*
Y295905D01*
D02*
G37*
G36*
X1331270Y295905D02*
Y288570D01*
X1338604D01*
X1338051Y290635D01*
X1336914Y292605D01*
X1335305Y294214D01*
X1333335Y295351D01*
X1331270Y295905D01*
D02*
G37*
G36*
X1328730Y295905D02*
X1326665Y295351D01*
X1324695Y294214D01*
X1323086Y292605D01*
X1321949Y290635D01*
X1321396Y288570D01*
X1328730D01*
Y295905D01*
D02*
G37*
G36*
X1338604Y286030D02*
X1331270D01*
Y278696D01*
X1333335Y279249D01*
X1335305Y280386D01*
X1336914Y281995D01*
X1338051Y283965D01*
X1338604Y286030D01*
D02*
G37*
G36*
X1308604Y286030D02*
X1301270D01*
Y278696D01*
X1303335Y279249D01*
X1305305Y280386D01*
X1306914Y281995D01*
X1308051Y283965D01*
X1308604Y286030D01*
D02*
G37*
G36*
X1298730D02*
X1291396D01*
X1291949Y283965D01*
X1293086Y281995D01*
X1294695Y280386D01*
X1296665Y279249D01*
X1298730Y278696D01*
Y286030D01*
D02*
G37*
G36*
X1328730Y286030D02*
X1321396D01*
X1321949Y283965D01*
X1323086Y281995D01*
X1324695Y280386D01*
X1326665Y279249D01*
X1328730Y278696D01*
Y286030D01*
D02*
G37*
G36*
X1301270Y270504D02*
Y263170D01*
X1308604D01*
X1308051Y265235D01*
X1306914Y267205D01*
X1305305Y268814D01*
X1303335Y269951D01*
X1301270Y270504D01*
D02*
G37*
G36*
X1298730Y270504D02*
X1296665Y269951D01*
X1294695Y268814D01*
X1293086Y267205D01*
X1291949Y265235D01*
X1291396Y263170D01*
X1298730D01*
Y270504D01*
D02*
G37*
G36*
X1331270Y270504D02*
Y263170D01*
X1338604D01*
X1338051Y265235D01*
X1336914Y267205D01*
X1335305Y268814D01*
X1333335Y269951D01*
X1331270Y270504D01*
D02*
G37*
G36*
X1328730Y270504D02*
X1326665Y269951D01*
X1324695Y268814D01*
X1323086Y267205D01*
X1321949Y265235D01*
X1321396Y263170D01*
X1328730D01*
Y270504D01*
D02*
G37*
G36*
X1338604Y260630D02*
X1331270D01*
Y253296D01*
X1333335Y253849D01*
X1335305Y254986D01*
X1336914Y256595D01*
X1338051Y258565D01*
X1338604Y260630D01*
D02*
G37*
G36*
X1308604Y260630D02*
X1301270D01*
Y253296D01*
X1303335Y253849D01*
X1305305Y254986D01*
X1306914Y256595D01*
X1308051Y258565D01*
X1308604Y260630D01*
D02*
G37*
G36*
X1298730D02*
X1291396D01*
X1291949Y258565D01*
X1293086Y256595D01*
X1294695Y254986D01*
X1296665Y253849D01*
X1298730Y253295D01*
Y260630D01*
D02*
G37*
G36*
X1328730Y260630D02*
X1321396D01*
X1321949Y258565D01*
X1323086Y256595D01*
X1324695Y254986D01*
X1326665Y253849D01*
X1328730Y253295D01*
Y260630D01*
D02*
G37*
G36*
X393230Y259790D02*
X374460D01*
Y249270D01*
X393230D01*
Y259790D01*
D02*
G37*
G36*
X1301270Y245105D02*
Y237770D01*
X1308604D01*
X1308051Y239835D01*
X1306914Y241805D01*
X1305305Y243414D01*
X1303335Y244551D01*
X1301270Y245105D01*
D02*
G37*
G36*
X1298730Y245105D02*
X1296665Y244551D01*
X1294695Y243414D01*
X1293086Y241805D01*
X1291949Y239835D01*
X1291396Y237770D01*
X1298730D01*
Y245105D01*
D02*
G37*
G36*
X1331270Y245105D02*
Y237770D01*
X1338604D01*
X1338051Y239835D01*
X1336914Y241805D01*
X1335305Y243414D01*
X1333335Y244551D01*
X1331270Y245105D01*
D02*
G37*
G36*
X1328730Y245105D02*
X1326665Y244551D01*
X1324695Y243414D01*
X1323086Y241805D01*
X1321949Y239835D01*
X1321396Y237770D01*
X1328730D01*
Y245105D01*
D02*
G37*
G36*
X393230Y246730D02*
X374460D01*
Y236210D01*
X393230D01*
Y246730D01*
D02*
G37*
G36*
X1338604Y235230D02*
X1331270D01*
Y227896D01*
X1333335Y228449D01*
X1335305Y229586D01*
X1336914Y231195D01*
X1338051Y233165D01*
X1338604Y235230D01*
D02*
G37*
G36*
X1308604Y235230D02*
X1301270D01*
Y227896D01*
X1303335Y228449D01*
X1305305Y229586D01*
X1306914Y231195D01*
X1308051Y233165D01*
X1308604Y235230D01*
D02*
G37*
G36*
X1298730D02*
X1291396D01*
X1291949Y233165D01*
X1293086Y231195D01*
X1294695Y229586D01*
X1296665Y228449D01*
X1298730Y227896D01*
Y235230D01*
D02*
G37*
G36*
X1328730Y235230D02*
X1321396D01*
X1321949Y233165D01*
X1323086Y231195D01*
X1324695Y229586D01*
X1326665Y228449D01*
X1328730Y227896D01*
Y235230D01*
D02*
G37*
G36*
X1150780Y249240D02*
X1147020D01*
X1143332Y248506D01*
X1139857Y247067D01*
X1136731Y244978D01*
X1134072Y242319D01*
X1131983Y239193D01*
X1130544Y235718D01*
X1129810Y232030D01*
Y228270D01*
X1130544Y224582D01*
X1131983Y221108D01*
X1134072Y217981D01*
X1136731Y215322D01*
X1139857Y213233D01*
X1143332Y211794D01*
X1147020Y211060D01*
X1150780D01*
X1154468Y211794D01*
X1157943Y213233D01*
X1161069Y215322D01*
X1163728Y217981D01*
X1165817Y221108D01*
X1167256Y224582D01*
X1167990Y228270D01*
Y232030D01*
X1167256Y235718D01*
X1165817Y239193D01*
X1163728Y242319D01*
X1161069Y244978D01*
X1157943Y247067D01*
X1154468Y248506D01*
X1150780Y249240D01*
D02*
G37*
G36*
X598780D02*
X595020D01*
X591332Y248506D01*
X587858Y247067D01*
X584731Y244978D01*
X582072Y242319D01*
X579983Y239193D01*
X578544Y235718D01*
X577810Y232030D01*
Y228270D01*
X578544Y224582D01*
X579983Y221108D01*
X582072Y217981D01*
X584731Y215322D01*
X587858Y213233D01*
X591332Y211794D01*
X595020Y211060D01*
X598780D01*
X602468Y211794D01*
X605942Y213233D01*
X609069Y215322D01*
X611728Y217981D01*
X613817Y221108D01*
X615256Y224582D01*
X615990Y228270D01*
Y232030D01*
X615256Y235718D01*
X613817Y239193D01*
X611728Y242319D01*
X609069Y244978D01*
X605942Y247067D01*
X602468Y248506D01*
X598780Y249240D01*
D02*
G37*
G36*
X392028Y183040D02*
X384258D01*
Y175770D01*
X392028D01*
Y183040D01*
D02*
G37*
G36*
X454187Y108230D02*
X446417D01*
Y100960D01*
X454187D01*
Y108230D01*
D02*
G37*
G36*
X405730Y108230D02*
X397960D01*
Y100960D01*
X405730D01*
Y108230D01*
D02*
G37*
%LPD*%
G36*
X334000Y788000D02*
X333500D01*
Y719000D01*
X318500D01*
Y788000D01*
X284000D01*
Y842000D01*
X334000D01*
Y788000D01*
D02*
G37*
G36*
X411000D02*
Y762500D01*
X426000D01*
Y747500D01*
X411000D01*
Y740000D01*
X431000Y731000D01*
Y714000D01*
X373000D01*
Y731000D01*
X396000Y740000D01*
Y788000D01*
X360000D01*
Y842000D01*
X411000D01*
Y788000D01*
D02*
G37*
G36*
X174000Y788927D02*
X192500Y772500D01*
Y610000D01*
X152500D01*
Y762500D01*
X124000Y788927D01*
Y842000D01*
X174000D01*
Y788927D01*
D02*
G37*
G36*
X70637Y480348D02*
X70339Y480340D01*
X70050Y480313D01*
X69773Y480265D01*
X69505Y480197D01*
X69248Y480108D01*
X69001Y479999D01*
X68765Y479870D01*
X68538Y479720D01*
X68322Y479551D01*
X68117Y479360D01*
X66680Y480797D01*
X66870Y481003D01*
X67040Y481219D01*
X67190Y481445D01*
X67319Y481681D01*
X67428Y481928D01*
X67516Y482186D01*
X67585Y482453D01*
X67632Y482731D01*
X67660Y483019D01*
X67667Y483317D01*
X70637Y480348D01*
D02*
G37*
%LPC*%
G36*
X204390Y348530D02*
X196270D01*
Y340410D01*
X204390D01*
Y348530D01*
D02*
G37*
G36*
X193730D02*
X185610D01*
Y340410D01*
X193730D01*
Y348530D01*
D02*
G37*
G36*
X210540Y308540D02*
X193770D01*
Y296270D01*
X210540D01*
Y308540D01*
D02*
G37*
G36*
X191230D02*
X174460D01*
Y296270D01*
X191230D01*
Y308540D01*
D02*
G37*
G36*
X210540Y293730D02*
X193770D01*
Y281460D01*
X210540D01*
Y293730D01*
D02*
G37*
G36*
X191230D02*
X174460D01*
Y281460D01*
X191230D01*
Y293730D01*
D02*
G37*
G36*
X166230Y230470D02*
X164362Y229697D01*
X162803Y228138D01*
X162030Y226270D01*
X166230D01*
Y230470D01*
D02*
G37*
G36*
X151270D02*
Y226270D01*
X155470D01*
X154697Y228138D01*
X153138Y229697D01*
X151270Y230470D01*
D02*
G37*
G36*
X148730D02*
X146862Y229697D01*
X145303Y228138D01*
X144530Y226270D01*
X148730D01*
Y230470D01*
D02*
G37*
G36*
X135510D02*
Y226270D01*
X139711D01*
X138937Y228138D01*
X137379Y229697D01*
X135510Y230470D01*
D02*
G37*
G36*
X132970D02*
X131102Y229697D01*
X129544Y228138D01*
X128770Y226270D01*
X132970D01*
Y230470D01*
D02*
G37*
G36*
X121270D02*
Y226270D01*
X125470D01*
X124697Y228138D01*
X123138Y229697D01*
X121270Y230470D01*
D02*
G37*
G36*
X118730D02*
X116862Y229697D01*
X115303Y228138D01*
X114530Y226270D01*
X118730D01*
Y230470D01*
D02*
G37*
G36*
X166230Y223730D02*
X162030D01*
X162803Y221862D01*
X164362Y220303D01*
X166230Y219530D01*
Y223730D01*
D02*
G37*
G36*
X155470D02*
X151270D01*
Y219530D01*
X153138Y220303D01*
X154697Y221862D01*
X155470Y223730D01*
D02*
G37*
G36*
X148730D02*
X144530D01*
X145303Y221862D01*
X146862Y220303D01*
X148730Y219530D01*
Y223730D01*
D02*
G37*
G36*
X139711D02*
X135510D01*
Y219530D01*
X137379Y220303D01*
X138937Y221862D01*
X139711Y223730D01*
D02*
G37*
G36*
X132970D02*
X128770D01*
X129544Y221862D01*
X131102Y220303D01*
X132970Y219530D01*
Y223730D01*
D02*
G37*
G36*
X125470D02*
X121270D01*
Y219530D01*
X123138Y220303D01*
X124697Y221862D01*
X125470Y223730D01*
D02*
G37*
G36*
X118730D02*
X114530D01*
X115303Y221862D01*
X116862Y220303D01*
X118730Y219530D01*
Y223730D01*
D02*
G37*
G36*
X312000Y163000D02*
X315000Y160000D01*
D01*
X312000Y163000D01*
D02*
G37*
G36*
X178460Y151385D02*
Y149542D01*
X178484Y149604D01*
X178560Y149863D01*
X178614Y150129D01*
X178646Y150398D01*
X178617Y150730D01*
X178566Y151035D01*
X178495Y151299D01*
X178460Y151385D01*
D02*
G37*
G36*
X196540Y151970D02*
X196480Y151949D01*
X196328Y151848D01*
X196196Y151705D01*
X196084Y151523D01*
X195993Y151299D01*
X195922Y151035D01*
X195871Y150730D01*
X195842Y150399D01*
X195874Y150131D01*
X195928Y149865D01*
X196003Y149606D01*
X196101Y149355D01*
X196220Y149110D01*
X196361Y148873D01*
X196524Y148643D01*
X196540Y148623D01*
Y151970D01*
D02*
G37*
G36*
X131790Y151040D02*
X121270D01*
Y132270D01*
X131790D01*
Y151040D01*
D02*
G37*
G36*
X118730D02*
X108210D01*
Y132270D01*
X118730D01*
Y151040D01*
D02*
G37*
G36*
X131790Y129730D02*
X121270D01*
Y110960D01*
X131790D01*
Y129730D01*
D02*
G37*
G36*
X118730D02*
X108210D01*
Y110960D01*
X118730D01*
Y129730D01*
D02*
G37*
G36*
X393730Y26730D02*
X384840D01*
Y26662D01*
X385532Y24078D01*
X386870Y21762D01*
X388762Y19870D01*
X391078Y18532D01*
X393662Y17840D01*
X393730D01*
Y26730D01*
D02*
G37*
%LPD*%
D17*
X330000Y85565D02*
X337500Y78065D01*
X330000Y85565D02*
Y98837D01*
X332087Y100924D02*
Y121047D01*
X330000Y98837D02*
X332087Y100924D01*
X398500Y573000D02*
X399500D01*
X398500Y555000D02*
X399500D01*
X332087Y121047D02*
X332148Y121108D01*
Y130053D01*
X248500Y588000D02*
X260000D01*
X248500Y569000D02*
X260000D01*
X337500Y73630D02*
Y78065D01*
Y73630D02*
X337564Y73567D01*
Y69697D02*
Y73567D01*
D18*
X302000Y137500D02*
D03*
Y120500D02*
D03*
X301773Y71400D02*
D03*
Y54400D02*
D03*
D19*
X467750Y47000D02*
D03*
X436250D02*
D03*
X467750Y18000D02*
D03*
X436250D02*
D03*
D20*
X373676Y70800D02*
D03*
Y55000D02*
D03*
X319129Y20247D02*
D03*
Y36047D02*
D03*
Y55000D02*
D03*
Y70800D02*
D03*
X323648Y222453D02*
D03*
Y206653D02*
D03*
X337564Y69697D02*
D03*
Y53897D02*
D03*
X353485Y222453D02*
D03*
Y206653D02*
D03*
X338517Y222453D02*
D03*
Y206653D02*
D03*
X355943Y54600D02*
D03*
Y70400D02*
D03*
X337564Y36047D02*
D03*
Y20247D02*
D03*
X301048Y20247D02*
D03*
Y36047D02*
D03*
X302000Y104900D02*
D03*
Y89100D02*
D03*
D21*
X411152Y155500D02*
D03*
Y174500D02*
D03*
X187500Y155500D02*
D03*
Y174500D02*
D03*
X393298Y174500D02*
D03*
Y155500D02*
D03*
X445147Y109500D02*
D03*
Y128500D02*
D03*
X426107Y109500D02*
D03*
Y128500D02*
D03*
X407000Y109500D02*
D03*
Y128500D02*
D03*
X207500Y155500D02*
D03*
Y174500D02*
D03*
X167500Y155500D02*
D03*
Y174500D02*
D03*
D22*
X447500Y248000D02*
D03*
X394500D02*
D03*
D23*
X343500Y317500D02*
D03*
Y292100D02*
D03*
X252500D02*
D03*
Y317500D02*
D03*
D24*
X328148Y159053D02*
D03*
X332148D02*
D03*
X336148D02*
D03*
X340148D02*
D03*
X344148D02*
D03*
Y130053D02*
D03*
X340148D02*
D03*
X336148D02*
D03*
X332148D02*
D03*
X328148D02*
D03*
D25*
X344648Y150553D02*
D03*
Y146553D02*
D03*
Y142553D02*
D03*
Y138553D02*
D03*
X327648D02*
D03*
Y142553D02*
D03*
Y146553D02*
D03*
D26*
X328148Y150553D02*
D03*
D27*
X292500Y265000D02*
D03*
X276700D02*
D03*
X342900D02*
D03*
X327100D02*
D03*
D28*
X255008Y171557D02*
D03*
Y120557D02*
D03*
D29*
X192500Y225000D02*
D03*
Y295000D02*
D03*
D30*
X120000Y184000D02*
D03*
Y131000D02*
D03*
D58*
X450143Y755000D02*
G03*
X450832Y755689I0J689D01*
G01*
X293143Y740000D02*
G03*
X292832Y739689I0J-311D01*
G01*
X293143Y776000D02*
G03*
X292832Y775689I0J-311D01*
G01*
X395798Y174500D02*
X408652D01*
X411152Y174500D01*
X393298Y174500D02*
X395798Y174500D01*
X411152Y174500D02*
X413652Y174656D01*
X338517Y222453D02*
X353485D01*
X353560Y222378D02*
X362459D01*
X323648Y222453D02*
X338517D01*
X353485Y222453D02*
X353560Y222378D01*
X439000Y755000D02*
X450143D01*
X370000Y775000D02*
X383000D01*
X370000Y755000D02*
X383000D01*
X387500Y573000D02*
X398500D01*
X387500Y555000D02*
X398500D01*
X293143Y740000D02*
X305500D01*
X293520Y758000D02*
X306500D01*
X293143Y776000D02*
X306500D01*
D59*
X301148Y104953D02*
X302000Y105806D01*
Y120500D01*
X304668Y92674D02*
X307674D01*
X301148Y89153D02*
X304668Y92674D01*
X307674D02*
X319858Y104858D01*
X324164Y103775D02*
Y138537D01*
X328148Y102371D02*
Y130053D01*
X321771Y101383D02*
X324164Y103775D01*
X325581Y97352D02*
Y99804D01*
X328148Y102371D01*
X319858Y140263D02*
X322148Y142553D01*
X319858Y104858D02*
Y140263D01*
X321771Y99271D02*
Y101383D01*
X322148Y142553D02*
X327648D01*
X315000Y92500D02*
X321771Y99271D01*
X323250Y95022D02*
X325581Y97352D01*
X323250Y80750D02*
Y95022D01*
X324180Y138553D02*
X327648D01*
X324164Y138537D02*
X324180Y138553D01*
X319858Y77358D02*
X323250Y80750D01*
X187314Y146061D02*
Y153016D01*
X187500Y156500D01*
X167174Y146059D02*
Y153016D01*
X167500Y156500D01*
X207452Y153016D02*
X207500Y156500D01*
X207452Y146061D02*
Y153016D01*
X347177Y184802D02*
X349994Y187619D01*
X344148Y174092D02*
X347177Y177122D01*
X349994Y187619D02*
Y187976D01*
X347177Y177122D02*
Y184802D01*
X349994Y187976D02*
X350753Y188735D01*
X354560Y45299D02*
X357500Y48239D01*
X350000Y45000D02*
X350281Y45281D01*
X353537Y45299D02*
X354560D01*
X350281Y45281D02*
X353537D01*
X357500Y48239D02*
Y53043D01*
X355943Y54600D02*
X357500Y53043D01*
X312200Y269567D02*
Y269711D01*
Y269567D02*
X316768Y265000D01*
X327100D01*
X299500D02*
X305250Y259250D01*
X292500Y265000D02*
X299500D01*
X355943Y70400D02*
Y84057D01*
X340148Y99852D02*
X355943Y84057D01*
X305758Y78257D02*
X315000Y87500D01*
X305758Y74884D02*
Y78257D01*
X302274Y71400D02*
X305758Y74884D01*
X336148Y97102D02*
Y130053D01*
X347106Y63040D02*
Y86144D01*
X336148Y97102D02*
X347106Y86144D01*
X340148Y99852D02*
Y130053D01*
X322500Y604900D02*
Y622500D01*
X305200Y639500D02*
X322500D01*
X304500Y604900D02*
X322500D01*
Y639500D02*
Y653000D01*
X321500Y654000D02*
X322500Y653000D01*
X241500Y630900D02*
X250400D01*
X257452Y637952D02*
Y643952D01*
X224562Y644119D02*
X228561Y648119D01*
X241562D02*
X244562Y651119D01*
X228561Y648119D02*
X241562D01*
X224562Y631619D02*
Y644119D01*
X257452Y643952D02*
X257500Y644000D01*
X259590Y651119D02*
X262327Y653856D01*
Y657885D02*
X262561Y658119D01*
X262327Y653856D02*
Y657885D01*
X244562Y651119D02*
X259590D01*
X250400Y630900D02*
X257452Y637952D01*
X296400Y589100D02*
X304500D01*
Y604900D02*
Y623000D01*
Y638800D02*
X305200Y639500D01*
X292500Y593000D02*
X296400Y589100D01*
X292500Y593000D02*
Y618000D01*
X336132Y159069D02*
Y162155D01*
X335000Y182221D02*
X335958Y181264D01*
X336132Y159069D02*
X336148Y159053D01*
X335958Y162329D02*
Y181264D01*
Y162329D02*
X336132Y162155D01*
X65000Y477680D02*
X70667Y483347D01*
X65000Y476000D02*
Y477680D01*
X53000Y446000D02*
Y456000D01*
Y446000D02*
X54000Y445000D01*
X65000D01*
X402000Y628190D02*
Y634000D01*
X400810Y627000D02*
X402000Y628190D01*
X384000Y627000D02*
X400810D01*
X402000Y600000D02*
X407000Y605000D01*
Y620000D01*
X267500Y629553D02*
Y644000D01*
X263500Y625000D02*
Y625553D01*
X267500Y629553D01*
X240900Y614500D02*
X241500Y615100D01*
X223500Y614500D02*
X240900D01*
X253729Y608771D02*
Y627662D01*
X262500Y636433D02*
Y644000D01*
X253729Y627662D02*
X262500Y636433D01*
X253729Y608771D02*
X255042Y607458D01*
X259642D01*
X261100Y606000D01*
X100000Y422500D02*
X119600D01*
X100000Y445000D02*
X119600D01*
X100000Y467500D02*
X119600D01*
X62500Y425000D02*
X65000Y422500D01*
X50000Y425000D02*
X62500D01*
X393000Y588190D02*
Y604000D01*
X394190Y587000D02*
X401100D01*
X393000Y588190D02*
X394190Y587000D01*
X364000Y620000D02*
X368000Y624000D01*
X381000D01*
X384000Y627000D01*
X364000Y607500D02*
Y620000D01*
X364600Y591100D02*
X381863D01*
X364000Y590500D02*
X364600Y591100D01*
X396766Y619766D02*
X397000Y620000D01*
X388821Y607821D02*
X396766Y615766D01*
Y619766D01*
X381863Y606900D02*
X382784Y607821D01*
X388821D01*
X434000Y600000D02*
X443900D01*
X444000Y600100D01*
X393000Y604000D02*
X402000Y613000D01*
Y620000D01*
X444000Y649800D02*
Y663000D01*
Y615900D02*
Y634000D01*
Y615900D02*
X462000D01*
Y633500D01*
X461700Y649800D02*
X462000Y649500D01*
X444000Y649800D02*
X461700D01*
X282500Y75000D02*
Y85000D01*
X282088Y85412D02*
X282500Y85000D01*
X301773Y71400D02*
X302274D01*
X342900Y265000D02*
X357500D01*
X301448Y36047D02*
X310000Y44599D01*
Y60000D01*
X306823Y63177D02*
X310000Y60000D01*
X282500Y75000D02*
X294323Y63177D01*
X306823D01*
X301048Y36047D02*
X301448D01*
X350753Y191235D02*
X353765Y194247D01*
X353485Y206653D02*
X353765Y206374D01*
X350753Y188735D02*
Y191235D01*
X353765Y194247D02*
Y206374D01*
X338517Y198983D02*
X342500Y195000D01*
X338517Y198983D02*
Y206653D01*
X340148Y175480D02*
X342500Y177833D01*
Y195000D01*
X340148Y159053D02*
Y175480D01*
X335000Y182221D02*
Y187500D01*
X323648Y188186D02*
Y206653D01*
Y188186D02*
X332148Y179685D01*
Y159053D02*
Y179685D01*
X319129Y70800D02*
X319858Y71528D01*
Y77358D01*
X325000Y173926D02*
Y175000D01*
Y173926D02*
X328148Y170779D01*
Y159053D02*
Y170779D01*
X315000Y87500D02*
Y92500D01*
X344148Y159053D02*
Y174092D01*
X234000Y299000D02*
X240116Y292884D01*
X251716D01*
X252500Y292100D01*
X327500Y280800D02*
Y315000D01*
X330000Y317500D02*
X343500D01*
X327500Y315000D02*
X330000Y317500D01*
X342900Y265000D02*
Y265400D01*
X327500Y280800D02*
X342900Y265400D01*
X265000Y317500D02*
X276700Y305800D01*
Y265000D02*
Y305800D01*
X252500Y317500D02*
X265000D01*
X337564Y36047D02*
Y53697D01*
X308942Y27741D02*
X330000D01*
X337164Y20247D02*
X337564D01*
X330000Y27410D02*
X337164Y20247D01*
X330000Y27410D02*
Y27741D01*
X301448Y20247D02*
X308942Y27741D01*
X301048Y20247D02*
X301448D01*
X356343Y70800D02*
X373676D01*
X355943Y70400D02*
X356343Y70800D01*
X337963Y53897D02*
X347106Y63040D01*
X319129Y36047D02*
Y55000D01*
X319011Y55118D02*
X319129Y55000D01*
D60*
X373676Y39447D02*
Y55000D01*
X365000Y30771D02*
X373676Y39447D01*
X365000Y28000D02*
Y30771D01*
D61*
X135400Y445000D02*
Y467500D01*
Y422500D02*
Y445000D01*
D62*
X444645Y127498D02*
X444647Y127500D01*
X445147D01*
D63*
X25000Y195000D02*
D03*
Y275000D02*
D03*
D64*
Y215000D02*
D03*
Y235000D02*
D03*
Y255000D02*
D03*
D65*
X395000Y28000D02*
D03*
X365000D02*
D03*
D66*
X121500Y75000D02*
D03*
X423500Y830000D02*
D03*
Y800000D02*
D03*
X263500Y800000D02*
D03*
Y830000D02*
D03*
D67*
X146900Y75000D02*
D03*
X172300D02*
D03*
X197700D02*
D03*
X223100D02*
D03*
X248500D02*
D03*
X398100Y830000D02*
D03*
X372700D02*
D03*
X347300D02*
D03*
X321900D02*
D03*
X296500D02*
D03*
X398100Y800000D02*
D03*
X372700D02*
D03*
X347300D02*
D03*
X321900D02*
D03*
X296500D02*
D03*
X238100Y800000D02*
D03*
X212700D02*
D03*
X187300D02*
D03*
X161900D02*
D03*
X136500D02*
D03*
X238100Y830000D02*
D03*
X212700D02*
D03*
X187300D02*
D03*
X161900D02*
D03*
X136500D02*
D03*
X1330000Y608100D02*
D03*
Y582700D02*
D03*
Y557300D02*
D03*
Y531900D02*
D03*
Y506500D02*
D03*
X1300000Y608100D02*
D03*
Y582700D02*
D03*
Y557300D02*
D03*
Y531900D02*
D03*
Y506500D02*
D03*
X1330000Y338100D02*
D03*
Y312700D02*
D03*
Y287300D02*
D03*
Y261900D02*
D03*
Y236500D02*
D03*
X1300000Y338100D02*
D03*
Y312700D02*
D03*
Y287300D02*
D03*
Y261900D02*
D03*
Y236500D02*
D03*
D68*
X195000Y375200D02*
D03*
D69*
Y349800D02*
D03*
D70*
X145000Y347500D02*
D03*
X83000D02*
D03*
D71*
X113000Y300500D02*
D03*
D72*
X1330000Y633500D02*
D03*
X1300000D02*
D03*
X1330000Y363500D02*
D03*
X1300000D02*
D03*
D73*
X1148900Y640150D02*
D03*
X596900D02*
D03*
X1148900Y230150D02*
D03*
X596900D02*
D03*
D74*
X1231100Y465000D02*
D03*
Y55000D02*
D03*
D75*
X596900Y465000D02*
D03*
X1148900Y815000D02*
D03*
X596900Y55000D02*
D03*
X1148900Y405000D02*
D03*
D76*
X1231100Y735650D02*
D03*
X508900D02*
D03*
Y544350D02*
D03*
X1231100D02*
D03*
Y325650D02*
D03*
X508900D02*
D03*
Y134350D02*
D03*
X1231100D02*
D03*
D77*
X442000Y82000D02*
D03*
X447000Y90000D02*
D03*
X432000Y82000D02*
D03*
X422000D02*
D03*
X437000Y90000D02*
D03*
X427000D02*
D03*
X417000D02*
D03*
X407000D02*
D03*
X447000Y98000D02*
D03*
X437000D02*
D03*
X427000D02*
D03*
X417000D02*
D03*
X407000D02*
D03*
X187314Y146061D02*
D03*
X167174Y146059D02*
D03*
X207452Y146061D02*
D03*
X120000Y225000D02*
D03*
X134240D02*
D03*
X150000D02*
D03*
X167500D02*
D03*
X362459Y222378D02*
D03*
X350000Y45000D02*
D03*
X312200Y269711D02*
D03*
X305250Y259250D02*
D03*
X431000Y286000D02*
D03*
X450832Y755689D02*
D03*
X370000Y775000D02*
D03*
Y755000D02*
D03*
X292832Y775689D02*
D03*
X293520Y758000D02*
D03*
X292832Y739689D02*
D03*
X263500Y625000D02*
D03*
X292500Y618000D02*
D03*
X322500Y653000D02*
D03*
X70667Y483347D02*
D03*
X387500Y555000D02*
D03*
X387500Y573000D02*
D03*
X248500Y569000D02*
D03*
Y588000D02*
D03*
X53000Y456000D02*
D03*
X50000Y425000D02*
D03*
X402000Y600000D02*
D03*
X434000D02*
D03*
X444000Y663000D02*
D03*
X282088Y85412D02*
D03*
X349994Y187976D02*
D03*
X357500Y265000D02*
D03*
X330000Y92500D02*
D03*
X315000Y87500D02*
D03*
X335000Y187500D02*
D03*
X342500Y195000D02*
D03*
X305540Y192500D02*
D03*
X325000Y175000D02*
D03*
X234000Y299000D02*
D03*
M02*
