M48
;Layer_Color=9474304
;FILE_FORMAT=4:4
METRIC,LZ
;TYPE=PLATED
T01F00S00C0.4000
T02F00S00C0.7620
T03F00S00C0.8000
T04F00S00C0.8100
T05F00S00C1.0000
T07F00S00C1.0200
T08F00S00C1.4500
;TYPE=NON_PLATED
T09F00S00C2.5100
T10F00S00C3.3100
T11F00S00C3.6800
%
T01
X00282088Y00085412
X00315Y000875
X0033Y000925
X0035Y00045
X00407Y0009
Y00098
X00417
Y0009
X00427
Y00098
X00437
Y0009
X00447
Y00098
X00442Y00082
X00432
X00422
X00349994Y00187976
X003425Y00195
X00335Y001875
X00325Y00175
X0030554Y001925
X0030525Y0025925
X003122Y00269711
X003575Y00265
X00362459Y00222378
X00431Y00286
X00234Y00299
X001675Y00225
X0015
X0013424
X0012
X00167174Y00146059
X00187314Y00146061
X00207452
X0005Y00425
X00053Y00456
X00070667Y00483347
X002485Y00569
Y00588
X002635Y00625
X002925Y00618
X003225Y00653
X00292832Y00739689
X00444Y00663
X00434Y006
X00402
X003875Y00573
X003875Y00555
X0037Y00755
Y00775
X00292832Y00775689
X0029352Y00758
X00450832Y00755689
T02
X00365Y00028
X00395
T03
X00025Y00215
Y00235
Y00255
T04
X013Y002365
Y002619
Y002873
Y003127
Y003381
X0133
Y003127
Y002873
Y002619
Y002365
X002485Y00075
X002231
X001977
X001723
X001469
X001215
X013Y003635
X0133
X0133Y005065
Y005319
Y005573
Y005827
Y006081
Y006335
X013
Y006081
Y005827
Y005573
Y005319
Y005065
X004235Y008
X003981
X003727
X003473
X003219
X002965
Y0083
X003219
X003473
X003727
X003981
X004235
X002635Y0083
Y008
X002381
X002127
X001873
X001619
X001365
Y0083
X001619
X001873
X002127
X002381
T05
X00025Y00195
Y00275
T07
X00195Y003498
Y003752
T08
X012311Y0013435
Y0032565
X005089
Y0013435
Y0054435
Y0073565
X012311
Y0054435
T09
X012311Y00055
Y00465
T10
X011489Y0023015
X005969
Y0064015
X011489
T11
X005969Y00055
Y00465
X011489Y00405
Y00815
M30
