G04*
G04 #@! TF.GenerationSoftware,Altium Limited,Altium Designer,24.5.2 (23)*
G04*
G04 Layer_Color=65535*
%FSLAX44Y44*%
%MOMM*%
G71*
G04*
G04 #@! TF.SameCoordinates,7688A6CE-4724-4EBB-A06F-6B4FEE905E02*
G04*
G04*
G04 #@! TF.FilePolarity,Positive*
G04*
G01*
G75*
%ADD10C,0.1000*%
%ADD11C,0.1524*%
%ADD12C,0.2000*%
%ADD13C,0.1270*%
%ADD14C,0.0500*%
%ADD15C,0.1780*%
%ADD16C,0.1778*%
%ADD17C,0.2030*%
G36*
X1190000Y107500D02*
X1145000D01*
Y157500D01*
X1190000D01*
Y107500D01*
D02*
G37*
G36*
X590000Y300000D02*
X545000D01*
Y350000D01*
X590000D01*
Y300000D01*
D02*
G37*
G36*
X595000Y515000D02*
X545000D01*
Y578000D01*
X595000D01*
Y515000D01*
D02*
G37*
G36*
X1190000Y520000D02*
X1145000D01*
Y570000D01*
X1190000D01*
Y520000D01*
D02*
G37*
G36*
X205000Y32500D02*
X125000D01*
Y47500D01*
X205000D01*
Y32500D01*
D02*
G37*
G36*
X200000Y325000D02*
X190000D01*
Y335000D01*
X200000D01*
Y325000D01*
D02*
G37*
G36*
X280000Y452012D02*
D01*
Y439939D01*
Y420000D01*
X180000D01*
Y439939D01*
Y452012D01*
D01*
Y470000D01*
X280000D01*
Y452012D01*
D02*
G37*
G36*
X590000Y712500D02*
X545000D01*
Y762500D01*
X590000D01*
Y712500D01*
D02*
G37*
G36*
X357500Y373358D02*
Y361286D01*
Y345000D01*
X257500D01*
Y361286D01*
Y373358D01*
Y385000D01*
X357500D01*
Y373358D01*
D02*
G37*
G36*
X1195000Y292500D02*
X1145000D01*
Y355500D01*
X1195000D01*
Y292500D01*
D02*
G37*
G36*
X198500Y398500D02*
Y388500D01*
X191500D01*
Y398500D01*
X198500D01*
D02*
G37*
G36*
X1195000Y705000D02*
X1145000D01*
Y768000D01*
X1195000D01*
Y705000D01*
D02*
G37*
G36*
X595000Y102500D02*
X545000D01*
Y165500D01*
X595000D01*
Y102500D01*
D02*
G37*
G36*
X235000Y337500D02*
X210000D01*
Y387500D01*
X235000D01*
Y337500D01*
D02*
G37*
G36*
X205000Y12500D02*
X125000D01*
Y27500D01*
X205000D01*
Y12500D01*
D02*
G37*
%LPC*%
G36*
X1172872Y144582D02*
X1160559D01*
Y120418D01*
X1172872D01*
Y144582D01*
D02*
G37*
G36*
X572872Y337082D02*
X560559D01*
Y312918D01*
X572872D01*
Y337082D01*
D02*
G37*
G36*
X592405Y568883D02*
X564352D01*
Y552311D01*
X547595D01*
Y568883D01*
Y552311D01*
Y540831D01*
X564352D01*
Y524258D01*
X547595D01*
X575555D01*
Y540831D01*
X592405D01*
D01*
Y552311D01*
X575555D01*
Y568883D01*
X592405D01*
D02*
G37*
G36*
X1172872Y557082D02*
X1160559D01*
Y532918D01*
X1172872D01*
Y557082D01*
D02*
G37*
G36*
X157423Y44941D02*
X155604D01*
Y38372D01*
X151573Y44941D01*
X149670D01*
Y35186D01*
X151488D01*
Y41614D01*
X155449Y35186D01*
X157423D01*
Y44941D01*
D02*
G37*
G36*
X166741Y39669D02*
X163062D01*
Y37794D01*
X166741D01*
Y39669D01*
D02*
G37*
G36*
X187309Y44941D02*
X185208D01*
X182826Y37723D01*
X180345Y44941D01*
X178216D01*
X181712Y35186D01*
X183841D01*
X187309Y44941D01*
D02*
G37*
G36*
X144876D02*
X142776D01*
X140394Y37723D01*
X137913Y44941D01*
X135784D01*
X139280Y35186D01*
X141409D01*
X144876Y44941D01*
D02*
G37*
G36*
X177370Y44814D02*
X172422D01*
X171464Y39725D01*
X172972Y39514D01*
X173099Y39641D01*
X173226Y39753D01*
X173353Y39852D01*
X173479Y39937D01*
X173719Y40063D01*
X173945Y40148D01*
X174142Y40190D01*
X174283Y40219D01*
X174339Y40233D01*
X174424D01*
X174649Y40219D01*
X174861Y40162D01*
X175044Y40092D01*
X175199Y40007D01*
X175312Y39908D01*
X175411Y39838D01*
X175467Y39781D01*
X175481Y39767D01*
X175622Y39584D01*
X175721Y39373D01*
X175791Y39147D01*
X175834Y38922D01*
X175876Y38724D01*
X175890Y38569D01*
Y38499D01*
Y38456D01*
Y38428D01*
Y38414D01*
X175876Y38076D01*
X175834Y37780D01*
X175763Y37540D01*
X175693Y37343D01*
X175608Y37174D01*
X175552Y37061D01*
X175495Y37004D01*
X175481Y36976D01*
X175326Y36821D01*
X175157Y36694D01*
X174988Y36610D01*
X174833Y36553D01*
X174692Y36525D01*
X174579Y36511D01*
X174508Y36497D01*
X174480D01*
X174297Y36511D01*
X174114Y36553D01*
X173959Y36610D01*
X173832Y36680D01*
X173719Y36751D01*
X173634Y36807D01*
X173578Y36849D01*
X173564Y36863D01*
X173437Y37018D01*
X173324Y37174D01*
X173240Y37343D01*
X173183Y37498D01*
X173141Y37639D01*
X173113Y37766D01*
X173099Y37836D01*
Y37864D01*
X171238Y37667D01*
X171280Y37441D01*
X171322Y37230D01*
X171464Y36849D01*
X171619Y36511D01*
X171703Y36370D01*
X171802Y36229D01*
X171886Y36116D01*
X171957Y36018D01*
X172041Y35933D01*
X172098Y35848D01*
X172154Y35792D01*
X172197Y35750D01*
X172225Y35736D01*
X172239Y35722D01*
X172408Y35595D01*
X172577Y35482D01*
X172760Y35383D01*
X172944Y35313D01*
X173324Y35172D01*
X173663Y35087D01*
X173832Y35059D01*
X173973Y35045D01*
X174114Y35031D01*
X174226Y35017D01*
X174325Y35003D01*
X174452D01*
X174762Y35017D01*
X175058Y35059D01*
X175326Y35115D01*
X175580Y35200D01*
X175819Y35299D01*
X176031Y35411D01*
X176228Y35524D01*
X176411Y35651D01*
X176567Y35764D01*
X176708Y35877D01*
X176834Y35989D01*
X176933Y36088D01*
X177004Y36173D01*
X177060Y36229D01*
X177088Y36271D01*
X177102Y36285D01*
X177229Y36469D01*
X177342Y36652D01*
X177426Y36835D01*
X177511Y37033D01*
X177638Y37399D01*
X177723Y37737D01*
X177751Y37878D01*
X177765Y38019D01*
X177793Y38146D01*
Y38259D01*
X177807Y38344D01*
Y38456D01*
X177793Y38724D01*
X177765Y38978D01*
X177723Y39218D01*
X177666Y39443D01*
X177610Y39641D01*
X177525Y39838D01*
X177455Y40021D01*
X177370Y40176D01*
X177285Y40317D01*
X177215Y40444D01*
X177131Y40557D01*
X177074Y40641D01*
X177018Y40712D01*
X176975Y40768D01*
X176947Y40796D01*
X176933Y40811D01*
X176764Y40966D01*
X176595Y41107D01*
X176411Y41234D01*
X176228Y41346D01*
X176059Y41431D01*
X175876Y41501D01*
X175552Y41614D01*
X175397Y41656D01*
X175256Y41685D01*
X175129Y41699D01*
X175030Y41713D01*
X174945Y41727D01*
X174819D01*
X174579Y41713D01*
X174339Y41670D01*
X174128Y41628D01*
X173930Y41572D01*
X173775Y41501D01*
X173648Y41459D01*
X173564Y41417D01*
X173550Y41403D01*
X173536D01*
X173832Y43066D01*
X177370D01*
Y44814D01*
D02*
G37*
G36*
X147781Y44941D02*
X145807D01*
Y35186D01*
X147781D01*
Y44941D01*
D02*
G37*
G36*
X191185Y44997D02*
X191044D01*
X190791Y44983D01*
X190551Y44955D01*
X190311Y44899D01*
X190100Y44842D01*
X189902Y44758D01*
X189719Y44673D01*
X189564Y44589D01*
X189409Y44490D01*
X189282Y44391D01*
X189155Y44307D01*
X189056Y44222D01*
X188986Y44138D01*
X188916Y44081D01*
X188873Y44025D01*
X188845Y43997D01*
X188831Y43982D01*
X188662Y43743D01*
X188521Y43461D01*
X188394Y43165D01*
X188281Y42855D01*
X188197Y42530D01*
X188112Y42192D01*
X188056Y41868D01*
X187999Y41544D01*
X187971Y41234D01*
X187943Y40952D01*
X187915Y40684D01*
X187901Y40458D01*
X187887Y40275D01*
Y40007D01*
X187901Y39500D01*
X187929Y39034D01*
X187971Y38597D01*
X188027Y38203D01*
X188084Y37850D01*
X188154Y37526D01*
X188239Y37244D01*
X188323Y36990D01*
X188394Y36779D01*
X188479Y36581D01*
X188549Y36426D01*
X188619Y36300D01*
X188662Y36215D01*
X188704Y36144D01*
X188732Y36102D01*
X188746Y36088D01*
X188916Y35891D01*
X189099Y35736D01*
X189282Y35581D01*
X189480Y35468D01*
X189663Y35355D01*
X189860Y35271D01*
X190043Y35200D01*
X190227Y35144D01*
X190396Y35087D01*
X190551Y35059D01*
X190692Y35031D01*
X190805Y35017D01*
X190903D01*
X190988Y35003D01*
X191044D01*
X191298Y35017D01*
X191538Y35045D01*
X191777Y35101D01*
X191989Y35158D01*
X192186Y35228D01*
X192369Y35313D01*
X192524Y35411D01*
X192680Y35510D01*
X192806Y35595D01*
X192933Y35693D01*
X193032Y35778D01*
X193116Y35848D01*
X193173Y35905D01*
X193215Y35961D01*
X193243Y35989D01*
X193257Y36003D01*
X193427Y36243D01*
X193568Y36525D01*
X193709Y36821D01*
X193807Y37145D01*
X193906Y37470D01*
X193976Y37794D01*
X194047Y38132D01*
X194103Y38456D01*
X194132Y38767D01*
X194160Y39049D01*
X194188Y39316D01*
X194202Y39542D01*
X194216Y39725D01*
Y39993D01*
X194202Y40500D01*
X194174Y40966D01*
X194132Y41389D01*
X194061Y41783D01*
X193990Y42150D01*
X193920Y42474D01*
X193821Y42770D01*
X193737Y43024D01*
X193652Y43264D01*
X193568Y43447D01*
X193483Y43616D01*
X193412Y43757D01*
X193342Y43856D01*
X193300Y43926D01*
X193272Y43968D01*
X193257Y43982D01*
X193102Y44166D01*
X192933Y44321D01*
X192750Y44448D01*
X192567Y44574D01*
X192383Y44673D01*
X192200Y44744D01*
X192031Y44814D01*
X191848Y44871D01*
X191679Y44913D01*
X191538Y44941D01*
X191397Y44969D01*
X191284Y44983D01*
X191185Y44997D01*
D02*
G37*
%LPD*%
G36*
X191171Y43433D02*
X191284Y43418D01*
X191383Y43376D01*
X191467Y43334D01*
X191538Y43292D01*
X191594Y43264D01*
X191622Y43235D01*
X191636Y43221D01*
X191721Y43123D01*
X191805Y42996D01*
X191876Y42855D01*
X191946Y42714D01*
X191989Y42573D01*
X192031Y42460D01*
X192045Y42389D01*
X192059Y42375D01*
Y42361D01*
X192087Y42234D01*
X192116Y42079D01*
X192144Y41896D01*
X192172Y41713D01*
X192200Y41332D01*
X192214Y40938D01*
X192228Y40754D01*
Y40571D01*
X192243Y40416D01*
Y40275D01*
Y40162D01*
Y40063D01*
Y40007D01*
Y39993D01*
Y39683D01*
X192228Y39387D01*
Y39119D01*
X192214Y38879D01*
X192200Y38654D01*
X192186Y38456D01*
X192158Y38273D01*
X192144Y38118D01*
X192130Y37977D01*
X192101Y37864D01*
X192087Y37766D01*
X192073Y37681D01*
X192059Y37625D01*
Y37568D01*
X192045Y37554D01*
Y37540D01*
X191989Y37343D01*
X191918Y37188D01*
X191848Y37047D01*
X191791Y36948D01*
X191735Y36863D01*
X191679Y36807D01*
X191650Y36779D01*
X191636Y36765D01*
X191538Y36694D01*
X191439Y36638D01*
X191340Y36610D01*
X191242Y36581D01*
X191171Y36567D01*
X191101Y36553D01*
X191044D01*
X190917Y36567D01*
X190805Y36581D01*
X190706Y36624D01*
X190621Y36666D01*
X190551Y36694D01*
X190494Y36737D01*
X190466Y36751D01*
X190452Y36765D01*
X190368Y36863D01*
X190283Y36990D01*
X190212Y37131D01*
X190142Y37272D01*
X190100Y37399D01*
X190057Y37512D01*
X190043Y37582D01*
X190029Y37611D01*
X190001Y37752D01*
X189973Y37907D01*
X189945Y38076D01*
X189931Y38259D01*
X189902Y38654D01*
X189888Y39049D01*
X189874Y39232D01*
Y39415D01*
X189860Y39570D01*
Y39711D01*
Y39824D01*
Y39922D01*
Y39979D01*
Y39993D01*
Y40303D01*
X189874Y40599D01*
Y40853D01*
X189888Y41107D01*
X189902Y41318D01*
X189916Y41529D01*
X189931Y41699D01*
X189959Y41868D01*
X189973Y42009D01*
X189987Y42122D01*
X190001Y42220D01*
X190015Y42305D01*
X190029Y42361D01*
Y42418D01*
X190043Y42432D01*
Y42446D01*
X190100Y42643D01*
X190170Y42812D01*
X190227Y42939D01*
X190297Y43052D01*
X190354Y43123D01*
X190396Y43179D01*
X190424Y43207D01*
X190438Y43221D01*
X190537Y43292D01*
X190650Y43348D01*
X190748Y43390D01*
X190847Y43418D01*
X190917Y43433D01*
X190988Y43447D01*
X191044D01*
X191171Y43433D01*
D02*
G37*
%LPC*%
G36*
X195846Y333204D02*
X194140D01*
Y330681D01*
X191588D01*
Y333204D01*
Y326410D01*
Y328933D01*
X194140D01*
Y326410D01*
X191588D01*
X198412D01*
Y328933D01*
Y326410D01*
X195846D01*
Y328933D01*
X198412D01*
D01*
D01*
D01*
Y330681D01*
X195846D01*
Y333204D01*
D02*
G37*
G36*
X232643Y462007D02*
X228358D01*
X231121D01*
X230980Y461682D01*
X230797Y461386D01*
X230599Y461104D01*
X230402Y460879D01*
X230233Y460696D01*
X230077Y460555D01*
X230021Y460498D01*
X229979Y460456D01*
X229951Y460442D01*
X229937Y460428D01*
X229626Y460202D01*
X229330Y460005D01*
X229063Y459850D01*
X228823Y459737D01*
X228626Y459652D01*
X228485Y459582D01*
X228428Y459568D01*
X228386Y459554D01*
X228372Y459540D01*
X228358D01*
Y460061D01*
Y452195D01*
Y457848D01*
X228865Y458045D01*
X229316Y458257D01*
X229528Y458370D01*
X229725Y458497D01*
X229908Y458609D01*
X230077Y458722D01*
X230233Y458835D01*
X230374Y458933D01*
X230486Y459018D01*
X230585Y459103D01*
X230670Y459173D01*
X230726Y459215D01*
X230754Y459244D01*
X230768Y459258D01*
Y452195D01*
X232643D01*
Y462007D01*
D02*
G37*
G36*
X243103Y456678D02*
X239424D01*
Y454803D01*
X243103D01*
Y456678D01*
D02*
G37*
G36*
X254169Y461823D02*
X248784Y461823D01*
X247826Y456734D01*
X249334Y456523D01*
X249461Y456650D01*
X249588Y456763D01*
X249715Y456861D01*
X249841Y456946D01*
X250081Y457073D01*
X250307Y457157D01*
X250504Y457200D01*
X250645Y457228D01*
X250702Y457242D01*
X250786D01*
X251012Y457228D01*
X251223Y457171D01*
X251406Y457101D01*
X251561Y457016D01*
X251674Y456918D01*
X251773Y456847D01*
X251829Y456791D01*
X251843Y456777D01*
X251984Y456593D01*
X252083Y456382D01*
X252153Y456156D01*
X252196Y455931D01*
X252238Y455733D01*
X252252Y455578D01*
Y455508D01*
Y455466D01*
Y455437D01*
Y455423D01*
X252238Y455085D01*
X252196Y454789D01*
X252125Y454549D01*
X252055Y454352D01*
X251970Y454183D01*
X251914Y454070D01*
X251857Y454014D01*
X251843Y453985D01*
X251688Y453830D01*
X251519Y453703D01*
X251350Y453619D01*
X251195Y453563D01*
X251054Y453534D01*
X250941Y453520D01*
X250871Y453506D01*
X250842D01*
X250659Y453520D01*
X250476Y453563D01*
X250321Y453619D01*
X250194Y453689D01*
X250081Y453760D01*
X249997Y453816D01*
X249940Y453859D01*
X249926Y453873D01*
X249799Y454028D01*
X249687Y454183D01*
X249602Y454352D01*
X249545Y454507D01*
X249503Y454648D01*
X249475Y454775D01*
X249461Y454845D01*
Y454874D01*
X247600Y454676D01*
X247642Y454451D01*
X247685Y454239D01*
X247826Y453859D01*
X247981Y453520D01*
X248065Y453379D01*
X248164Y453238D01*
X248249Y453125D01*
X248319Y453027D01*
X248404Y452942D01*
X248460Y452858D01*
X248516Y452801D01*
X248559Y452759D01*
X248587Y452745D01*
X248601Y452731D01*
X248770Y452604D01*
X248939Y452491D01*
X249123Y452393D01*
X249306Y452322D01*
X249687Y452181D01*
X250025Y452096D01*
X250194Y452068D01*
X250335Y452054D01*
X250476Y452040D01*
X250589Y452026D01*
X250687Y452012D01*
X250814D01*
X251124Y452026D01*
X251420Y452068D01*
X251688Y452125D01*
X251942Y452209D01*
X252182Y452308D01*
X252393Y452421D01*
X252591Y452533D01*
X252774Y452660D01*
X252929Y452773D01*
X253070Y452886D01*
X253197Y452999D01*
X253295Y453097D01*
X253366Y453182D01*
X253422Y453238D01*
X253450Y453281D01*
X253465Y453295D01*
X253591Y453478D01*
X253704Y453661D01*
X253789Y453844D01*
X253873Y454042D01*
X254000Y454408D01*
X254085Y454747D01*
X254113Y454888D01*
X254127Y455029D01*
X254155Y455155D01*
Y455268D01*
X254169Y455353D01*
Y455466D01*
X254155Y455733D01*
X254127Y455987D01*
X254085Y456227D01*
X254028Y456452D01*
X253972Y456650D01*
X253887Y456847D01*
X253817Y457030D01*
X253732Y457186D01*
X253648Y457326D01*
X253577Y457453D01*
X253493Y457566D01*
X253436Y457651D01*
X253380Y457721D01*
X253338Y457777D01*
X253309Y457806D01*
X253295Y457820D01*
X253126Y457975D01*
X252957Y458116D01*
X252774Y458243D01*
X252591Y458355D01*
X252421Y458440D01*
X252238Y458511D01*
X251914Y458623D01*
X251759Y458666D01*
X251618Y458694D01*
X251491Y458708D01*
X251392Y458722D01*
X251308Y458736D01*
X251181D01*
X250941Y458722D01*
X250702Y458680D01*
X250490Y458637D01*
X250293Y458581D01*
X250138Y458511D01*
X250011Y458468D01*
X249926Y458426D01*
X249912Y458412D01*
X249898D01*
X250194Y460075D01*
X253732Y460075D01*
Y461823D01*
X254169D01*
D02*
G37*
G36*
X263671Y461950D02*
X254578D01*
D01*
X258074Y452195D01*
X260203D01*
X263671Y461950D01*
D02*
G37*
G36*
X227004Y461950D02*
X219265D01*
Y452195D01*
Y460301D01*
X222155D01*
Y452195D01*
X224129D01*
Y460301D01*
X227004D01*
Y461950D01*
D02*
G37*
G36*
X198514D02*
X189422D01*
X192918Y452195D01*
X195047D01*
X198514Y461950D01*
D02*
G37*
G36*
X267547Y462007D02*
X267406D01*
X267153Y461992D01*
X266913Y461964D01*
X266673Y461908D01*
X266462Y461852D01*
X266264Y461767D01*
X266081Y461682D01*
X265926Y461598D01*
X265771Y461499D01*
X265644Y461400D01*
X265517Y461316D01*
X265419Y461231D01*
X265348Y461147D01*
X265278Y461090D01*
X265236Y461034D01*
X265207Y461006D01*
X265193Y460992D01*
X265024Y460752D01*
X264883Y460470D01*
X264756Y460174D01*
X264643Y459864D01*
X264559Y459540D01*
X264474Y459201D01*
X264418Y458877D01*
X264361Y458553D01*
X264333Y458243D01*
X264305Y457961D01*
X264277Y457693D01*
X264263Y457467D01*
X264249Y457284D01*
Y457016D01*
X264263Y456509D01*
X264291Y456044D01*
X264333Y455607D01*
X264390Y455212D01*
X264446Y454860D01*
X264517Y454535D01*
X264601Y454253D01*
X264686Y453999D01*
X264756Y453788D01*
X264841Y453591D01*
X264911Y453436D01*
X264982Y453309D01*
X265024Y453224D01*
X265066Y453154D01*
X265095Y453111D01*
X265109Y453097D01*
X265278Y452900D01*
X265461Y452745D01*
X265644Y452590D01*
X265842Y452477D01*
X266025Y452364D01*
X266222Y452280D01*
X266406Y452209D01*
X266589Y452153D01*
X266758Y452096D01*
X266913Y452068D01*
X267054Y452040D01*
X267167Y452026D01*
X267265D01*
X267350Y452012D01*
X270578D01*
Y457002D01*
X270564Y457510D01*
X270536Y457975D01*
X270494Y458398D01*
X270423Y458792D01*
X270353Y459159D01*
X270282Y459483D01*
X270184Y459779D01*
X270099Y460033D01*
X270014Y460273D01*
X269930Y460456D01*
X269845Y460625D01*
X269775Y460766D01*
X269704Y460865D01*
X269662Y460935D01*
X269634Y460978D01*
X269620Y460992D01*
X269465Y461175D01*
X269295Y461330D01*
X269112Y461457D01*
X268929Y461584D01*
X268746Y461682D01*
X268562Y461753D01*
X268393Y461823D01*
X268210Y461880D01*
X268041Y461922D01*
X267900Y461950D01*
X267759Y461978D01*
X267646Y461992D01*
X267547Y462007D01*
D02*
G37*
G36*
X217869Y461950D02*
X210088D01*
Y452012D01*
Y456438D01*
X210102Y456156D01*
Y455888D01*
X210116Y455649D01*
X210130Y455423D01*
X210144Y455226D01*
X210159Y455043D01*
X210187Y454874D01*
X210201Y454733D01*
X210215Y454606D01*
X210229Y454493D01*
X210243Y454408D01*
X210257Y454338D01*
Y454296D01*
X210271Y454267D01*
Y454253D01*
X210342Y454042D01*
X210412Y453844D01*
X210511Y453661D01*
X210595Y453506D01*
X210680Y453365D01*
X210751Y453252D01*
X210807Y453196D01*
X210821Y453168D01*
X210990Y452985D01*
X211173Y452815D01*
X211371Y452674D01*
X211554Y452547D01*
X211709Y452449D01*
X211850Y452378D01*
X211935Y452336D01*
X211949Y452322D01*
X211963D01*
X212104Y452266D01*
X212259Y452223D01*
X212611Y452139D01*
X212964Y452082D01*
X213302Y452054D01*
X213457Y452040D01*
X213612Y452026D01*
X213739D01*
X213866Y452012D01*
X214091D01*
X214500Y452026D01*
X214867Y452054D01*
X215191Y452110D01*
X215459Y452167D01*
X215572Y452181D01*
X215685Y452209D01*
X215769Y452237D01*
X215840Y452266D01*
X215896Y452280D01*
X215938Y452294D01*
X215952Y452308D01*
X215966D01*
X216220Y452421D01*
X216446Y452562D01*
X216643Y452688D01*
X216812Y452815D01*
X216939Y452928D01*
X217038Y453013D01*
X217094Y453069D01*
X217108Y453097D01*
X217263Y453295D01*
X217390Y453506D01*
X217489Y453703D01*
X217574Y453901D01*
X217630Y454070D01*
X217672Y454211D01*
X217686Y454253D01*
Y454296D01*
X217700Y454310D01*
Y454324D01*
X217729Y454479D01*
X217757Y454648D01*
X217785Y454831D01*
X217799Y455014D01*
X217827Y455437D01*
X217855Y455846D01*
Y456030D01*
Y456213D01*
X217869Y456382D01*
Y461950D01*
D02*
G37*
G36*
X208566Y462133D02*
X199106D01*
D01*
X203815D01*
X203392Y462119D01*
X202983Y462077D01*
X202631Y462007D01*
X202321Y461936D01*
X202194Y461894D01*
X202067Y461866D01*
X201968Y461838D01*
X201884Y461795D01*
X201813Y461781D01*
X201757Y461753D01*
X201728Y461739D01*
X201714D01*
X201461Y461626D01*
X201221Y461485D01*
X201010Y461330D01*
X200826Y461189D01*
X200671Y461062D01*
X200544Y460949D01*
X200474Y460879D01*
X200460Y460865D01*
X200446Y460851D01*
X200248Y460625D01*
X200065Y460386D01*
X199910Y460174D01*
X199783Y459963D01*
X199684Y459779D01*
X199600Y459638D01*
X199586Y459582D01*
X199557Y459540D01*
X199543Y459525D01*
Y459511D01*
X199403Y459117D01*
X199290Y458694D01*
X199219Y458271D01*
X199163Y457876D01*
X199149Y457693D01*
X199135Y457524D01*
X199121Y457383D01*
Y457256D01*
X199106Y457143D01*
Y452012D01*
Y457002D01*
X199121Y456579D01*
X199163Y456171D01*
X199219Y455790D01*
X199304Y455437D01*
X199403Y455113D01*
X199515Y454817D01*
X199628Y454535D01*
X199755Y454296D01*
X199868Y454070D01*
X199980Y453887D01*
X200093Y453718D01*
X200192Y453577D01*
X200277Y453478D01*
X200333Y453393D01*
X200375Y453351D01*
X200389Y453337D01*
X200643Y453097D01*
X200911Y452900D01*
X201179Y452717D01*
X201475Y452576D01*
X201757Y452449D01*
X202053Y452336D01*
X202321Y452252D01*
X202603Y452181D01*
X202856Y452125D01*
X203096Y452082D01*
X203307Y452054D01*
X203491Y452040D01*
X203632Y452026D01*
X203744Y452012D01*
X203843D01*
X204238Y452026D01*
X204604Y452068D01*
X204957Y452139D01*
X205281Y452223D01*
X205591Y452322D01*
X205873Y452435D01*
X206127Y452547D01*
X206366Y452674D01*
X206564Y452801D01*
X206747Y452914D01*
X206902Y453027D01*
X207029Y453125D01*
X207142Y453210D01*
X207212Y453281D01*
X207255Y453323D01*
X207269Y453337D01*
X207494Y453605D01*
X207691Y453887D01*
X207875Y454183D01*
X208016Y454479D01*
X208143Y454789D01*
X208255Y455099D01*
X208340Y455409D01*
X208410Y455705D01*
X208453Y455973D01*
X208495Y456241D01*
X208523Y456466D01*
X208551Y456664D01*
Y456833D01*
X208566Y456960D01*
Y457059D01*
X208551Y457496D01*
X208509Y457904D01*
X208453Y458285D01*
X208368Y458652D01*
X208270Y458976D01*
X208157Y459286D01*
X208044Y459568D01*
X207917Y459808D01*
X207790Y460033D01*
X207677Y460230D01*
X207565Y460400D01*
X207466Y460541D01*
X207395Y460639D01*
X207325Y460724D01*
X207283Y460766D01*
X207269Y460780D01*
X207015Y461020D01*
X206747Y461231D01*
X206465Y461414D01*
X206183Y461570D01*
X205887Y461697D01*
X205605Y461809D01*
X205323Y461894D01*
X205055Y461964D01*
X204802Y462021D01*
X204562Y462063D01*
X204350Y462091D01*
X204167Y462119D01*
X204026D01*
X203913Y462133D01*
X208566D01*
D01*
D02*
G37*
G36*
X243068Y444605D02*
X239389D01*
Y442730D01*
X243068D01*
Y444605D01*
D02*
G37*
G36*
X217834Y449878D02*
X215861D01*
Y444464D01*
Y444253D01*
Y444055D01*
X215847Y443872D01*
Y443703D01*
X215833Y443562D01*
Y443421D01*
X215818Y443294D01*
Y443181D01*
X215790Y443012D01*
X215776Y442885D01*
X215762Y442815D01*
Y442787D01*
X215720Y442603D01*
X215649Y442448D01*
X215565Y442308D01*
X215480Y442181D01*
X215396Y442082D01*
X215325Y442011D01*
X215269Y441969D01*
X215254Y441955D01*
X215085Y441842D01*
X214874Y441758D01*
X214677Y441701D01*
X214465Y441659D01*
X214282Y441631D01*
X214141Y441617D01*
X214000D01*
X213704Y441631D01*
X213450Y441673D01*
X213225Y441730D01*
X213027Y441800D01*
X212886Y441856D01*
X212773Y441913D01*
X212717Y441955D01*
X212689Y441969D01*
X212534Y442110D01*
X212407Y442279D01*
X212294Y442434D01*
X212224Y442589D01*
X212167Y442730D01*
X212125Y442843D01*
X212097Y442914D01*
Y442942D01*
X212083Y443026D01*
X212069Y443111D01*
Y443224D01*
X212055Y443351D01*
X212040Y443619D01*
Y443900D01*
X212026Y444154D01*
Y444267D01*
Y444380D01*
Y444464D01*
Y444521D01*
Y444563D01*
Y444577D01*
Y449878D01*
X210053D01*
Y439939D01*
Y444366D01*
X210067Y444084D01*
Y443816D01*
X210081Y443576D01*
X210095Y443351D01*
X210109Y443153D01*
X210123Y442970D01*
X210151Y442801D01*
X210166Y442660D01*
X210180Y442533D01*
X210194Y442420D01*
X210208Y442336D01*
X210222Y442265D01*
Y442223D01*
X210236Y442195D01*
Y442181D01*
X210306Y441969D01*
X210377Y441772D01*
X210476Y441589D01*
X210560Y441433D01*
X210645Y441292D01*
X210715Y441180D01*
X210772Y441123D01*
X210786Y441095D01*
X210955Y440912D01*
X211138Y440743D01*
X211336Y440602D01*
X211519Y440475D01*
X211674Y440376D01*
X211815Y440306D01*
X211899Y440263D01*
X211914Y440249D01*
X211928D01*
X212069Y440193D01*
X212224Y440151D01*
X212576Y440066D01*
X212929Y440010D01*
X213267Y439981D01*
X213422Y439967D01*
X213577Y439953D01*
X213704D01*
X213831Y439939D01*
X210053D01*
X214056D01*
X214465Y439953D01*
X214832Y439981D01*
X215156Y440038D01*
X215424Y440094D01*
X215536Y440108D01*
X215649Y440136D01*
X215734Y440165D01*
X215804Y440193D01*
X215861Y440207D01*
X215903Y440221D01*
X215917Y440235D01*
X215931D01*
X216185Y440348D01*
X216411Y440489D01*
X216608Y440616D01*
X216777Y440743D01*
X216904Y440855D01*
X217003Y440940D01*
X217059Y440997D01*
X217073Y441025D01*
X217228Y441222D01*
X217355Y441433D01*
X217454Y441631D01*
X217538Y441828D01*
X217595Y441997D01*
X217637Y442138D01*
X217651Y442181D01*
Y442223D01*
X217665Y442237D01*
Y442251D01*
X217693Y442406D01*
X217722Y442575D01*
X217750Y442759D01*
X217764Y442942D01*
X217792Y443365D01*
X217820Y443774D01*
Y443957D01*
Y444140D01*
X217834Y444309D01*
Y449878D01*
D02*
G37*
G36*
X250737Y449934D02*
X250610D01*
X250314Y449920D01*
X250046Y449892D01*
X249792Y449835D01*
X249581Y449779D01*
X249412Y449723D01*
X249271Y449666D01*
X249186Y449638D01*
X249172Y449624D01*
X249158D01*
X248932Y449497D01*
X248721Y449356D01*
X248552Y449215D01*
X248411Y449088D01*
X248298Y448961D01*
X248213Y448863D01*
X248157Y448806D01*
X248143Y448778D01*
X248016Y448567D01*
X247903Y448341D01*
X247819Y448101D01*
X247734Y447876D01*
X247678Y447664D01*
X247635Y447509D01*
X247621Y447439D01*
Y447397D01*
X247607Y447368D01*
Y447354D01*
X249327Y447072D01*
X249369Y447298D01*
X249426Y447495D01*
X249482Y447664D01*
X249552Y447791D01*
X249623Y447904D01*
X249679Y447989D01*
X249722Y448031D01*
X249736Y448045D01*
X249863Y448158D01*
X250004Y448242D01*
X250145Y448299D01*
X250271Y448341D01*
X250384Y448369D01*
X250469Y448383D01*
X250553D01*
X250723Y448369D01*
X250892Y448341D01*
X251019Y448285D01*
X251131Y448242D01*
X251230Y448186D01*
X251287Y448130D01*
X251329Y448101D01*
X251343Y448087D01*
X251441Y447975D01*
X251512Y447834D01*
X251568Y447707D01*
X251597Y447580D01*
X251625Y447467D01*
X251639Y447382D01*
Y447326D01*
Y447298D01*
X251625Y447086D01*
X251583Y446903D01*
X251512Y446748D01*
X251441Y446621D01*
X251357Y446508D01*
X251301Y446438D01*
X251244Y446381D01*
X251230Y446367D01*
X251061Y446255D01*
X250878Y446170D01*
X250680Y446114D01*
X250497Y446071D01*
X250328Y446057D01*
X250187Y446043D01*
X250060D01*
X249863Y444535D01*
X250046Y444577D01*
X250201Y444619D01*
X250356Y444648D01*
X250483Y444662D01*
X250582Y444676D01*
X250723D01*
X250920Y444662D01*
X251089Y444605D01*
X251244Y444549D01*
X251385Y444464D01*
X251484Y444394D01*
X251568Y444323D01*
X251625Y444267D01*
X251639Y444253D01*
X251766Y444084D01*
X251864Y443900D01*
X251935Y443717D01*
X251991Y443534D01*
X252020Y443365D01*
X252034Y443238D01*
Y443153D01*
Y443139D01*
Y443125D01*
X252020Y442857D01*
X251977Y442618D01*
X251907Y442406D01*
X251836Y442237D01*
X251752Y442110D01*
X251695Y442011D01*
X251639Y441941D01*
X251625Y441927D01*
X251470Y441786D01*
X251301Y441673D01*
X251145Y441603D01*
X250990Y441546D01*
X250849Y441518D01*
X250751Y441504D01*
X250680Y441490D01*
X250652D01*
X250455Y441504D01*
X250286Y441546D01*
X250131Y441603D01*
X249989Y441673D01*
X249891Y441730D01*
X249806Y441786D01*
X249750Y441828D01*
X249736Y441842D01*
X249609Y441997D01*
X249496Y442166D01*
X249426Y442350D01*
X249355Y442519D01*
X249313Y442674D01*
X249285Y442801D01*
X249271Y442885D01*
Y442900D01*
Y442914D01*
X247466Y442688D01*
X247494Y442463D01*
X247551Y442251D01*
X247678Y441856D01*
X247833Y441518D01*
X247931Y441377D01*
X248016Y441236D01*
X248100Y441109D01*
X248185Y441011D01*
X248256Y440912D01*
X248326Y440841D01*
X248382Y440785D01*
X248425Y440743D01*
X248453Y440714D01*
X248467Y440700D01*
X248636Y440574D01*
X248820Y440447D01*
X248989Y440348D01*
X249186Y440263D01*
X249552Y440122D01*
X249891Y440038D01*
X250060Y440010D01*
X250201Y439981D01*
X250328Y439967D01*
X250441Y439953D01*
X250539Y439939D01*
X247466D01*
X253951Y439939D01*
X250666Y439939D01*
X250920Y439953D01*
X251174Y439981D01*
X251399Y440024D01*
X251625Y440080D01*
X251822Y440151D01*
X252020Y440221D01*
X252203Y440306D01*
X252358Y440390D01*
X252499Y440475D01*
X252640Y440560D01*
X252738Y440630D01*
X252837Y440700D01*
X252908Y440757D01*
X252964Y440799D01*
X252992Y440827D01*
X253006Y440841D01*
X253176Y441011D01*
X253316Y441194D01*
X253443Y441377D01*
X253556Y441560D01*
X253641Y441758D01*
X253725Y441941D01*
X253838Y442279D01*
X253866Y442434D01*
X253894Y442589D01*
X253923Y442716D01*
X253937Y442829D01*
X253951Y442914D01*
Y443041D01*
X253923Y443365D01*
X253866Y443647D01*
X253796Y443915D01*
X253697Y444126D01*
X253598Y444309D01*
X253528Y444436D01*
X253472Y444521D01*
X253443Y444549D01*
X253246Y444760D01*
X253020Y444944D01*
X252795Y445085D01*
X252583Y445197D01*
X252400Y445282D01*
X252245Y445324D01*
X252189Y445352D01*
X252146D01*
X252118Y445367D01*
X252104D01*
X252358Y445522D01*
X252569Y445677D01*
X252753Y445846D01*
X252922Y446015D01*
X253063Y446184D01*
X253176Y446353D01*
X253260Y446522D01*
X253345Y446678D01*
X253401Y446833D01*
X253443Y446974D01*
X253472Y447100D01*
X253486Y447213D01*
X253500Y447298D01*
X253514Y447368D01*
Y447411D01*
Y447425D01*
X253500Y447594D01*
X253486Y447749D01*
X253401Y448059D01*
X253302Y448341D01*
X253176Y448581D01*
X253049Y448778D01*
X252936Y448919D01*
X252894Y448975D01*
X252851Y449018D01*
X252837Y449032D01*
X252823Y449046D01*
X252668Y449201D01*
X252485Y449342D01*
X252316Y449455D01*
X252132Y449553D01*
X251935Y449652D01*
X251752Y449723D01*
X251399Y449821D01*
X251244Y449864D01*
X251089Y449892D01*
X250962Y449906D01*
X250835Y449920D01*
X250737Y449934D01*
D02*
G37*
G36*
X263635Y449878D02*
X254543D01*
X258039Y440122D01*
X260168D01*
X263635Y449878D01*
D02*
G37*
G36*
X234144Y449934D02*
X227589D01*
X231043D01*
X230804Y449920D01*
X230578Y449906D01*
X230141Y449835D01*
X229774Y449723D01*
X229605Y449666D01*
X229450Y449596D01*
X229309Y449539D01*
X229196Y449469D01*
X229084Y449412D01*
X228999Y449370D01*
X228929Y449314D01*
X228886Y449286D01*
X228858Y449271D01*
X228844Y449257D01*
X228689Y449116D01*
X228548Y448975D01*
X228421Y448806D01*
X228308Y448623D01*
X228139Y448256D01*
X227998Y447904D01*
X227956Y447721D01*
X227914Y447566D01*
X227871Y447425D01*
X227857Y447298D01*
X227829Y447185D01*
Y447114D01*
X227815Y447058D01*
Y447044D01*
X229676Y446861D01*
X229704Y447143D01*
X229760Y447382D01*
X229817Y447594D01*
X229887Y447749D01*
X229944Y447876D01*
X230000Y447960D01*
X230042Y448017D01*
X230056Y448031D01*
X230197Y448144D01*
X230352Y448228D01*
X230508Y448299D01*
X230663Y448341D01*
X230789Y448369D01*
X230902Y448383D01*
X231001D01*
X231212Y448369D01*
X231396Y448327D01*
X231551Y448270D01*
X231692Y448214D01*
X231790Y448158D01*
X231875Y448101D01*
X231917Y448059D01*
X231931Y448045D01*
X232044Y447904D01*
X232129Y447749D01*
X232185Y447594D01*
X232227Y447439D01*
X232255Y447298D01*
X232270Y447171D01*
Y447100D01*
Y447086D01*
Y447072D01*
X232255Y446861D01*
X232213Y446663D01*
X232143Y446466D01*
X232072Y446297D01*
X232002Y446142D01*
X231931Y446029D01*
X231889Y445959D01*
X231875Y445930D01*
X231819Y445846D01*
X231734Y445747D01*
X231621Y445620D01*
X231508Y445508D01*
X231255Y445240D01*
X231001Y444972D01*
X230747Y444718D01*
X230634Y444605D01*
X230522Y444521D01*
X230437Y444436D01*
X230381Y444380D01*
X230338Y444337D01*
X230324Y444323D01*
X230042Y444055D01*
X229788Y443802D01*
X229549Y443562D01*
X229337Y443351D01*
X229140Y443139D01*
X228971Y442942D01*
X228816Y442773D01*
X228689Y442603D01*
X228576Y442463D01*
X228477Y442336D01*
X228393Y442237D01*
X228337Y442138D01*
X228280Y442082D01*
X228252Y442025D01*
X228224Y441997D01*
Y441983D01*
X228041Y441659D01*
X227899Y441321D01*
X227787Y441011D01*
X227702Y440729D01*
X227646Y440475D01*
X227632Y440376D01*
X227618Y440292D01*
X227603Y440221D01*
X227589Y440165D01*
Y440122D01*
X234144D01*
Y444619D01*
Y441856D01*
X230423D01*
X230536Y442040D01*
X230663Y442195D01*
X230719Y442265D01*
X230761Y442322D01*
X230789Y442350D01*
X230804Y442364D01*
X230860Y442420D01*
X230916Y442491D01*
X231085Y442646D01*
X231269Y442829D01*
X231452Y443012D01*
X231635Y443181D01*
X231790Y443322D01*
X231847Y443379D01*
X231889Y443421D01*
X231917Y443435D01*
X231931Y443449D01*
X232241Y443745D01*
X232495Y443985D01*
X232707Y444211D01*
X232876Y444380D01*
X233003Y444521D01*
X233087Y444619D01*
X233144Y444690D01*
X233158Y444704D01*
X233341Y444944D01*
X233496Y445169D01*
X233623Y445381D01*
X233722Y445564D01*
X233806Y445719D01*
X233863Y445846D01*
X233891Y445916D01*
X233905Y445945D01*
X233989Y446170D01*
X234046Y446396D01*
X234088Y446607D01*
X234116Y446804D01*
X234130Y446959D01*
X234144Y447086D01*
Y447199D01*
X234130Y447411D01*
X234102Y447622D01*
X234074Y447819D01*
X234018Y448003D01*
X233877Y448327D01*
X233736Y448609D01*
X233651Y448736D01*
X233581Y448834D01*
X233510Y448933D01*
X233440Y449003D01*
X233383Y449060D01*
X233355Y449116D01*
X233327Y449130D01*
X233313Y449145D01*
X233158Y449286D01*
X232974Y449412D01*
X232805Y449511D01*
X232608Y449596D01*
X232241Y449737D01*
X231875Y449835D01*
X231706Y449864D01*
X231551Y449892D01*
X231410Y449906D01*
X231283Y449920D01*
X231184Y449934D01*
X234144D01*
D02*
G37*
G36*
X226969Y449878D02*
X219230D01*
Y440122D01*
Y448228D01*
X222120D01*
Y440122D01*
X224093D01*
Y448228D01*
X226969D01*
Y449878D01*
D02*
G37*
G36*
X198479D02*
X189387D01*
X192883Y440122D01*
X195011D01*
X198479Y449878D01*
D02*
G37*
G36*
X270613Y449934D02*
X264185D01*
D01*
X267357D01*
X267103Y449920D01*
X266864Y449906D01*
X266638Y449864D01*
X266427Y449821D01*
X266229Y449765D01*
X266046Y449708D01*
X265891Y449638D01*
X265750Y449581D01*
X265609Y449511D01*
X265496Y449441D01*
X265412Y449384D01*
X265327Y449328D01*
X265271Y449286D01*
X265228Y449243D01*
X265200Y449229D01*
X265186Y449215D01*
X265059Y449074D01*
X264932Y448933D01*
X264834Y448778D01*
X264749Y448637D01*
X264608Y448327D01*
X264524Y448045D01*
X264467Y447791D01*
X264453Y447678D01*
X264439Y447594D01*
X264425Y447509D01*
Y447453D01*
Y447425D01*
Y447411D01*
X264439Y447171D01*
X264481Y446959D01*
X264524Y446748D01*
X264594Y446579D01*
X264650Y446424D01*
X264693Y446325D01*
X264735Y446255D01*
X264749Y446227D01*
X264890Y446043D01*
X265059Y445874D01*
X265228Y445733D01*
X265412Y445606D01*
X265567Y445522D01*
X265694Y445451D01*
X265778Y445409D01*
X265792Y445395D01*
X265806D01*
X265510Y445240D01*
X265257Y445085D01*
X265045Y444915D01*
X264876Y444746D01*
X264735Y444591D01*
X264636Y444478D01*
X264580Y444394D01*
X264566Y444380D01*
Y444366D01*
X264439Y444112D01*
X264340Y443858D01*
X264284Y443604D01*
X264228Y443379D01*
X264199Y443196D01*
X264185Y443041D01*
Y439939D01*
Y442900D01*
X264199Y442632D01*
X264228Y442392D01*
X264284Y442152D01*
X264354Y441941D01*
X264425Y441730D01*
X264510Y441546D01*
X264608Y441377D01*
X264707Y441222D01*
X264806Y441095D01*
X264904Y440968D01*
X264989Y440870D01*
X265059Y440785D01*
X265130Y440714D01*
X265186Y440672D01*
X265214Y440644D01*
X265228Y440630D01*
X265398Y440503D01*
X265581Y440404D01*
X265764Y440306D01*
X265947Y440235D01*
X266314Y440108D01*
X266666Y440024D01*
X266835Y439996D01*
X266976Y439981D01*
X267103Y439967D01*
X267216Y439953D01*
X267315Y439939D01*
X267442D01*
X267710Y439953D01*
X267949Y439981D01*
X268189Y440024D01*
X268414Y440066D01*
X268612Y440137D01*
X268795Y440207D01*
X268978Y440277D01*
X269133Y440362D01*
X269274Y440447D01*
X269387Y440517D01*
X269500Y440588D01*
X269584Y440658D01*
X269655Y440700D01*
X269697Y440743D01*
X269725Y440771D01*
X269739Y440785D01*
X269895Y440954D01*
X270021Y441123D01*
X270148Y441307D01*
X270247Y441490D01*
X270331Y441673D01*
X270402Y441856D01*
X270501Y442209D01*
X270543Y442364D01*
X270571Y442505D01*
X270585Y442646D01*
X270599Y442759D01*
X270613Y442857D01*
Y443041D01*
Y442984D01*
X270599Y443280D01*
X270543Y443548D01*
X270487Y443802D01*
X270402Y444013D01*
X270331Y444182D01*
X270261Y444309D01*
X270205Y444394D01*
X270191Y444422D01*
X270021Y444648D01*
X269824Y444845D01*
X269613Y445014D01*
X269415Y445141D01*
X269232Y445254D01*
X269091Y445338D01*
X269035Y445367D01*
X268992Y445381D01*
X268964Y445395D01*
X268950D01*
X269176Y445508D01*
X269373Y445634D01*
X269542Y445761D01*
X269683Y445902D01*
X269796Y446015D01*
X269866Y446114D01*
X269923Y446170D01*
X269937Y446198D01*
X270064Y446410D01*
X270148Y446621D01*
X270219Y446819D01*
X270261Y447002D01*
X270289Y447171D01*
X270303Y447298D01*
Y447382D01*
Y447397D01*
Y447411D01*
X270289Y447608D01*
X270275Y447805D01*
X270176Y448158D01*
X270064Y448454D01*
X269923Y448722D01*
X269768Y448933D01*
X269711Y449018D01*
X269655Y449088D01*
X269599Y449145D01*
X269556Y449187D01*
X269542Y449201D01*
X269528Y449215D01*
X269373Y449342D01*
X269218Y449455D01*
X269035Y449553D01*
X268865Y449638D01*
X268499Y449765D01*
X268146Y449849D01*
X267991Y449878D01*
X267836Y449892D01*
X267710Y449906D01*
X267583Y449920D01*
X267498Y449934D01*
X270613D01*
D01*
D02*
G37*
G36*
X203878Y450061D02*
X203780D01*
X203357Y450047D01*
X202948Y450004D01*
X202595Y449934D01*
X202285Y449864D01*
X202158Y449821D01*
X202031Y449793D01*
X201933Y449765D01*
X201848Y449723D01*
X201778Y449708D01*
X201721Y449680D01*
X201693Y449666D01*
X201679D01*
X201425Y449553D01*
X201186Y449412D01*
X200974Y449257D01*
X200791Y449116D01*
X200636Y448989D01*
X200509Y448877D01*
X200439Y448806D01*
X200424Y448792D01*
X200410Y448778D01*
X200213Y448552D01*
X200030Y448313D01*
X199875Y448101D01*
X199748Y447890D01*
X199649Y447707D01*
X199565Y447566D01*
X199550Y447509D01*
X199522Y447467D01*
X199508Y447453D01*
Y447439D01*
X199367Y447044D01*
X199254Y446621D01*
X199184Y446198D01*
X199128Y445803D01*
X199114Y445620D01*
X199099Y445451D01*
X199085Y445310D01*
Y445183D01*
X199071Y445070D01*
Y439939D01*
Y444930D01*
X199085Y444507D01*
X199128Y444098D01*
X199184Y443717D01*
X199268Y443365D01*
X199367Y443041D01*
X199480Y442744D01*
X199593Y442463D01*
X199720Y442223D01*
X199832Y441997D01*
X199945Y441814D01*
X200058Y441645D01*
X200157Y441504D01*
X200241Y441405D01*
X200298Y441321D01*
X200340Y441278D01*
X200354Y441264D01*
X200608Y441025D01*
X200876Y440827D01*
X201143Y440644D01*
X201439Y440503D01*
X201721Y440376D01*
X202017Y440263D01*
X202285Y440179D01*
X202567Y440108D01*
X202821Y440052D01*
X203061Y440010D01*
X203272Y439981D01*
X203455Y439967D01*
X203596Y439953D01*
X203709Y439939D01*
X199071D01*
X208530D01*
X203808D01*
X204202Y439953D01*
X204569Y439996D01*
X204921Y440066D01*
X205246Y440151D01*
X205556Y440249D01*
X205838Y440362D01*
X206091Y440475D01*
X206331Y440602D01*
X206528Y440729D01*
X206712Y440841D01*
X206867Y440954D01*
X206994Y441053D01*
X207106Y441137D01*
X207177Y441208D01*
X207219Y441250D01*
X207233Y441264D01*
X207459Y441532D01*
X207656Y441814D01*
X207840Y442110D01*
X207980Y442406D01*
X208107Y442716D01*
X208220Y443026D01*
X208305Y443337D01*
X208375Y443633D01*
X208417Y443900D01*
X208460Y444168D01*
X208488Y444394D01*
X208516Y444591D01*
Y444760D01*
X208530Y444887D01*
Y444986D01*
X208516Y445423D01*
X208474Y445832D01*
X208417Y446212D01*
X208333Y446579D01*
X208234Y446903D01*
X208121Y447213D01*
X208009Y447495D01*
X207882Y447735D01*
X207755Y447960D01*
X207642Y448158D01*
X207529Y448327D01*
X207431Y448468D01*
X207360Y448567D01*
X207290Y448651D01*
X207247Y448693D01*
X207233Y448708D01*
X206980Y448947D01*
X206712Y449159D01*
X206430Y449342D01*
X206148Y449497D01*
X205852Y449624D01*
X205570Y449737D01*
X205288Y449821D01*
X205020Y449892D01*
X204766Y449948D01*
X204527Y449990D01*
X204315Y450019D01*
X204132Y450047D01*
X203991D01*
X203878Y450061D01*
D02*
G37*
G36*
X213936Y437805D02*
X212019D01*
D01*
X213936D01*
D02*
G37*
G36*
X199064Y437988D02*
D01*
Y434309D01*
Y437988D01*
D02*
G37*
G36*
X208523D02*
X199064D01*
D01*
X203773D01*
X203350Y437974D01*
X202941Y437932D01*
X202588Y437861D01*
X202278Y437791D01*
X202151Y437748D01*
X202024Y437720D01*
X201926Y437692D01*
X201841Y437650D01*
X201771Y437636D01*
X201714Y437607D01*
X201686Y437593D01*
X201672D01*
X201418Y437481D01*
X201179Y437340D01*
X200967Y437185D01*
X200784Y437044D01*
X200629Y436917D01*
X200502Y436804D01*
X200432Y436734D01*
X200417Y436719D01*
X200403Y436705D01*
X200206Y436480D01*
X200023Y436240D01*
X199868Y436029D01*
X199741Y435817D01*
X199642Y435634D01*
X199557Y435493D01*
X199543Y435437D01*
X199515Y435394D01*
X199501Y435380D01*
Y435366D01*
X199360Y434971D01*
X199247Y434548D01*
X199177Y434126D01*
X199121Y433731D01*
X199106Y433548D01*
X199092Y433378D01*
X199078Y433237D01*
Y433111D01*
X199064Y432998D01*
Y434309D01*
Y432857D01*
X199078Y432434D01*
X199121Y432025D01*
X199177Y431645D01*
X199261Y431292D01*
X199360Y430968D01*
X199473Y430672D01*
X199586Y430390D01*
X199713Y430150D01*
X199825Y429925D01*
X199938Y429741D01*
X200051Y429572D01*
X200150Y429431D01*
X200234Y429333D01*
X200291Y429248D01*
X200333Y429206D01*
X200347Y429192D01*
X200601Y428952D01*
X200869Y428755D01*
X201136Y428571D01*
X201432Y428430D01*
X201714Y428303D01*
X202010Y428191D01*
X202278Y428106D01*
X202560Y428036D01*
X202814Y427979D01*
X203054Y427937D01*
X203265Y427909D01*
X203448Y427895D01*
X203589Y427881D01*
X203702Y427867D01*
X203801D01*
X204195Y427881D01*
X204562Y427923D01*
X204914Y427993D01*
X205239Y428078D01*
X205549Y428177D01*
X205831Y428289D01*
X206084Y428402D01*
X206324Y428529D01*
X206521Y428656D01*
X206705Y428769D01*
X206860Y428881D01*
X206987Y428980D01*
X207099Y429065D01*
X207170Y429135D01*
X207212Y429178D01*
X207226Y429192D01*
X207452Y429459D01*
X207649Y429741D01*
X207833Y430037D01*
X207973Y430334D01*
X208100Y430644D01*
X208213Y430954D01*
X208298Y431264D01*
X208368Y431560D01*
X208410Y431828D01*
X208453Y432096D01*
X208481Y432321D01*
X208509Y432519D01*
Y432688D01*
X208523Y432815D01*
Y427867D01*
D01*
Y437988D01*
D02*
G37*
G36*
X243061Y432533D02*
X239382D01*
Y430658D01*
X243061D01*
Y432533D01*
D02*
G37*
G36*
X217827Y437805D02*
X215854D01*
Y432392D01*
Y432180D01*
Y431983D01*
X215840Y431800D01*
Y431630D01*
X215826Y431489D01*
Y431348D01*
X215811Y431222D01*
Y431109D01*
X215783Y430940D01*
X215769Y430813D01*
X215755Y430742D01*
Y430714D01*
X215713Y430531D01*
X215642Y430376D01*
X215558Y430235D01*
X215473Y430108D01*
X215389Y430009D01*
X215318Y429939D01*
X215262Y429897D01*
X215247Y429882D01*
X215078Y429770D01*
X214867Y429685D01*
X214669Y429629D01*
X214458Y429586D01*
X214275Y429558D01*
X214134Y429544D01*
X213993D01*
X213697Y429558D01*
X213443Y429600D01*
X213218Y429657D01*
X213020Y429727D01*
X212879Y429784D01*
X212766Y429840D01*
X212710Y429882D01*
X212682Y429897D01*
X212527Y430037D01*
X212400Y430207D01*
X212287Y430362D01*
X212217Y430517D01*
X212160Y430658D01*
X212118Y430770D01*
X212090Y430841D01*
Y430869D01*
X212076Y430954D01*
X212062Y431038D01*
Y431151D01*
X212048Y431278D01*
X212033Y431546D01*
Y431828D01*
X212019Y432081D01*
Y432194D01*
Y432307D01*
Y432392D01*
Y432448D01*
Y432490D01*
Y432504D01*
Y437805D01*
X210046D01*
Y432293D01*
X210060Y432011D01*
Y431743D01*
X210074Y431503D01*
X210088Y431278D01*
X210102Y431081D01*
X210116Y430897D01*
X210144Y430728D01*
X210159Y430587D01*
X210173Y430460D01*
X210187Y430348D01*
X210201Y430263D01*
X210215Y430192D01*
Y430150D01*
X210229Y430122D01*
Y430108D01*
X210299Y429897D01*
X210370Y429699D01*
X210469Y429516D01*
X210553Y429361D01*
X210638Y429220D01*
X210708Y429107D01*
X210765Y429051D01*
X210779Y429022D01*
X210948Y428839D01*
X211131Y428670D01*
X211329Y428529D01*
X211512Y428402D01*
X211667Y428303D01*
X211808Y428233D01*
X211892Y428191D01*
X211907Y428177D01*
X211921D01*
X212062Y428120D01*
X212217Y428078D01*
X212569Y427993D01*
X212922Y427937D01*
X213260Y427909D01*
X213415Y427895D01*
X213570Y427881D01*
X213697D01*
X213824Y427867D01*
X214049D01*
X214458Y427881D01*
X214825Y427909D01*
X215149Y427965D01*
X215417Y428022D01*
X215529Y428036D01*
X215642Y428064D01*
X215727Y428092D01*
X215797Y428120D01*
X215854Y428134D01*
X215896Y428148D01*
X215910Y428162D01*
X215924D01*
X216178Y428275D01*
X216404Y428416D01*
X216601Y428543D01*
X216770Y428670D01*
X216897Y428783D01*
X216996Y428867D01*
X217052Y428924D01*
X217066Y428952D01*
X217221Y429149D01*
X217348Y429361D01*
X217447Y429558D01*
X217531Y429756D01*
X217588Y429925D01*
X217630Y430066D01*
X217644Y430108D01*
Y430150D01*
X217658Y430164D01*
Y430178D01*
X217686Y430334D01*
X217715Y430503D01*
X217743Y430686D01*
X217757Y430869D01*
X217785Y431292D01*
X217813Y431701D01*
Y431884D01*
Y432067D01*
X217827Y432237D01*
Y427867D01*
D01*
Y437805D01*
D02*
G37*
G36*
X253944Y437861D02*
X247459Y437861D01*
D01*
X250603D01*
X250307Y437847D01*
X250039Y437819D01*
X249785Y437763D01*
X249574Y437706D01*
X249405Y437650D01*
X249264Y437593D01*
X249179Y437565D01*
X249165Y437551D01*
X249151D01*
X248925Y437424D01*
X248714Y437283D01*
X248545Y437142D01*
X248404Y437015D01*
X248291Y436889D01*
X248206Y436790D01*
X248150Y436734D01*
X248136Y436705D01*
X248009Y436494D01*
X247896Y436268D01*
X247812Y436029D01*
X247727Y435803D01*
X247671Y435592D01*
X247628Y435437D01*
X247614Y435366D01*
Y435324D01*
X247600Y435296D01*
Y435281D01*
X249320Y435000D01*
X249362Y435225D01*
X249419Y435423D01*
X249475Y435592D01*
X249545Y435718D01*
X249616Y435831D01*
X249672Y435916D01*
X249715Y435958D01*
X249729Y435972D01*
X249856Y436085D01*
X249997Y436170D01*
X250138Y436226D01*
X250264Y436268D01*
X250377Y436297D01*
X250462Y436311D01*
X250546D01*
X250716Y436297D01*
X250885Y436268D01*
X251012Y436212D01*
X251124Y436170D01*
X251223Y436113D01*
X251279Y436057D01*
X251322Y436029D01*
X251336Y436015D01*
X251434Y435902D01*
X251505Y435761D01*
X251561Y435634D01*
X251590Y435507D01*
X251618Y435394D01*
X251632Y435310D01*
Y435253D01*
Y435225D01*
X251618Y435014D01*
X251576Y434830D01*
X251505Y434675D01*
X251434Y434548D01*
X251350Y434436D01*
X251294Y434365D01*
X251237Y434309D01*
X251223Y434295D01*
X251054Y434182D01*
X250871Y434097D01*
X250673Y434041D01*
X250490Y433999D01*
X250321Y433985D01*
X250180Y433970D01*
X250053D01*
X249856Y432462D01*
X250039Y432504D01*
X250194Y432547D01*
X250349Y432575D01*
X250476Y432589D01*
X250575Y432603D01*
X250716D01*
X250913Y432589D01*
X251082Y432533D01*
X251237Y432476D01*
X251378Y432392D01*
X251477Y432321D01*
X251561Y432251D01*
X251618Y432194D01*
X251632Y432180D01*
X251759Y432011D01*
X251857Y431828D01*
X251928Y431645D01*
X251984Y431461D01*
X252013Y431292D01*
X252027Y431165D01*
Y431081D01*
Y431067D01*
Y431052D01*
X252013Y430785D01*
X251970Y430545D01*
X251900Y430334D01*
X251829Y430164D01*
X251745Y430037D01*
X251688Y429939D01*
X251632Y429868D01*
X251618Y429854D01*
X251463Y429713D01*
X251294Y429600D01*
X251138Y429530D01*
X250983Y429474D01*
X250842Y429445D01*
X250744Y429431D01*
X250673Y429417D01*
X250645D01*
X250448Y429431D01*
X250278Y429474D01*
X250124Y429530D01*
X249982Y429600D01*
X249884Y429657D01*
X249799Y429713D01*
X249743Y429756D01*
X249729Y429770D01*
X249602Y429925D01*
X249489Y430094D01*
X249419Y430277D01*
X249348Y430446D01*
X249306Y430601D01*
X249278Y430728D01*
X249264Y430813D01*
Y430827D01*
Y430841D01*
X247459Y430615D01*
D01*
X247487Y430390D01*
X247544Y430178D01*
X247671Y429784D01*
X247826Y429445D01*
X247924Y429304D01*
X248009Y429163D01*
X248093Y429037D01*
X248178Y428938D01*
X248249Y428839D01*
X248319Y428769D01*
X248375Y428712D01*
X248418Y428670D01*
X248446Y428642D01*
X248460Y428628D01*
X248629Y428501D01*
X248813Y428374D01*
X248982Y428275D01*
X249179Y428191D01*
X249545Y428050D01*
X249884Y427965D01*
X250053Y427937D01*
X250194Y427909D01*
X250321Y427895D01*
X250434Y427881D01*
X250532Y427867D01*
X250659D01*
X250913Y427881D01*
X251167Y427909D01*
X251392Y427951D01*
X251618Y428008D01*
X251815Y428078D01*
X252013Y428148D01*
X252196Y428233D01*
X252351Y428318D01*
X252492Y428402D01*
X252633Y428487D01*
X252731Y428557D01*
X252830Y428628D01*
X252901Y428684D01*
X252957Y428726D01*
X252985Y428755D01*
X252999Y428769D01*
X253168Y428938D01*
X253309Y429121D01*
X253436Y429304D01*
X253549Y429488D01*
X253634Y429685D01*
X253718Y429868D01*
X253831Y430207D01*
X253859Y430362D01*
X253887Y430517D01*
X253916Y430644D01*
X253930Y430756D01*
X253944Y430841D01*
Y430968D01*
X253916Y431292D01*
X253859Y431574D01*
X253789Y431842D01*
X253690Y432053D01*
X253591Y432237D01*
X253521Y432364D01*
X253465Y432448D01*
X253436Y432476D01*
X253239Y432688D01*
X253013Y432871D01*
X252788Y433012D01*
X252576Y433125D01*
X252393Y433209D01*
X252238Y433252D01*
X252182Y433280D01*
X252139D01*
X252111Y433294D01*
X252097D01*
X252351Y433449D01*
X252562Y433604D01*
X252745Y433773D01*
X252915Y433942D01*
X253056Y434112D01*
X253168Y434281D01*
X253253Y434450D01*
X253338Y434605D01*
X253394Y434760D01*
X253436Y434901D01*
X253465Y435028D01*
X253479Y435141D01*
X253493Y435225D01*
X253507Y435296D01*
Y435338D01*
Y435352D01*
X253493Y435521D01*
X253479Y435676D01*
X253394Y435986D01*
X253295Y436268D01*
X253168Y436508D01*
X253042Y436705D01*
X252929Y436846D01*
X252887Y436903D01*
X252844Y436945D01*
X252830Y436959D01*
X252816Y436973D01*
X252661Y437128D01*
X252478Y437269D01*
X252309Y437382D01*
X252125Y437481D01*
X251928Y437579D01*
X251745Y437650D01*
X251392Y437748D01*
X251237Y437791D01*
X251082Y437819D01*
X250955Y437833D01*
X250828Y437847D01*
X250730Y437861D01*
X253944Y437861D01*
D01*
D02*
G37*
G36*
X234236Y437861D02*
X227752D01*
D01*
X230895D01*
X230599Y437847D01*
X230331Y437819D01*
X230077Y437763D01*
X229866Y437706D01*
X229697Y437650D01*
X229556Y437593D01*
X229471Y437565D01*
X229457Y437551D01*
X229443D01*
X229218Y437424D01*
X229006Y437283D01*
X228837Y437142D01*
X228696Y437015D01*
X228583Y436889D01*
X228499Y436790D01*
X228442Y436734D01*
X228428Y436705D01*
X228301Y436494D01*
X228188Y436268D01*
X228104Y436029D01*
X228019Y435803D01*
X227963Y435592D01*
X227921Y435437D01*
X227907Y435366D01*
Y435324D01*
X227892Y435296D01*
Y435281D01*
X229612Y435000D01*
X229655Y435225D01*
X229711Y435423D01*
X229767Y435592D01*
X229838Y435718D01*
X229908Y435831D01*
X229965Y435916D01*
X230007Y435958D01*
X230021Y435972D01*
X230148Y436085D01*
X230289Y436170D01*
X230430Y436226D01*
X230557Y436268D01*
X230670Y436297D01*
X230754Y436311D01*
X230839D01*
X231008Y436297D01*
X231177Y436268D01*
X231304Y436212D01*
X231417Y436170D01*
X231515Y436113D01*
X231572Y436057D01*
X231614Y436029D01*
X231628Y436015D01*
X231727Y435902D01*
X231797Y435761D01*
X231854Y435634D01*
X231882Y435507D01*
X231910Y435394D01*
X231924Y435310D01*
Y435253D01*
Y435225D01*
X231910Y435014D01*
X231868Y434830D01*
X231797Y434675D01*
X231727Y434548D01*
X231642Y434436D01*
X231586Y434365D01*
X231530Y434309D01*
X231515Y434295D01*
X231346Y434182D01*
X231163Y434097D01*
X230966Y434041D01*
X230782Y433999D01*
X230613Y433985D01*
X230472Y433970D01*
X230345D01*
X230148Y432462D01*
X230331Y432504D01*
X230486Y432547D01*
X230641Y432575D01*
X230768Y432589D01*
X230867Y432603D01*
X231008D01*
X231205Y432589D01*
X231374Y432533D01*
X231530Y432476D01*
X231670Y432392D01*
X231769Y432321D01*
X231854Y432251D01*
X231910Y432194D01*
X231924Y432180D01*
X232051Y432011D01*
X232150Y431828D01*
X232220Y431645D01*
X232277Y431461D01*
X232305Y431292D01*
X232319Y431165D01*
Y431081D01*
Y431067D01*
Y431052D01*
X232305Y430785D01*
X232263Y430545D01*
X232192Y430334D01*
X232122Y430164D01*
X232037Y430037D01*
X231981Y429939D01*
X231924Y429868D01*
X231910Y429854D01*
X231755Y429713D01*
X231586Y429600D01*
X231431Y429530D01*
X231276Y429474D01*
X231135Y429445D01*
X231036Y429431D01*
X230966Y429417D01*
X230938D01*
X230740Y429431D01*
X230571Y429474D01*
X230416Y429530D01*
X230275Y429600D01*
X230176Y429657D01*
X230092Y429713D01*
X230035Y429756D01*
X230021Y429770D01*
X229894Y429925D01*
X229781Y430094D01*
X229711Y430277D01*
X229641Y430446D01*
X229598Y430601D01*
X229570Y430728D01*
X229556Y430813D01*
Y430827D01*
Y430841D01*
X227752Y430615D01*
D01*
X227780Y430390D01*
X227836Y430178D01*
X227963Y429784D01*
X228118Y429445D01*
X228217Y429304D01*
X228301Y429163D01*
X228386Y429037D01*
X228470Y428938D01*
X228541Y428839D01*
X228612Y428769D01*
X228668Y428712D01*
X228710Y428670D01*
X228738Y428642D01*
X228752Y428628D01*
X228922Y428501D01*
X229105Y428374D01*
X229274Y428275D01*
X229471Y428191D01*
X229838Y428050D01*
X230176Y427965D01*
X230345Y427937D01*
X230486Y427909D01*
X230613Y427895D01*
X230726Y427881D01*
X230825Y427867D01*
X230952D01*
X231205Y427881D01*
X231459Y427909D01*
X231685Y427951D01*
X231910Y428008D01*
X232108Y428078D01*
X232305Y428148D01*
X232488Y428233D01*
X232643Y428318D01*
X232784Y428402D01*
X232925Y428487D01*
X233024Y428557D01*
X233123Y428628D01*
X233193Y428684D01*
X233249Y428726D01*
X233278Y428755D01*
X233292Y428769D01*
X233461Y428938D01*
X233602Y429121D01*
X233729Y429304D01*
X233841Y429488D01*
X233926Y429685D01*
X234011Y429868D01*
X234123Y430207D01*
X234152Y430362D01*
X234180Y430517D01*
X234208Y430644D01*
X234222Y430756D01*
X234236Y430841D01*
Y430968D01*
X234208Y431292D01*
X234152Y431574D01*
X234081Y431842D01*
X233982Y432053D01*
X233884Y432237D01*
X233813Y432363D01*
X233757Y432448D01*
X233729Y432476D01*
X233531Y432688D01*
X233306Y432871D01*
X233080Y433012D01*
X232869Y433125D01*
X232686Y433209D01*
X232530Y433252D01*
X232474Y433280D01*
X232432D01*
X232404Y433294D01*
X232390D01*
X232643Y433449D01*
X232855Y433604D01*
X233038Y433773D01*
X233207Y433942D01*
X233348Y434112D01*
X233461Y434281D01*
X233545Y434450D01*
X233630Y434605D01*
X233686Y434760D01*
X233729Y434901D01*
X233757Y435028D01*
X233771Y435141D01*
X233785Y435225D01*
X233799Y435296D01*
Y435338D01*
Y435352D01*
X233785Y435521D01*
X233771Y435676D01*
X233686Y435986D01*
X233588Y436268D01*
X233461Y436508D01*
X233334Y436705D01*
X233221Y436846D01*
X233179Y436903D01*
X233137Y436945D01*
X233123Y436959D01*
X233108Y436973D01*
X232953Y437128D01*
X232770Y437269D01*
X232601Y437382D01*
X232418Y437481D01*
X232220Y437579D01*
X232037Y437650D01*
X231685Y437748D01*
X231530Y437791D01*
X231374Y437819D01*
X231248Y437833D01*
X231121Y437847D01*
X231022Y437861D01*
X234236D01*
D01*
D02*
G37*
G36*
X198472Y437805D02*
D01*
Y428642D01*
Y437805D01*
D02*
G37*
G36*
X263628Y437805D02*
D01*
Y428501D01*
Y437805D01*
D02*
G37*
G36*
D02*
X254536D01*
D01*
X258032Y428050D01*
X260161D01*
X263628Y437805D01*
D02*
G37*
G36*
X226962Y437805D02*
X219223D01*
Y436156D01*
X222113D01*
Y428050D01*
X219223D01*
D01*
X226962D01*
Y437805D01*
D02*
G37*
G36*
X198472D02*
X189380D01*
D01*
X192876Y428050D01*
X195004D01*
X198472Y437805D01*
D02*
G37*
G36*
X270620Y437861D02*
X267279D01*
X266984Y437847D01*
X266716Y437819D01*
X266462Y437763D01*
X266250Y437706D01*
X266081Y437650D01*
X265940Y437593D01*
X265856Y437565D01*
X265842Y437551D01*
X265828D01*
X265602Y437424D01*
X265390Y437283D01*
X265221Y437142D01*
X265080Y437015D01*
X264968Y436889D01*
X264883Y436790D01*
X264827Y436734D01*
X264813Y436705D01*
X264686Y436494D01*
X264573Y436268D01*
X264488Y436029D01*
X264404Y435803D01*
X264347Y435592D01*
X264305Y435437D01*
X264291Y435366D01*
Y435324D01*
X264277Y435296D01*
Y435282D01*
X265997Y435000D01*
X266039Y435225D01*
X266095Y435423D01*
X266152Y435592D01*
X266222Y435719D01*
X266293Y435831D01*
X266349Y435916D01*
X266391Y435958D01*
X266406Y435972D01*
X266532Y436085D01*
X266673Y436170D01*
X266814Y436226D01*
X266941Y436268D01*
X267054Y436297D01*
X267139Y436311D01*
X267223D01*
X267392Y436297D01*
X267561Y436268D01*
X267688Y436212D01*
X267801Y436170D01*
X267900Y436113D01*
X267956Y436057D01*
X267999Y436029D01*
X268013Y436015D01*
X268111Y435902D01*
X268182Y435761D01*
X268238Y435634D01*
X268266Y435507D01*
X268295Y435394D01*
X268309Y435310D01*
Y435253D01*
Y435225D01*
X268295Y435014D01*
X268252Y434830D01*
X268182Y434675D01*
X268111Y434548D01*
X268027Y434436D01*
X267970Y434365D01*
X267914Y434309D01*
X267900Y434295D01*
X267731Y434182D01*
X267547Y434097D01*
X267350Y434041D01*
X267167Y433999D01*
X266998Y433985D01*
X266857Y433970D01*
X266730D01*
X266532Y432462D01*
X266716Y432504D01*
X266871Y432547D01*
X267026Y432575D01*
X267153Y432589D01*
X267251Y432603D01*
X267392D01*
X267590Y432589D01*
X267759Y432533D01*
X267914Y432476D01*
X268055Y432392D01*
X268153Y432321D01*
X268238Y432251D01*
X268295Y432194D01*
X268309Y432180D01*
X268435Y432011D01*
X268534Y431828D01*
X268605Y431645D01*
X268661Y431461D01*
X268689Y431292D01*
X268703Y431165D01*
Y431081D01*
Y431067D01*
Y431053D01*
X268689Y430785D01*
X268647Y430545D01*
X268577Y430334D01*
X268506Y430164D01*
X268421Y430037D01*
X268365Y429939D01*
X268309Y429868D01*
X268295Y429854D01*
X268139Y429713D01*
X267970Y429600D01*
X267815Y429530D01*
X267660Y429474D01*
X267519Y429445D01*
X267421Y429431D01*
X267350Y429417D01*
X267322D01*
X267125Y429431D01*
X266955Y429474D01*
X266800Y429530D01*
X266659Y429600D01*
X266561Y429657D01*
X266476Y429713D01*
X266420Y429756D01*
X266406Y429770D01*
X266279Y429925D01*
X266166Y430094D01*
X266095Y430277D01*
X266025Y430446D01*
X265983Y430601D01*
X265954Y430728D01*
X265940Y430813D01*
Y430827D01*
Y430841D01*
X264136Y430615D01*
D01*
X264164Y430390D01*
X264221Y430178D01*
X264347Y429784D01*
X264502Y429445D01*
X264601Y429304D01*
X264686Y429164D01*
X264770Y429037D01*
X264855Y428938D01*
X264925Y428839D01*
X264996Y428769D01*
X265052Y428712D01*
X265095Y428670D01*
X265123Y428642D01*
X265137Y428628D01*
X265306Y428501D01*
X265489Y428374D01*
X265658Y428275D01*
X265856Y428191D01*
X266222Y428050D01*
X266561Y427965D01*
X266730Y427937D01*
X266871Y427909D01*
X266998Y427895D01*
X267110Y427881D01*
X267209Y427867D01*
X264136D01*
X267336D01*
X267590Y427881D01*
X267843Y427909D01*
X268069Y427951D01*
X268295Y428008D01*
X268492Y428078D01*
X268689Y428148D01*
X268873Y428233D01*
X269028Y428318D01*
X269168Y428402D01*
X269310Y428487D01*
X269408Y428557D01*
X269507Y428628D01*
X269577Y428684D01*
X269634Y428726D01*
X269662Y428755D01*
X269676Y428769D01*
X269845Y428938D01*
X269986Y429121D01*
X270113Y429304D01*
X270226Y429488D01*
X270310Y429685D01*
X270395Y429868D01*
X270508Y430207D01*
X270536Y430362D01*
X270564Y430517D01*
X270592Y430644D01*
X270606Y430756D01*
X270620Y430841D01*
Y427867D01*
D01*
Y430968D01*
X270592Y431292D01*
X270536Y431574D01*
X270465Y431842D01*
X270367Y432053D01*
X270268Y432237D01*
X270198Y432364D01*
X270141Y432448D01*
X270113Y432476D01*
X269916Y432688D01*
X269690Y432871D01*
X269465Y433012D01*
X269253Y433125D01*
X269070Y433209D01*
X268915Y433252D01*
X268858Y433280D01*
X268816D01*
X268788Y433294D01*
X268774D01*
X269028Y433449D01*
X269239Y433604D01*
X269422Y433773D01*
X269591Y433942D01*
X269732Y434112D01*
X269845Y434281D01*
X269930Y434450D01*
X270014Y434605D01*
X270071Y434760D01*
X270113Y434901D01*
X270141Y435028D01*
X270155Y435141D01*
X270169Y435225D01*
X270184Y435296D01*
Y435338D01*
Y435352D01*
X270169Y435521D01*
X270155Y435676D01*
X270071Y435986D01*
X269972Y436268D01*
X269845Y436508D01*
X269718Y436705D01*
X269606Y436846D01*
X269563Y436903D01*
X269521Y436945D01*
X269507Y436959D01*
X269493Y436973D01*
X269338Y437128D01*
X269154Y437269D01*
X268985Y437382D01*
X268802Y437481D01*
X268605Y437579D01*
X268421Y437650D01*
X268069Y437748D01*
X267914Y437791D01*
X267759Y437819D01*
X267632Y437833D01*
X267505Y437847D01*
X267406Y437861D01*
X270620D01*
D01*
D02*
G37*
G36*
X253944Y430672D02*
Y427867D01*
D01*
Y430672D01*
D02*
G37*
G36*
X234236Y430813D02*
Y427867D01*
D01*
Y430813D01*
D02*
G37*
%LPD*%
G36*
X259188Y454733D02*
X256707Y461950D01*
X261570D01*
X259188Y454733D01*
D02*
G37*
G36*
X194032Y454733D02*
X191550Y461950D01*
X196414D01*
X194032Y454733D01*
D02*
G37*
G36*
X267533Y460442D02*
X267646Y460428D01*
X267745Y460386D01*
X267829Y460343D01*
X267900Y460301D01*
X267956Y460273D01*
X267984Y460244D01*
X267999Y460230D01*
X268083Y460132D01*
X268168Y460005D01*
X268238Y459864D01*
X268309Y459723D01*
X268351Y459582D01*
X268393Y459469D01*
X268407Y459399D01*
X268421Y459385D01*
Y459370D01*
X268450Y459244D01*
X268478Y459089D01*
X268506Y458905D01*
X268534Y458722D01*
X268562Y458341D01*
X268577Y457947D01*
X268591Y457763D01*
Y457580D01*
X268605Y457425D01*
Y457284D01*
Y457171D01*
Y457073D01*
Y457016D01*
Y457002D01*
Y456692D01*
X268591Y456396D01*
Y456128D01*
X268577Y455888D01*
X268562Y455663D01*
X268548Y455466D01*
X268520Y455282D01*
X268506Y455127D01*
X268492Y454986D01*
X268464Y454874D01*
X268450Y454775D01*
X268435Y454690D01*
X268421Y454634D01*
Y454577D01*
X268407Y454563D01*
Y454549D01*
X268351Y454352D01*
X268280Y454197D01*
X268210Y454056D01*
X268153Y453957D01*
X268097Y453873D01*
X268041Y453816D01*
X268013Y453788D01*
X267999Y453774D01*
X267900Y453703D01*
X267801Y453647D01*
X267702Y453619D01*
X267604Y453591D01*
X267533Y453577D01*
X267463Y453563D01*
X267406D01*
X267279Y453577D01*
X267167Y453591D01*
X267068Y453633D01*
X266984Y453675D01*
X266913Y453703D01*
X266857Y453746D01*
X266828Y453760D01*
X266814Y453774D01*
X266730Y453873D01*
X266645Y453999D01*
X266575Y454141D01*
X266504Y454282D01*
X266462Y454408D01*
X266420Y454521D01*
X266406Y454592D01*
X266391Y454620D01*
X266363Y454761D01*
X266335Y454916D01*
X266307Y455085D01*
X266293Y455268D01*
X266264Y455663D01*
X266250Y456058D01*
X266236Y456241D01*
Y456424D01*
X266222Y456579D01*
Y456720D01*
Y456833D01*
Y456932D01*
Y456988D01*
Y457002D01*
Y457312D01*
X266236Y457608D01*
Y457862D01*
X266250Y458116D01*
X266264Y458327D01*
X266279Y458539D01*
X266293Y458708D01*
X266321Y458877D01*
X266335Y459018D01*
X266349Y459131D01*
X266363Y459230D01*
X266377Y459314D01*
X266391Y459370D01*
Y459427D01*
X266406Y459441D01*
Y459455D01*
X266462Y459652D01*
X266532Y459822D01*
X266589Y459949D01*
X266659Y460061D01*
X266716Y460132D01*
X266758Y460188D01*
X266786Y460216D01*
X266800Y460230D01*
X266899Y460301D01*
X267012Y460357D01*
X267110Y460400D01*
X267209Y460428D01*
X267279Y460442D01*
X267350Y460456D01*
X267406D01*
X267533Y460442D01*
D02*
G37*
G36*
X270578Y452012D02*
X267406D01*
X267660Y452026D01*
X267900Y452054D01*
X268139Y452111D01*
X268351Y452167D01*
X268548Y452237D01*
X268731Y452322D01*
X268887Y452421D01*
X269042Y452519D01*
X269168Y452604D01*
X269295Y452703D01*
X269394Y452787D01*
X269479Y452858D01*
X269535Y452914D01*
X269577Y452971D01*
X269606Y452999D01*
X269620Y453013D01*
X269789Y453252D01*
X269930Y453534D01*
X270071Y453830D01*
X270169Y454155D01*
X270268Y454479D01*
X270339Y454803D01*
X270409Y455141D01*
X270465Y455466D01*
X270494Y455776D01*
X270522Y456058D01*
X270550Y456326D01*
X270564Y456551D01*
X270578Y456734D01*
Y452012D01*
D02*
G37*
G36*
X215896Y456537D02*
Y456325D01*
Y456128D01*
X215882Y455945D01*
Y455776D01*
X215868Y455635D01*
Y455494D01*
X215854Y455367D01*
Y455254D01*
X215826Y455085D01*
X215811Y454958D01*
X215797Y454888D01*
Y454859D01*
X215755Y454676D01*
X215685Y454521D01*
X215600Y454380D01*
X215515Y454253D01*
X215431Y454155D01*
X215360Y454084D01*
X215304Y454042D01*
X215290Y454028D01*
X215121Y453915D01*
X214909Y453830D01*
X214712Y453774D01*
X214500Y453732D01*
X214317Y453703D01*
X214176Y453689D01*
X214035D01*
X213739Y453703D01*
X213485Y453746D01*
X213260Y453802D01*
X213062Y453873D01*
X212922Y453929D01*
X212809Y453985D01*
X212752Y454028D01*
X212724Y454042D01*
X212569Y454183D01*
X212442Y454352D01*
X212329Y454507D01*
X212259Y454662D01*
X212202Y454803D01*
X212160Y454916D01*
X212132Y454986D01*
Y455014D01*
X212118Y455099D01*
X212104Y455184D01*
Y455296D01*
X212090Y455423D01*
X212076Y455691D01*
Y455973D01*
X212062Y456227D01*
Y456340D01*
Y456452D01*
Y456537D01*
Y456593D01*
Y456636D01*
Y456650D01*
Y461950D01*
X215896D01*
Y456537D01*
D02*
G37*
G36*
X204069Y460442D02*
X204280Y460414D01*
X204477Y460386D01*
X204661Y460329D01*
X204985Y460188D01*
X205140Y460118D01*
X205267Y460047D01*
X205394Y459963D01*
X205492Y459892D01*
X205577Y459822D01*
X205662Y459751D01*
X205718Y459695D01*
X205760Y459666D01*
X205774Y459638D01*
X205788Y459624D01*
X205915Y459455D01*
X206042Y459272D01*
X206141Y459089D01*
X206225Y458877D01*
X206352Y458454D01*
X206437Y458045D01*
X206479Y457862D01*
X206493Y457679D01*
X206507Y457524D01*
X206521Y457383D01*
X206536Y457256D01*
Y457171D01*
Y457115D01*
Y457101D01*
X206521Y456791D01*
X206507Y456495D01*
X206465Y456227D01*
X206423Y455987D01*
X206366Y455748D01*
X206296Y455536D01*
X206225Y455353D01*
X206155Y455184D01*
X206084Y455029D01*
X206014Y454902D01*
X205958Y454789D01*
X205887Y454690D01*
X205845Y454620D01*
X205802Y454577D01*
X205788Y454549D01*
X205774Y454535D01*
X205633Y454380D01*
X205478Y454253D01*
X205309Y454141D01*
X205154Y454042D01*
X204985Y453971D01*
X204830Y453901D01*
X204520Y453802D01*
X204252Y453732D01*
X204139Y453718D01*
X204040Y453703D01*
X203956Y453689D01*
X203843D01*
X203632Y453703D01*
X203420Y453732D01*
X203223Y453774D01*
X203039Y453830D01*
X202701Y453957D01*
X202433Y454126D01*
X202306Y454197D01*
X202208Y454282D01*
X202109Y454352D01*
X202039Y454422D01*
X201982Y454465D01*
X201940Y454507D01*
X201912Y454535D01*
X201898Y454549D01*
X201771Y454719D01*
X201644Y454902D01*
X201545Y455099D01*
X201461Y455311D01*
X201320Y455719D01*
X201235Y456128D01*
X201207Y456325D01*
X201179Y456495D01*
X201165Y456664D01*
X201150Y456805D01*
X201136Y456918D01*
Y457002D01*
Y457059D01*
Y457073D01*
X201150Y457383D01*
X201165Y457665D01*
X201207Y457933D01*
X201249Y458186D01*
X201306Y458412D01*
X201362Y458623D01*
X201432Y458807D01*
X201503Y458976D01*
X201573Y459131D01*
X201644Y459258D01*
X201700Y459356D01*
X201757Y459455D01*
X201799Y459525D01*
X201841Y459568D01*
X201855Y459596D01*
X201869Y459610D01*
X202010Y459765D01*
X202166Y459892D01*
X202335Y460005D01*
X202490Y460103D01*
X202659Y460188D01*
X202828Y460244D01*
X203138Y460357D01*
X203420Y460414D01*
X203533Y460428D01*
X203646Y460442D01*
X203730Y460456D01*
X203843D01*
X204069Y460442D01*
D02*
G37*
G36*
X259153Y442660D02*
X256672Y449878D01*
X261535D01*
X259153Y442660D01*
D02*
G37*
G36*
X193996Y442660D02*
X191515Y449878D01*
X196379D01*
X193996Y442660D01*
D02*
G37*
G36*
X267554Y448440D02*
X267724Y448397D01*
X267864Y448355D01*
X267991Y448299D01*
X268090Y448228D01*
X268161Y448186D01*
X268203Y448144D01*
X268217Y448130D01*
X268330Y448003D01*
X268400Y447862D01*
X268457Y447721D01*
X268499Y447580D01*
X268527Y447467D01*
X268541Y447368D01*
Y447312D01*
Y447284D01*
X268527Y447086D01*
X268485Y446903D01*
X268442Y446762D01*
X268386Y446635D01*
X268316Y446522D01*
X268273Y446452D01*
X268231Y446410D01*
X268217Y446396D01*
X268090Y446297D01*
X267949Y446212D01*
X267808Y446156D01*
X267667Y446128D01*
X267540Y446100D01*
X267442Y446086D01*
X267357D01*
X267174Y446100D01*
X267005Y446128D01*
X266864Y446184D01*
X266737Y446241D01*
X266638Y446297D01*
X266568Y446353D01*
X266525Y446381D01*
X266511Y446396D01*
X266413Y446522D01*
X266328Y446664D01*
X266272Y446804D01*
X266243Y446945D01*
X266215Y447072D01*
X266201Y447171D01*
Y447241D01*
Y447270D01*
X266215Y447467D01*
X266243Y447636D01*
X266300Y447777D01*
X266356Y447904D01*
X266413Y448003D01*
X266469Y448073D01*
X266497Y448116D01*
X266511Y448130D01*
X266638Y448242D01*
X266779Y448313D01*
X266920Y448369D01*
X267061Y448411D01*
X267188Y448440D01*
X267287Y448454D01*
X267371D01*
X267554Y448440D01*
D02*
G37*
G36*
X267597Y444591D02*
X267794Y444535D01*
X267963Y444478D01*
X268104Y444394D01*
X268217Y444323D01*
X268302Y444253D01*
X268358Y444197D01*
X268372Y444182D01*
X268499Y444013D01*
X268598Y443830D01*
X268668Y443647D01*
X268724Y443464D01*
X268753Y443308D01*
X268767Y443181D01*
Y443097D01*
Y443083D01*
Y443069D01*
X268753Y442787D01*
X268710Y442547D01*
X268640Y442336D01*
X268569Y442166D01*
X268499Y442026D01*
X268428Y441941D01*
X268386Y441870D01*
X268372Y441856D01*
X268217Y441715D01*
X268062Y441617D01*
X267907Y441546D01*
X267752Y441504D01*
X267611Y441476D01*
X267512Y441448D01*
X267413D01*
X267202Y441462D01*
X267005Y441518D01*
X266835Y441589D01*
X266695Y441659D01*
X266582Y441744D01*
X266497Y441800D01*
X266441Y441856D01*
X266427Y441870D01*
X266300Y442054D01*
X266201Y442251D01*
X266131Y442449D01*
X266088Y442646D01*
X266060Y442829D01*
X266032Y442970D01*
Y443026D01*
Y443069D01*
Y443083D01*
Y443097D01*
X266046Y443294D01*
X266088Y443492D01*
X266131Y443661D01*
X266201Y443816D01*
X266257Y443943D01*
X266300Y444041D01*
X266342Y444098D01*
X266356Y444126D01*
X266497Y444281D01*
X266666Y444408D01*
X266835Y444492D01*
X267005Y444549D01*
X267146Y444577D01*
X267272Y444605D01*
X267385D01*
X267597Y444591D01*
D02*
G37*
G36*
X204033Y448369D02*
X204245Y448341D01*
X204442Y448313D01*
X204625Y448256D01*
X204950Y448115D01*
X205105Y448045D01*
X205232Y447975D01*
X205358Y447890D01*
X205457Y447819D01*
X205542Y447749D01*
X205626Y447678D01*
X205683Y447622D01*
X205725Y447594D01*
X205739Y447566D01*
X205753Y447552D01*
X205880Y447382D01*
X206007Y447199D01*
X206106Y447016D01*
X206190Y446804D01*
X206317Y446381D01*
X206402Y445973D01*
X206444Y445789D01*
X206458Y445606D01*
X206472Y445451D01*
X206486Y445310D01*
X206500Y445183D01*
Y445099D01*
Y445042D01*
Y445028D01*
X206486Y444718D01*
X206472Y444422D01*
X206430Y444154D01*
X206388Y443914D01*
X206331Y443675D01*
X206261Y443463D01*
X206190Y443280D01*
X206120Y443111D01*
X206049Y442956D01*
X205979Y442829D01*
X205922Y442716D01*
X205852Y442618D01*
X205809Y442547D01*
X205767Y442505D01*
X205753Y442477D01*
X205739Y442463D01*
X205598Y442308D01*
X205443Y442181D01*
X205274Y442068D01*
X205119Y441969D01*
X204950Y441899D01*
X204795Y441828D01*
X204484Y441730D01*
X204217Y441659D01*
X204104Y441645D01*
X204005Y441631D01*
X203920Y441617D01*
X203808D01*
X203596Y441631D01*
X203385Y441659D01*
X203188Y441701D01*
X203004Y441758D01*
X202666Y441885D01*
X202398Y442054D01*
X202271Y442124D01*
X202173Y442209D01*
X202074Y442279D01*
X202003Y442350D01*
X201947Y442392D01*
X201905Y442434D01*
X201877Y442463D01*
X201862Y442477D01*
X201735Y442646D01*
X201609Y442829D01*
X201510Y443026D01*
X201425Y443238D01*
X201284Y443647D01*
X201200Y444055D01*
X201172Y444253D01*
X201143Y444422D01*
X201129Y444591D01*
X201115Y444732D01*
X201101Y444845D01*
Y444930D01*
Y444986D01*
Y445000D01*
X201115Y445310D01*
X201129Y445592D01*
X201172Y445860D01*
X201214Y446114D01*
X201270Y446339D01*
X201327Y446551D01*
X201397Y446734D01*
X201468Y446903D01*
X201538Y447058D01*
X201609Y447185D01*
X201665Y447284D01*
X201721Y447382D01*
X201764Y447453D01*
X201806Y447495D01*
X201820Y447523D01*
X201834Y447537D01*
X201975Y447692D01*
X202130Y447819D01*
X202299Y447932D01*
X202454Y448031D01*
X202624Y448115D01*
X202793Y448172D01*
X203103Y448285D01*
X203385Y448341D01*
X203498Y448355D01*
X203610Y448369D01*
X203695Y448383D01*
X203808D01*
X204033Y448369D01*
D02*
G37*
G36*
X208523Y432913D02*
X208509Y433350D01*
X208467Y433759D01*
X208410Y434140D01*
X208326Y434506D01*
X208227Y434830D01*
X208114Y435141D01*
X208002Y435423D01*
X207875Y435662D01*
X207748Y435888D01*
X207635Y436085D01*
X207522Y436254D01*
X207424Y436395D01*
X207353Y436494D01*
X207283Y436578D01*
X207240Y436621D01*
X207226Y436635D01*
X206973Y436875D01*
X206705Y437086D01*
X206423Y437269D01*
X206141Y437424D01*
X205845Y437551D01*
X205563Y437664D01*
X205281Y437748D01*
X205013Y437819D01*
X204759Y437875D01*
X204520Y437918D01*
X204308Y437946D01*
X204125Y437974D01*
X203984D01*
X203871Y437988D01*
X208523D01*
Y432913D01*
D02*
G37*
G36*
X204026Y436297D02*
X204238Y436268D01*
X204435Y436240D01*
X204618Y436184D01*
X204943Y436043D01*
X205098Y435972D01*
X205224Y435902D01*
X205351Y435817D01*
X205450Y435747D01*
X205535Y435676D01*
X205619Y435606D01*
X205676Y435549D01*
X205718Y435521D01*
X205732Y435493D01*
X205746Y435479D01*
X205873Y435310D01*
X206000Y435126D01*
X206098Y434943D01*
X206183Y434732D01*
X206310Y434309D01*
X206395Y433900D01*
X206437Y433717D01*
X206451Y433534D01*
X206465Y433378D01*
X206479Y433237D01*
X206493Y433111D01*
Y433026D01*
Y432970D01*
Y432956D01*
X206479Y432645D01*
X206465Y432349D01*
X206423Y432081D01*
X206381Y431842D01*
X206324Y431602D01*
X206254Y431391D01*
X206183Y431208D01*
X206113Y431038D01*
X206042Y430883D01*
X205972Y430756D01*
X205915Y430644D01*
X205845Y430545D01*
X205802Y430475D01*
X205760Y430432D01*
X205746Y430404D01*
X205732Y430390D01*
X205591Y430235D01*
X205436Y430108D01*
X205267Y429995D01*
X205112Y429897D01*
X204943Y429826D01*
X204788Y429756D01*
X204477Y429657D01*
X204209Y429586D01*
X204097Y429572D01*
X203998Y429558D01*
X203913Y429544D01*
X203801D01*
X203589Y429558D01*
X203378Y429586D01*
X203181Y429629D01*
X202997Y429685D01*
X202659Y429812D01*
X202391Y429981D01*
X202264Y430051D01*
X202166Y430136D01*
X202067Y430207D01*
X201996Y430277D01*
X201940Y430319D01*
X201898Y430362D01*
X201869Y430390D01*
X201855Y430404D01*
X201728Y430573D01*
X201602Y430756D01*
X201503Y430954D01*
X201418Y431165D01*
X201277Y431574D01*
X201193Y431983D01*
X201165Y432180D01*
X201136Y432349D01*
X201122Y432519D01*
X201108Y432659D01*
X201094Y432772D01*
Y432857D01*
Y432913D01*
Y432927D01*
X201108Y433237D01*
X201122Y433519D01*
X201165Y433787D01*
X201207Y434041D01*
X201263Y434267D01*
X201320Y434478D01*
X201390Y434661D01*
X201461Y434830D01*
X201531Y434986D01*
X201602Y435112D01*
X201658Y435211D01*
X201714Y435310D01*
X201757Y435380D01*
X201799Y435423D01*
X201813Y435451D01*
X201827Y435465D01*
X201968Y435620D01*
X202123Y435747D01*
X202292Y435859D01*
X202447Y435958D01*
X202617Y436043D01*
X202786Y436099D01*
X203096Y436212D01*
X203378Y436268D01*
X203491Y436282D01*
X203603Y436297D01*
X203688Y436311D01*
X203801D01*
X204026Y436297D01*
D02*
G37*
G36*
X259146Y430587D02*
X256665Y437805D01*
X261528D01*
X259146Y430587D01*
D02*
G37*
G36*
X226962Y428050D02*
X224086D01*
Y436156D01*
X226962D01*
Y428050D01*
D02*
G37*
G36*
X193989Y430587D02*
X191508Y437805D01*
X196372D01*
X193989Y430587D01*
D02*
G37*
%LPC*%
G36*
X572872Y749582D02*
X560559D01*
Y725418D01*
X572872D01*
Y749582D01*
D02*
G37*
G36*
X317777Y383480D02*
X317607D01*
X317100Y383466D01*
X316649Y383409D01*
X316452Y383367D01*
X316254Y383325D01*
X316071Y383282D01*
X315916Y383240D01*
X315775Y383184D01*
X315634Y383141D01*
X315535Y383099D01*
X315437Y383071D01*
X315366Y383029D01*
X315310Y383015D01*
X315282Y382986D01*
X315267D01*
X314830Y382733D01*
X314647Y382578D01*
X314464Y382437D01*
X314295Y382281D01*
X314140Y382127D01*
X313999Y381971D01*
X313872Y381830D01*
X313773Y381689D01*
X313675Y381563D01*
X313590Y381450D01*
X313519Y381351D01*
X313477Y381267D01*
X313435Y381210D01*
X313421Y381168D01*
X313407Y381154D01*
X313294Y380928D01*
X313195Y380703D01*
X313040Y380238D01*
X312927Y379772D01*
X312857Y379364D01*
X312829Y379166D01*
X312801Y378997D01*
X312786Y378842D01*
Y378701D01*
X312772Y378602D01*
Y378447D01*
X312801Y377926D01*
X312857Y377446D01*
X312955Y377009D01*
X312998Y376798D01*
X313054Y376614D01*
X313111Y376445D01*
X313153Y376290D01*
X313209Y376163D01*
X313252Y376051D01*
X313280Y375966D01*
X313308Y375896D01*
X313336Y375853D01*
Y375839D01*
X313576Y375416D01*
X313844Y375050D01*
X314126Y374725D01*
X314408Y374472D01*
X314534Y374359D01*
X314661Y374260D01*
X314760Y374176D01*
X314859Y374119D01*
X314929Y374063D01*
X315000Y374021D01*
X315028Y374007D01*
X315042Y373993D01*
X315267Y373880D01*
X315479Y373781D01*
X315944Y373626D01*
X316395Y373513D01*
X316804Y373443D01*
X317001Y373414D01*
X317171Y373386D01*
X317326Y373372D01*
X317467D01*
X317565Y373358D01*
X317720D01*
X318171Y373372D01*
X318594Y373429D01*
X319003Y373499D01*
X319356Y373584D01*
X319511Y373626D01*
X319652Y373668D01*
X319778Y373711D01*
X319891Y373739D01*
X319976Y373767D01*
X320032Y373795D01*
X320075Y373809D01*
X320089D01*
X320512Y373978D01*
X320864Y374162D01*
X321174Y374345D01*
X321442Y374500D01*
X321639Y374641D01*
X321710Y374697D01*
X321780Y374754D01*
X321823Y374796D01*
X321865Y374824D01*
X321893Y374852D01*
Y378771D01*
X317650D01*
Y377122D01*
X319905D01*
Y375867D01*
X319736Y375741D01*
X319553Y375628D01*
X319370Y375529D01*
X319200Y375444D01*
X319060Y375374D01*
X318933Y375318D01*
X318862Y375289D01*
X318848Y375275D01*
X318834D01*
X318608Y375191D01*
X318383Y375134D01*
X318171Y375092D01*
X317988Y375064D01*
X317819Y375050D01*
X317706Y375036D01*
X317593D01*
X317368Y375050D01*
X317142Y375078D01*
X316945Y375120D01*
X316748Y375177D01*
X316395Y375318D01*
X316254Y375388D01*
X316113Y375473D01*
X315986Y375557D01*
X315874Y375628D01*
X315789Y375712D01*
X315704Y375769D01*
X315648Y375825D01*
X315606Y375867D01*
X315578Y375896D01*
X315564Y375910D01*
X315437Y376079D01*
X315310Y376276D01*
X315211Y376474D01*
X315126Y376685D01*
X314986Y377122D01*
X314901Y377545D01*
X314873Y377742D01*
X314844Y377940D01*
X314830Y378095D01*
X314816Y378250D01*
X314802Y378363D01*
Y378461D01*
Y378518D01*
Y378532D01*
X314816Y378828D01*
X314830Y379096D01*
X314873Y379364D01*
X314915Y379603D01*
X314971Y379815D01*
X315042Y380012D01*
X315112Y380195D01*
X315183Y380364D01*
X315239Y380505D01*
X315310Y380632D01*
X315380Y380731D01*
X315437Y380815D01*
X315479Y380886D01*
X315521Y380928D01*
X315535Y380956D01*
X315549Y380970D01*
X315704Y381111D01*
X315860Y381253D01*
X316029Y381351D01*
X316198Y381450D01*
X316367Y381534D01*
X316536Y381605D01*
X316860Y381704D01*
X317015Y381732D01*
X317156Y381760D01*
X317283Y381774D01*
X317396Y381788D01*
X317481Y381802D01*
X317607D01*
X317918Y381788D01*
X318186Y381732D01*
X318425Y381675D01*
X318637Y381591D01*
X318792Y381520D01*
X318919Y381450D01*
X318989Y381393D01*
X319017Y381379D01*
X319215Y381210D01*
X319384Y381027D01*
X319525Y380844D01*
X319623Y380660D01*
X319708Y380491D01*
X319764Y380364D01*
X319793Y380280D01*
X319807Y380266D01*
Y380252D01*
X321766Y380618D01*
X321710Y380858D01*
X321625Y381097D01*
X321541Y381309D01*
X321428Y381506D01*
X321329Y381704D01*
X321216Y381873D01*
X321104Y382028D01*
X320991Y382169D01*
X320878Y382296D01*
X320779Y382408D01*
X320695Y382507D01*
X320610Y382578D01*
X320540Y382634D01*
X320483Y382690D01*
X320455Y382704D01*
X320441Y382719D01*
X320244Y382859D01*
X320032Y382972D01*
X319807Y383071D01*
X319567Y383156D01*
X319102Y383297D01*
X318651Y383381D01*
X318439Y383423D01*
X318242Y383438D01*
X318059Y383452D01*
X317904Y383466D01*
X317777Y383480D01*
D02*
G37*
G36*
X278136D02*
X277967D01*
X277600Y383466D01*
X277234Y383423D01*
X276910Y383353D01*
X276585Y383268D01*
X276303Y383170D01*
X276021Y383057D01*
X275782Y382930D01*
X275556Y382803D01*
X275345Y382676D01*
X275176Y382549D01*
X275021Y382437D01*
X274894Y382338D01*
X274795Y382253D01*
X274725Y382183D01*
X274682Y382141D01*
X274668Y382127D01*
X274443Y381859D01*
X274259Y381577D01*
X274090Y381281D01*
X273949Y380970D01*
X273822Y380646D01*
X273724Y380336D01*
X273639Y380026D01*
X273568Y379730D01*
X273512Y379434D01*
X273484Y379180D01*
X273456Y378941D01*
X273428Y378743D01*
Y378574D01*
X273413Y378447D01*
Y378334D01*
X273428Y377911D01*
X273470Y377517D01*
X273526Y377136D01*
X273611Y376798D01*
X273695Y376474D01*
X273808Y376163D01*
X273921Y375896D01*
X274034Y375656D01*
X274146Y375430D01*
X274259Y375233D01*
X274372Y375078D01*
X274457Y374937D01*
X274541Y374838D01*
X274598Y374754D01*
X274640Y374711D01*
X274654Y374697D01*
X274894Y374458D01*
X275147Y374260D01*
X275415Y374077D01*
X275683Y373936D01*
X275951Y373809D01*
X276219Y373697D01*
X276472Y373612D01*
X276712Y373541D01*
X276952Y373485D01*
X277163Y373443D01*
X277361Y373414D01*
X277516Y373400D01*
X277657Y373386D01*
X277755Y373372D01*
X277840D01*
X278136Y373386D01*
X278404Y373400D01*
X278672Y373443D01*
X278911Y373499D01*
X279137Y373555D01*
X279348Y373612D01*
X279546Y373682D01*
X279729Y373767D01*
X279884Y373837D01*
X280025Y373908D01*
X280152Y373964D01*
X280250Y374021D01*
X280335Y374077D01*
X280392Y374119D01*
X280420Y374133D01*
X280434Y374148D01*
X280617Y374303D01*
X280786Y374472D01*
X281096Y374852D01*
X281350Y375247D01*
X281547Y375628D01*
X281632Y375811D01*
X281702Y375980D01*
X281759Y376135D01*
X281815Y376262D01*
X281858Y376375D01*
X281886Y376460D01*
X281900Y376516D01*
Y376530D01*
X279983Y377122D01*
X279870Y376741D01*
X279743Y376417D01*
X279616Y376149D01*
X279475Y375924D01*
X279362Y375755D01*
X279264Y375642D01*
X279193Y375571D01*
X279165Y375543D01*
X278939Y375374D01*
X278714Y375261D01*
X278488Y375177D01*
X278291Y375106D01*
X278108Y375078D01*
X277953Y375064D01*
X277896Y375050D01*
X277826D01*
X277628Y375064D01*
X277445Y375078D01*
X277107Y375177D01*
X276811Y375289D01*
X276571Y375444D01*
X276374Y375586D01*
X276233Y375698D01*
X276176Y375755D01*
X276134Y375797D01*
X276120Y375811D01*
X276106Y375825D01*
X275993Y375980D01*
X275895Y376163D01*
X275796Y376361D01*
X275725Y376572D01*
X275613Y377009D01*
X275528Y377446D01*
X275500Y377658D01*
X275486Y377841D01*
X275457Y378024D01*
Y378179D01*
X275443Y378292D01*
Y378391D01*
Y378461D01*
Y378475D01*
X275457Y378800D01*
X275472Y379096D01*
X275500Y379364D01*
X275542Y379617D01*
X275599Y379843D01*
X275655Y380054D01*
X275711Y380238D01*
X275782Y380407D01*
X275838Y380548D01*
X275895Y380675D01*
X275951Y380773D01*
X276007Y380858D01*
X276050Y380928D01*
X276078Y380970D01*
X276106Y380999D01*
Y381013D01*
X276233Y381154D01*
X276374Y381281D01*
X276515Y381379D01*
X276670Y381464D01*
X276966Y381605D01*
X277248Y381704D01*
X277488Y381760D01*
X277600Y381774D01*
X277685Y381788D01*
X277769Y381802D01*
X277868D01*
X278150Y381788D01*
X278404Y381732D01*
X278629Y381661D01*
X278827Y381577D01*
X278982Y381492D01*
X279095Y381422D01*
X279165Y381365D01*
X279193Y381351D01*
X279377Y381182D01*
X279546Y380985D01*
X279673Y380787D01*
X279771Y380590D01*
X279842Y380421D01*
X279884Y380294D01*
X279912Y380238D01*
Y380195D01*
X279926Y380181D01*
Y380167D01*
X281872Y380632D01*
X281731Y381041D01*
X281576Y381393D01*
X281406Y381704D01*
X281251Y381957D01*
X281096Y382155D01*
X281040Y382239D01*
X280984Y382310D01*
X280941Y382352D01*
X280899Y382394D01*
X280885Y382422D01*
X280871D01*
X280659Y382606D01*
X280420Y382775D01*
X280194Y382916D01*
X279954Y383029D01*
X279701Y383141D01*
X279461Y383226D01*
X279221Y383297D01*
X278996Y383353D01*
X278784Y383395D01*
X278587Y383423D01*
X278418Y383452D01*
X278263Y383466D01*
X278136Y383480D01*
D02*
G37*
G36*
X291401Y383297D02*
X289428D01*
Y379462D01*
X285579D01*
Y383297D01*
X283606D01*
Y373541D01*
X285579D01*
Y377813D01*
X289428D01*
Y373541D01*
X291401D01*
Y383297D01*
D02*
G37*
G36*
X337216D02*
X332818D01*
Y373541D01*
X334792D01*
Y377615D01*
X335426D01*
X335624Y377601D01*
X335793Y377587D01*
X335934Y377559D01*
X336046Y377545D01*
X336117Y377517D01*
X336159Y377503D01*
X336173D01*
X336286Y377446D01*
X336399Y377390D01*
X336497Y377319D01*
X336596Y377263D01*
X336667Y377192D01*
X336723Y377136D01*
X336751Y377108D01*
X336765Y377094D01*
X336822Y377023D01*
X336892Y376953D01*
X337047Y376741D01*
X337216Y376516D01*
X337400Y376262D01*
X337555Y376037D01*
X337625Y375924D01*
X337682Y375839D01*
X337738Y375769D01*
X337780Y375712D01*
X337794Y375670D01*
X337808Y375656D01*
X339218Y373541D01*
X341586D01*
X340388Y375444D01*
X340261Y375642D01*
X340135Y375839D01*
X340022Y376008D01*
X339909Y376163D01*
X339810Y376304D01*
X339726Y376445D01*
X339557Y376657D01*
X339430Y376826D01*
X339345Y376939D01*
X339275Y377009D01*
X339260Y377023D01*
X339105Y377192D01*
X338922Y377348D01*
X338753Y377475D01*
X338584Y377601D01*
X338443Y377700D01*
X338330Y377771D01*
X338246Y377827D01*
X338232Y377841D01*
X338217D01*
X338457Y377883D01*
X338669Y377940D01*
X338866Y377996D01*
X339063Y378066D01*
X339232Y378137D01*
X339387Y378208D01*
X339543Y378278D01*
X339669Y378363D01*
X339782Y378433D01*
X339881Y378503D01*
X339965Y378574D01*
X340022Y378630D01*
X340078Y378673D01*
X340121Y378715D01*
X340135Y378729D01*
X340149Y378743D01*
X340261Y378884D01*
X340360Y379025D01*
X340529Y379335D01*
X340642Y379631D01*
X340713Y379927D01*
X340769Y380181D01*
X340783Y380280D01*
Y380378D01*
X340797Y380449D01*
Y380519D01*
Y380548D01*
Y380562D01*
X340783Y380872D01*
X340727Y381168D01*
X340656Y381422D01*
X340586Y381647D01*
X340501Y381830D01*
X340431Y381971D01*
X340402Y382014D01*
X340374Y382056D01*
X340360Y382070D01*
Y382084D01*
X340191Y382324D01*
X340008Y382521D01*
X339824Y382676D01*
X339641Y382817D01*
X339472Y382902D01*
X339345Y382972D01*
X339260Y383015D01*
X339246Y383029D01*
X339232D01*
X339091Y383071D01*
X338936Y383113D01*
X338584Y383184D01*
X338203Y383226D01*
X337837Y383268D01*
X337654D01*
X337498Y383282D01*
X337343D01*
X337216Y383297D01*
D02*
G37*
G36*
X330957D02*
X323726D01*
Y373541D01*
X331141D01*
Y375191D01*
X325699D01*
Y377841D01*
X330591D01*
Y379490D01*
X325699D01*
Y381647D01*
X330957D01*
Y383297D01*
D02*
G37*
G36*
X307683D02*
X303285D01*
Y373541D01*
X305259D01*
Y377615D01*
X305893D01*
X306090Y377601D01*
X306259Y377587D01*
X306400Y377559D01*
X306513Y377545D01*
X306584Y377517D01*
X306626Y377503D01*
X306640D01*
X306753Y377446D01*
X306866Y377390D01*
X306964Y377319D01*
X307063Y377263D01*
X307134Y377192D01*
X307190Y377136D01*
X307218Y377108D01*
X307232Y377094D01*
X307288Y377023D01*
X307359Y376953D01*
X307514Y376741D01*
X307683Y376516D01*
X307866Y376262D01*
X308022Y376037D01*
X308092Y375924D01*
X308148Y375839D01*
X308205Y375769D01*
X308247Y375712D01*
X308261Y375670D01*
X308275Y375656D01*
X309685Y373541D01*
X312053D01*
X310855Y375444D01*
X310728Y375642D01*
X310601Y375839D01*
X310489Y376008D01*
X310376Y376163D01*
X310277Y376304D01*
X310193Y376445D01*
X310023Y376657D01*
X309897Y376826D01*
X309812Y376939D01*
X309741Y377009D01*
X309727Y377023D01*
X309572Y377192D01*
X309389Y377348D01*
X309220Y377475D01*
X309051Y377601D01*
X308910Y377700D01*
X308797Y377771D01*
X308712Y377827D01*
X308698Y377841D01*
X308684D01*
X308924Y377883D01*
X309135Y377940D01*
X309333Y377996D01*
X309530Y378066D01*
X309699Y378137D01*
X309854Y378208D01*
X310009Y378278D01*
X310136Y378363D01*
X310249Y378433D01*
X310348Y378503D01*
X310432Y378574D01*
X310489Y378630D01*
X310545Y378673D01*
X310587Y378715D01*
X310601Y378729D01*
X310615Y378743D01*
X310728Y378884D01*
X310827Y379025D01*
X310996Y379335D01*
X311109Y379631D01*
X311179Y379927D01*
X311236Y380181D01*
X311250Y380280D01*
Y380378D01*
X311264Y380449D01*
Y380519D01*
Y380548D01*
Y380562D01*
X311250Y380872D01*
X311193Y381168D01*
X311123Y381422D01*
X311052Y381647D01*
X310968Y381830D01*
X310897Y381971D01*
X310869Y382014D01*
X310841Y382056D01*
X310827Y382070D01*
Y382084D01*
X310658Y382324D01*
X310474Y382521D01*
X310291Y382676D01*
X310108Y382817D01*
X309939Y382902D01*
X309812Y382972D01*
X309727Y383015D01*
X309713Y383029D01*
X309699D01*
X309558Y383071D01*
X309403Y383113D01*
X309051Y383184D01*
X308670Y383226D01*
X308304Y383268D01*
X308120D01*
X307965Y383282D01*
X307810D01*
X307683Y383297D01*
D02*
G37*
G36*
X298309D02*
X296222D01*
X292444Y373541D01*
X294531D01*
X295334Y375755D01*
X299253D01*
X300099Y373541D01*
X302228D01*
X298309Y383297D01*
D02*
G37*
G36*
X291112Y371407D02*
X290943D01*
X290534Y371393D01*
X290168Y371351D01*
X289844Y371294D01*
X289562Y371238D01*
X289435Y371196D01*
X289322Y371167D01*
X289237Y371139D01*
X289153Y371111D01*
X289096Y371083D01*
X289054Y371069D01*
X289026Y371055D01*
X289012D01*
X288730Y370914D01*
X288490Y370759D01*
X288279Y370589D01*
X288110Y370434D01*
X287969Y370293D01*
X287884Y370181D01*
X287813Y370096D01*
X287799Y370082D01*
Y370068D01*
X287659Y369828D01*
X287560Y369575D01*
X287489Y369335D01*
X287447Y369123D01*
X287419Y368940D01*
X287391Y368799D01*
Y368743D01*
Y368700D01*
Y368686D01*
Y368672D01*
X287405Y368461D01*
X287433Y368249D01*
X287475Y368066D01*
X287532Y367883D01*
X287673Y367545D01*
X287842Y367248D01*
X287912Y367122D01*
X287997Y367023D01*
X288067Y366924D01*
X288138Y366840D01*
X288194Y366783D01*
X288237Y366741D01*
X288265Y366713D01*
X288279Y366699D01*
X288406Y366600D01*
X288561Y366501D01*
X288716Y366403D01*
X288899Y366318D01*
X289251Y366149D01*
X289618Y366008D01*
X289801Y365952D01*
X289956Y365895D01*
X290111Y365853D01*
X290238Y365811D01*
X290337Y365782D01*
X290422Y365754D01*
X290478Y365740D01*
X290492D01*
X290718Y365684D01*
X290915Y365627D01*
X291098Y365585D01*
X291267Y365543D01*
X291408Y365500D01*
X291535Y365472D01*
X291648Y365430D01*
X291747Y365402D01*
X291831Y365388D01*
X291902Y365359D01*
X292000Y365331D01*
X292057Y365303D01*
X292071D01*
X292254Y365233D01*
X292395Y365162D01*
X292522Y365092D01*
X292621Y365021D01*
X292691Y364965D01*
X292733Y364922D01*
X292762Y364894D01*
X292776Y364880D01*
X292846Y364781D01*
X292903Y364683D01*
X292931Y364584D01*
X292959Y364500D01*
X292973Y364415D01*
X292987Y364344D01*
Y364302D01*
Y364288D01*
X292973Y364091D01*
X292917Y363922D01*
X292832Y363752D01*
X292747Y363611D01*
X292649Y363499D01*
X292578Y363414D01*
X292522Y363358D01*
X292494Y363344D01*
X292296Y363217D01*
X292071Y363118D01*
X291831Y363048D01*
X291606Y363005D01*
X291394Y362977D01*
X291225Y362949D01*
X291070D01*
X290746Y362963D01*
X290464Y363019D01*
X290224Y363090D01*
X290013Y363175D01*
X289844Y363259D01*
X289731Y363330D01*
X289660Y363386D01*
X289632Y363400D01*
X289449Y363597D01*
X289308Y363809D01*
X289181Y364049D01*
X289096Y364288D01*
X289026Y364500D01*
X288969Y364669D01*
X288955Y364725D01*
Y364781D01*
X288941Y364810D01*
Y364824D01*
X287024Y364641D01*
X287066Y364344D01*
X287123Y364063D01*
X287207Y363795D01*
X287278Y363555D01*
X287376Y363330D01*
X287475Y363118D01*
X287574Y362935D01*
X287673Y362766D01*
X287771Y362625D01*
X287870Y362498D01*
X287955Y362385D01*
X288039Y362286D01*
X288095Y362216D01*
X288152Y362174D01*
X288180Y362145D01*
X288194Y362131D01*
X288391Y361976D01*
X288603Y361849D01*
X288829Y361737D01*
X289068Y361638D01*
X289294Y361567D01*
X289533Y361497D01*
X289999Y361398D01*
X290210Y361356D01*
X290407Y361328D01*
X290577Y361314D01*
X290732Y361300D01*
X290858Y361286D01*
X291042D01*
X291493Y361300D01*
X291902Y361342D01*
X292268Y361398D01*
X292423Y361426D01*
X292578Y361469D01*
X292705Y361497D01*
X292818Y361525D01*
X292917Y361553D01*
X293001Y361581D01*
X293072Y361610D01*
X293114Y361624D01*
X293142Y361638D01*
X293156D01*
X293466Y361793D01*
X293720Y361962D01*
X293960Y362131D01*
X294143Y362314D01*
X294284Y362470D01*
X294397Y362611D01*
X294453Y362695D01*
X294481Y362709D01*
Y362723D01*
X294636Y363005D01*
X294763Y363273D01*
X294848Y363541D01*
X294904Y363795D01*
X294932Y363992D01*
X294947Y364091D01*
X294961Y364161D01*
Y364302D01*
X294947Y364641D01*
X294904Y364937D01*
X294834Y365204D01*
X294763Y365430D01*
X294693Y365613D01*
X294622Y365740D01*
X294580Y365825D01*
X294566Y365853D01*
X294411Y366078D01*
X294228Y366276D01*
X294044Y366445D01*
X293875Y366586D01*
X293720Y366699D01*
X293593Y366783D01*
X293509Y366840D01*
X293495Y366854D01*
X293480D01*
X293340Y366924D01*
X293199Y366995D01*
X292860Y367122D01*
X292508Y367234D01*
X292169Y367347D01*
X292015Y367389D01*
X291859Y367432D01*
X291718Y367474D01*
X291606Y367502D01*
X291507Y367530D01*
X291437Y367545D01*
X291380Y367559D01*
X291366D01*
X291112Y367629D01*
X290887Y367686D01*
X290675Y367742D01*
X290478Y367798D01*
X290323Y367855D01*
X290168Y367911D01*
X290041Y367967D01*
X289928Y368010D01*
X289829Y368052D01*
X289759Y368094D01*
X289688Y368122D01*
X289646Y368151D01*
X289576Y368193D01*
X289562Y368207D01*
X289463Y368306D01*
X289392Y368404D01*
X289350Y368503D01*
X289322Y368602D01*
X289294Y368672D01*
X289280Y368743D01*
Y368785D01*
Y368799D01*
X289294Y368940D01*
X289322Y369053D01*
X289378Y369166D01*
X289435Y369250D01*
X289491Y369321D01*
X289548Y369363D01*
X289576Y369391D01*
X289590Y369405D01*
X289787Y369532D01*
X289999Y369617D01*
X290224Y369687D01*
X290436Y369730D01*
X290619Y369758D01*
X290774Y369772D01*
X290915D01*
X291211Y369758D01*
X291465Y369715D01*
X291676Y369659D01*
X291845Y369603D01*
X291986Y369546D01*
X292085Y369490D01*
X292141Y369448D01*
X292155Y369434D01*
X292296Y369293D01*
X292423Y369123D01*
X292522Y368954D01*
X292592Y368771D01*
X292649Y368616D01*
X292677Y368489D01*
X292705Y368390D01*
Y368376D01*
Y368362D01*
X294679Y368433D01*
X294665Y368686D01*
X294622Y368912D01*
X294566Y369137D01*
X294496Y369335D01*
X294425Y369532D01*
X294340Y369715D01*
X294256Y369870D01*
X294171Y370026D01*
X294073Y370153D01*
X293988Y370265D01*
X293904Y370364D01*
X293833Y370448D01*
X293777Y370505D01*
X293734Y370547D01*
X293706Y370575D01*
X293692Y370589D01*
X293509Y370730D01*
X293311Y370857D01*
X293100Y370970D01*
X292874Y371069D01*
X292649Y371139D01*
X292423Y371210D01*
X291972Y371308D01*
X291761Y371337D01*
X291577Y371365D01*
X291394Y371379D01*
X291239Y371393D01*
X291112Y371407D01*
D02*
G37*
G36*
X285459Y371224D02*
X283641D01*
Y364655D01*
X279609Y371224D01*
X277706D01*
Y361469D01*
X279524D01*
Y367897D01*
X283486Y361469D01*
X285459D01*
Y371224D01*
D02*
G37*
G36*
X336885D02*
X332994D01*
Y361469D01*
X336688D01*
X337068Y361483D01*
X337421Y361497D01*
X337717Y361525D01*
X337957Y361567D01*
X338154Y361610D01*
X338309Y361638D01*
X338351Y361652D01*
X338394D01*
X338408Y361666D01*
X338422D01*
X338732Y361779D01*
X339014Y361906D01*
X339239Y362033D01*
X339437Y362160D01*
X339592Y362272D01*
X339705Y362357D01*
X339775Y362413D01*
X339803Y362441D01*
X340043Y362709D01*
X340254Y362991D01*
X340438Y363287D01*
X340579Y363555D01*
X340691Y363809D01*
X340748Y363908D01*
X340776Y363992D01*
X340804Y364077D01*
X340832Y364133D01*
X340846Y364161D01*
Y364175D01*
X340945Y364514D01*
X341030Y364866D01*
X341086Y365204D01*
X341114Y365529D01*
X341128Y365684D01*
X341143Y365825D01*
Y365938D01*
X341157Y366050D01*
Y366248D01*
X341143Y366741D01*
X341100Y367178D01*
X341086Y367389D01*
X341058Y367573D01*
X341030Y367756D01*
X341002Y367911D01*
X340959Y368052D01*
X340931Y368179D01*
X340903Y368292D01*
X340889Y368376D01*
X340861Y368447D01*
X340846Y368503D01*
X340832Y368531D01*
Y368545D01*
X340705Y368884D01*
X340550Y369194D01*
X340395Y369462D01*
X340240Y369687D01*
X340113Y369870D01*
X340001Y370011D01*
X339930Y370096D01*
X339916Y370124D01*
X339902D01*
X339662Y370350D01*
X339423Y370533D01*
X339169Y370688D01*
X338943Y370815D01*
X338746Y370914D01*
X338577Y370984D01*
X338521Y370998D01*
X338478Y371012D01*
X338450Y371026D01*
X338436D01*
X338168Y371097D01*
X337872Y371139D01*
X337562Y371182D01*
X337266Y371196D01*
X336998Y371210D01*
X336885Y371224D01*
D02*
G37*
G36*
X331134D02*
X323902D01*
Y361469D01*
X331317D01*
Y363118D01*
X325875D01*
Y365768D01*
X330767D01*
Y367418D01*
X325875D01*
Y369575D01*
X331134D01*
Y371224D01*
D02*
G37*
G36*
X322619D02*
X314880D01*
Y369575D01*
X317770D01*
Y361469D01*
X319743D01*
Y369575D01*
X322619D01*
Y371224D01*
D02*
G37*
G36*
X310129D02*
X305731D01*
Y361469D01*
X307704D01*
Y365543D01*
X308339D01*
X308536Y365529D01*
X308705Y365515D01*
X308846Y365486D01*
X308959Y365472D01*
X309030Y365444D01*
X309072Y365430D01*
X309086D01*
X309199Y365374D01*
X309312Y365317D01*
X309410Y365247D01*
X309509Y365190D01*
X309579Y365120D01*
X309636Y365064D01*
X309664Y365035D01*
X309678Y365021D01*
X309734Y364951D01*
X309805Y364880D01*
X309960Y364669D01*
X310129Y364443D01*
X310312Y364189D01*
X310467Y363964D01*
X310538Y363851D01*
X310594Y363767D01*
X310651Y363696D01*
X310693Y363640D01*
X310707Y363597D01*
X310721Y363583D01*
X312131Y361469D01*
X314499D01*
X313301Y363372D01*
X313174Y363569D01*
X313047Y363767D01*
X312934Y363936D01*
X312822Y364091D01*
X312723Y364232D01*
X312638Y364373D01*
X312469Y364584D01*
X312342Y364753D01*
X312258Y364866D01*
X312187Y364937D01*
X312173Y364951D01*
X312018Y365120D01*
X311835Y365275D01*
X311666Y365402D01*
X311497Y365529D01*
X311355Y365627D01*
X311243Y365698D01*
X311158Y365754D01*
X311144Y365768D01*
X311130D01*
X311370Y365811D01*
X311581Y365867D01*
X311778Y365923D01*
X311976Y365994D01*
X312145Y366064D01*
X312300Y366135D01*
X312455Y366205D01*
X312582Y366290D01*
X312695Y366360D01*
X312793Y366431D01*
X312878Y366501D01*
X312934Y366558D01*
X312991Y366600D01*
X313033Y366642D01*
X313047Y366656D01*
X313061Y366670D01*
X313174Y366811D01*
X313273Y366953D01*
X313442Y367263D01*
X313555Y367559D01*
X313625Y367855D01*
X313682Y368108D01*
X313696Y368207D01*
Y368306D01*
X313710Y368376D01*
Y368447D01*
Y368475D01*
Y368489D01*
X313696Y368799D01*
X313639Y369095D01*
X313569Y369349D01*
X313498Y369575D01*
X313414Y369758D01*
X313343Y369899D01*
X313315Y369941D01*
X313287Y369983D01*
X313273Y369997D01*
Y370011D01*
X313104Y370251D01*
X312920Y370448D01*
X312737Y370604D01*
X312554Y370745D01*
X312385Y370829D01*
X312258Y370900D01*
X312173Y370942D01*
X312159Y370956D01*
X312145D01*
X312004Y370998D01*
X311849Y371041D01*
X311497Y371111D01*
X311116Y371153D01*
X310749Y371196D01*
X310566D01*
X310411Y371210D01*
X310256D01*
X310129Y371224D01*
D02*
G37*
G36*
X303870D02*
X296638D01*
Y361469D01*
X304053D01*
Y363118D01*
X298612D01*
Y365768D01*
X303503D01*
Y367418D01*
X298612D01*
Y369575D01*
X303870D01*
Y371224D01*
D02*
G37*
G36*
X275817D02*
X273843D01*
Y361469D01*
X275817D01*
Y371224D01*
D02*
G37*
G36*
X336632Y359334D02*
X336462D01*
X335955Y359320D01*
X335504Y359264D01*
X335306Y359222D01*
X335109Y359179D01*
X334926Y359137D01*
X334771Y359095D01*
X334630Y359038D01*
X334489Y358996D01*
X334390Y358954D01*
X334291Y358926D01*
X334221Y358883D01*
X334165Y358869D01*
X334136Y358841D01*
X334122D01*
X333685Y358587D01*
X333502Y358432D01*
X333319Y358291D01*
X333149Y358136D01*
X332994Y357981D01*
X332854Y357826D01*
X332727Y357685D01*
X332628Y357544D01*
X332529Y357417D01*
X332445Y357304D01*
X332374Y357206D01*
X332332Y357121D01*
X332290Y357065D01*
X332276Y357023D01*
X332261Y357008D01*
X332149Y356783D01*
X332050Y356557D01*
X331895Y356092D01*
X331782Y355627D01*
X331712Y355218D01*
X331683Y355021D01*
X331655Y354852D01*
X331641Y354697D01*
Y354556D01*
X331627Y354457D01*
Y354302D01*
X331655Y353780D01*
X331712Y353301D01*
X331810Y352864D01*
X331853Y352653D01*
X331909Y352469D01*
X331965Y352300D01*
X332008Y352145D01*
X332064Y352018D01*
X332106Y351905D01*
X332135Y351821D01*
X332163Y351750D01*
X332191Y351708D01*
Y351694D01*
X332431Y351271D01*
X332698Y350904D01*
X332980Y350580D01*
X333262Y350326D01*
X333389Y350214D01*
X333516Y350115D01*
X333615Y350030D01*
X333713Y349974D01*
X333784Y349918D01*
X333854Y349875D01*
X333882Y349861D01*
X333897Y349847D01*
X334122Y349734D01*
X334334Y349636D01*
X334799Y349481D01*
X335250Y349368D01*
X335659Y349297D01*
X335856Y349269D01*
X336025Y349241D01*
X336180Y349227D01*
X336321D01*
X336420Y349213D01*
X336575D01*
X337026Y349227D01*
X337449Y349283D01*
X337858Y349354D01*
X338210Y349438D01*
X338365Y349481D01*
X338506Y349523D01*
X338633Y349565D01*
X338746Y349593D01*
X338831Y349622D01*
X338887Y349650D01*
X338929Y349664D01*
X338943D01*
X339366Y349833D01*
X339719Y350016D01*
X340029Y350200D01*
X340297Y350355D01*
X340494Y350496D01*
X340564Y350552D01*
X340635Y350608D01*
X340677Y350651D01*
X340720Y350679D01*
X340748Y350707D01*
Y354626D01*
X336505D01*
Y352977D01*
X338760D01*
Y351722D01*
X338591Y351595D01*
X338408Y351482D01*
X338224Y351384D01*
X338055Y351299D01*
X337914Y351229D01*
X337787Y351172D01*
X337717Y351144D01*
X337703Y351130D01*
X337689D01*
X337463Y351045D01*
X337238Y350989D01*
X337026Y350947D01*
X336843Y350919D01*
X336674Y350904D01*
X336561Y350890D01*
X336448D01*
X336223Y350904D01*
X335997Y350933D01*
X335800Y350975D01*
X335602Y351031D01*
X335250Y351172D01*
X335109Y351243D01*
X334968Y351327D01*
X334841Y351412D01*
X334728Y351482D01*
X334644Y351567D01*
X334559Y351623D01*
X334503Y351680D01*
X334460Y351722D01*
X334432Y351750D01*
X334418Y351764D01*
X334291Y351934D01*
X334165Y352131D01*
X334066Y352328D01*
X333981Y352540D01*
X333840Y352977D01*
X333756Y353400D01*
X333727Y353597D01*
X333699Y353794D01*
X333685Y353949D01*
X333671Y354104D01*
X333657Y354217D01*
Y354316D01*
Y354372D01*
Y354386D01*
X333671Y354682D01*
X333685Y354950D01*
X333727Y355218D01*
X333770Y355458D01*
X333826Y355669D01*
X333897Y355867D01*
X333967Y356050D01*
X334038Y356219D01*
X334094Y356360D01*
X334165Y356487D01*
X334235Y356586D01*
X334291Y356670D01*
X334334Y356741D01*
X334376Y356783D01*
X334390Y356811D01*
X334404Y356825D01*
X334559Y356966D01*
X334714Y357107D01*
X334883Y357206D01*
X335053Y357304D01*
X335222Y357389D01*
X335391Y357459D01*
X335715Y357558D01*
X335870Y357586D01*
X336011Y357615D01*
X336138Y357629D01*
X336251Y357643D01*
X336335Y357657D01*
X336462D01*
X336772Y357643D01*
X337040Y357586D01*
X337280Y357530D01*
X337491Y357445D01*
X337646Y357375D01*
X337773Y357304D01*
X337844Y357248D01*
X337872Y357234D01*
X338069Y357065D01*
X338238Y356882D01*
X338380Y356698D01*
X338478Y356515D01*
X338563Y356346D01*
X338619Y356219D01*
X338647Y356134D01*
X338661Y356120D01*
Y356106D01*
X340621Y356473D01*
X340564Y356712D01*
X340480Y356952D01*
X340395Y357164D01*
X340283Y357361D01*
X340184Y357558D01*
X340071Y357727D01*
X339958Y357882D01*
X339846Y358023D01*
X339733Y358150D01*
X339634Y358263D01*
X339549Y358362D01*
X339465Y358432D01*
X339394Y358489D01*
X339338Y358545D01*
X339310Y358559D01*
X339296Y358573D01*
X339098Y358714D01*
X338887Y358827D01*
X338661Y358926D01*
X338422Y359010D01*
X337957Y359151D01*
X337505Y359236D01*
X337294Y359278D01*
X337097Y359292D01*
X336913Y359306D01*
X336758Y359320D01*
X336632Y359334D01*
D02*
G37*
G36*
X278777D02*
X278608D01*
X278242Y359320D01*
X277875Y359278D01*
X277551Y359208D01*
X277227Y359123D01*
X276945Y359024D01*
X276663Y358912D01*
X276423Y358785D01*
X276198Y358658D01*
X275986Y358531D01*
X275817Y358404D01*
X275662Y358291D01*
X275535Y358193D01*
X275436Y358108D01*
X275366Y358037D01*
X275324Y357995D01*
X275310Y357981D01*
X275084Y357713D01*
X274901Y357431D01*
X274732Y357135D01*
X274591Y356825D01*
X274464Y356501D01*
X274365Y356191D01*
X274280Y355881D01*
X274210Y355585D01*
X274154Y355289D01*
X274125Y355035D01*
X274097Y354795D01*
X274069Y354598D01*
Y354429D01*
X274055Y354302D01*
Y354189D01*
X274069Y353766D01*
X274111Y353371D01*
X274168Y352991D01*
X274252Y352653D01*
X274337Y352328D01*
X274450Y352018D01*
X274562Y351750D01*
X274675Y351511D01*
X274788Y351285D01*
X274901Y351088D01*
X275014Y350933D01*
X275098Y350792D01*
X275183Y350693D01*
X275239Y350608D01*
X275281Y350566D01*
X275295Y350552D01*
X275535Y350312D01*
X275789Y350115D01*
X276057Y349932D01*
X276325Y349791D01*
X276592Y349664D01*
X276860Y349551D01*
X277114Y349467D01*
X277354Y349396D01*
X277593Y349340D01*
X277805Y349297D01*
X278002Y349269D01*
X278157Y349255D01*
X278298Y349241D01*
X278397Y349227D01*
X278481D01*
X278777Y349241D01*
X279045Y349255D01*
X279313Y349297D01*
X279553Y349354D01*
X279778Y349410D01*
X279990Y349467D01*
X280187Y349537D01*
X280370Y349622D01*
X280525Y349692D01*
X280666Y349763D01*
X280793Y349819D01*
X280892Y349875D01*
X280977Y349932D01*
X281033Y349974D01*
X281061Y349988D01*
X281075Y350002D01*
X281258Y350157D01*
X281428Y350326D01*
X281738Y350707D01*
X281992Y351102D01*
X282189Y351482D01*
X282273Y351666D01*
X282344Y351835D01*
X282400Y351990D01*
X282457Y352117D01*
X282499Y352229D01*
X282527Y352314D01*
X282541Y352370D01*
Y352385D01*
X280624Y352977D01*
X280511Y352596D01*
X280384Y352272D01*
X280258Y352004D01*
X280117Y351778D01*
X280004Y351609D01*
X279905Y351497D01*
X279835Y351426D01*
X279806Y351398D01*
X279581Y351229D01*
X279355Y351116D01*
X279130Y351031D01*
X278932Y350961D01*
X278749Y350933D01*
X278594Y350919D01*
X278538Y350904D01*
X278467D01*
X278270Y350919D01*
X278087Y350933D01*
X277748Y351031D01*
X277452Y351144D01*
X277213Y351299D01*
X277015Y351440D01*
X276874Y351553D01*
X276818Y351609D01*
X276776Y351652D01*
X276761Y351666D01*
X276747Y351680D01*
X276635Y351835D01*
X276536Y352018D01*
X276437Y352215D01*
X276367Y352427D01*
X276254Y352864D01*
X276169Y353301D01*
X276141Y353512D01*
X276127Y353696D01*
X276099Y353879D01*
Y354034D01*
X276085Y354147D01*
Y354245D01*
Y354316D01*
Y354330D01*
X276099Y354654D01*
X276113Y354950D01*
X276141Y355218D01*
X276183Y355472D01*
X276240Y355697D01*
X276296Y355909D01*
X276353Y356092D01*
X276423Y356261D01*
X276480Y356402D01*
X276536Y356529D01*
X276592Y356628D01*
X276649Y356712D01*
X276691Y356783D01*
X276719Y356825D01*
X276747Y356853D01*
Y356867D01*
X276874Y357008D01*
X277015Y357135D01*
X277156Y357234D01*
X277311Y357319D01*
X277607Y357459D01*
X277889Y357558D01*
X278129Y357615D01*
X278242Y357629D01*
X278326Y357643D01*
X278411Y357657D01*
X278510D01*
X278792Y357643D01*
X279045Y357586D01*
X279271Y357516D01*
X279468Y357431D01*
X279623Y357347D01*
X279736Y357276D01*
X279806Y357220D01*
X279835Y357206D01*
X280018Y357037D01*
X280187Y356839D01*
X280314Y356642D01*
X280413Y356445D01*
X280483Y356275D01*
X280525Y356148D01*
X280554Y356092D01*
Y356050D01*
X280568Y356036D01*
Y356022D01*
X282513Y356487D01*
X282372Y356896D01*
X282217Y357248D01*
X282048Y357558D01*
X281893Y357812D01*
X281738Y358009D01*
X281681Y358094D01*
X281625Y358164D01*
X281583Y358207D01*
X281540Y358249D01*
X281526Y358277D01*
X281512D01*
X281301Y358460D01*
X281061Y358630D01*
X280835Y358771D01*
X280596Y358883D01*
X280342Y358996D01*
X280103Y359081D01*
X279863Y359151D01*
X279637Y359208D01*
X279426Y359250D01*
X279228Y359278D01*
X279059Y359306D01*
X278904Y359320D01*
X278777Y359334D01*
D02*
G37*
G36*
X350376Y359151D02*
X348402D01*
Y355317D01*
X344554D01*
Y359151D01*
X342580D01*
Y349396D01*
X344554D01*
Y353667D01*
X348402D01*
Y349396D01*
X350376D01*
Y359151D01*
D02*
G37*
G36*
X326143D02*
X324170D01*
Y355317D01*
X320321D01*
Y359151D01*
X318348D01*
Y349396D01*
X320321D01*
Y353667D01*
X324170D01*
Y349396D01*
X326143D01*
Y359151D01*
D02*
G37*
G36*
X304462D02*
X302362D01*
X299979Y351934D01*
X297498Y359151D01*
X295369D01*
X298866Y349396D01*
X300994D01*
X304462Y359151D01*
D02*
G37*
G36*
X330090D02*
X328117D01*
Y349396D01*
X330090D01*
Y359151D01*
D02*
G37*
G36*
X312695D02*
X305463D01*
Y349396D01*
X312878D01*
Y351045D01*
X307437D01*
Y353696D01*
X312328D01*
Y355345D01*
X307437D01*
Y357502D01*
X312695D01*
Y359151D01*
D02*
G37*
G36*
X294481D02*
X292508D01*
Y349396D01*
X294481D01*
Y359151D01*
D02*
G37*
G36*
X291296D02*
X283556D01*
Y357502D01*
X286446D01*
Y349396D01*
X288420D01*
Y357502D01*
X291296D01*
Y359151D01*
D02*
G37*
G36*
X269431D02*
X267345D01*
X263567Y349396D01*
X265653D01*
X266457Y351609D01*
X270376D01*
X271221Y349396D01*
X273350D01*
X269431Y359151D01*
D02*
G37*
G36*
X353139Y359320D02*
X351870D01*
X352039Y358954D01*
X352180Y358587D01*
X352321Y358249D01*
X352448Y357925D01*
X352561Y357629D01*
X352660Y357347D01*
X352744Y357079D01*
X352829Y356839D01*
X352899Y356628D01*
X352956Y356431D01*
X353012Y356275D01*
X353040Y356134D01*
X353069Y356022D01*
X353097Y355951D01*
X353111Y355895D01*
Y355881D01*
X353224Y355345D01*
X353308Y354823D01*
X353379Y354316D01*
X353407Y354076D01*
X353421Y353851D01*
X353435Y353639D01*
X353449Y353456D01*
Y353287D01*
X353463Y353146D01*
Y353033D01*
Y352948D01*
Y352892D01*
Y352878D01*
Y352596D01*
X353449Y352314D01*
X353435Y352060D01*
X353421Y351821D01*
X353393Y351637D01*
X353379Y351482D01*
Y351426D01*
X353365Y351384D01*
Y351370D01*
Y351356D01*
X353280Y350806D01*
X353224Y350538D01*
X353181Y350298D01*
X353139Y350087D01*
X353097Y349932D01*
X353083Y349875D01*
Y349833D01*
X353069Y349805D01*
Y349791D01*
X352998Y349495D01*
X352928Y349227D01*
X352857Y348973D01*
X352801Y348762D01*
X352744Y348592D01*
X352702Y348466D01*
X352674Y348381D01*
X352660Y348367D01*
Y348353D01*
X352561Y348099D01*
X352448Y347803D01*
X352321Y347493D01*
X352195Y347197D01*
X352068Y346929D01*
X352025Y346816D01*
X351969Y346718D01*
X351941Y346633D01*
X351913Y346577D01*
X351884Y346534D01*
Y346520D01*
X353181D01*
X353393Y346844D01*
X353576Y347169D01*
X353745Y347493D01*
X353914Y347803D01*
X354055Y348113D01*
X354196Y348395D01*
X354309Y348677D01*
X354422Y348931D01*
X354521Y349170D01*
X354591Y349382D01*
X354661Y349565D01*
X354718Y349734D01*
X354760Y349861D01*
X354788Y349946D01*
X354817Y350016D01*
Y350030D01*
X354958Y350622D01*
X355070Y351172D01*
X355113Y351426D01*
X355141Y351680D01*
X355183Y351905D01*
X355197Y352117D01*
X355211Y352314D01*
X355225Y352497D01*
X355239Y352653D01*
X355254Y352779D01*
Y353019D01*
X355225Y353639D01*
X355169Y354217D01*
X355127Y354499D01*
X355070Y354781D01*
X355028Y355035D01*
X354972Y355260D01*
X354915Y355486D01*
X354873Y355683D01*
X354817Y355853D01*
X354774Y355993D01*
X354746Y356120D01*
X354718Y356205D01*
X354690Y356261D01*
Y356275D01*
X354464Y356867D01*
X354210Y357431D01*
X354084Y357699D01*
X353957Y357939D01*
X353830Y358178D01*
X353703Y358404D01*
X353590Y358601D01*
X353492Y358785D01*
X353393Y358940D01*
X353308Y359067D01*
X353238Y359179D01*
X353181Y359250D01*
X353153Y359306D01*
X353139Y359320D01*
D02*
G37*
G36*
X263130D02*
X261847D01*
X261537Y358841D01*
X261241Y358348D01*
X261001Y357882D01*
X260888Y357671D01*
X260790Y357459D01*
X260705Y357276D01*
X260620Y357093D01*
X260550Y356938D01*
X260494Y356811D01*
X260451Y356698D01*
X260423Y356628D01*
X260395Y356571D01*
Y356557D01*
X260282Y356233D01*
X260183Y355909D01*
X260014Y355275D01*
X259902Y354654D01*
X259859Y354372D01*
X259831Y354104D01*
X259803Y353851D01*
X259775Y353625D01*
X259760Y353414D01*
Y353245D01*
X259746Y353104D01*
Y352920D01*
X259775Y352342D01*
X259831Y351764D01*
X259916Y351229D01*
X259958Y350975D01*
X260014Y350735D01*
X260057Y350524D01*
X260099Y350326D01*
X260141Y350157D01*
X260183Y350002D01*
X260226Y349889D01*
X260240Y349791D01*
X260268Y349734D01*
Y349720D01*
X260494Y349114D01*
X260733Y348522D01*
X260874Y348254D01*
X261001Y347986D01*
X261128Y347733D01*
X261255Y347507D01*
X261368Y347296D01*
X261480Y347098D01*
X261579Y346929D01*
X261664Y346788D01*
X261734Y346675D01*
X261791Y346591D01*
X261819Y346534D01*
X261833Y346520D01*
X263116D01*
X263003Y346760D01*
X262904Y346971D01*
X262820Y347183D01*
X262735Y347366D01*
X262665Y347549D01*
X262594Y347704D01*
X262538Y347845D01*
X262481Y347986D01*
X262425Y348099D01*
X262397Y348198D01*
X262354Y348282D01*
X262326Y348353D01*
X262312Y348409D01*
X262298Y348452D01*
X262284Y348466D01*
Y348480D01*
X262157Y348860D01*
X262044Y349241D01*
X261960Y349608D01*
X261875Y349946D01*
X261847Y350087D01*
X261819Y350228D01*
X261791Y350340D01*
X261776Y350439D01*
X261748Y350524D01*
Y350580D01*
X261734Y350622D01*
Y350637D01*
X261664Y351059D01*
X261621Y351468D01*
X261579Y351849D01*
X261565Y352187D01*
X261551Y352342D01*
Y352469D01*
X261537Y352596D01*
Y352695D01*
Y352765D01*
Y352836D01*
Y352864D01*
Y352878D01*
X261551Y353470D01*
X261593Y354020D01*
X261621Y354288D01*
X261649Y354527D01*
X261678Y354767D01*
X261706Y354978D01*
X261734Y355176D01*
X261762Y355345D01*
X261791Y355500D01*
X261819Y355641D01*
X261847Y355740D01*
X261861Y355824D01*
X261875Y355867D01*
Y355881D01*
X261946Y356148D01*
X262030Y356431D01*
X262213Y357008D01*
X262425Y357586D01*
X262523Y357868D01*
X262636Y358136D01*
X262735Y358376D01*
X262820Y358601D01*
X262904Y358813D01*
X262989Y358982D01*
X263045Y359123D01*
X263087Y359236D01*
X263116Y359292D01*
X263130Y359320D01*
D02*
G37*
%LPD*%
G36*
X337174Y381633D02*
X337484D01*
X337611Y381619D01*
X337696D01*
X337738Y381605D01*
X337752D01*
X337921Y381563D01*
X338076Y381506D01*
X338203Y381450D01*
X338302Y381379D01*
X338386Y381309D01*
X338457Y381267D01*
X338485Y381224D01*
X338499Y381210D01*
X338584Y381097D01*
X338654Y380956D01*
X338697Y380830D01*
X338739Y380703D01*
X338753Y380590D01*
X338767Y380505D01*
Y380449D01*
Y380421D01*
X338753Y380266D01*
X338739Y380125D01*
X338697Y379998D01*
X338669Y379885D01*
X338626Y379800D01*
X338584Y379744D01*
X338570Y379702D01*
X338556Y379688D01*
X338471Y379589D01*
X338386Y379504D01*
X338203Y379378D01*
X338133Y379335D01*
X338062Y379307D01*
X338020Y379279D01*
X338006D01*
X337935Y379265D01*
X337823Y379237D01*
X337710Y379222D01*
X337583Y379208D01*
X337287Y379194D01*
X336991Y379180D01*
X336709Y379166D01*
X334792D01*
Y381647D01*
X337047D01*
X337174Y381633D01*
D02*
G37*
G36*
X307641D02*
X307951D01*
X308078Y381619D01*
X308163D01*
X308205Y381605D01*
X308219D01*
X308388Y381563D01*
X308543Y381506D01*
X308670Y381450D01*
X308769Y381379D01*
X308853Y381309D01*
X308924Y381267D01*
X308952Y381224D01*
X308966Y381210D01*
X309051Y381097D01*
X309121Y380956D01*
X309163Y380830D01*
X309206Y380703D01*
X309220Y380590D01*
X309234Y380505D01*
Y380449D01*
Y380421D01*
X309220Y380266D01*
X309206Y380125D01*
X309163Y379998D01*
X309135Y379885D01*
X309093Y379800D01*
X309051Y379744D01*
X309037Y379702D01*
X309023Y379688D01*
X308938Y379589D01*
X308853Y379504D01*
X308670Y379378D01*
X308600Y379335D01*
X308529Y379307D01*
X308487Y379279D01*
X308473D01*
X308402Y379265D01*
X308289Y379237D01*
X308177Y379222D01*
X308050Y379208D01*
X307754Y379194D01*
X307458Y379180D01*
X307176Y379166D01*
X305259D01*
Y381647D01*
X307514D01*
X307641Y381633D01*
D02*
G37*
G36*
X298619Y377404D02*
X295926D01*
X297251Y381027D01*
X298619Y377404D01*
D02*
G37*
G36*
X336434Y369560D02*
X336603D01*
X336744Y369546D01*
X336871D01*
X336998Y369532D01*
X337097D01*
X337252Y369504D01*
X337365Y369490D01*
X337435Y369476D01*
X337449D01*
X337646Y369419D01*
X337816Y369349D01*
X337971Y369278D01*
X338112Y369194D01*
X338210Y369123D01*
X338295Y369067D01*
X338337Y369025D01*
X338351Y369011D01*
X338478Y368870D01*
X338591Y368715D01*
X338690Y368559D01*
X338774Y368419D01*
X338831Y368278D01*
X338873Y368165D01*
X338901Y368094D01*
X338915Y368080D01*
Y368066D01*
X338986Y367812D01*
X339042Y367545D01*
X339070Y367248D01*
X339098Y366967D01*
X339113Y366727D01*
X339127Y366614D01*
Y366515D01*
Y366445D01*
Y366389D01*
Y366346D01*
Y366332D01*
X339113Y365938D01*
X339098Y365571D01*
X339056Y365275D01*
X339028Y365021D01*
X338986Y364810D01*
X338972Y364725D01*
X338943Y364669D01*
X338929Y364612D01*
Y364570D01*
X338915Y364556D01*
Y364542D01*
X338831Y364316D01*
X338760Y364119D01*
X338661Y363964D01*
X338591Y363837D01*
X338521Y363738D01*
X338464Y363668D01*
X338422Y363626D01*
X338408Y363611D01*
X338281Y363513D01*
X338154Y363428D01*
X338027Y363358D01*
X337900Y363301D01*
X337787Y363259D01*
X337703Y363231D01*
X337646Y363203D01*
X337618D01*
X337463Y363175D01*
X337280Y363160D01*
X337083Y363132D01*
X336885D01*
X336702Y363118D01*
X334968D01*
Y369575D01*
X336251D01*
X336434Y369560D01*
D02*
G37*
G36*
X310087D02*
X310397D01*
X310524Y369546D01*
X310608D01*
X310651Y369532D01*
X310665D01*
X310834Y369490D01*
X310989Y369434D01*
X311116Y369377D01*
X311215Y369307D01*
X311299Y369236D01*
X311370Y369194D01*
X311398Y369152D01*
X311412Y369137D01*
X311497Y369025D01*
X311567Y368884D01*
X311609Y368757D01*
X311652Y368630D01*
X311666Y368517D01*
X311680Y368433D01*
Y368376D01*
Y368348D01*
X311666Y368193D01*
X311652Y368052D01*
X311609Y367925D01*
X311581Y367812D01*
X311539Y367728D01*
X311497Y367671D01*
X311482Y367629D01*
X311468Y367615D01*
X311384Y367516D01*
X311299Y367432D01*
X311116Y367305D01*
X311045Y367263D01*
X310975Y367234D01*
X310933Y367206D01*
X310919D01*
X310848Y367192D01*
X310735Y367164D01*
X310623Y367150D01*
X310496Y367136D01*
X310200Y367122D01*
X309904Y367108D01*
X309622Y367093D01*
X307704D01*
Y369575D01*
X309960D01*
X310087Y369560D01*
D02*
G37*
G36*
X269741Y353259D02*
X267049D01*
X268374Y356882D01*
X269741Y353259D01*
D02*
G37*
%LPC*%
G36*
X1175555Y346383D02*
X1164352D01*
Y329811D01*
X1147595D01*
Y346383D01*
Y329811D01*
Y318331D01*
X1164352D01*
Y301758D01*
X1147595D01*
X1192405D01*
Y329811D01*
X1175555D01*
Y346383D01*
D02*
G37*
%LPD*%
G36*
X1192405Y301758D02*
X1175555D01*
Y318331D01*
X1192405D01*
Y301758D01*
D02*
G37*
%LPC*%
G36*
X195892Y395340D02*
X194017D01*
Y391660D01*
X195892D01*
Y395340D01*
D02*
G37*
G36*
X1192405Y758883D02*
X1147595D01*
D01*
X1164352D01*
Y742311D01*
X1147595D01*
Y758883D01*
D01*
Y742311D01*
Y730831D01*
X1164352D01*
Y714258D01*
X1175555D01*
Y730831D01*
X1192405D01*
D01*
Y742311D01*
X1175555D01*
Y758883D01*
X1192405D01*
D01*
D02*
G37*
G36*
X575555Y156383D02*
X564352D01*
Y139811D01*
X547595D01*
Y156383D01*
Y139811D01*
Y128331D01*
X564352D01*
Y111758D01*
X547595D01*
X592405D01*
Y139811D01*
X575555D01*
Y156383D01*
D02*
G37*
%LPD*%
G36*
X592405Y111758D02*
X575555D01*
Y128331D01*
X592405D01*
Y111758D01*
D02*
G37*
%LPC*%
G36*
X230707Y376061D02*
X230595D01*
X230284Y376047D01*
X230002Y375991D01*
X229763Y375906D01*
X229537Y375822D01*
X229368Y375737D01*
X229241Y375653D01*
X229157Y375596D01*
X229128Y375582D01*
X228903Y375385D01*
X228720Y375173D01*
X228564Y374934D01*
X228452Y374722D01*
X228353Y374525D01*
X228283Y374356D01*
X228269Y374299D01*
X228254Y374257D01*
X228240Y374229D01*
Y374215D01*
X228113Y374440D01*
X227987Y374638D01*
X227831Y374807D01*
X227705Y374948D01*
X227578Y375046D01*
X227479Y375131D01*
X227409Y375187D01*
X227380Y375201D01*
X227155Y375328D01*
X226943Y375427D01*
X226732Y375483D01*
X226535Y375540D01*
X226365Y375568D01*
X226238Y375582D01*
X226154D01*
X226140D01*
X226126D01*
X225900Y375568D01*
X225675Y375540D01*
X225491Y375483D01*
X225322Y375427D01*
X225181Y375371D01*
X225068Y375314D01*
X225012Y375286D01*
X224984Y375272D01*
X224801Y375159D01*
X224646Y375032D01*
X224505Y374905D01*
X224378Y374793D01*
X224293Y374680D01*
X224223Y374595D01*
X224180Y374539D01*
X224166Y374525D01*
X224053Y374356D01*
X223969Y374172D01*
X223898Y374003D01*
X223842Y373848D01*
X223800Y373707D01*
X223771Y373609D01*
X223757Y373538D01*
Y373510D01*
X223729Y373270D01*
X223701Y373002D01*
X223687Y372720D01*
X223673Y372438D01*
X223659Y372185D01*
Y376061D01*
D01*
Y367899D01*
X233414D01*
Y372128D01*
X233400Y372368D01*
Y372791D01*
X233386Y372960D01*
Y373228D01*
X233372Y373326D01*
Y373467D01*
X233358Y373524D01*
Y373580D01*
X233315Y373862D01*
X233245Y374116D01*
X233174Y374342D01*
X233090Y374539D01*
X233019Y374694D01*
X232949Y374807D01*
X232906Y374877D01*
X232892Y374905D01*
X232737Y375103D01*
X232568Y375258D01*
X232413Y375413D01*
X232244Y375526D01*
X232103Y375624D01*
X231990Y375695D01*
X231920Y375737D01*
X231891Y375751D01*
X231652Y375850D01*
X231426Y375934D01*
X231201Y375991D01*
X231003Y376019D01*
X230834Y376047D01*
X230707Y376061D01*
D02*
G37*
G36*
X221341Y376350D02*
X219438Y375152D01*
X219241Y375025D01*
X219043Y374898D01*
X218874Y374786D01*
X218719Y374673D01*
X218578Y374574D01*
X218437Y374490D01*
X218226Y374320D01*
X218057Y374193D01*
X217944Y374109D01*
X217873Y374038D01*
X217859Y374024D01*
X217690Y373869D01*
X217535Y373686D01*
X217408Y373517D01*
X217281Y373348D01*
X217183Y373207D01*
X217112Y373094D01*
X217056Y373009D01*
X217042Y372995D01*
Y372981D01*
X216999Y373221D01*
X216943Y373432D01*
X216887Y373630D01*
X216816Y373827D01*
X216746Y373996D01*
X216675Y374151D01*
X216605Y374306D01*
X216520Y374433D01*
X216450Y374546D01*
X216379Y374645D01*
X216309Y374729D01*
X216252Y374786D01*
X216210Y374842D01*
X216168Y374884D01*
X216154Y374898D01*
X216139Y374912D01*
X215998Y375025D01*
X215858Y375124D01*
X215547Y375293D01*
X215251Y375406D01*
X214955Y375476D01*
X214701Y375533D01*
X214603Y375547D01*
X214504D01*
X214434Y375561D01*
X214363D01*
X214335D01*
X214321D01*
X214011Y375547D01*
X213715Y375490D01*
X213461Y375420D01*
X213235Y375350D01*
X213052Y375265D01*
X212911Y375194D01*
X212869Y375166D01*
X212827Y375138D01*
X212812Y375124D01*
X212798D01*
X212559Y374955D01*
X212361Y374771D01*
X212206Y374588D01*
X212065Y374405D01*
X211981Y374236D01*
X211910Y374109D01*
X211868Y374024D01*
X211854Y374010D01*
Y373996D01*
X211812Y373855D01*
X211769Y373700D01*
X211699Y373348D01*
X211657Y372967D01*
X211614Y372601D01*
Y372417D01*
X211600Y372262D01*
Y372107D01*
X211586Y371980D01*
Y376350D01*
Y367582D01*
X221341D01*
Y370190D01*
Y369556D01*
X217267D01*
Y370190D01*
X217281Y370387D01*
X217295Y370556D01*
X217324Y370698D01*
X217338Y370810D01*
X217366Y370881D01*
X217380Y370923D01*
Y370937D01*
X217436Y371050D01*
X217493Y371163D01*
X217563Y371261D01*
X217620Y371360D01*
X217690Y371431D01*
X217747Y371487D01*
X217775Y371515D01*
X217789Y371529D01*
X217859Y371586D01*
X217930Y371656D01*
X218141Y371811D01*
X218367Y371980D01*
X218620Y372164D01*
X218846Y372319D01*
X218959Y372389D01*
X219043Y372445D01*
X219114Y372502D01*
X219170Y372544D01*
X219213Y372558D01*
X219227Y372572D01*
X221341Y373982D01*
Y373566D01*
Y376350D01*
D02*
G37*
G36*
X230721Y366222D02*
X230580D01*
X230242Y366208D01*
X229946Y366165D01*
X229678Y366095D01*
X229453Y366024D01*
X229269Y365954D01*
X229142Y365883D01*
X229058Y365841D01*
X229030Y365827D01*
X228804Y365672D01*
X228607Y365489D01*
X228438Y365305D01*
X228297Y365136D01*
X228184Y364981D01*
X228099Y364854D01*
X228043Y364770D01*
X228029Y364756D01*
Y364742D01*
X227958Y364600D01*
X227888Y364459D01*
X227761Y364121D01*
X227648Y363769D01*
X227535Y363430D01*
X227493Y363275D01*
X227451Y363120D01*
X227409Y362979D01*
X227380Y362867D01*
X227352Y362768D01*
X227338Y362697D01*
X227324Y362641D01*
Y362627D01*
X227253Y362373D01*
X227197Y362148D01*
X227141Y361936D01*
X227084Y361739D01*
X227028Y361584D01*
X226972Y361429D01*
X226915Y361302D01*
X226873Y361189D01*
X226831Y361090D01*
X226788Y361020D01*
X226760Y360949D01*
X226732Y360907D01*
X226690Y360837D01*
X226675Y360822D01*
X226577Y360724D01*
X226478Y360653D01*
X226380Y360611D01*
X226281Y360583D01*
X226210Y360555D01*
X226140Y360541D01*
X226098D01*
X226083D01*
X225942Y360555D01*
X225830Y360583D01*
X225717Y360639D01*
X225632Y360696D01*
X225562Y360752D01*
X225520Y360808D01*
X225491Y360837D01*
X225477Y360851D01*
X225350Y361048D01*
X225266Y361259D01*
X225195Y361485D01*
X225153Y361697D01*
X225125Y361880D01*
X225111Y362035D01*
Y362176D01*
X225125Y362472D01*
X225167Y362726D01*
X225224Y362937D01*
X225280Y363106D01*
X225336Y363247D01*
X225393Y363346D01*
X225435Y363402D01*
X225449Y363416D01*
X225590Y363557D01*
X225759Y363684D01*
X225928Y363783D01*
X226112Y363853D01*
X226267Y363910D01*
X226394Y363938D01*
X226492Y363966D01*
X226506D01*
X226521D01*
X226450Y365940D01*
X226196Y365926D01*
X225971Y365883D01*
X225745Y365827D01*
X225548Y365756D01*
X225350Y365686D01*
X225167Y365601D01*
X225012Y365517D01*
X224857Y365432D01*
X224730Y365334D01*
X224617Y365249D01*
X224519Y365164D01*
X224434Y365094D01*
X224378Y365037D01*
X224335Y364995D01*
X224307Y364967D01*
X224293Y364953D01*
X224152Y364770D01*
X224025Y364572D01*
X223913Y364361D01*
X223814Y364135D01*
X223743Y363910D01*
X223673Y363684D01*
X223574Y363233D01*
X223546Y363022D01*
X223518Y362838D01*
X223504Y362655D01*
X223490Y362500D01*
X223475Y362373D01*
Y366222D01*
D01*
Y358285D01*
X233597D01*
D01*
X230242D01*
X223475D01*
Y362204D01*
X223490Y361795D01*
X223532Y361429D01*
X223588Y361104D01*
X223645Y360822D01*
X223687Y360696D01*
X223715Y360583D01*
X223743Y360498D01*
X223771Y360414D01*
X223800Y360357D01*
X223814Y360315D01*
X223828Y360287D01*
Y360273D01*
X223969Y359991D01*
X224124Y359751D01*
X224293Y359540D01*
X224448Y359370D01*
X224589Y359230D01*
X224702Y359145D01*
X224786Y359075D01*
X224801Y359060D01*
X224815D01*
X225054Y358919D01*
X225308Y358821D01*
X225548Y358750D01*
X225759Y358708D01*
X225942Y358680D01*
X226083Y358652D01*
X226140D01*
X226182D01*
X226196D01*
X226210D01*
X226422Y358666D01*
X226633Y358694D01*
X226817Y358736D01*
X227000Y358792D01*
X227338Y358933D01*
X227634Y359103D01*
X227761Y359173D01*
X227860Y359258D01*
X227958Y359328D01*
X228043Y359399D01*
X228099Y359455D01*
X228142Y359497D01*
X228170Y359526D01*
X228184Y359540D01*
X228283Y359666D01*
X228381Y359822D01*
X228480Y359977D01*
X228564Y360160D01*
X228734Y360512D01*
X228875Y360879D01*
X228931Y361062D01*
X228987Y361217D01*
X229030Y361372D01*
X229072Y361499D01*
X229100Y361598D01*
X229128Y361682D01*
X229142Y361739D01*
Y361753D01*
X229199Y361978D01*
X229255Y362176D01*
X229298Y362359D01*
X229340Y362528D01*
X229382Y362669D01*
X229410Y362796D01*
X229453Y362909D01*
X229481Y363008D01*
X229495Y363092D01*
X229523Y363163D01*
X229551Y363261D01*
X229580Y363318D01*
Y363332D01*
X229650Y363515D01*
X229720Y363656D01*
X229791Y363783D01*
X229861Y363881D01*
X229918Y363952D01*
X229960Y363994D01*
X229988Y364022D01*
X230002Y364037D01*
X230101Y364107D01*
X230200Y364164D01*
X230298Y364192D01*
X230383Y364220D01*
X230468Y364234D01*
X230538Y364248D01*
X230580D01*
X230595D01*
X230792Y364234D01*
X230961Y364178D01*
X231130Y364093D01*
X231271Y364008D01*
X231384Y363910D01*
X231469Y363839D01*
X231525Y363783D01*
X231539Y363755D01*
X231666Y363557D01*
X231765Y363332D01*
X231835Y363092D01*
X231877Y362867D01*
X231905Y362655D01*
X231934Y362486D01*
Y362331D01*
X231920Y362007D01*
X231863Y361725D01*
X231793Y361485D01*
X231708Y361274D01*
X231624Y361104D01*
X231553Y360992D01*
X231497Y360921D01*
X231483Y360893D01*
X231285Y360710D01*
X231074Y360569D01*
X230834Y360442D01*
X230595Y360357D01*
X230383Y360287D01*
X230214Y360230D01*
X230158Y360216D01*
X230101D01*
X230073Y360202D01*
X230059D01*
X230242Y358285D01*
X230538Y358327D01*
X230820Y358384D01*
X231088Y358468D01*
X231327Y358539D01*
X231553Y358638D01*
X231765Y358736D01*
X231948Y358835D01*
X232117Y358933D01*
X232258Y359032D01*
X232385Y359131D01*
X232498Y359215D01*
X232596Y359300D01*
X232667Y359356D01*
X232709Y359413D01*
X232737Y359441D01*
X232751Y359455D01*
X232906Y359652D01*
X233033Y359864D01*
X233146Y360089D01*
X233245Y360329D01*
X233315Y360555D01*
X233386Y360794D01*
X233484Y361259D01*
X233527Y361471D01*
X233555Y361668D01*
X233569Y361838D01*
X233583Y361992D01*
X233597Y362119D01*
Y362303D01*
X233583Y362754D01*
X233541Y363163D01*
X233484Y363529D01*
X233456Y363684D01*
X233414Y363839D01*
X233386Y363966D01*
X233358Y364079D01*
X233329Y364178D01*
X233301Y364262D01*
X233273Y364333D01*
X233259Y364375D01*
X233245Y364403D01*
Y364417D01*
X233090Y364727D01*
X232920Y364981D01*
X232751Y365221D01*
X232568Y365404D01*
X232413Y365545D01*
X232272Y365658D01*
X232187Y365714D01*
X232173Y365742D01*
X232159D01*
X231877Y365897D01*
X231609Y366024D01*
X231342Y366109D01*
X231088Y366165D01*
X230891Y366194D01*
X230792Y366208D01*
X230721Y366222D01*
D02*
G37*
G36*
X221525Y366031D02*
X211403D01*
Y356572D01*
Y361281D01*
X211417Y360858D01*
X211459Y360449D01*
X211530Y360097D01*
X211600Y359786D01*
X211642Y359660D01*
X211671Y359533D01*
X211699Y359434D01*
X211741Y359349D01*
X211755Y359279D01*
X211783Y359222D01*
X211798Y359194D01*
Y359180D01*
X211910Y358927D01*
X212051Y358687D01*
X212206Y358475D01*
X212347Y358292D01*
X212474Y358137D01*
X212587Y358010D01*
X212658Y357940D01*
X212672Y357926D01*
X212686Y357911D01*
X212911Y357714D01*
X213151Y357531D01*
X213362Y357376D01*
X213574Y357249D01*
X213757Y357150D01*
X213898Y357066D01*
X213954Y357052D01*
X213997Y357023D01*
X214011Y357009D01*
X214025D01*
X214420Y356868D01*
X214842Y356755D01*
X215265Y356685D01*
X215660Y356629D01*
X215843Y356615D01*
X216012Y356600D01*
X216154Y356586D01*
X216280D01*
X216393Y356572D01*
X216534D01*
X216957Y356586D01*
X217366Y356629D01*
X217747Y356685D01*
X218099Y356770D01*
X218423Y356868D01*
X218719Y356981D01*
X219001Y357094D01*
X219241Y357221D01*
X219466Y357333D01*
X219650Y357446D01*
X219819Y357559D01*
X219960Y357658D01*
X220058Y357742D01*
X220143Y357799D01*
X220185Y357841D01*
X220199Y357855D01*
X220439Y358109D01*
X220636Y358377D01*
X220820Y358644D01*
X220961Y358941D01*
X221087Y359222D01*
X221200Y359519D01*
X221285Y359786D01*
X221355Y360068D01*
X221412Y360322D01*
X221454Y360562D01*
X221482Y360773D01*
X221496Y360956D01*
X221510Y361097D01*
X221525Y361210D01*
Y361309D01*
X221510Y361704D01*
X221468Y362070D01*
X221398Y362422D01*
X221313Y362747D01*
X221214Y363057D01*
X221102Y363339D01*
X220989Y363593D01*
X220862Y363832D01*
X220735Y364030D01*
X220622Y364213D01*
X220509Y364368D01*
X220411Y364495D01*
X220326Y364608D01*
X220256Y364678D01*
X220214Y364720D01*
X220199Y364734D01*
X219932Y364960D01*
X219650Y365157D01*
X219354Y365341D01*
X219058Y365482D01*
X218747Y365608D01*
X218437Y365721D01*
X218127Y365806D01*
X217831Y365876D01*
X217563Y365919D01*
X217295Y365961D01*
X217070Y365989D01*
X216873Y366017D01*
X216703D01*
X216576Y366031D01*
X221525D01*
D02*
G37*
G36*
X229227Y356720D02*
X223659D01*
Y348939D01*
X233597D01*
D01*
X229171D01*
X229453Y348953D01*
X229720D01*
X229960Y348967D01*
X230186Y348981D01*
X230383Y348995D01*
X230566Y349009D01*
X230735Y349037D01*
X230876Y349052D01*
X231003Y349066D01*
X231116Y349080D01*
X231201Y349094D01*
X231271Y349108D01*
X231313D01*
X231342Y349122D01*
X231356D01*
X231567Y349193D01*
X231765Y349263D01*
X231948Y349362D01*
X232103Y349446D01*
X232244Y349531D01*
X232357Y349601D01*
X232413Y349658D01*
X232441Y349672D01*
X232624Y349841D01*
X232794Y350024D01*
X232935Y350221D01*
X233062Y350405D01*
X233160Y350560D01*
X233231Y350701D01*
X233273Y350785D01*
X233287Y350799D01*
Y350814D01*
X233343Y350955D01*
X233386Y351110D01*
X233470Y351462D01*
X233527Y351814D01*
X233555Y352153D01*
X233569Y352308D01*
X233583Y352463D01*
Y352590D01*
X233597Y352717D01*
Y352942D01*
X233583Y353351D01*
X233555Y353718D01*
X233498Y354042D01*
X233442Y354310D01*
X233428Y354422D01*
X233400Y354535D01*
X233372Y354620D01*
X233343Y354690D01*
X233329Y354747D01*
X233315Y354789D01*
X233301Y354803D01*
Y354817D01*
X233188Y355071D01*
X233047Y355297D01*
X232920Y355494D01*
X232794Y355663D01*
X232681Y355790D01*
X232596Y355888D01*
X232540Y355945D01*
X232512Y355959D01*
X232314Y356114D01*
X232103Y356241D01*
X231905Y356340D01*
X231708Y356424D01*
X231539Y356481D01*
X231398Y356523D01*
X231356Y356537D01*
X231313D01*
X231299Y356551D01*
X231285D01*
X231130Y356579D01*
X230961Y356608D01*
X230778Y356636D01*
X230595Y356650D01*
X230172Y356678D01*
X229763Y356706D01*
X229580D01*
X229396D01*
X229227Y356720D01*
D02*
G37*
G36*
X213235Y355346D02*
X211586D01*
Y348650D01*
X221341D01*
Y350623D01*
X217197D01*
Y354697D01*
X215547D01*
Y350623D01*
X213235D01*
Y355346D01*
D02*
G37*
%LPD*%
G36*
X230679Y374017D02*
X230848Y373989D01*
X230989Y373947D01*
X231102Y373890D01*
X231201Y373834D01*
X231271Y373792D01*
X231313Y373764D01*
X231327Y373749D01*
X231426Y373637D01*
X231511Y373524D01*
X231581Y373397D01*
X231638Y373284D01*
X231666Y373186D01*
X231694Y373101D01*
X231708Y373045D01*
Y373031D01*
X231722Y372974D01*
Y372890D01*
X231736Y372706D01*
X231750Y372481D01*
Y372255D01*
X231765Y372044D01*
Y369873D01*
X229157D01*
Y371917D01*
X229171Y372114D01*
X229185Y372283D01*
Y372453D01*
X229199Y372593D01*
X229213Y372720D01*
X229227Y372819D01*
X229241Y372918D01*
X229255Y372988D01*
X229269Y373101D01*
X229298Y373172D01*
Y373186D01*
X229354Y373326D01*
X229424Y373453D01*
X229495Y373566D01*
X229580Y373651D01*
X229636Y373721D01*
X229692Y373764D01*
X229735Y373792D01*
X229749Y373806D01*
X229876Y373876D01*
X230002Y373933D01*
X230115Y373975D01*
X230242Y374003D01*
X230341Y374017D01*
X230425Y374031D01*
X230482D01*
X230496D01*
X230679Y374017D01*
D02*
G37*
G36*
X226563Y373651D02*
X226718Y373623D01*
X226845Y373566D01*
X226957Y373524D01*
X227056Y373467D01*
X227113Y373411D01*
X227155Y373383D01*
X227169Y373369D01*
X227268Y373256D01*
X227338Y373129D01*
X227395Y373002D01*
X227437Y372875D01*
X227479Y372749D01*
X227493Y372664D01*
X227507Y372608D01*
Y372523D01*
X227521Y372438D01*
Y372001D01*
X227535Y371762D01*
Y369873D01*
X225280D01*
Y371832D01*
X225294Y371987D01*
Y372354D01*
X225308Y372438D01*
Y372593D01*
X225322Y372650D01*
Y372664D01*
X225350Y372833D01*
X225393Y372988D01*
X225449Y373115D01*
X225506Y373228D01*
X225562Y373298D01*
X225618Y373369D01*
X225646Y373397D01*
X225660Y373411D01*
X225773Y373496D01*
X225900Y373552D01*
X226013Y373609D01*
X226126Y373637D01*
X226238Y373651D01*
X226323Y373665D01*
X226380D01*
X226394D01*
X226563Y373651D01*
D02*
G37*
G36*
X214617Y373517D02*
X214758Y373503D01*
X214885Y373461D01*
X214998Y373432D01*
X215082Y373390D01*
X215138Y373348D01*
X215181Y373334D01*
X215195Y373320D01*
X215294Y373235D01*
X215378Y373150D01*
X215505Y372967D01*
X215547Y372897D01*
X215576Y372826D01*
X215604Y372784D01*
Y372770D01*
X215618Y372699D01*
X215646Y372587D01*
X215660Y372474D01*
X215674Y372347D01*
X215688Y372051D01*
X215702Y371755D01*
X215716Y371473D01*
Y369556D01*
X213235D01*
Y371811D01*
X213249Y371938D01*
Y372248D01*
X213264Y372375D01*
Y372460D01*
X213278Y372502D01*
Y372516D01*
X213320Y372685D01*
X213376Y372840D01*
X213433Y372967D01*
X213503Y373066D01*
X213574Y373150D01*
X213616Y373221D01*
X213658Y373249D01*
X213672Y373263D01*
X213785Y373348D01*
X213926Y373418D01*
X214053Y373461D01*
X214180Y373503D01*
X214293Y373517D01*
X214377Y373531D01*
X214434D01*
X214462D01*
X214617Y373517D01*
D02*
G37*
G36*
X216041Y366017D02*
X215632Y365975D01*
X215251Y365919D01*
X214885Y365834D01*
X214561Y365735D01*
X214250Y365622D01*
X213969Y365510D01*
X213729Y365383D01*
X213503Y365256D01*
X213306Y365143D01*
X213137Y365031D01*
X212996Y364932D01*
X212897Y364861D01*
X212812Y364791D01*
X212770Y364748D01*
X212756Y364734D01*
X212516Y364481D01*
X212305Y364213D01*
X212122Y363931D01*
X211967Y363649D01*
X211840Y363353D01*
X211727Y363071D01*
X211642Y362789D01*
X211572Y362521D01*
X211516Y362267D01*
X211473Y362028D01*
X211445Y361816D01*
X211417Y361633D01*
Y361492D01*
X211403Y361379D01*
Y366031D01*
X216478D01*
X216041Y366017D01*
D02*
G37*
G36*
X216746Y363987D02*
X217042Y363973D01*
X217309Y363931D01*
X217549Y363889D01*
X217789Y363832D01*
X218000Y363762D01*
X218183Y363691D01*
X218353Y363621D01*
X218508Y363550D01*
X218635Y363480D01*
X218747Y363423D01*
X218846Y363353D01*
X218916Y363311D01*
X218959Y363268D01*
X218987Y363254D01*
X219001Y363240D01*
X219156Y363099D01*
X219283Y362944D01*
X219396Y362775D01*
X219494Y362620D01*
X219565Y362451D01*
X219636Y362296D01*
X219734Y361986D01*
X219805Y361718D01*
X219819Y361605D01*
X219833Y361506D01*
X219847Y361422D01*
Y361309D01*
X219833Y361097D01*
X219805Y360886D01*
X219762Y360689D01*
X219706Y360505D01*
X219579Y360167D01*
X219410Y359899D01*
X219339Y359772D01*
X219255Y359674D01*
X219184Y359575D01*
X219114Y359504D01*
X219072Y359448D01*
X219029Y359406D01*
X219001Y359378D01*
X218987Y359364D01*
X218818Y359237D01*
X218635Y359110D01*
X218437Y359011D01*
X218226Y358927D01*
X217817Y358786D01*
X217408Y358701D01*
X217211Y358673D01*
X217042Y358644D01*
X216873Y358630D01*
X216731Y358616D01*
X216619Y358602D01*
X216534D01*
X216478D01*
X216464D01*
X216154Y358616D01*
X215872Y358630D01*
X215604Y358673D01*
X215350Y358715D01*
X215124Y358771D01*
X214913Y358828D01*
X214730Y358898D01*
X214561Y358969D01*
X214405Y359039D01*
X214279Y359110D01*
X214180Y359166D01*
X214081Y359222D01*
X214011Y359265D01*
X213969Y359307D01*
X213940Y359321D01*
X213926Y359335D01*
X213771Y359476D01*
X213644Y359631D01*
X213531Y359800D01*
X213433Y359955D01*
X213348Y360125D01*
X213292Y360294D01*
X213179Y360604D01*
X213123Y360886D01*
X213109Y360999D01*
X213095Y361111D01*
X213080Y361196D01*
Y361309D01*
X213095Y361534D01*
X213123Y361746D01*
X213151Y361943D01*
X213207Y362127D01*
X213348Y362451D01*
X213419Y362606D01*
X213489Y362733D01*
X213574Y362859D01*
X213644Y362958D01*
X213715Y363043D01*
X213785Y363127D01*
X213842Y363184D01*
X213870Y363226D01*
X213898Y363240D01*
X213912Y363254D01*
X214081Y363381D01*
X214265Y363508D01*
X214448Y363607D01*
X214659Y363691D01*
X215082Y363818D01*
X215491Y363903D01*
X215674Y363945D01*
X215858Y363959D01*
X216012Y363973D01*
X216154Y363987D01*
X216280Y364001D01*
X216365D01*
X216421D01*
X216436D01*
X216746Y363987D01*
D02*
G37*
G36*
X229664Y354733D02*
X229833D01*
X229974Y354719D01*
X230115D01*
X230242Y354704D01*
X230355D01*
X230524Y354676D01*
X230651Y354662D01*
X230721Y354648D01*
X230750D01*
X230933Y354606D01*
X231088Y354535D01*
X231229Y354451D01*
X231356Y354366D01*
X231454Y354282D01*
X231525Y354211D01*
X231567Y354155D01*
X231581Y354141D01*
X231694Y353971D01*
X231779Y353760D01*
X231835Y353563D01*
X231877Y353351D01*
X231905Y353168D01*
X231920Y353027D01*
Y352886D01*
X231905Y352590D01*
X231863Y352336D01*
X231807Y352110D01*
X231736Y351913D01*
X231680Y351772D01*
X231624Y351659D01*
X231581Y351603D01*
X231567Y351575D01*
X231426Y351420D01*
X231257Y351293D01*
X231102Y351180D01*
X230947Y351110D01*
X230806Y351053D01*
X230693Y351011D01*
X230623Y350983D01*
X230595D01*
X230510Y350969D01*
X230425Y350955D01*
X230312D01*
X230186Y350941D01*
X229918Y350926D01*
X229636D01*
X229382Y350912D01*
X229269D01*
X229157D01*
X229072D01*
X229016D01*
X228973D01*
X228959D01*
X223659D01*
Y354747D01*
X229072D01*
X229284D01*
X229481D01*
X229664Y354733D01*
D02*
G37*
%LPC*%
G36*
X166523Y24997D02*
X166410D01*
X166114Y24983D01*
X165846Y24941D01*
X165578Y24885D01*
X165338Y24814D01*
X165113Y24715D01*
X164887Y24617D01*
X164704Y24504D01*
X164521Y24405D01*
X164366Y24293D01*
X164225Y24180D01*
X164112Y24081D01*
X164013Y23982D01*
X163929Y23912D01*
X163872Y23856D01*
X163844Y23813D01*
X163830Y23799D01*
X163661Y23560D01*
X163506Y23292D01*
X163379Y22996D01*
X163266Y22700D01*
X163167Y22375D01*
X163083Y22051D01*
X163012Y21727D01*
X162970Y21417D01*
X162928Y21121D01*
X162899Y20839D01*
X162871Y20585D01*
X162857Y20359D01*
X162843Y20176D01*
Y19922D01*
X162857Y19443D01*
X162885Y19006D01*
X162928Y18597D01*
X162998Y18231D01*
X163069Y17878D01*
X163139Y17568D01*
X163224Y17300D01*
X163323Y17047D01*
X163407Y16835D01*
X163492Y16652D01*
X163562Y16497D01*
X163647Y16370D01*
X163703Y16271D01*
X163745Y16201D01*
X163774Y16159D01*
X163788Y16144D01*
X163971Y15947D01*
X164168Y15764D01*
X164366Y15609D01*
X164577Y15482D01*
X164774Y15369D01*
X164986Y15285D01*
X165183Y15200D01*
X165366Y15144D01*
X165550Y15101D01*
X165705Y15059D01*
X165860Y15045D01*
X165987Y15017D01*
X166085D01*
X166156Y15003D01*
X166226D01*
X166480Y15017D01*
X166720Y15045D01*
X166945Y15087D01*
X167157Y15144D01*
X167368Y15214D01*
X167552Y15285D01*
X167721Y15369D01*
X167876Y15454D01*
X168017Y15538D01*
X168130Y15623D01*
X168242Y15693D01*
X168327Y15764D01*
X168397Y15820D01*
X168440Y15863D01*
X168468Y15891D01*
X168482Y15905D01*
X168637Y16074D01*
X168778Y16271D01*
X168891Y16469D01*
X168990Y16666D01*
X169088Y16863D01*
X169159Y17061D01*
X169257Y17456D01*
X169300Y17625D01*
X169328Y17794D01*
X169342Y17935D01*
X169356Y18062D01*
X169370Y18175D01*
Y18315D01*
X169356Y18583D01*
X169328Y18823D01*
X169286Y19063D01*
X169243Y19274D01*
X169173Y19485D01*
X169102Y19669D01*
X169032Y19852D01*
X168947Y20007D01*
X168863Y20148D01*
X168792Y20275D01*
X168722Y20374D01*
X168651Y20472D01*
X168609Y20543D01*
X168566Y20585D01*
X168538Y20613D01*
X168524Y20627D01*
X168369Y20782D01*
X168200Y20923D01*
X168031Y21050D01*
X167862Y21149D01*
X167693Y21233D01*
X167523Y21304D01*
X167213Y21417D01*
X167072Y21459D01*
X166931Y21487D01*
X166819Y21501D01*
X166720Y21516D01*
X166635Y21530D01*
X166523D01*
X166325Y21516D01*
X166142Y21487D01*
X165973Y21459D01*
X165804Y21403D01*
X165508Y21262D01*
X165254Y21121D01*
X165056Y20966D01*
X164972Y20895D01*
X164901Y20825D01*
X164845Y20768D01*
X164803Y20740D01*
X164788Y20712D01*
X164774Y20698D01*
X164803Y20994D01*
X164831Y21276D01*
X164859Y21530D01*
X164901Y21755D01*
X164944Y21953D01*
X164986Y22136D01*
X165028Y22291D01*
X165085Y22432D01*
X165127Y22559D01*
X165155Y22657D01*
X165197Y22742D01*
X165226Y22798D01*
X165254Y22855D01*
X165282Y22883D01*
X165296Y22911D01*
X165451Y23094D01*
X165620Y23221D01*
X165789Y23320D01*
X165944Y23376D01*
X166085Y23419D01*
X166198Y23433D01*
X166269Y23447D01*
X166297D01*
X166452Y23433D01*
X166607Y23404D01*
X166734Y23362D01*
X166833Y23320D01*
X166917Y23263D01*
X166974Y23221D01*
X167016Y23193D01*
X167030Y23179D01*
X167129Y23066D01*
X167199Y22939D01*
X167270Y22798D01*
X167312Y22671D01*
X167340Y22545D01*
X167368Y22446D01*
X167382Y22390D01*
Y22361D01*
X169187Y22559D01*
X169088Y22982D01*
X168947Y23334D01*
X168792Y23644D01*
X168637Y23912D01*
X168482Y24109D01*
X168426Y24180D01*
X168355Y24250D01*
X168313Y24293D01*
X168270Y24335D01*
X168256Y24363D01*
X168242D01*
X168101Y24476D01*
X167960Y24574D01*
X167650Y24730D01*
X167340Y24842D01*
X167058Y24913D01*
X166804Y24969D01*
X166692Y24983D01*
X166593D01*
X166523Y24997D01*
D02*
G37*
G36*
X144587Y24941D02*
X141627D01*
X139893Y18273D01*
X138145Y24941D01*
X135199D01*
Y15186D01*
X137017D01*
Y22855D01*
X138935Y15186D01*
X140838D01*
X142755Y22855D01*
X142769Y15186D01*
X144587D01*
Y24941D01*
D02*
G37*
G36*
X190882D02*
X188796D01*
X185018Y15186D01*
X187104D01*
X187908Y17399D01*
X191827D01*
X192672Y15186D01*
X194801D01*
X190882Y24941D01*
D02*
G37*
G36*
X181367Y24997D02*
X181226D01*
X180986Y24983D01*
X180760Y24969D01*
X180323Y24899D01*
X179957Y24786D01*
X179788Y24730D01*
X179633Y24659D01*
X179492Y24603D01*
X179379Y24532D01*
X179266Y24476D01*
X179182Y24434D01*
X179111Y24377D01*
X179069Y24349D01*
X179041Y24335D01*
X179027Y24321D01*
X178871Y24180D01*
X178731Y24039D01*
X178604Y23870D01*
X178491Y23686D01*
X178322Y23320D01*
X178181Y22967D01*
X178138Y22784D01*
X178096Y22629D01*
X178054Y22488D01*
X178040Y22361D01*
X178011Y22248D01*
Y22178D01*
X177997Y22122D01*
Y22108D01*
X179858Y21924D01*
X179886Y22206D01*
X179943Y22446D01*
X179999Y22657D01*
X180070Y22812D01*
X180126Y22939D01*
X180182Y23024D01*
X180225Y23080D01*
X180239Y23094D01*
X180380Y23207D01*
X180535Y23292D01*
X180690Y23362D01*
X180845Y23404D01*
X180972Y23433D01*
X181085Y23447D01*
X181183D01*
X181395Y23433D01*
X181578Y23390D01*
X181733Y23334D01*
X181874Y23278D01*
X181973Y23221D01*
X182057Y23165D01*
X182100Y23122D01*
X182114Y23108D01*
X182227Y22967D01*
X182311Y22812D01*
X182367Y22657D01*
X182410Y22502D01*
X182438Y22361D01*
X182452Y22234D01*
Y22164D01*
Y22150D01*
Y22136D01*
X182438Y21924D01*
X182396Y21727D01*
X182325Y21530D01*
X182255Y21360D01*
X182184Y21205D01*
X182114Y21093D01*
X182071Y21022D01*
X182057Y20994D01*
X182001Y20909D01*
X181916Y20811D01*
X181804Y20684D01*
X181691Y20571D01*
X181437Y20303D01*
X181183Y20035D01*
X180930Y19782D01*
X180817Y19669D01*
X180704Y19584D01*
X180620Y19500D01*
X180563Y19443D01*
X180521Y19401D01*
X180507Y19387D01*
X180225Y19119D01*
X179971Y18865D01*
X179731Y18626D01*
X179520Y18414D01*
X179323Y18203D01*
X179153Y18005D01*
X178998Y17836D01*
X178871Y17667D01*
X178759Y17526D01*
X178660Y17399D01*
X178575Y17300D01*
X178519Y17202D01*
X178463Y17145D01*
X178434Y17089D01*
X178406Y17061D01*
Y17047D01*
X178223Y16723D01*
X178082Y16384D01*
X177969Y16074D01*
X177885Y15792D01*
X177828Y15538D01*
X177814Y15440D01*
X177800Y15355D01*
X177786Y15285D01*
X177772Y15228D01*
Y15186D01*
X184327D01*
Y16920D01*
X180605D01*
X180718Y17103D01*
X180845Y17258D01*
X180901Y17329D01*
X180944Y17385D01*
X180972Y17413D01*
X180986Y17427D01*
X181042Y17484D01*
X181099Y17554D01*
X181268Y17709D01*
X181451Y17893D01*
X181635Y18076D01*
X181818Y18245D01*
X181973Y18386D01*
X182029Y18442D01*
X182071Y18485D01*
X182100Y18499D01*
X182114Y18513D01*
X182424Y18809D01*
X182678Y19049D01*
X182889Y19274D01*
X183058Y19443D01*
X183185Y19584D01*
X183270Y19683D01*
X183326Y19753D01*
X183340Y19767D01*
X183524Y20007D01*
X183678Y20233D01*
X183805Y20444D01*
X183904Y20627D01*
X183989Y20782D01*
X184045Y20909D01*
X184073Y20980D01*
X184087Y21008D01*
X184172Y21233D01*
X184228Y21459D01*
X184271Y21670D01*
X184299Y21868D01*
X184313Y22023D01*
X184327Y22150D01*
Y22263D01*
X184313Y22474D01*
X184285Y22685D01*
X184256Y22883D01*
X184200Y23066D01*
X184059Y23390D01*
X183918Y23672D01*
X183834Y23799D01*
X183763Y23898D01*
X183693Y23997D01*
X183622Y24067D01*
X183566Y24123D01*
X183538Y24180D01*
X183509Y24194D01*
X183495Y24208D01*
X183340Y24349D01*
X183157Y24476D01*
X182988Y24574D01*
X182790Y24659D01*
X182424Y24800D01*
X182057Y24899D01*
X181888Y24927D01*
X181733Y24955D01*
X181592Y24969D01*
X181465Y24983D01*
X181367Y24997D01*
D02*
G37*
G36*
X176827Y24814D02*
X170427D01*
Y23080D01*
X174671D01*
X174205Y22446D01*
X173797Y21783D01*
X173599Y21473D01*
X173430Y21149D01*
X173275Y20853D01*
X173134Y20571D01*
X173007Y20303D01*
X172894Y20064D01*
X172796Y19838D01*
X172711Y19655D01*
X172655Y19514D01*
X172612Y19401D01*
X172584Y19330D01*
X172570Y19302D01*
X172429Y18908D01*
X172302Y18527D01*
X172204Y18146D01*
X172105Y17780D01*
X172034Y17413D01*
X171964Y17075D01*
X171908Y16751D01*
X171865Y16455D01*
X171823Y16187D01*
X171795Y15933D01*
X171767Y15722D01*
X171752Y15538D01*
Y15383D01*
X171738Y15271D01*
Y15214D01*
Y15186D01*
X173543D01*
X173557Y15679D01*
X173599Y16187D01*
X173670Y16680D01*
X173698Y16906D01*
X173740Y17131D01*
X173782Y17329D01*
X173825Y17526D01*
X173853Y17681D01*
X173881Y17822D01*
X173909Y17949D01*
X173937Y18033D01*
X173952Y18090D01*
Y18104D01*
X174135Y18710D01*
X174332Y19288D01*
X174431Y19556D01*
X174544Y19810D01*
X174642Y20049D01*
X174741Y20275D01*
X174840Y20472D01*
X174924Y20656D01*
X175009Y20825D01*
X175065Y20952D01*
X175122Y21064D01*
X175164Y21135D01*
X175192Y21191D01*
X175206Y21205D01*
X175361Y21473D01*
X175516Y21727D01*
X175657Y21953D01*
X175798Y22178D01*
X175939Y22375D01*
X176080Y22559D01*
X176207Y22728D01*
X176320Y22883D01*
X176433Y23024D01*
X176531Y23137D01*
X176616Y23235D01*
X176686Y23320D01*
X176743Y23376D01*
X176785Y23419D01*
X176813Y23447D01*
X176827Y23461D01*
Y24814D01*
D02*
G37*
G36*
X158614Y24997D02*
X158473D01*
X158233Y24983D01*
X158008Y24969D01*
X157571Y24899D01*
X157204Y24786D01*
X157035Y24730D01*
X156880Y24659D01*
X156739Y24603D01*
X156626Y24532D01*
X156514Y24476D01*
X156429Y24434D01*
X156358Y24377D01*
X156316Y24349D01*
X156288Y24335D01*
X156274Y24321D01*
X156119Y24180D01*
X155978Y24039D01*
X155851Y23870D01*
X155738Y23686D01*
X155569Y23320D01*
X155428Y22967D01*
X155386Y22784D01*
X155344Y22629D01*
X155301Y22488D01*
X155287Y22361D01*
X155259Y22248D01*
Y22178D01*
X155245Y22122D01*
Y22108D01*
X157106Y21924D01*
X157134Y22206D01*
X157190Y22446D01*
X157247Y22657D01*
X157317Y22812D01*
X157374Y22939D01*
X157430Y23024D01*
X157472Y23080D01*
X157486Y23094D01*
X157627Y23207D01*
X157782Y23292D01*
X157937Y23362D01*
X158092Y23404D01*
X158219Y23433D01*
X158332Y23447D01*
X158431D01*
X158642Y23433D01*
X158826Y23390D01*
X158981Y23334D01*
X159122Y23278D01*
X159220Y23221D01*
X159305Y23165D01*
X159347Y23122D01*
X159361Y23108D01*
X159474Y22967D01*
X159559Y22812D01*
X159615Y22657D01*
X159657Y22502D01*
X159685Y22361D01*
X159699Y22234D01*
Y22164D01*
Y22150D01*
Y22136D01*
X159685Y21924D01*
X159643Y21727D01*
X159573Y21530D01*
X159502Y21360D01*
X159432Y21205D01*
X159361Y21093D01*
X159319Y21022D01*
X159305Y20994D01*
X159248Y20909D01*
X159164Y20811D01*
X159051Y20684D01*
X158938Y20571D01*
X158685Y20303D01*
X158431Y20035D01*
X158177Y19782D01*
X158064Y19669D01*
X157951Y19584D01*
X157867Y19500D01*
X157810Y19443D01*
X157768Y19401D01*
X157754Y19387D01*
X157472Y19119D01*
X157219Y18865D01*
X156979Y18626D01*
X156767Y18414D01*
X156570Y18203D01*
X156401Y18005D01*
X156246Y17836D01*
X156119Y17667D01*
X156006Y17526D01*
X155907Y17399D01*
X155823Y17300D01*
X155766Y17202D01*
X155710Y17145D01*
X155682Y17089D01*
X155654Y17061D01*
Y17047D01*
X155470Y16723D01*
X155330Y16384D01*
X155217Y16074D01*
X155132Y15792D01*
X155076Y15538D01*
X155062Y15440D01*
X155048Y15355D01*
X155033Y15285D01*
X155019Y15228D01*
Y15186D01*
X161574D01*
Y16920D01*
X157853D01*
X157966Y17103D01*
X158092Y17258D01*
X158149Y17329D01*
X158191Y17385D01*
X158219Y17413D01*
X158233Y17427D01*
X158290Y17484D01*
X158346Y17554D01*
X158515Y17709D01*
X158699Y17893D01*
X158882Y18076D01*
X159065Y18245D01*
X159220Y18386D01*
X159277Y18442D01*
X159319Y18485D01*
X159347Y18499D01*
X159361Y18513D01*
X159671Y18809D01*
X159925Y19049D01*
X160137Y19274D01*
X160306Y19443D01*
X160433Y19584D01*
X160517Y19683D01*
X160574Y19753D01*
X160588Y19767D01*
X160771Y20007D01*
X160926Y20233D01*
X161053Y20444D01*
X161152Y20627D01*
X161236Y20782D01*
X161292Y20909D01*
X161321Y20980D01*
X161335Y21008D01*
X161419Y21233D01*
X161476Y21459D01*
X161518Y21670D01*
X161546Y21868D01*
X161560Y22023D01*
X161574Y22150D01*
Y22263D01*
X161560Y22474D01*
X161532Y22685D01*
X161504Y22883D01*
X161448Y23066D01*
X161307Y23390D01*
X161166Y23672D01*
X161081Y23799D01*
X161010Y23898D01*
X160940Y23997D01*
X160870Y24067D01*
X160813Y24123D01*
X160785Y24180D01*
X160757Y24194D01*
X160743Y24208D01*
X160588Y24349D01*
X160404Y24476D01*
X160235Y24574D01*
X160038Y24659D01*
X159671Y24800D01*
X159305Y24899D01*
X159136Y24927D01*
X158981Y24955D01*
X158840Y24969D01*
X158713Y24983D01*
X158614Y24997D01*
D02*
G37*
G36*
X150184Y24941D02*
X146589D01*
Y15186D01*
X148563D01*
Y18865D01*
X150311D01*
X150522Y18879D01*
X150720D01*
X150903Y18893D01*
X151072Y18908D01*
X151227Y18922D01*
X151354Y18936D01*
X151481D01*
X151580Y18950D01*
X151678Y18964D01*
X151749Y18978D01*
X151805D01*
X151847Y18992D01*
X151876D01*
X152073Y19049D01*
X152256Y19119D01*
X152425Y19189D01*
X152580Y19274D01*
X152707Y19345D01*
X152806Y19401D01*
X152863Y19443D01*
X152891Y19457D01*
X153074Y19598D01*
X153229Y19753D01*
X153384Y19922D01*
X153497Y20064D01*
X153596Y20204D01*
X153666Y20317D01*
X153708Y20388D01*
X153722Y20416D01*
X153835Y20656D01*
X153920Y20909D01*
X153976Y21177D01*
X154018Y21417D01*
X154047Y21614D01*
Y21713D01*
X154061Y21783D01*
Y21938D01*
X154032Y22347D01*
X153976Y22728D01*
X153877Y23038D01*
X153779Y23320D01*
X153722Y23433D01*
X153666Y23531D01*
X153624Y23616D01*
X153567Y23700D01*
X153539Y23757D01*
X153511Y23799D01*
X153483Y23813D01*
Y23827D01*
X153257Y24081D01*
X153032Y24293D01*
X152792Y24462D01*
X152580Y24589D01*
X152383Y24673D01*
X152228Y24744D01*
X152172Y24758D01*
X152129Y24772D01*
X152101Y24786D01*
X152087D01*
X151974Y24814D01*
X151833Y24842D01*
X151664Y24856D01*
X151495Y24871D01*
X151100Y24899D01*
X150706Y24927D01*
X150339D01*
X150184Y24941D01*
D02*
G37*
%LPD*%
G36*
X166424Y20134D02*
X166607Y20078D01*
X166762Y20007D01*
X166903Y19922D01*
X167016Y19838D01*
X167086Y19767D01*
X167143Y19711D01*
X167157Y19697D01*
X167284Y19514D01*
X167382Y19288D01*
X167439Y19049D01*
X167495Y18823D01*
X167523Y18612D01*
X167537Y18442D01*
Y18386D01*
Y18329D01*
Y18301D01*
Y18287D01*
X167523Y17963D01*
X167481Y17681D01*
X167425Y17456D01*
X167368Y17272D01*
X167298Y17131D01*
X167241Y17033D01*
X167199Y16962D01*
X167185Y16948D01*
X167044Y16821D01*
X166903Y16723D01*
X166748Y16652D01*
X166621Y16610D01*
X166494Y16581D01*
X166396Y16553D01*
X166311D01*
X166114Y16581D01*
X165930Y16638D01*
X165775Y16708D01*
X165634Y16807D01*
X165522Y16892D01*
X165423Y16976D01*
X165366Y17033D01*
X165352Y17047D01*
X165212Y17244D01*
X165113Y17470D01*
X165042Y17709D01*
X165000Y17935D01*
X164972Y18146D01*
X164944Y18301D01*
Y18372D01*
Y18414D01*
Y18442D01*
Y18456D01*
X164958Y18752D01*
X165000Y19006D01*
X165056Y19218D01*
X165127Y19401D01*
X165197Y19528D01*
X165254Y19626D01*
X165296Y19697D01*
X165310Y19711D01*
X165451Y19852D01*
X165606Y19965D01*
X165761Y20035D01*
X165902Y20092D01*
X166029Y20120D01*
X166142Y20148D01*
X166226D01*
X166424Y20134D01*
D02*
G37*
G36*
X191192Y19049D02*
X188500D01*
X189825Y22671D01*
X191192Y19049D01*
D02*
G37*
G36*
X150170Y23278D02*
X150297D01*
X150424Y23263D01*
X150607D01*
X150748Y23249D01*
X150847Y23235D01*
X150903Y23221D01*
X150917D01*
X151086Y23179D01*
X151241Y23122D01*
X151382Y23052D01*
X151495Y22967D01*
X151580Y22897D01*
X151650Y22841D01*
X151692Y22798D01*
X151706Y22784D01*
X151819Y22643D01*
X151890Y22502D01*
X151946Y22347D01*
X151988Y22206D01*
X152017Y22079D01*
X152031Y21981D01*
Y21924D01*
Y21896D01*
X152017Y21741D01*
X152003Y21600D01*
X151960Y21473D01*
X151918Y21360D01*
X151876Y21262D01*
X151847Y21191D01*
X151819Y21149D01*
X151805Y21135D01*
X151721Y21022D01*
X151608Y20923D01*
X151509Y20839D01*
X151411Y20768D01*
X151326Y20726D01*
X151255Y20684D01*
X151199Y20670D01*
X151185Y20656D01*
X151100Y20627D01*
X151002Y20613D01*
X150776Y20571D01*
X150522Y20543D01*
X150269Y20529D01*
X150015D01*
X149916Y20515D01*
X148563D01*
Y23292D01*
X150029D01*
X150170Y23278D01*
D02*
G37*
D10*
X447500Y39500D02*
X456500D01*
X447500Y54500D02*
X456500D01*
X447500Y10500D02*
X456500D01*
X447500Y25500D02*
X456500D01*
X268056Y318590D02*
X268422Y326800D01*
X268756Y319025D01*
X269157Y326900D01*
X269191Y319224D01*
X269858Y326632D01*
X270091Y320426D01*
X270558Y327266D01*
X270825Y321427D01*
X271359Y327233D01*
X271392Y322028D01*
X271793Y327000D01*
X272060Y322428D01*
X272627Y327166D01*
X272894Y323196D01*
X273061Y327600D01*
X273695Y324330D01*
X273762Y327233D01*
X274329Y324697D01*
X274663Y327266D01*
X274996Y325364D01*
X275530Y327166D01*
X276164Y327066D01*
X276098Y326800D02*
X276164Y327066D01*
X275464Y326032D02*
X276098Y326800D01*
X273862Y324397D02*
X275464Y326032D01*
X272794Y323662D02*
X273862Y324397D01*
X271826Y322862D02*
X272794Y323662D01*
X267977Y318161D02*
X276566Y327371D01*
X268434Y317737D02*
X277349Y327240D01*
X3500Y192000D02*
X15000D01*
X3500D02*
Y278000D01*
X15000D01*
X35000Y192000D02*
X46500D01*
Y278000D01*
X35000D02*
X46500D01*
D11*
X437510Y214980D02*
X454020Y231490D01*
X387980Y214980D02*
X437510D01*
X387980D02*
Y231490D01*
X437510Y281020D02*
X454020Y264510D01*
X387980Y281020D02*
X437510D01*
X387980Y264510D02*
Y281020D01*
X136510Y190520D02*
X153020Y174010D01*
Y124480D02*
Y174010D01*
X136510Y124480D02*
X153020D01*
X86980Y174010D02*
X103490Y190520D01*
X86980Y124480D02*
Y174010D01*
Y124480D02*
X103490D01*
X463792Y221079D02*
X453636D01*
X458714Y216001D02*
Y226158D01*
X146921Y200292D02*
Y190136D01*
X151999Y195214D02*
X141842D01*
D12*
X268313Y281800D02*
Y327800D01*
Y281800D02*
X328306D01*
Y327800D01*
X268313D02*
X328306D01*
X318648Y149553D02*
Y159553D01*
Y167053D01*
X328648D01*
X410000Y13000D02*
Y28000D01*
X350000Y13000D02*
X410000D01*
X350000D02*
Y43000D01*
X410000D01*
Y28000D02*
Y43000D01*
X5000Y300500D02*
Y392000D01*
Y300500D02*
X79000D01*
X5000Y392000D02*
X144500D01*
Y382000D02*
Y392000D01*
X145000Y300500D02*
Y309500D01*
X222500Y220000D02*
Y300000D01*
X172500Y250000D02*
X212500D01*
X192500Y270000D02*
X212500Y250000D01*
X172500D02*
X192500Y270000D01*
X190500Y268000D02*
X208500Y250000D01*
X188500Y266000D02*
X204500Y250000D01*
X186500Y264000D02*
X200500Y250000D01*
X184500Y262000D02*
X196500Y250000D01*
X182500Y260000D02*
X192500Y250000D01*
X180500Y258000D02*
X188500Y250000D01*
X178500Y256000D02*
X184500Y250000D01*
X176500Y254000D02*
X180500Y250000D01*
X175500D02*
X193500Y268000D01*
X178939Y250076D02*
X195500Y267000D01*
X182051Y250151D02*
X196500Y265000D01*
X182051Y250151D02*
X198500Y264000D01*
X184500Y250000D02*
X198500Y264000D01*
X184500Y250000D02*
X199500Y262000D01*
X188273Y250758D02*
X199500Y262000D01*
X188273Y250758D02*
X200337Y260850D01*
X190548Y250835D02*
X200337Y260850D01*
X190548Y250835D02*
X201095Y259788D01*
X192825Y250910D02*
X201095Y259788D01*
X192825Y250910D02*
X202613Y259257D01*
X195177Y250910D02*
X202613Y259257D01*
X195177Y250910D02*
X203523Y257740D01*
X196998Y250303D02*
X203523Y257740D01*
X196998Y250303D02*
X204434Y256450D01*
X199350Y250303D02*
X204434Y256450D01*
X199350Y250303D02*
X205648Y255615D01*
X201702Y250835D02*
X205648Y255615D01*
X201702Y250835D02*
X207090Y254628D01*
X203827Y250531D02*
X207090Y254628D01*
X203827Y250531D02*
X207697Y252656D01*
X205420Y251214D02*
X207697Y252656D01*
X205420Y251214D02*
X209670Y251366D01*
X209214Y251214D02*
X209670Y251366D01*
X207393Y253035D02*
X209214Y251214D01*
X205572Y254780D02*
X207393Y253035D01*
X202082Y255463D02*
X205572Y254780D01*
X200565Y257284D02*
X202082Y255463D01*
X197833Y260926D02*
X200565Y257284D01*
X195936Y263961D02*
X197833Y260926D01*
X194418Y265934D02*
X195936Y263961D01*
X193736Y267375D02*
X194418Y265934D01*
X192749Y267983D02*
X193736Y267375D01*
X192218Y268438D02*
X192749Y267983D01*
X192218Y268438D02*
X196012Y262975D01*
X200488Y261305D01*
X196543Y263354D02*
X200488Y261305D01*
X194115Y262671D02*
X196543Y263354D01*
X192446Y264872D02*
X194115Y262671D01*
X191535Y265251D02*
X192446Y264872D01*
X190473Y265782D02*
X191535Y265251D01*
X190245Y261305D02*
X190473Y265782D01*
X190245Y261305D02*
X191915Y261609D01*
X189183Y260395D02*
X191915Y261609D01*
X189183Y260395D02*
X189486Y258878D01*
X186906Y262823D02*
X189486Y258878D01*
X186906Y262823D02*
X187969Y259030D01*
X187134Y258953D02*
X187969Y259030D01*
X187134Y258953D02*
X187817Y256753D01*
X184858Y258498D02*
X187817Y256753D01*
X184858Y258498D02*
X185541Y259333D01*
X186072Y258498D01*
X186300Y254325D01*
X182506Y257891D02*
X186300Y254325D01*
X182506Y257891D02*
X184251Y254856D01*
X182581Y254097D02*
X184251Y254856D01*
X182581Y254097D02*
X183871Y252656D01*
X181595Y254021D02*
X183871Y252656D01*
X181519Y255539D02*
X181595Y254021D01*
X181519Y255539D02*
X182506Y251366D01*
X180761Y251214D02*
X182506Y251366D01*
X179546Y252656D02*
X180761Y251214D01*
X179395Y253186D02*
X179546Y252656D01*
X179395Y253186D02*
X179623Y250758D01*
X177574Y251366D02*
X179623Y250758D01*
X175829Y250986D02*
X177574Y251366D01*
X175449Y251441D02*
X175829Y250986D01*
X175449Y251441D02*
X177043Y253111D01*
X179623Y255691D01*
X181140Y257284D01*
X181899Y257967D01*
X184554Y259788D01*
X185541Y261230D01*
X186679Y262595D01*
X187286Y263506D01*
X188045Y264492D01*
X188121Y264872D01*
X162500Y220600D02*
Y300000D01*
X15000Y477500D02*
X20000Y472500D01*
X32857D02*
X40000Y460000D01*
X20000Y472500D02*
X32857D01*
X332500Y10000D02*
X335500Y11500D01*
X335000Y45000D02*
X336640Y45820D01*
X297500Y45000D02*
X335000D01*
X225000D02*
X297500D01*
X225000Y10000D02*
X235000D01*
X332500D01*
D13*
X291508Y110557D02*
Y182057D01*
X219508Y110557D02*
Y182057D01*
X261200Y62300D02*
Y87700D01*
X108800Y62300D02*
Y87700D01*
Y62300D02*
X261200D01*
X108800Y87700D02*
X261200D01*
X283800Y817300D02*
Y842700D01*
X436200Y817300D02*
Y842700D01*
X283800D02*
X436200D01*
X283800Y817300D02*
X436200D01*
X283800Y787300D02*
Y812700D01*
X436200Y787300D02*
Y812700D01*
X283800D02*
X436200D01*
X283800Y787300D02*
X436200D01*
X123800Y787300D02*
Y812700D01*
X276200Y787300D02*
Y812700D01*
X123800D02*
X276200D01*
X123800Y787300D02*
X276200D01*
X123800Y817300D02*
Y842700D01*
X276200Y817300D02*
Y842700D01*
X123800D02*
X276200D01*
X123800Y817300D02*
X276200D01*
X206680Y338620D02*
Y386380D01*
X183320Y338620D02*
Y386380D01*
X206680D01*
X183320Y338620D02*
X206680D01*
X1317300Y493800D02*
X1342700D01*
X1317300Y646200D02*
X1342700D01*
X1317300Y493800D02*
Y646200D01*
X1342700Y493800D02*
Y646200D01*
X1287300Y493800D02*
X1312700D01*
X1287300Y646200D02*
X1312700D01*
X1287300Y493800D02*
Y646200D01*
X1312700Y493800D02*
Y646200D01*
X1317300Y223800D02*
X1342700D01*
X1317300Y376200D02*
X1342700D01*
X1317300Y223800D02*
Y376200D01*
X1342700Y223800D02*
Y376200D01*
X1287300Y223800D02*
X1312700D01*
X1287300Y376200D02*
X1312700D01*
X1287300Y223800D02*
Y376200D01*
X1312700Y223800D02*
Y376200D01*
X484700Y838900D02*
X1255300D01*
X484700Y441100D02*
Y838900D01*
Y441100D02*
X1255300D01*
Y838900D01*
X484700Y428900D02*
X1255300D01*
X484700Y31100D02*
Y428900D01*
Y31100D02*
X1255300D01*
Y428900D01*
D14*
X111703Y87326D02*
X112314D01*
X109097Y84720D02*
X111703Y87326D01*
X109097Y84720D02*
Y85075D01*
X111285Y87262D01*
X110867D02*
X111285D01*
X109258Y85653D02*
X110867Y87262D01*
X109258Y85653D02*
Y85943D01*
X110674Y87359D01*
X110288D02*
X110674D01*
X109194Y86265D02*
X110288Y87359D01*
X109194Y86265D02*
Y86715D01*
X109901Y87422D01*
X432686Y817674D02*
X433297D01*
X435902Y820280D01*
Y819925D02*
Y820280D01*
X433715Y817738D02*
X435902Y819925D01*
X433715Y817738D02*
X434133D01*
X435742Y819347D01*
Y819056D02*
Y819347D01*
X434327Y817641D02*
X435742Y819056D01*
X434327Y817641D02*
X434712D01*
X435806Y818735D01*
Y818285D02*
Y818735D01*
X435099Y817578D02*
X435806Y818285D01*
X432686Y787674D02*
X433297D01*
X435902Y790280D01*
Y789925D02*
Y790280D01*
X433715Y787738D02*
X435902Y789925D01*
X433715Y787738D02*
X434133D01*
X435742Y789347D01*
Y789056D02*
Y789347D01*
X434327Y787641D02*
X435742Y789056D01*
X434327Y787641D02*
X434712D01*
X435806Y788735D01*
Y788285D02*
Y788735D01*
X435099Y787578D02*
X435806Y788285D01*
X272686Y787674D02*
X273297D01*
X275903Y790280D01*
Y789925D02*
Y790280D01*
X273715Y787738D02*
X275903Y789925D01*
X273715Y787738D02*
X274133D01*
X275742Y789347D01*
Y789056D02*
Y789347D01*
X274326Y787641D02*
X275742Y789056D01*
X274326Y787641D02*
X274712D01*
X275806Y788735D01*
Y788285D02*
Y788735D01*
X275099Y787578D02*
X275806Y788285D01*
X272686Y817674D02*
X273297D01*
X275903Y820280D01*
Y819925D02*
Y820280D01*
X273715Y817738D02*
X275903Y819925D01*
X273715Y817738D02*
X274133D01*
X275742Y819347D01*
Y819056D02*
Y819347D01*
X274326Y817641D02*
X275742Y819056D01*
X274326Y817641D02*
X274712D01*
X275806Y818735D01*
Y818285D02*
Y818735D01*
X275099Y817578D02*
X275806Y818285D01*
X187357Y338591D02*
Y338845D01*
X183650Y342552D02*
X187357Y338845D01*
X183650Y341935D02*
Y342552D01*
Y341935D02*
X186558Y339026D01*
Y338809D02*
Y339026D01*
X183832Y341535D02*
X186558Y338809D01*
X183687Y341535D02*
X183832D01*
X183687D02*
X185867Y339354D01*
Y338772D02*
Y339354D01*
X183578Y341062D02*
X185867Y338772D01*
X183541Y341062D02*
X183578D01*
X183541D02*
X185177Y339426D01*
Y338736D02*
Y339426D01*
X185031Y338882D02*
X185177Y338736D01*
X185031Y338882D02*
Y339281D01*
X184013Y340298D02*
X185031Y339281D01*
X184013Y339972D02*
Y340298D01*
Y339972D02*
X184959Y339026D01*
X183978D02*
X184959D01*
X183904Y339100D02*
X183978Y339026D01*
X183904Y339100D02*
Y340553D01*
X183978Y340626D01*
Y339790D02*
Y340626D01*
Y339790D02*
X184668Y339100D01*
X184886D01*
X184632Y339354D02*
X184886Y339100D01*
X184269Y339354D02*
X184632D01*
X184195Y339281D02*
X184269Y339354D01*
X1342326Y642686D02*
Y643297D01*
X1339720Y645902D02*
X1342326Y643297D01*
X1339720Y645902D02*
X1340075D01*
X1342262Y643715D01*
Y644133D01*
X1340653Y645742D02*
X1342262Y644133D01*
X1340653Y645742D02*
X1340944D01*
X1342359Y644326D01*
Y644712D01*
X1341265Y645806D02*
X1342359Y644712D01*
X1341265Y645806D02*
X1341715D01*
X1342422Y645099D01*
X1312326Y642686D02*
Y643297D01*
X1309720Y645902D02*
X1312326Y643297D01*
X1309720Y645902D02*
X1310075D01*
X1312262Y643715D01*
Y644133D01*
X1310653Y645742D02*
X1312262Y644133D01*
X1310653Y645742D02*
X1310944D01*
X1312359Y644326D01*
Y644712D01*
X1311265Y645806D02*
X1312359Y644712D01*
X1311265Y645806D02*
X1311715D01*
X1312422Y645099D01*
X1342326Y372686D02*
Y373297D01*
X1339720Y375902D02*
X1342326Y373297D01*
X1339720Y375902D02*
X1340075D01*
X1342262Y373715D01*
Y374133D01*
X1340653Y375742D02*
X1342262Y374133D01*
X1340653Y375742D02*
X1340943D01*
X1342359Y374327D01*
Y374712D01*
X1341265Y375806D02*
X1342359Y374712D01*
X1341265Y375806D02*
X1341715D01*
X1342422Y375099D01*
X1312326Y372686D02*
Y373297D01*
X1309720Y375902D02*
X1312326Y373297D01*
X1309720Y375902D02*
X1310075D01*
X1312262Y373715D01*
Y374133D01*
X1310653Y375742D02*
X1312262Y374133D01*
X1310653Y375742D02*
X1310943D01*
X1312359Y374327D01*
Y374712D01*
X1311265Y375806D02*
X1312359Y374712D01*
X1311265Y375806D02*
X1311715D01*
X1312422Y375099D01*
D15*
X115556Y98809D02*
X113017D01*
X114287D01*
Y92461D01*
X113017Y91191D01*
X111748D01*
X110478Y92461D01*
X118096Y91191D02*
X120635D01*
X119365D01*
Y98809D01*
X118096Y97539D01*
X129522Y91191D02*
X124444D01*
X129522Y96270D01*
Y97539D01*
X128252Y98809D01*
X125713D01*
X124444Y97539D01*
X450674Y833691D02*
X453213D01*
X451944D01*
Y840039D01*
X453213Y841309D01*
X454483D01*
X455752Y840039D01*
X448135Y841309D02*
X445596D01*
X446865D01*
Y833691D01*
X448135Y834961D01*
X441787Y841309D02*
X439248D01*
X440517D01*
Y833691D01*
X441787Y834961D01*
X1323466Y661422D02*
X1320927D01*
X1322197D01*
Y655073D01*
X1320927Y653804D01*
X1319658D01*
X1318388Y655073D01*
X1326006Y653804D02*
X1328545D01*
X1327275D01*
Y661422D01*
X1326006Y660152D01*
X1332354D02*
X1333623Y661422D01*
X1336162D01*
X1337432Y660152D01*
Y655073D01*
X1336162Y653804D01*
X1333623D01*
X1332354Y655073D01*
Y660152D01*
X1293494Y661422D02*
X1290955D01*
X1292225D01*
Y655073D01*
X1290955Y653804D01*
X1289686D01*
X1288416Y655073D01*
X1296033D02*
X1297303Y653804D01*
X1299842D01*
X1301112Y655073D01*
Y660152D01*
X1299842Y661422D01*
X1297303D01*
X1296033Y660152D01*
Y658882D01*
X1297303Y657613D01*
X1301112D01*
X1323466Y391419D02*
X1320927D01*
X1322197D01*
Y385071D01*
X1320927Y383802D01*
X1319658D01*
X1318388Y385071D01*
X1326006Y390150D02*
X1327275Y391419D01*
X1329814D01*
X1331084Y390150D01*
Y388880D01*
X1329814Y387611D01*
X1331084Y386341D01*
Y385071D01*
X1329814Y383802D01*
X1327275D01*
X1326006Y385071D01*
Y386341D01*
X1327275Y387611D01*
X1326006Y388880D01*
Y390150D01*
X1327275Y387611D02*
X1329814D01*
X448770Y803691D02*
X451309D01*
X450039D01*
Y810039D01*
X451309Y811309D01*
X452578D01*
X453848Y810039D01*
X446230Y803691D02*
X441152D01*
Y804961D01*
X446230Y810039D01*
Y811309D01*
X1293494Y391419D02*
X1290955D01*
X1292225D01*
Y385071D01*
X1290955Y383802D01*
X1289686D01*
X1288416Y385071D01*
X1301112Y391419D02*
X1298573Y390150D01*
X1296033Y387611D01*
Y385071D01*
X1297303Y383802D01*
X1299842D01*
X1301112Y385071D01*
Y386341D01*
X1299842Y387611D01*
X1296033D01*
X268652Y341309D02*
Y334961D01*
X269922Y333691D01*
X272461D01*
X273730Y334961D01*
Y341309D01*
X281348Y333691D02*
X276270D01*
X281348Y338770D01*
Y340039D01*
X280078Y341309D01*
X277539D01*
X276270Y340039D01*
X245478Y261191D02*
Y268809D01*
X249287D01*
X250556Y267539D01*
Y265000D01*
X249287Y263730D01*
X245478D01*
X248017D02*
X250556Y261191D01*
X253096D02*
X255635D01*
X254365D01*
Y268809D01*
X253096Y267539D01*
X264522Y268809D02*
X259444D01*
Y265000D01*
X261983Y266270D01*
X263252D01*
X264522Y265000D01*
Y262461D01*
X263252Y261191D01*
X260713D01*
X259444Y262461D01*
X356152Y261191D02*
Y268809D01*
X359961D01*
X361230Y267539D01*
Y265000D01*
X359961Y263730D01*
X356152D01*
X358691D02*
X361230Y261191D01*
X368848Y268809D02*
X363770D01*
Y265000D01*
X366309Y266270D01*
X367578D01*
X368848Y265000D01*
Y262461D01*
X367578Y261191D01*
X365039D01*
X363770Y262461D01*
X228652Y16191D02*
Y23809D01*
X232461D01*
X233730Y22539D01*
Y20000D01*
X232461Y18730D01*
X228652D01*
X231191D02*
X233730Y16191D01*
X241348D02*
X236270D01*
X241348Y21270D01*
Y22539D01*
X240078Y23809D01*
X237539D01*
X236270Y22539D01*
X143056Y117539D02*
X141787Y118809D01*
X139248D01*
X137978Y117539D01*
Y112461D01*
X139248Y111191D01*
X141787D01*
X143056Y112461D01*
X145596Y111191D02*
X148135D01*
X146865D01*
Y118809D01*
X145596Y117539D01*
X157022Y111191D02*
X151944D01*
X157022Y116270D01*
Y117539D01*
X155752Y118809D01*
X153213D01*
X151944Y117539D01*
X55191Y275539D02*
X53922Y276809D01*
X51382D01*
X50113Y275539D01*
Y274270D01*
X51382Y273000D01*
X53922D01*
X55191Y271730D01*
Y270461D01*
X53922Y269191D01*
X51382D01*
X50113Y270461D01*
X57730Y276809D02*
Y269191D01*
X60270Y271730D01*
X62809Y269191D01*
Y276809D01*
X65348Y269191D02*
X67887D01*
X66617D01*
Y276809D01*
X65348Y275539D01*
X171191Y343731D02*
Y341191D01*
Y342461D01*
X177539D01*
X178809Y341191D01*
Y339922D01*
X177539Y338652D01*
X178809Y351348D02*
Y346270D01*
X173730Y351348D01*
X172461D01*
X171191Y350078D01*
Y347539D01*
X172461Y346270D01*
X138000Y405809D02*
X135461D01*
X136730D01*
Y399461D01*
X135461Y398191D01*
X134191D01*
X132922Y399461D01*
X140539Y398191D02*
X143078D01*
X141809D01*
Y405809D01*
X140539Y404539D01*
X227422Y228809D02*
Y221191D01*
X231230D01*
X232500Y222461D01*
Y227539D01*
X231230Y228809D01*
X227422D01*
X235039Y221191D02*
X237578D01*
X236309D01*
Y228809D01*
X235039Y227539D01*
X383861Y46428D02*
Y54046D01*
X388940Y46428D01*
Y54046D01*
X391479D02*
X396557D01*
X394018D01*
Y46428D01*
X404175Y52776D02*
X402905Y54046D01*
X400366D01*
X399096Y52776D01*
Y47698D01*
X400366Y46428D01*
X402905D01*
X404175Y47698D01*
X406714Y46428D02*
X409253D01*
X407983D01*
Y54046D01*
X406714Y52776D01*
X204961Y191230D02*
X203691Y189961D01*
Y187422D01*
X204961Y186152D01*
X210039D01*
X211309Y187422D01*
Y189961D01*
X210039Y191230D01*
X203691Y198848D02*
Y193770D01*
X207500D01*
X206230Y196309D01*
Y197578D01*
X207500Y198848D01*
X210039D01*
X211309Y197578D01*
Y195039D01*
X210039Y193770D01*
D16*
X116270Y803691D02*
X118809D01*
X117539D01*
Y810039D01*
X118809Y811309D01*
X120078D01*
X121348Y810039D01*
X108652Y803691D02*
X113730D01*
Y807500D01*
X111191Y806230D01*
X109922D01*
X108652Y807500D01*
Y810039D01*
X109922Y811309D01*
X112461D01*
X113730Y810039D01*
X116270Y833691D02*
X118809D01*
X117539D01*
Y840039D01*
X118809Y841309D01*
X120078D01*
X121348Y840039D01*
X109922Y841309D02*
Y833691D01*
X113730Y837500D01*
X108652D01*
X381039Y224944D02*
X382309Y226213D01*
Y228752D01*
X381039Y230022D01*
X375961D01*
X374691Y228752D01*
Y226213D01*
X375961Y224944D01*
X374691Y222404D02*
Y219865D01*
Y221135D01*
X382309D01*
X381039Y222404D01*
Y216056D02*
X382309Y214787D01*
Y212248D01*
X381039Y210978D01*
X379770D01*
X378500Y212248D01*
Y213517D01*
Y212248D01*
X377230Y210978D01*
X375961D01*
X374691Y212248D01*
Y214787D01*
X375961Y216056D01*
X319154Y179634D02*
Y173286D01*
X320424Y172016D01*
X322963D01*
X324233Y173286D01*
Y179634D01*
X326772Y172016D02*
X329311D01*
X328042D01*
Y179634D01*
X326772Y178364D01*
X247978Y16191D02*
Y23809D01*
X251787D01*
X253056Y22539D01*
Y20000D01*
X251787Y18730D01*
X247978D01*
X250517D02*
X253056Y16191D01*
X255596D02*
X258135D01*
X256865D01*
Y23809D01*
X255596Y22539D01*
X265752Y16191D02*
Y23809D01*
X261944Y20000D01*
X267022D01*
X378327Y79322D02*
X370709D01*
Y83131D01*
X371979Y84400D01*
X374518D01*
X375788Y83131D01*
Y79322D01*
Y81861D02*
X378327Y84400D01*
Y86939D02*
Y89479D01*
Y88209D01*
X370709D01*
X371979Y86939D01*
Y93287D02*
X370709Y94557D01*
Y97096D01*
X371979Y98366D01*
X373248D01*
X374518Y97096D01*
Y95827D01*
Y97096D01*
X375788Y98366D01*
X377057D01*
X378327Y97096D01*
Y94557D01*
X377057Y93287D01*
X247978Y51191D02*
Y58809D01*
X251787D01*
X253056Y57539D01*
Y55000D01*
X251787Y53730D01*
X247978D01*
X250517D02*
X253056Y51191D01*
X255596D02*
X258135D01*
X256865D01*
Y58809D01*
X255596Y57539D01*
X267022Y51191D02*
X261944D01*
X267022Y56270D01*
Y57539D01*
X265752Y58809D01*
X263213D01*
X261944Y57539D01*
X328809Y234248D02*
X321191D01*
Y238056D01*
X322461Y239326D01*
X325000D01*
X326270Y238056D01*
Y234248D01*
Y236787D02*
X328809Y239326D01*
Y241865D02*
Y244404D01*
Y243135D01*
X321191D01*
X322461Y241865D01*
X328809Y248213D02*
Y250752D01*
Y249483D01*
X321191D01*
X322461Y248213D01*
X272978Y51191D02*
Y58809D01*
X276787D01*
X278056Y57539D01*
Y55000D01*
X276787Y53730D01*
X272978D01*
X275517D02*
X278056Y51191D01*
X280596D02*
X283135D01*
X281865D01*
Y58809D01*
X280596Y57539D01*
X286944D02*
X288213Y58809D01*
X290752D01*
X292022Y57539D01*
Y52461D01*
X290752Y51191D01*
X288213D01*
X286944Y52461D01*
Y57539D01*
X358803Y234128D02*
X351185D01*
Y237937D01*
X352455Y239207D01*
X354994D01*
X356264Y237937D01*
Y234128D01*
Y236667D02*
X358803Y239207D01*
X357533Y241746D02*
X358803Y243015D01*
Y245555D01*
X357533Y246824D01*
X352455D01*
X351185Y245555D01*
Y243015D01*
X352455Y241746D01*
X353724D01*
X354994Y243015D01*
Y246824D01*
X343809Y233652D02*
X336191D01*
Y237461D01*
X337461Y238730D01*
X340000D01*
X341269Y237461D01*
Y233652D01*
Y236191D02*
X343809Y238730D01*
X337461Y241270D02*
X336191Y242539D01*
Y245078D01*
X337461Y246348D01*
X338730D01*
X340000Y245078D01*
X341269Y246348D01*
X342539D01*
X343809Y245078D01*
Y242539D01*
X342539Y241270D01*
X341269D01*
X340000Y242539D01*
X338730Y241270D01*
X337461D01*
X340000Y242539D02*
Y245078D01*
X359991Y79861D02*
X352374D01*
Y83670D01*
X353643Y84939D01*
X356182D01*
X357452Y83670D01*
Y79861D01*
Y82400D02*
X359991Y84939D01*
X352374Y87478D02*
Y92557D01*
X353643D01*
X358722Y87478D01*
X359991D01*
X273652Y16191D02*
Y23809D01*
X277461D01*
X278730Y22539D01*
Y20000D01*
X277461Y18730D01*
X273652D01*
X276191D02*
X278730Y16191D01*
X286348Y23809D02*
X283809Y22539D01*
X281270Y20000D01*
Y17461D01*
X282539Y16191D01*
X285078D01*
X286348Y17461D01*
Y18730D01*
X285078Y20000D01*
X281270D01*
X426809Y11152D02*
X419191D01*
Y14961D01*
X420461Y16230D01*
X423000D01*
X424269Y14961D01*
Y11152D01*
Y13691D02*
X426809Y16230D01*
Y22578D02*
X419191D01*
X423000Y18770D01*
Y23848D01*
X425809Y38652D02*
X418191D01*
Y42461D01*
X419461Y43730D01*
X422000D01*
X423270Y42461D01*
Y38652D01*
Y41191D02*
X425809Y43730D01*
X419461Y46270D02*
X418191Y47539D01*
Y50078D01*
X419461Y51348D01*
X420730D01*
X422000Y50078D01*
Y48809D01*
Y50078D01*
X423270Y51348D01*
X424539D01*
X425809Y50078D01*
Y47539D01*
X424539Y46270D01*
X311247Y101397D02*
Y109015D01*
X315056D01*
X316325Y107745D01*
Y105206D01*
X315056Y103937D01*
X311247D01*
X313786D02*
X316325Y101397D01*
X318864D02*
X321404D01*
X320134D01*
Y109015D01*
X318864Y107745D01*
X204922Y118809D02*
Y111191D01*
X210000D01*
X212539D02*
X215078D01*
X213809D01*
Y118809D01*
X212539Y117539D01*
X408612Y193057D02*
X407343Y191787D01*
Y189248D01*
X408612Y187978D01*
X413691D01*
X414960Y189248D01*
Y191787D01*
X413691Y193057D01*
X414960Y195596D02*
Y198135D01*
Y196865D01*
X407343D01*
X408612Y195596D01*
Y201944D02*
X407343Y203213D01*
Y205752D01*
X408612Y207022D01*
X413691D01*
X414960Y205752D01*
Y203213D01*
X413691Y201944D01*
X408612D01*
X391068Y193885D02*
X389799Y192615D01*
Y190076D01*
X391068Y188806D01*
X396147D01*
X397416Y190076D01*
Y192615D01*
X396147Y193885D01*
Y196424D02*
X397416Y197693D01*
Y200233D01*
X396147Y201502D01*
X391068D01*
X389799Y200233D01*
Y197693D01*
X391068Y196424D01*
X392338D01*
X393608Y197693D01*
Y201502D01*
X483877Y111539D02*
X482607Y112809D01*
X480068D01*
X478799Y111539D01*
Y106461D01*
X480068Y105191D01*
X482607D01*
X483877Y106461D01*
X486416Y111539D02*
X487686Y112809D01*
X490225D01*
X491494Y111539D01*
Y110270D01*
X490225Y109000D01*
X491494Y107731D01*
Y106461D01*
X490225Y105191D01*
X487686D01*
X486416Y106461D01*
Y107731D01*
X487686Y109000D01*
X486416Y110270D01*
Y111539D01*
X487686Y109000D02*
X490225D01*
X464838Y111539D02*
X463568Y112809D01*
X461029D01*
X459760Y111539D01*
Y106461D01*
X461029Y105191D01*
X463568D01*
X464838Y106461D01*
X467377Y112809D02*
X472455D01*
Y111539D01*
X467377Y106461D01*
Y105191D01*
X385730Y111539D02*
X384461Y112809D01*
X381922D01*
X380652Y111539D01*
Y106461D01*
X381922Y105191D01*
X384461D01*
X385730Y106461D01*
X393348Y112809D02*
X390809Y111539D01*
X388270Y109000D01*
Y106461D01*
X389539Y105191D01*
X392078D01*
X393348Y106461D01*
Y107730D01*
X392078Y109000D01*
X388270D01*
X184961Y191230D02*
X183691Y189961D01*
Y187422D01*
X184961Y186152D01*
X190039D01*
X191309Y187422D01*
Y189961D01*
X190039Y191230D01*
X191309Y197578D02*
X183691D01*
X187500Y193770D01*
Y198848D01*
X164961Y191230D02*
X163691Y189961D01*
Y187422D01*
X164961Y186152D01*
X170039D01*
X171309Y187422D01*
Y189961D01*
X170039Y191230D01*
X164961Y193770D02*
X163691Y195039D01*
Y197578D01*
X164961Y198848D01*
X166230D01*
X167500Y197578D01*
Y196309D01*
Y197578D01*
X168770Y198848D01*
X170039D01*
X171309Y197578D01*
Y195039D01*
X170039Y193770D01*
X233730Y57539D02*
X232461Y58809D01*
X229922D01*
X228652Y57539D01*
Y52461D01*
X229922Y51191D01*
X232461D01*
X233730Y52461D01*
X241348Y51191D02*
X236270D01*
X241348Y56270D01*
Y57539D01*
X240078Y58809D01*
X237539D01*
X236270Y57539D01*
X303185Y152478D02*
X301916Y153748D01*
X299377D01*
X298107Y152478D01*
Y147400D01*
X299377Y146130D01*
X301916D01*
X303185Y147400D01*
X305725Y146130D02*
X308264D01*
X306994D01*
Y153748D01*
X305725Y152478D01*
D17*
X1261001Y442838D02*
X1268999D01*
Y446837D01*
X1267666Y448170D01*
X1266333D01*
X1265000Y446837D01*
Y442838D01*
Y446837D01*
X1263667Y448170D01*
X1262334D01*
X1261001Y446837D01*
Y442838D01*
X1268999Y450835D02*
X1263667D01*
X1261001Y453501D01*
X1263667Y456167D01*
X1268999D01*
X1265000D01*
Y450835D01*
X1261001Y458833D02*
Y464165D01*
Y461499D01*
X1268999D01*
Y472162D02*
Y466830D01*
X1263667Y472162D01*
X1262334D01*
X1261001Y470829D01*
Y468163D01*
X1262334Y466830D01*
X1261001Y34171D02*
X1268999D01*
Y38170D01*
X1267666Y39503D01*
X1266333D01*
X1265000Y38170D01*
Y34171D01*
Y38170D01*
X1263667Y39503D01*
X1262334D01*
X1261001Y38170D01*
Y34171D01*
X1268999Y42168D02*
X1263667D01*
X1261001Y44834D01*
X1263667Y47500D01*
X1268999D01*
X1265000D01*
Y42168D01*
X1261001Y50166D02*
Y55497D01*
Y52832D01*
X1268999D01*
Y58163D02*
Y60829D01*
Y59496D01*
X1261001D01*
X1262334Y58163D01*
M02*
