G04*
G04 #@! TF.GenerationSoftware,Altium Limited,Altium Designer,24.5.2 (23)*
G04*
G04 Layer_Physical_Order=2*
G04 Layer_Color=16711680*
%FSLAX44Y44*%
%MOMM*%
G71*
G04*
G04 #@! TF.SameCoordinates,7688A6CE-4724-4EBB-A06F-6B4FEE905E02*
G04*
G04*
G04 #@! TF.FilePolarity,Positive*
G04*
G01*
G75*
%ADD59C,0.2032*%
%ADD60C,0.5000*%
%ADD63C,1.5000*%
%ADD64C,1.3000*%
%ADD65C,1.5240*%
%ADD66R,1.2200X1.2200*%
%ADD67C,1.2200*%
%ADD68C,1.3700*%
%ADD69R,1.3700X1.3700*%
%ADD70R,2.0000X5.0000*%
%ADD71R,5.0000X2.0000*%
%ADD72R,1.2200X1.2200*%
%ADD73C,3.3100*%
%ADD74C,2.5100*%
%ADD75C,3.6800*%
%ADD76C,2.1750*%
%ADD77C,0.6000*%
G36*
X1270000Y864392D02*
D01*
X1271706Y864119D01*
X1273153Y863153D01*
X1274119Y861706D01*
X1274127Y861668D01*
X1274392Y860000D01*
X1274422Y859849D01*
X1274422Y858222D01*
X1274426Y782465D01*
X1274461Y782290D01*
X1274409Y781231D01*
X1274876Y771738D01*
X1276270Y762336D01*
X1278580Y753116D01*
X1281782Y744167D01*
X1285845Y735575D01*
X1290732Y727423D01*
X1296393Y719789D01*
X1302776Y712746D01*
X1309819Y706364D01*
X1317453Y700702D01*
X1325605Y695815D01*
X1334197Y691752D01*
X1343146Y688550D01*
X1352366Y686240D01*
X1361768Y684846D01*
X1364392Y684717D01*
Y461608D01*
X1355000D01*
X1355000Y461608D01*
Y461608D01*
X1354785Y461565D01*
X1350842Y461255D01*
X1346786Y460281D01*
X1342932Y458685D01*
X1339375Y456505D01*
X1336204Y453796D01*
X1333495Y450625D01*
X1331315Y447068D01*
X1329719Y443214D01*
X1328745Y439158D01*
X1328418Y435000D01*
X1328745Y430842D01*
X1329719Y426786D01*
X1331315Y422932D01*
X1333495Y419375D01*
X1336204Y416204D01*
X1339375Y413495D01*
X1342932Y411315D01*
X1346786Y409719D01*
X1350842Y408745D01*
X1354785Y408435D01*
X1355000Y408392D01*
X1364392D01*
Y185287D01*
X1361771Y185159D01*
X1352368Y183764D01*
X1343148Y181454D01*
X1334198Y178252D01*
X1325605Y174188D01*
X1317453Y169301D01*
X1309818Y163639D01*
X1302775Y157255D01*
X1296391Y150212D01*
X1290729Y142578D01*
X1285842Y134424D01*
X1281778Y125832D01*
X1278576Y116882D01*
X1276266Y107662D01*
X1274871Y98259D01*
X1274405Y88765D01*
X1274457Y87705D01*
X1274422Y87530D01*
Y10151D01*
X1274392Y10000D01*
X1274392D01*
X1274127Y8332D01*
X1274119Y8294D01*
X1273153Y6847D01*
X1271706Y5881D01*
X1270167Y5574D01*
X1270000Y5608D01*
X100000D01*
X99833Y5574D01*
X98294Y5881D01*
X96847Y6847D01*
X95881Y8294D01*
X95873Y8332D01*
X95608Y10000D01*
X95608D01*
X95578Y10151D01*
Y87530D01*
X95543Y87705D01*
X95595Y88765D01*
X95129Y98259D01*
X93734Y107662D01*
X91424Y116882D01*
X88222Y125832D01*
X84158Y134424D01*
X79271Y142578D01*
X73609Y150212D01*
X67225Y157255D01*
X60182Y163639D01*
X52547Y169301D01*
X44394Y174188D01*
X35802Y178252D01*
X35041Y178524D01*
X34798Y180500D01*
X36156Y181407D01*
X38593Y183844D01*
X40508Y186711D01*
X41828Y189895D01*
X42500Y193276D01*
Y196724D01*
X41828Y200105D01*
X40508Y203289D01*
X38764Y205900D01*
X39622Y207184D01*
X40866Y210187D01*
X41500Y213375D01*
Y216625D01*
X40866Y219813D01*
X39622Y222816D01*
X38163Y225000D01*
X39622Y227184D01*
X40866Y230187D01*
X41500Y233375D01*
Y236625D01*
X40866Y239813D01*
X39622Y242816D01*
X38163Y245000D01*
X39622Y247184D01*
X40866Y250187D01*
X41500Y253375D01*
Y256625D01*
X40866Y259813D01*
X39622Y262816D01*
X38764Y264100D01*
X40508Y266711D01*
X41828Y269895D01*
X42500Y273276D01*
Y276724D01*
X41828Y280105D01*
X40508Y283289D01*
X38593Y286156D01*
X36156Y288593D01*
X33289Y290508D01*
X30105Y291828D01*
X26724Y292500D01*
X23276D01*
X19895Y291828D01*
X16711Y290508D01*
X13844Y288593D01*
X11407Y286156D01*
X9492Y283289D01*
X8173Y280105D01*
X7500Y276724D01*
Y273276D01*
X8173Y269895D01*
X9492Y266711D01*
X11236Y264100D01*
X10378Y262816D01*
X9134Y259813D01*
X8500Y256625D01*
Y253375D01*
X9134Y250187D01*
X10378Y247184D01*
X11837Y245000D01*
X10378Y242816D01*
X9134Y239813D01*
X8500Y236625D01*
Y233375D01*
X9134Y230187D01*
X10378Y227184D01*
X11837Y225000D01*
X10378Y222816D01*
X9134Y219813D01*
X8500Y216625D01*
Y213375D01*
X9134Y210187D01*
X10378Y207184D01*
X11236Y205900D01*
X9492Y203289D01*
X8173Y200105D01*
X7500Y196724D01*
Y193276D01*
X8173Y189895D01*
X9466Y186773D01*
X9143Y185942D01*
X8612Y185102D01*
X8229Y185159D01*
X5608Y185287D01*
Y408392D01*
X15000D01*
X15000Y408392D01*
Y408392D01*
X15215Y408435D01*
X19158Y408745D01*
X23214Y409719D01*
X27068Y411315D01*
X30624Y413495D01*
X33796Y416204D01*
X36505Y419375D01*
X36835Y419914D01*
X37220Y420065D01*
X38759Y420019D01*
X38923Y419917D01*
X39293Y419512D01*
X39686Y418954D01*
X40177Y418544D01*
X40608Y418072D01*
X40900Y417885D01*
X41177Y417167D01*
X41249Y417069D01*
X41295Y416957D01*
X42024Y416007D01*
X42729Y415041D01*
X42824Y414964D01*
X42898Y414868D01*
X43848Y414139D01*
X44780Y413388D01*
X44890Y413339D01*
X44987Y413265D01*
X46093Y412807D01*
X47187Y412323D01*
X47307Y412304D01*
X47420Y412257D01*
X47620Y412231D01*
X47689Y412203D01*
X47849Y412089D01*
X48903Y411700D01*
X49940Y411270D01*
X50135Y411245D01*
X50319Y411176D01*
X51438Y411073D01*
X52550Y410927D01*
X52745Y410952D01*
X52941Y410934D01*
X54048Y411124D01*
X55068Y411258D01*
X55663Y410663D01*
X57653Y409333D01*
X60000Y408866D01*
X239959D01*
X261366Y387459D01*
Y282500D01*
X261833Y280153D01*
X263163Y278163D01*
X275952Y265373D01*
X277942Y264044D01*
X280289Y263577D01*
X296166D01*
X297365Y261799D01*
X297306Y261350D01*
Y257150D01*
X297462Y255964D01*
X297590Y254774D01*
X297634Y254660D01*
X297650Y254540D01*
X298108Y253434D01*
X298539Y252318D01*
X298611Y252219D01*
X298657Y252107D01*
X299386Y251157D01*
X300092Y250191D01*
X300186Y250114D01*
X300260Y250018D01*
X301210Y249289D01*
X302142Y248538D01*
X302253Y248489D01*
X302349Y248415D01*
X303455Y247957D01*
X304549Y247473D01*
X304669Y247454D01*
X304782Y247407D01*
X305968Y247251D01*
X307151Y247067D01*
X307272Y247080D01*
X307392Y247064D01*
X308578Y247220D01*
X309769Y247348D01*
X309882Y247391D01*
X310003Y247407D01*
X311108Y247865D01*
X312225Y248297D01*
X312323Y248368D01*
X312436Y248415D01*
X312596Y248538D01*
X312665Y248567D01*
X312858Y248600D01*
X313878Y249069D01*
X314916Y249499D01*
X315072Y249619D01*
X315250Y249701D01*
X316114Y250418D01*
X317005Y251102D01*
X317124Y251258D01*
X317276Y251383D01*
X317924Y252300D01*
X318608Y253191D01*
X318683Y253372D01*
X318796Y253533D01*
X319186Y254586D01*
X319615Y255623D01*
X319641Y255818D01*
X319709Y256003D01*
X319712Y256038D01*
X343541Y279866D01*
X417700D01*
X418326Y279050D01*
X418974Y278133D01*
X419126Y278008D01*
X419245Y277852D01*
X420136Y277168D01*
X421000Y276451D01*
X421178Y276369D01*
X421334Y276249D01*
X422372Y275819D01*
X423392Y275350D01*
X423585Y275317D01*
X423654Y275288D01*
X423814Y275165D01*
X423927Y275119D01*
X424025Y275047D01*
X425141Y274615D01*
X426247Y274157D01*
X426368Y274142D01*
X426481Y274098D01*
X427671Y273970D01*
X428858Y273814D01*
X428978Y273830D01*
X429099Y273817D01*
X430282Y274001D01*
X431468Y274157D01*
X431581Y274204D01*
X431701Y274223D01*
X432795Y274707D01*
X433901Y275165D01*
X433997Y275239D01*
X434109Y275288D01*
X435040Y276039D01*
X435636Y276496D01*
X436855Y276121D01*
X437414Y275703D01*
Y103540D01*
X437757Y100929D01*
X438765Y98497D01*
X440368Y96408D01*
X441001Y95922D01*
X440748Y94000D01*
X441092Y91389D01*
X441699Y89923D01*
X441572Y89448D01*
X441320Y88838D01*
X441233Y88182D01*
X441062Y87544D01*
X441062Y86883D01*
X440976Y86227D01*
X441062Y85572D01*
X441062Y84911D01*
X441233Y84272D01*
X441320Y83617D01*
X441572Y83006D01*
X441744Y82367D01*
X442480Y80589D01*
X442811Y80017D01*
X443064Y79406D01*
X443466Y78882D01*
X443797Y78309D01*
X444264Y77842D01*
X444666Y77317D01*
X445191Y76915D01*
X445658Y76447D01*
X446231Y76117D01*
X446755Y75714D01*
X447366Y75461D01*
X447939Y75131D01*
X448577Y74960D01*
X449188Y74707D01*
X449844Y74620D01*
X450482Y74449D01*
X451143D01*
X451799Y74363D01*
X572500D01*
X575111Y74707D01*
X577543Y75714D01*
X579632Y77317D01*
X581235Y79406D01*
X582243Y81839D01*
X582586Y84449D01*
Y215143D01*
X584229Y215824D01*
X584731Y215322D01*
X587858Y213233D01*
X591332Y211794D01*
X595020Y211060D01*
X598780D01*
X602468Y211794D01*
X605942Y213233D01*
X609069Y215322D01*
X611728Y217981D01*
X613817Y221108D01*
X615256Y224582D01*
X615990Y228270D01*
Y232030D01*
X615256Y235718D01*
X613817Y239193D01*
X611728Y242319D01*
X609069Y244978D01*
X605942Y247067D01*
X602468Y248506D01*
X598780Y249240D01*
X595020D01*
X591332Y248506D01*
X587858Y247067D01*
X584731Y244978D01*
X584229Y244476D01*
X582586Y245157D01*
Y447241D01*
X584364Y448192D01*
X586981Y446443D01*
X590792Y444865D01*
X594838Y444060D01*
X598962D01*
X603008Y444865D01*
X606819Y446443D01*
X610248Y448735D01*
X613165Y451651D01*
X615457Y455081D01*
X617035Y458892D01*
X617840Y462938D01*
Y467062D01*
X617035Y471108D01*
X615457Y474919D01*
X613165Y478348D01*
X610248Y481265D01*
X606819Y483557D01*
X603008Y485135D01*
X598962Y485940D01*
X594838D01*
X590792Y485135D01*
X586981Y483557D01*
X584364Y481808D01*
X582586Y482759D01*
Y594449D01*
X582243Y597060D01*
X581235Y599492D01*
X579632Y601581D01*
X577543Y603184D01*
X575111Y604192D01*
X572500Y604536D01*
X447500D01*
X444889Y604192D01*
X442457Y603184D01*
X441465Y602423D01*
X441090Y602407D01*
X439263Y602952D01*
X438337Y604337D01*
X436347Y605667D01*
X434000Y606134D01*
X402000D01*
X399653Y605667D01*
X397663Y604337D01*
X396333Y602347D01*
X395866Y600000D01*
X396333Y597653D01*
X397663Y595663D01*
X399653Y594333D01*
X402000Y593866D01*
X434000D01*
X435636Y594192D01*
X437183Y593215D01*
X437414Y592907D01*
Y296297D01*
X436855Y295879D01*
X435636Y295504D01*
X435040Y295961D01*
X434109Y296712D01*
X433997Y296761D01*
X433901Y296835D01*
X432795Y297293D01*
X431701Y297777D01*
X431581Y297796D01*
X431468Y297843D01*
X430282Y297999D01*
X429099Y298183D01*
X428978Y298170D01*
X428858Y298186D01*
X427672Y298030D01*
X426481Y297902D01*
X426368Y297859D01*
X426247Y297843D01*
X425141Y297385D01*
X424025Y296953D01*
X423927Y296882D01*
X423814Y296835D01*
X423654Y296712D01*
X423585Y296683D01*
X423392Y296650D01*
X422372Y296181D01*
X421334Y295751D01*
X421178Y295631D01*
X421000Y295549D01*
X420136Y294832D01*
X419245Y294148D01*
X419126Y293992D01*
X418974Y293867D01*
X418326Y292950D01*
X417700Y292134D01*
X341000D01*
X338653Y291667D01*
X336663Y290337D01*
X319350Y273024D01*
X317067Y273256D01*
X316537Y274048D01*
X314548Y275378D01*
X312200Y275844D01*
X282830D01*
X273634Y285041D01*
Y390000D01*
X273167Y392347D01*
X271837Y394337D01*
X246837Y419337D01*
X244847Y420667D01*
X242500Y421134D01*
X65297D01*
X64074Y422450D01*
X63927Y423563D01*
X63823Y424681D01*
X63755Y424865D01*
X63730Y425060D01*
X63300Y426097D01*
X62911Y427151D01*
X62797Y427311D01*
X62769Y427380D01*
X62742Y427580D01*
X62696Y427693D01*
X62677Y427813D01*
X62193Y428908D01*
X61735Y430013D01*
X61661Y430109D01*
X61612Y430221D01*
X60861Y431152D01*
X60132Y432102D01*
X60036Y432176D01*
X59959Y432271D01*
X58992Y432976D01*
X58043Y433705D01*
X57931Y433751D01*
X57833Y433823D01*
X57540Y433936D01*
X57244Y434256D01*
X56873Y434783D01*
X56353Y435217D01*
X55892Y435714D01*
X55346Y436057D01*
X54851Y436470D01*
X54237Y436755D01*
X53663Y437116D01*
X53271Y437237D01*
X53134Y437342D01*
Y442000D01*
X52667Y444347D01*
X51337Y446337D01*
X44883Y452792D01*
Y528208D01*
X108337Y591663D01*
X109667Y593653D01*
X110134Y596000D01*
Y835459D01*
X128541Y853866D01*
X340159D01*
X357837Y836189D01*
X357219Y834696D01*
X357046Y833825D01*
X356137Y833562D01*
X355191Y833613D01*
X354214Y835305D01*
X352605Y836914D01*
X350635Y838051D01*
X348570Y838605D01*
Y830000D01*
Y821396D01*
X350635Y821949D01*
X352605Y823086D01*
X354214Y824695D01*
X355191Y826387D01*
X356137Y826438D01*
X357046Y826175D01*
X357219Y825304D01*
X358432Y822374D01*
X360194Y819737D01*
X362437Y817494D01*
X364649Y816016D01*
X364832Y815265D01*
Y814735D01*
X364649Y813984D01*
X362437Y812506D01*
X360194Y810263D01*
X358432Y807626D01*
X357219Y804696D01*
X357046Y803825D01*
X356137Y803562D01*
X355191Y803613D01*
X354214Y805305D01*
X352605Y806914D01*
X350635Y808051D01*
X348570Y808605D01*
Y800000D01*
Y791396D01*
X350635Y791949D01*
X352605Y793086D01*
X354214Y794695D01*
X355191Y796387D01*
X356137Y796438D01*
X357046Y796175D01*
X357219Y795304D01*
X358432Y792374D01*
X360194Y789737D01*
X362437Y787494D01*
X365074Y785732D01*
X368004Y784519D01*
X371114Y783900D01*
X374286D01*
X377396Y784519D01*
X380326Y785732D01*
X382963Y787494D01*
X384177Y788708D01*
X385400Y789596D01*
X386623Y788708D01*
X387837Y787494D01*
X390474Y785732D01*
X393404Y784519D01*
X396514Y783900D01*
X397471D01*
X398088Y783814D01*
X398667Y783810D01*
X399079Y783783D01*
X399180Y783706D01*
X399528Y783561D01*
X399843Y783355D01*
X400740Y783059D01*
X401612Y782698D01*
X401986Y782649D01*
X402344Y782531D01*
X403287Y782477D01*
X404223Y782354D01*
X404596Y782403D01*
X404973Y782382D01*
X405897Y782575D01*
X406740Y782686D01*
X437866Y751559D01*
Y676300D01*
X437050Y675674D01*
X436133Y675025D01*
X436008Y674874D01*
X435852Y674755D01*
X435168Y673864D01*
X434451Y673000D01*
X434369Y672822D01*
X434249Y672666D01*
X433819Y671628D01*
X433350Y670608D01*
X433317Y670415D01*
X433288Y670346D01*
X433165Y670186D01*
X433119Y670073D01*
X433047Y669975D01*
X432615Y668859D01*
X432157Y667753D01*
X432141Y667632D01*
X432098Y667519D01*
X431970Y666329D01*
X431814Y665142D01*
X431830Y665022D01*
X431817Y664901D01*
X432001Y663718D01*
X432157Y662532D01*
X432204Y662420D01*
X432223Y662299D01*
X432707Y661205D01*
X433165Y660099D01*
X433239Y660003D01*
X433288Y659892D01*
X434039Y658960D01*
X434768Y658010D01*
X434864Y657936D01*
X434941Y657842D01*
X435907Y657136D01*
X436857Y656407D01*
X436969Y656361D01*
X437067Y656289D01*
X438184Y655858D01*
X439289Y655400D01*
X439410Y655384D01*
X439524Y655340D01*
X440714Y655212D01*
X441900Y655056D01*
X446100D01*
X447286Y655212D01*
X448476Y655340D01*
X448590Y655384D01*
X448711Y655400D01*
X449816Y655858D01*
X450933Y656289D01*
X451031Y656361D01*
X451143Y656407D01*
X452093Y657136D01*
X453059Y657842D01*
X453136Y657936D01*
X453232Y658010D01*
X453961Y658960D01*
X454712Y659892D01*
X454761Y660003D01*
X454835Y660099D01*
X455293Y661205D01*
X455777Y662299D01*
X455796Y662420D01*
X455843Y662532D01*
X455999Y663718D01*
X456183Y664901D01*
X456170Y665022D01*
X456186Y665142D01*
X456030Y666328D01*
X455902Y667519D01*
X455858Y667632D01*
X455843Y667753D01*
X455385Y668858D01*
X454953Y669975D01*
X454882Y670073D01*
X454835Y670186D01*
X454712Y670346D01*
X454683Y670415D01*
X454650Y670608D01*
X454181Y671628D01*
X453751Y672666D01*
X453631Y672822D01*
X453549Y673000D01*
X452832Y673864D01*
X452148Y674755D01*
X451992Y674874D01*
X451867Y675025D01*
X450950Y675674D01*
X450134Y676300D01*
Y750149D01*
X451934D01*
X453970Y750992D01*
X455528Y752551D01*
X456372Y754587D01*
Y756791D01*
X455528Y758827D01*
X453970Y760385D01*
X451934Y761229D01*
X449730D01*
X447693Y760385D01*
X447041Y759733D01*
X417057Y789717D01*
X417738Y791360D01*
X422230D01*
Y800000D01*
Y808640D01*
X414860D01*
Y806255D01*
X413082Y805902D01*
X412368Y807626D01*
X410606Y810263D01*
X408363Y812506D01*
X406151Y813984D01*
X405969Y814735D01*
Y815265D01*
X406151Y816016D01*
X408363Y817494D01*
X410606Y819737D01*
X412368Y822374D01*
X413082Y824099D01*
X414860Y823745D01*
Y821360D01*
X422230D01*
Y830000D01*
Y838640D01*
X414860D01*
Y836255D01*
X413082Y835902D01*
X412368Y837626D01*
X410606Y840263D01*
X408363Y842506D01*
X405726Y844268D01*
X402796Y845481D01*
X399686Y846100D01*
X396514D01*
X393404Y845481D01*
X390474Y844268D01*
X387837Y842506D01*
X386623Y841292D01*
X385400Y840404D01*
X384177Y841292D01*
X382963Y842506D01*
X380326Y844268D01*
X377396Y845481D01*
X374286Y846100D01*
X371114D01*
X368004Y845481D01*
X366511Y844863D01*
X348760Y862614D01*
X349497Y864392D01*
X1268261D01*
X1270000Y864392D01*
D02*
G37*
G36*
X404206Y799058D02*
X404312Y797480D01*
X404411Y796782D01*
X404542Y796145D01*
X404703Y795570D01*
X404896Y795055D01*
X405119Y794602D01*
X405374Y794209D01*
X405659Y793877D01*
X404223Y792440D01*
X403891Y792726D01*
X403498Y792981D01*
X403045Y793204D01*
X402530Y793397D01*
X401955Y793558D01*
X401318Y793689D01*
X400620Y793788D01*
X399042Y793894D01*
X398161Y793900D01*
X404200Y799939D01*
X404206Y799058D01*
D02*
G37*
G36*
X445027Y667343D02*
X445059Y667070D01*
X445113Y666804D01*
X445189Y666545D01*
X445287Y666294D01*
X445406Y666049D01*
X445547Y665812D01*
X445710Y665582D01*
X445894Y665359D01*
X446100Y665142D01*
X441900D01*
X442106Y665359D01*
X442290Y665582D01*
X442453Y665812D01*
X442594Y666049D01*
X442713Y666294D01*
X442811Y666545D01*
X442886Y666804D01*
X442941Y667070D01*
X442973Y667343D01*
X442984Y667623D01*
X445016D01*
X445027Y667343D01*
D02*
G37*
G36*
X100000Y864392D02*
X119203D01*
X119940Y862614D01*
X99663Y842337D01*
X98333Y840347D01*
X97866Y838000D01*
Y598541D01*
X34411Y535086D01*
X33082Y533096D01*
X32615Y530749D01*
Y456929D01*
X31000Y456184D01*
X30624Y456505D01*
X27068Y458685D01*
X23214Y460281D01*
X19158Y461255D01*
X15215Y461565D01*
X15000Y461608D01*
X5578D01*
Y684711D01*
X8229Y684841D01*
X17631Y686236D01*
X26852Y688546D01*
X35802Y691748D01*
X44394Y695812D01*
X52547Y700699D01*
X60182Y706361D01*
X67225Y712745D01*
X73609Y719788D01*
X79271Y727422D01*
X84158Y735575D01*
X88222Y744168D01*
X91424Y753118D01*
X93734Y762339D01*
X95129Y771741D01*
X95595Y781235D01*
X95543Y782295D01*
X95578Y782470D01*
Y859849D01*
X95608Y860000D01*
X95608D01*
X95873Y861668D01*
X95881Y861706D01*
X96847Y863153D01*
X98294Y864119D01*
X99833Y864426D01*
X100000Y864392D01*
D02*
G37*
G36*
X47928Y428691D02*
X48323Y428360D01*
X48508Y428230D01*
X48686Y428124D01*
X48855Y428041D01*
X49017Y427983D01*
X49170Y427948D01*
X49316Y427937D01*
X49454Y427950D01*
X47105Y425787D01*
X47129Y425923D01*
X47130Y426066D01*
X47107Y426216D01*
X47060Y426373D01*
X46989Y426536D01*
X46895Y426707D01*
X46777Y426884D01*
X46636Y427068D01*
X46471Y427258D01*
X46282Y427456D01*
X47718Y428893D01*
X47928Y428691D01*
D02*
G37*
G36*
X53007Y424672D02*
X53035Y424384D01*
X53082Y424106D01*
X53151Y423838D01*
X53239Y423581D01*
X53348Y423334D01*
X53477Y423098D01*
X53627Y422871D01*
X53797Y422655D01*
X53987Y422450D01*
X52550Y421013D01*
X52345Y421203D01*
X52129Y421373D01*
X51902Y421523D01*
X51666Y421652D01*
X51419Y421761D01*
X51162Y421849D01*
X50894Y421918D01*
X50616Y421965D01*
X50328Y421993D01*
X50030Y422000D01*
X53000Y424970D01*
X53007Y424672D01*
D02*
G37*
G36*
X428858Y283900D02*
X428642Y284106D01*
X428418Y284290D01*
X428188Y284453D01*
X427951Y284594D01*
X427706Y284713D01*
X427455Y284811D01*
X427196Y284886D01*
X426930Y284941D01*
X426657Y284973D01*
X426377Y284984D01*
Y287016D01*
X426657Y287027D01*
X426930Y287059D01*
X427196Y287114D01*
X427455Y287189D01*
X427706Y287287D01*
X427951Y287406D01*
X428188Y287547D01*
X428418Y287710D01*
X428642Y287894D01*
X428858Y288100D01*
Y283900D01*
D02*
G37*
G36*
X307609Y261144D02*
X307832Y260960D01*
X308062Y260797D01*
X308299Y260656D01*
X308544Y260537D01*
X308795Y260439D01*
X309054Y260364D01*
X309320Y260309D01*
X309593Y260277D01*
X309873Y260266D01*
Y258234D01*
X309593Y258223D01*
X309320Y258191D01*
X309054Y258136D01*
X308795Y258061D01*
X308544Y257963D01*
X308299Y257844D01*
X308062Y257703D01*
X307832Y257540D01*
X307609Y257356D01*
X307392Y257150D01*
Y261350D01*
X307609Y261144D01*
D02*
G37*
G36*
X572500Y84449D02*
X451799D01*
X451062Y86227D01*
X451697Y86862D01*
X452540Y88898D01*
Y91102D01*
X451697Y93138D01*
X450835Y94000D01*
X451697Y94862D01*
X452540Y96898D01*
Y99102D01*
X451697Y101138D01*
X450138Y102697D01*
X448102Y103540D01*
X447500D01*
Y594449D01*
X572500D01*
Y84449D01*
D02*
G37*
%LPC*%
G36*
X432140Y838640D02*
X424770D01*
Y831270D01*
X432140D01*
Y838640D01*
D02*
G37*
G36*
X281500Y851134D02*
X132000D01*
X129653Y850667D01*
X127663Y849337D01*
X114663Y836337D01*
X113333Y834347D01*
X112866Y832000D01*
Y592541D01*
X49199Y528873D01*
X47869Y526884D01*
X47402Y524536D01*
Y458451D01*
X47333Y458347D01*
X46866Y456000D01*
X47333Y453653D01*
X48663Y451663D01*
X50653Y450333D01*
X53000Y449866D01*
X55347Y450333D01*
X57337Y451663D01*
X57874Y452199D01*
X59203Y454189D01*
X59670Y456536D01*
Y477737D01*
X61435Y478358D01*
X61531Y478284D01*
X61608Y478189D01*
X62574Y477483D01*
X63524Y476755D01*
X63636Y476708D01*
X63734Y476637D01*
X64851Y476205D01*
X65956Y475747D01*
X66077Y475731D01*
X66191Y475687D01*
X67381Y475560D01*
X68567Y475403D01*
X72767D01*
X73953Y475560D01*
X75143Y475687D01*
X75257Y475731D01*
X75377Y475747D01*
X76483Y476205D01*
X77600Y476637D01*
X77698Y476708D01*
X77810Y476755D01*
X78759Y477483D01*
X79726Y478189D01*
X79802Y478284D01*
X79899Y478358D01*
X80628Y479307D01*
X81379Y480239D01*
X81428Y480350D01*
X81502Y480447D01*
X81960Y481552D01*
X82444Y482647D01*
X82463Y482767D01*
X82509Y482879D01*
X82666Y484065D01*
X82850Y485248D01*
X82837Y485369D01*
X82853Y485490D01*
X82697Y486675D01*
X82569Y487866D01*
X82525Y487980D01*
X82509Y488100D01*
X82052Y489206D01*
X81620Y490322D01*
X81549Y490420D01*
X81502Y490533D01*
X81379Y490693D01*
X81350Y490762D01*
X81317Y490956D01*
X80848Y491976D01*
X80418Y493013D01*
X80298Y493169D01*
X80216Y493348D01*
X79499Y494211D01*
X78815Y495102D01*
X78659Y495222D01*
X78534Y495373D01*
X77617Y496021D01*
X76801Y496648D01*
Y518126D01*
X166237Y607563D01*
X167567Y609553D01*
X168034Y611900D01*
Y781648D01*
X168708Y782165D01*
X169498Y782683D01*
X169749Y782964D01*
X170048Y783193D01*
X170623Y783942D01*
X171252Y784647D01*
X171422Y784983D01*
X171651Y785282D01*
X172012Y786154D01*
X172438Y786998D01*
X172514Y787367D01*
X172659Y787715D01*
X172675Y787840D01*
X172947Y788151D01*
X173354Y788564D01*
X173729Y789060D01*
X174406Y789737D01*
X176168Y792374D01*
X177381Y795304D01*
X177554Y796175D01*
X178463Y796438D01*
X179410Y796387D01*
X180386Y794695D01*
X181995Y793086D01*
X183965Y791949D01*
X186030Y791395D01*
Y800000D01*
Y808605D01*
X183965Y808051D01*
X181995Y806914D01*
X180386Y805305D01*
X179410Y803613D01*
X178463Y803562D01*
X177554Y803825D01*
X177381Y804696D01*
X176168Y807626D01*
X174406Y810263D01*
X172163Y812506D01*
X169951Y813984D01*
X169769Y814735D01*
Y815265D01*
X169951Y816016D01*
X172163Y817494D01*
X174406Y819737D01*
X176168Y822374D01*
X177381Y825304D01*
X177554Y826175D01*
X178463Y826438D01*
X179410Y826387D01*
X180386Y824695D01*
X181995Y823086D01*
X183965Y821949D01*
X186030Y821395D01*
Y830000D01*
X187300D01*
Y831270D01*
X195905D01*
X195351Y833335D01*
X194214Y835305D01*
X192605Y836914D01*
X192303Y837088D01*
X192779Y838866D01*
X207221D01*
X207697Y837088D01*
X207395Y836914D01*
X205786Y835305D01*
X204649Y833335D01*
X204095Y831270D01*
X221304D01*
X220751Y833335D01*
X219614Y835305D01*
X218005Y836914D01*
X217703Y837088D01*
X218179Y838866D01*
X232621D01*
X233097Y837088D01*
X232795Y836914D01*
X231186Y835305D01*
X230049Y833335D01*
X229496Y831270D01*
X246705D01*
X246151Y833335D01*
X245014Y835305D01*
X243405Y836914D01*
X243103Y837088D01*
X243579Y838866D01*
X253176D01*
X254860Y838640D01*
X254860Y837088D01*
Y831270D01*
X272140D01*
Y837088D01*
X272140Y838640D01*
X273824Y838866D01*
X277422D01*
X278082Y838439D01*
X278927Y837088D01*
X278882Y836873D01*
X278903Y836496D01*
X278854Y836123D01*
X278977Y835187D01*
X279031Y834244D01*
X279149Y833886D01*
X279198Y833512D01*
X279559Y832640D01*
X279855Y831743D01*
X280061Y831428D01*
X280205Y831080D01*
X280282Y830979D01*
X280310Y830567D01*
X280314Y829988D01*
X280400Y829371D01*
Y828414D01*
X281019Y825304D01*
X282232Y822374D01*
X283994Y819737D01*
X286237Y817494D01*
X288449Y816016D01*
X288631Y815265D01*
Y814735D01*
X288449Y813984D01*
X286237Y812506D01*
X283994Y810263D01*
X282232Y807626D01*
X281019Y804696D01*
X280400Y801586D01*
Y798414D01*
X281019Y795304D01*
X282232Y792374D01*
X283994Y789737D01*
X286237Y787494D01*
X288874Y785732D01*
X291804Y784519D01*
X294914Y783900D01*
X295871D01*
X296488Y783814D01*
X297067Y783810D01*
X297479Y783783D01*
X297580Y783706D01*
X297928Y783561D01*
X298243Y783355D01*
X299140Y783059D01*
X300012Y782698D01*
X300386Y782649D01*
X300744Y782531D01*
X301687Y782477D01*
X302623Y782354D01*
X302996Y782403D01*
X303373Y782382D01*
X304297Y782575D01*
X305140Y782686D01*
X316366Y771459D01*
Y666300D01*
X315550Y665674D01*
X314633Y665025D01*
X314508Y664874D01*
X314352Y664755D01*
X313668Y663864D01*
X312951Y663000D01*
X312869Y662822D01*
X312749Y662666D01*
X312319Y661628D01*
X311850Y660608D01*
X311817Y660415D01*
X311788Y660346D01*
X311665Y660185D01*
X311618Y660073D01*
X311547Y659975D01*
X311115Y658859D01*
X310657Y657753D01*
X310641Y657632D01*
X310598Y657519D01*
X310470Y656329D01*
X310314Y655142D01*
X310330Y655022D01*
X310317Y654901D01*
X310501Y653718D01*
X310657Y652532D01*
X310704Y652420D01*
X310723Y652299D01*
X311207Y651205D01*
X311665Y650099D01*
X311739Y650003D01*
X311788Y649892D01*
X312539Y648960D01*
X313268Y648010D01*
X313364Y647936D01*
X313441Y647842D01*
X314407Y647136D01*
X315357Y646407D01*
X315469Y646361D01*
X315567Y646289D01*
X316684Y645858D01*
X317789Y645400D01*
X317910Y645384D01*
X318023Y645340D01*
X319214Y645212D01*
X320400Y645056D01*
X324600D01*
X325786Y645212D01*
X326977Y645340D01*
X327090Y645384D01*
X327211Y645400D01*
X328316Y645858D01*
X329432Y646289D01*
X329531Y646361D01*
X329643Y646407D01*
X330593Y647136D01*
X331559Y647842D01*
X331636Y647936D01*
X331732Y648010D01*
X332461Y648960D01*
X333212Y649892D01*
X333261Y650003D01*
X333335Y650099D01*
X333793Y651205D01*
X334277Y652299D01*
X334296Y652420D01*
X334343Y652532D01*
X334499Y653718D01*
X334683Y654901D01*
X334670Y655022D01*
X334686Y655142D01*
X334530Y656328D01*
X334402Y657519D01*
X334358Y657632D01*
X334343Y657753D01*
X333885Y658858D01*
X333453Y659975D01*
X333382Y660073D01*
X333335Y660185D01*
X333212Y660346D01*
X333183Y660415D01*
X333150Y660608D01*
X332681Y661628D01*
X332251Y662666D01*
X332131Y662822D01*
X332049Y663000D01*
X331332Y663864D01*
X330648Y664755D01*
X330492Y664874D01*
X330367Y665025D01*
X329450Y665674D01*
X328634Y666300D01*
Y774000D01*
X328167Y776347D01*
X326837Y778337D01*
X322838Y782337D01*
X322925Y782545D01*
X323739Y783950D01*
X326596Y784519D01*
X329526Y785732D01*
X332163Y787494D01*
X334406Y789737D01*
X336168Y792374D01*
X337381Y795304D01*
X337555Y796175D01*
X338463Y796438D01*
X339409Y796387D01*
X340386Y794695D01*
X341995Y793086D01*
X343965Y791949D01*
X346030Y791396D01*
Y800000D01*
Y808605D01*
X343965Y808051D01*
X341995Y806914D01*
X340386Y805305D01*
X339409Y803613D01*
X338463Y803562D01*
X337555Y803825D01*
X337381Y804696D01*
X336168Y807626D01*
X334406Y810263D01*
X332163Y812506D01*
X329951Y813984D01*
X329768Y814735D01*
Y815265D01*
X329951Y816016D01*
X332163Y817494D01*
X334406Y819737D01*
X336168Y822374D01*
X337381Y825304D01*
X337555Y826175D01*
X338463Y826438D01*
X339409Y826387D01*
X340386Y824695D01*
X341995Y823086D01*
X343965Y821949D01*
X346030Y821396D01*
Y830000D01*
Y838605D01*
X343965Y838051D01*
X341995Y836914D01*
X340386Y835305D01*
X339409Y833613D01*
X338463Y833562D01*
X337555Y833825D01*
X337381Y834696D01*
X336168Y837626D01*
X334406Y840263D01*
X332163Y842506D01*
X329526Y844268D01*
X326596Y845481D01*
X323486Y846100D01*
X320314D01*
X317204Y845481D01*
X314274Y844268D01*
X311637Y842506D01*
X310423Y841292D01*
X309200Y840404D01*
X307977Y841292D01*
X306763Y842506D01*
X304126Y844268D01*
X301196Y845481D01*
X298086Y846100D01*
X297129D01*
X296512Y846186D01*
X295933Y846190D01*
X295521Y846218D01*
X295420Y846294D01*
X295072Y846439D01*
X294757Y846645D01*
X293860Y846941D01*
X292988Y847302D01*
X292614Y847351D01*
X292256Y847469D01*
X291313Y847523D01*
X290377Y847646D01*
X290004Y847597D01*
X289627Y847618D01*
X288703Y847425D01*
X287860Y847315D01*
X285837Y849337D01*
X283847Y850667D01*
X281500Y851134D01*
D02*
G37*
G36*
X246705Y828730D02*
X239370D01*
Y821395D01*
X241435Y821949D01*
X243405Y823086D01*
X245014Y824695D01*
X246151Y826665D01*
X246705Y828730D01*
D02*
G37*
G36*
X236830D02*
X229496D01*
X230049Y826665D01*
X231186Y824695D01*
X232795Y823086D01*
X234765Y821949D01*
X236830Y821395D01*
Y828730D01*
D02*
G37*
G36*
X221304D02*
X213970D01*
Y821395D01*
X216035Y821949D01*
X218005Y823086D01*
X219614Y824695D01*
X220751Y826665D01*
X221304Y828730D01*
D02*
G37*
G36*
X211430D02*
X204095D01*
X204649Y826665D01*
X205786Y824695D01*
X207395Y823086D01*
X209365Y821949D01*
X211430Y821395D01*
Y828730D01*
D02*
G37*
G36*
X195905D02*
X188570D01*
Y821395D01*
X190635Y821949D01*
X192605Y823086D01*
X194214Y824695D01*
X195351Y826665D01*
X195905Y828730D01*
D02*
G37*
G36*
X432140Y828730D02*
X424770D01*
Y821360D01*
X432140D01*
Y828730D01*
D02*
G37*
G36*
X272140Y828730D02*
X264770D01*
Y821360D01*
X272140D01*
Y828730D01*
D02*
G37*
G36*
X262230D02*
X254860D01*
Y821360D01*
X262230D01*
Y828730D01*
D02*
G37*
G36*
X432140Y808640D02*
X424770D01*
Y801270D01*
X432140D01*
Y808640D01*
D02*
G37*
G36*
X272140Y808640D02*
X264770D01*
Y801270D01*
X272140D01*
Y808640D01*
D02*
G37*
G36*
X262230D02*
X254860D01*
Y801270D01*
X262230D01*
Y808640D01*
D02*
G37*
G36*
X239370Y808605D02*
Y801270D01*
X246705D01*
X246151Y803335D01*
X245014Y805305D01*
X243405Y806914D01*
X241435Y808051D01*
X239370Y808605D01*
D02*
G37*
G36*
X236830D02*
X234765Y808051D01*
X232795Y806914D01*
X231186Y805305D01*
X230049Y803335D01*
X229496Y801270D01*
X236830D01*
Y808605D01*
D02*
G37*
G36*
X213970D02*
Y801270D01*
X221304D01*
X220751Y803335D01*
X219614Y805305D01*
X218005Y806914D01*
X216035Y808051D01*
X213970Y808605D01*
D02*
G37*
G36*
X211430D02*
X209365Y808051D01*
X207395Y806914D01*
X205786Y805305D01*
X204649Y803335D01*
X204095Y801270D01*
X211430D01*
Y808605D01*
D02*
G37*
G36*
X188570D02*
Y801270D01*
X195905D01*
X195351Y803335D01*
X194214Y805305D01*
X192605Y806914D01*
X190635Y808051D01*
X188570Y808605D01*
D02*
G37*
G36*
X1150962Y835940D02*
X1146838D01*
X1142792Y835135D01*
X1138981Y833557D01*
X1135552Y831265D01*
X1132635Y828348D01*
X1130343Y824919D01*
X1128765Y821108D01*
X1127960Y817062D01*
Y812938D01*
X1128765Y808892D01*
X1130343Y805081D01*
X1132635Y801652D01*
X1135552Y798735D01*
X1138981Y796443D01*
X1142792Y794865D01*
X1146838Y794060D01*
X1150962D01*
X1155008Y794865D01*
X1158819Y796443D01*
X1162249Y798735D01*
X1165165Y801652D01*
X1167457Y805081D01*
X1169035Y808892D01*
X1169840Y812938D01*
Y817062D01*
X1169035Y821108D01*
X1167457Y824919D01*
X1165165Y828348D01*
X1162249Y831265D01*
X1158819Y833557D01*
X1155008Y835135D01*
X1150962Y835940D01*
D02*
G37*
G36*
X246705Y798730D02*
X239370D01*
Y791395D01*
X241435Y791949D01*
X243405Y793086D01*
X245014Y794695D01*
X246151Y796665D01*
X246705Y798730D01*
D02*
G37*
G36*
X236830D02*
X229496D01*
X230049Y796665D01*
X231186Y794695D01*
X232795Y793086D01*
X234765Y791949D01*
X236830Y791395D01*
Y798730D01*
D02*
G37*
G36*
X221304D02*
X213970D01*
Y791395D01*
X216035Y791949D01*
X218005Y793086D01*
X219614Y794695D01*
X220751Y796665D01*
X221304Y798730D01*
D02*
G37*
G36*
X211430D02*
X204095D01*
X204649Y796665D01*
X205786Y794695D01*
X207395Y793086D01*
X209365Y791949D01*
X211430Y791395D01*
Y798730D01*
D02*
G37*
G36*
X195905D02*
X188570D01*
Y791395D01*
X190635Y791949D01*
X192605Y793086D01*
X194214Y794695D01*
X195351Y796665D01*
X195905Y798730D01*
D02*
G37*
G36*
X432140Y798730D02*
X424770D01*
Y791360D01*
X432140D01*
Y798730D01*
D02*
G37*
G36*
X272140Y798730D02*
X264770D01*
Y791360D01*
X272140D01*
Y798730D01*
D02*
G37*
G36*
X262230D02*
X254860D01*
Y791360D01*
X262230D01*
Y798730D01*
D02*
G37*
G36*
X293934Y781229D02*
X291730D01*
X289694Y780385D01*
X288135Y778827D01*
X287292Y776791D01*
Y774587D01*
X288135Y772551D01*
X289694Y770992D01*
X291730Y770149D01*
X293934D01*
X295970Y770992D01*
X297528Y772551D01*
X298372Y774587D01*
Y776791D01*
X297528Y778827D01*
X295970Y780385D01*
X293934Y781229D01*
D02*
G37*
G36*
X371102Y780540D02*
X368898D01*
X366862Y779697D01*
X365303Y778138D01*
X364460Y776102D01*
Y773898D01*
X365303Y771862D01*
X366862Y770303D01*
X368898Y769460D01*
X371102D01*
X373138Y770303D01*
X374697Y771862D01*
X375540Y773898D01*
Y776102D01*
X374697Y778138D01*
X373138Y779697D01*
X371102Y780540D01*
D02*
G37*
G36*
X294622Y763540D02*
X292418D01*
X290382Y762697D01*
X288824Y761138D01*
X287980Y759102D01*
Y756898D01*
X288824Y754862D01*
X290382Y753303D01*
X292418Y752460D01*
X294622D01*
X296658Y753303D01*
X298217Y754862D01*
X299060Y756898D01*
Y759102D01*
X298217Y761138D01*
X296658Y762697D01*
X294622Y763540D01*
D02*
G37*
G36*
X371102Y760540D02*
X368898D01*
X366862Y759697D01*
X365303Y758138D01*
X364460Y756102D01*
Y753898D01*
X365303Y751862D01*
X366862Y750303D01*
X368898Y749460D01*
X371102D01*
X373138Y750303D01*
X374697Y751862D01*
X375540Y753898D01*
Y756102D01*
X374697Y758138D01*
X373138Y759697D01*
X371102Y760540D01*
D02*
G37*
G36*
X510666Y749065D02*
X510170D01*
Y736920D01*
X522315D01*
Y737416D01*
X521401Y740828D01*
X519635Y743887D01*
X517137Y746385D01*
X514078Y748151D01*
X510666Y749065D01*
D02*
G37*
G36*
X507630D02*
X507134D01*
X503722Y748151D01*
X500663Y746385D01*
X498165Y743887D01*
X496399Y740828D01*
X495485Y737416D01*
Y736920D01*
X507630D01*
Y749065D01*
D02*
G37*
G36*
X293934Y745229D02*
X291730D01*
X289694Y744385D01*
X288135Y742827D01*
X287292Y740791D01*
Y738587D01*
X288135Y736551D01*
X289694Y734992D01*
X291730Y734149D01*
X293934D01*
X295970Y734992D01*
X297528Y736551D01*
X298372Y738587D01*
Y740791D01*
X297528Y742827D01*
X295970Y744385D01*
X293934Y745229D01*
D02*
G37*
G36*
X522315Y734380D02*
X510170D01*
Y722235D01*
X510666D01*
X514078Y723149D01*
X517137Y724915D01*
X519635Y727413D01*
X521401Y730472D01*
X522315Y733884D01*
Y734380D01*
D02*
G37*
G36*
X507630D02*
X495485D01*
Y733884D01*
X496399Y730472D01*
X498165Y727413D01*
X500663Y724915D01*
X503722Y723149D01*
X507134Y722235D01*
X507630D01*
Y734380D01*
D02*
G37*
G36*
X1308640Y642140D02*
X1301270D01*
Y634770D01*
X1308640D01*
Y642140D01*
D02*
G37*
G36*
X1298730D02*
X1291360D01*
Y634770D01*
X1298730D01*
Y642140D01*
D02*
G37*
G36*
X1338640D02*
X1331270D01*
Y634770D01*
X1338640D01*
Y642140D01*
D02*
G37*
G36*
X1328730D02*
X1321360D01*
Y634770D01*
X1328730D01*
Y642140D01*
D02*
G37*
G36*
X1338640Y632230D02*
X1331270D01*
Y624860D01*
X1338640D01*
Y632230D01*
D02*
G37*
G36*
X1328730D02*
X1321360D01*
Y624860D01*
X1328730D01*
Y632230D01*
D02*
G37*
G36*
X1308640Y632230D02*
X1301270D01*
Y624860D01*
X1308640D01*
Y632230D01*
D02*
G37*
G36*
X1298730D02*
X1291360D01*
Y624860D01*
X1298730D01*
Y632230D01*
D02*
G37*
G36*
X598780Y659240D02*
X595020D01*
X591332Y658506D01*
X587858Y657067D01*
X584731Y654978D01*
X582072Y652319D01*
X579983Y649193D01*
X578544Y645718D01*
X577810Y642030D01*
Y638270D01*
X578544Y634582D01*
X579983Y631107D01*
X582072Y627981D01*
X584731Y625322D01*
X587858Y623233D01*
X591332Y621794D01*
X595020Y621060D01*
X598780D01*
X602468Y621794D01*
X605942Y623233D01*
X609069Y625322D01*
X611728Y627981D01*
X613817Y631107D01*
X615256Y634582D01*
X615990Y638270D01*
Y642030D01*
X615256Y645718D01*
X613817Y649193D01*
X611728Y652319D01*
X609069Y654978D01*
X605942Y657067D01*
X602468Y658506D01*
X598780Y659240D01*
D02*
G37*
G36*
X263500Y631134D02*
X261153Y630667D01*
X259163Y629337D01*
X257833Y627347D01*
X257366Y625000D01*
X257833Y622653D01*
X259163Y620663D01*
X266163Y613663D01*
X268153Y612333D01*
X270500Y611866D01*
X292500D01*
X294847Y612333D01*
X296837Y613663D01*
X298167Y615653D01*
X298634Y618000D01*
X298167Y620347D01*
X296837Y622337D01*
X294847Y623667D01*
X292500Y624134D01*
X273041D01*
X267837Y629337D01*
X265847Y630667D01*
X263500Y631134D01*
D02*
G37*
G36*
X1301270Y616704D02*
Y609370D01*
X1308604D01*
X1308051Y611435D01*
X1306914Y613405D01*
X1305305Y615014D01*
X1303335Y616151D01*
X1301270Y616704D01*
D02*
G37*
G36*
X1298730D02*
X1296665Y616151D01*
X1294695Y615014D01*
X1293086Y613405D01*
X1291949Y611435D01*
X1291396Y609370D01*
X1298730D01*
Y616704D01*
D02*
G37*
G36*
X1331270Y616704D02*
Y609370D01*
X1338604D01*
X1338051Y611435D01*
X1336914Y613405D01*
X1335305Y615014D01*
X1333335Y616151D01*
X1331270Y616704D01*
D02*
G37*
G36*
X1328730Y616704D02*
X1326665Y616151D01*
X1324695Y615014D01*
X1323086Y613405D01*
X1321949Y611435D01*
X1321396Y609370D01*
X1328730D01*
Y616704D01*
D02*
G37*
G36*
X1338604Y606830D02*
X1331270D01*
Y599496D01*
X1333335Y600049D01*
X1335305Y601186D01*
X1336914Y602795D01*
X1338051Y604765D01*
X1338604Y606830D01*
D02*
G37*
G36*
X1308604Y606830D02*
X1301270D01*
Y599496D01*
X1303335Y600049D01*
X1305305Y601186D01*
X1306914Y602795D01*
X1308051Y604765D01*
X1308604Y606830D01*
D02*
G37*
G36*
X1298730D02*
X1291396D01*
X1291949Y604765D01*
X1293086Y602795D01*
X1294695Y601186D01*
X1296665Y600049D01*
X1298730Y599496D01*
Y606830D01*
D02*
G37*
G36*
X1328730Y606830D02*
X1321396D01*
X1321949Y604765D01*
X1323086Y602795D01*
X1324695Y601186D01*
X1326665Y600049D01*
X1328730Y599496D01*
Y606830D01*
D02*
G37*
G36*
X1301270Y591305D02*
Y583970D01*
X1308604D01*
X1308051Y586035D01*
X1306914Y588005D01*
X1305305Y589614D01*
X1303335Y590751D01*
X1301270Y591305D01*
D02*
G37*
G36*
X1298730D02*
X1296665Y590751D01*
X1294695Y589614D01*
X1293086Y588005D01*
X1291949Y586035D01*
X1291396Y583970D01*
X1298730D01*
Y591305D01*
D02*
G37*
G36*
X1331270Y591305D02*
Y583970D01*
X1338604D01*
X1338051Y586035D01*
X1336914Y588005D01*
X1335305Y589614D01*
X1333335Y590751D01*
X1331270Y591305D01*
D02*
G37*
G36*
X1328730Y591305D02*
X1326665Y590751D01*
X1324695Y589614D01*
X1323086Y588005D01*
X1321949Y586035D01*
X1321396Y583970D01*
X1328730D01*
Y591305D01*
D02*
G37*
G36*
X249602Y593540D02*
X247398D01*
X245362Y592697D01*
X243803Y591138D01*
X242960Y589102D01*
Y586898D01*
X243803Y584862D01*
X245362Y583303D01*
X247398Y582460D01*
X249602D01*
X251638Y583303D01*
X253197Y584862D01*
X254040Y586898D01*
Y589102D01*
X253197Y591138D01*
X251638Y592697D01*
X249602Y593540D01*
D02*
G37*
G36*
X1338604Y581430D02*
X1331270D01*
Y574095D01*
X1333335Y574649D01*
X1335305Y575786D01*
X1336914Y577395D01*
X1338051Y579365D01*
X1338604Y581430D01*
D02*
G37*
G36*
X1308604Y581430D02*
X1301270D01*
Y574095D01*
X1303335Y574649D01*
X1305305Y575786D01*
X1306914Y577395D01*
X1308051Y579365D01*
X1308604Y581430D01*
D02*
G37*
G36*
X1298730D02*
X1291396D01*
X1291949Y579365D01*
X1293086Y577395D01*
X1294695Y575786D01*
X1296665Y574649D01*
X1298730Y574095D01*
Y581430D01*
D02*
G37*
G36*
X1328730Y581430D02*
X1321396D01*
X1321949Y579365D01*
X1323086Y577395D01*
X1324695Y575786D01*
X1326665Y574649D01*
X1328730Y574095D01*
Y581430D01*
D02*
G37*
G36*
X388602Y578540D02*
X386398D01*
X384362Y577697D01*
X382803Y576138D01*
X381960Y574102D01*
Y571898D01*
X382803Y569862D01*
X384362Y568303D01*
X386398Y567460D01*
X388602D01*
X390638Y568303D01*
X392197Y569862D01*
X393040Y571898D01*
Y574102D01*
X392197Y576138D01*
X390638Y577697D01*
X388602Y578540D01*
D02*
G37*
G36*
X249602Y574540D02*
X247398D01*
X245362Y573697D01*
X243803Y572138D01*
X242960Y570102D01*
Y567898D01*
X243803Y565862D01*
X245362Y564303D01*
X247398Y563460D01*
X249602D01*
X251638Y564303D01*
X253197Y565862D01*
X254040Y567898D01*
Y570102D01*
X253197Y572138D01*
X251638Y573697D01*
X249602Y574540D01*
D02*
G37*
G36*
X1301270Y565905D02*
Y558570D01*
X1308604D01*
X1308051Y560635D01*
X1306914Y562605D01*
X1305305Y564214D01*
X1303335Y565351D01*
X1301270Y565905D01*
D02*
G37*
G36*
X1298730D02*
X1296665Y565351D01*
X1294695Y564214D01*
X1293086Y562605D01*
X1291949Y560635D01*
X1291396Y558570D01*
X1298730D01*
Y565905D01*
D02*
G37*
G36*
X1331270Y565905D02*
Y558570D01*
X1338604D01*
X1338051Y560635D01*
X1336914Y562605D01*
X1335305Y564214D01*
X1333335Y565351D01*
X1331270Y565905D01*
D02*
G37*
G36*
X1328730Y565905D02*
X1326665Y565351D01*
X1324695Y564214D01*
X1323086Y562605D01*
X1321949Y560635D01*
X1321396Y558570D01*
X1328730D01*
Y565905D01*
D02*
G37*
G36*
X388602Y560540D02*
X386398D01*
X384362Y559697D01*
X382803Y558138D01*
X381960Y556102D01*
Y553898D01*
X382803Y551862D01*
X384362Y550303D01*
X386398Y549460D01*
X388602D01*
X390638Y550303D01*
X392197Y551862D01*
X393040Y553898D01*
Y556102D01*
X392197Y558138D01*
X390638Y559697D01*
X388602Y560540D01*
D02*
G37*
G36*
X1338604Y556030D02*
X1331270D01*
Y548695D01*
X1333335Y549249D01*
X1335305Y550386D01*
X1336914Y551995D01*
X1338051Y553965D01*
X1338604Y556030D01*
D02*
G37*
G36*
X1308604Y556030D02*
X1301270D01*
Y548695D01*
X1303335Y549249D01*
X1305305Y550386D01*
X1306914Y551995D01*
X1308051Y553965D01*
X1308604Y556030D01*
D02*
G37*
G36*
X1298730D02*
X1291396D01*
X1291949Y553965D01*
X1293086Y551995D01*
X1294695Y550386D01*
X1296665Y549249D01*
X1298730Y548695D01*
Y556030D01*
D02*
G37*
G36*
X1328730Y556030D02*
X1321396D01*
X1321949Y553965D01*
X1323086Y551995D01*
X1324695Y550386D01*
X1326665Y549249D01*
X1328730Y548695D01*
Y556030D01*
D02*
G37*
G36*
X1301270Y540504D02*
Y533170D01*
X1308604D01*
X1308051Y535235D01*
X1306914Y537205D01*
X1305305Y538814D01*
X1303335Y539951D01*
X1301270Y540504D01*
D02*
G37*
G36*
X1298730D02*
X1296665Y539951D01*
X1294695Y538814D01*
X1293086Y537205D01*
X1291949Y535235D01*
X1291396Y533170D01*
X1298730D01*
Y540504D01*
D02*
G37*
G36*
X1331270Y540504D02*
Y533170D01*
X1338604D01*
X1338051Y535235D01*
X1336914Y537205D01*
X1335305Y538814D01*
X1333335Y539951D01*
X1331270Y540504D01*
D02*
G37*
G36*
X1328730Y540504D02*
X1326665Y539951D01*
X1324695Y538814D01*
X1323086Y537205D01*
X1321949Y535235D01*
X1321396Y533170D01*
X1328730D01*
Y540504D01*
D02*
G37*
G36*
X1338604Y530630D02*
X1331270D01*
Y523296D01*
X1333335Y523849D01*
X1335305Y524986D01*
X1336914Y526595D01*
X1338051Y528565D01*
X1338604Y530630D01*
D02*
G37*
G36*
X1308604Y530630D02*
X1301270D01*
Y523296D01*
X1303335Y523849D01*
X1305305Y524986D01*
X1306914Y526595D01*
X1308051Y528565D01*
X1308604Y530630D01*
D02*
G37*
G36*
X1298730D02*
X1291396D01*
X1291949Y528565D01*
X1293086Y526595D01*
X1294695Y524986D01*
X1296665Y523849D01*
X1298730Y523296D01*
Y530630D01*
D02*
G37*
G36*
X1328730Y530630D02*
X1321396D01*
X1321949Y528565D01*
X1323086Y526595D01*
X1324695Y524986D01*
X1326665Y523849D01*
X1328730Y523296D01*
Y530630D01*
D02*
G37*
G36*
X1301270Y515104D02*
Y507770D01*
X1308604D01*
X1308051Y509835D01*
X1306914Y511805D01*
X1305305Y513414D01*
X1303335Y514551D01*
X1301270Y515104D01*
D02*
G37*
G36*
X1298730D02*
X1296665Y514551D01*
X1294695Y513414D01*
X1293086Y511805D01*
X1291949Y509835D01*
X1291396Y507770D01*
X1298730D01*
Y515104D01*
D02*
G37*
G36*
X1331270Y515104D02*
Y507770D01*
X1338604D01*
X1338051Y509835D01*
X1336914Y511805D01*
X1335305Y513414D01*
X1333335Y514551D01*
X1331270Y515104D01*
D02*
G37*
G36*
X1328730Y515104D02*
X1326665Y514551D01*
X1324695Y513414D01*
X1323086Y511805D01*
X1321949Y509835D01*
X1321396Y507770D01*
X1328730D01*
Y515104D01*
D02*
G37*
G36*
X1338604Y505230D02*
X1331270D01*
Y497896D01*
X1333335Y498449D01*
X1335305Y499586D01*
X1336914Y501195D01*
X1338051Y503165D01*
X1338604Y505230D01*
D02*
G37*
G36*
X1308604Y505230D02*
X1301270D01*
Y497896D01*
X1303335Y498449D01*
X1305305Y499586D01*
X1306914Y501195D01*
X1308051Y503165D01*
X1308604Y505230D01*
D02*
G37*
G36*
X1298730D02*
X1291396D01*
X1291949Y503165D01*
X1293086Y501195D01*
X1294695Y499586D01*
X1296665Y498449D01*
X1298730Y497896D01*
Y505230D01*
D02*
G37*
G36*
X1328730Y505230D02*
X1321396D01*
X1321949Y503165D01*
X1323086Y501195D01*
X1324695Y499586D01*
X1326665Y498449D01*
X1328730Y497896D01*
Y505230D01*
D02*
G37*
G36*
X196270Y384581D02*
Y376470D01*
X204381D01*
X203750Y378824D01*
X202514Y380966D01*
X200766Y382714D01*
X198624Y383950D01*
X196270Y384581D01*
D02*
G37*
G36*
X193730Y384581D02*
X191376Y383950D01*
X189234Y382714D01*
X187486Y380966D01*
X186250Y378824D01*
X185619Y376470D01*
X193730D01*
Y384581D01*
D02*
G37*
G36*
X1308640Y372140D02*
X1301270D01*
Y364770D01*
X1308640D01*
Y372140D01*
D02*
G37*
G36*
X1298730D02*
X1291360D01*
Y364770D01*
X1298730D01*
Y372140D01*
D02*
G37*
G36*
X1338640D02*
X1331270D01*
Y364770D01*
X1338640D01*
Y372140D01*
D02*
G37*
G36*
X1328730D02*
X1321360D01*
Y364770D01*
X1328730D01*
Y372140D01*
D02*
G37*
G36*
X1338640Y362230D02*
X1331270D01*
Y354860D01*
X1338640D01*
Y362230D01*
D02*
G37*
G36*
X1328730D02*
X1321360D01*
Y354860D01*
X1328730D01*
Y362230D01*
D02*
G37*
G36*
X1308640Y362230D02*
X1301270D01*
Y354860D01*
X1308640D01*
Y362230D01*
D02*
G37*
G36*
X1298730D02*
X1291360D01*
Y354860D01*
X1298730D01*
Y362230D01*
D02*
G37*
G36*
X95540Y375040D02*
X84270D01*
Y348770D01*
X95540D01*
Y375040D01*
D02*
G37*
G36*
X81730D02*
X70460D01*
Y348770D01*
X81730D01*
Y375040D01*
D02*
G37*
G36*
X1301270Y346704D02*
Y339370D01*
X1308604D01*
X1308051Y341435D01*
X1306914Y343405D01*
X1305305Y345014D01*
X1303335Y346151D01*
X1301270Y346704D01*
D02*
G37*
G36*
X1298730Y346704D02*
X1296665Y346151D01*
X1294695Y345014D01*
X1293086Y343405D01*
X1291949Y341435D01*
X1291396Y339370D01*
X1298730D01*
Y346704D01*
D02*
G37*
G36*
X1331270Y346704D02*
Y339370D01*
X1338604D01*
X1338051Y341435D01*
X1336914Y343405D01*
X1335305Y345014D01*
X1333335Y346151D01*
X1331270Y346704D01*
D02*
G37*
G36*
X1328730Y346704D02*
X1326665Y346151D01*
X1324695Y345014D01*
X1323086Y343405D01*
X1321949Y341435D01*
X1321396Y339370D01*
X1328730D01*
Y346704D01*
D02*
G37*
G36*
X204381Y373930D02*
X195000D01*
X185619D01*
X186250Y371576D01*
X187486Y369434D01*
X188493Y368428D01*
X187756Y366650D01*
X178150D01*
Y332950D01*
X211850D01*
Y366650D01*
X202244D01*
X201507Y368428D01*
X202514Y369434D01*
X203750Y371576D01*
X204381Y373930D01*
D02*
G37*
G36*
X1338604Y336830D02*
X1331270D01*
Y329496D01*
X1333335Y330049D01*
X1335305Y331186D01*
X1336914Y332795D01*
X1338051Y334765D01*
X1338604Y336830D01*
D02*
G37*
G36*
X1308604Y336830D02*
X1301270D01*
Y329496D01*
X1303335Y330049D01*
X1305305Y331186D01*
X1306914Y332795D01*
X1308051Y334765D01*
X1308604Y336830D01*
D02*
G37*
G36*
X1298730D02*
X1291396D01*
X1291949Y334765D01*
X1293086Y332795D01*
X1294695Y331186D01*
X1296665Y330049D01*
X1298730Y329496D01*
Y336830D01*
D02*
G37*
G36*
X1328730Y336830D02*
X1321396D01*
X1321949Y334765D01*
X1323086Y332795D01*
X1324695Y331186D01*
X1326665Y330049D01*
X1328730Y329496D01*
Y336830D01*
D02*
G37*
G36*
X165000Y382500D02*
X125000D01*
Y320500D01*
X95540D01*
Y346230D01*
X83000D01*
X70460D01*
Y319960D01*
X78000D01*
Y280500D01*
X148000D01*
Y293480D01*
X148014Y293499D01*
X148679Y294366D01*
X220613D01*
X220670Y294285D01*
X220965Y293716D01*
X221424Y293213D01*
X221816Y292655D01*
X222308Y292244D01*
X222740Y291771D01*
X223314Y291404D01*
X223837Y290967D01*
X224418Y290697D01*
X224673Y290534D01*
X225301Y290100D01*
X226250Y289406D01*
X226383Y289354D01*
X226500Y289273D01*
X227608Y288879D01*
X228704Y288454D01*
X228846Y288438D01*
X228981Y288390D01*
X230152Y288296D01*
X231322Y288169D01*
X231463Y288191D01*
X231605Y288179D01*
X232761Y288391D01*
X233924Y288571D01*
X234055Y288629D01*
X234195Y288655D01*
X235257Y289159D01*
X236333Y289633D01*
X236445Y289723D01*
X236574Y289784D01*
X237469Y290546D01*
X238386Y291283D01*
X238470Y291398D01*
X238579Y291491D01*
X239247Y292459D01*
X239941Y293407D01*
X241907Y296996D01*
X241907Y296996D01*
X241907Y296996D01*
X241912Y297006D01*
X242379Y298209D01*
X242862Y299450D01*
X242862Y299455D01*
X242864Y299460D01*
X243005Y300756D01*
X243149Y302067D01*
X243148Y302073D01*
X243149Y302078D01*
X242948Y303376D01*
X242750Y304670D01*
X242747Y304675D01*
X242747Y304680D01*
X242216Y305884D01*
X241690Y307080D01*
X241687Y307084D01*
X241684Y307089D01*
X240864Y308110D01*
X240042Y309134D01*
X240038Y309137D01*
X240035Y309142D01*
X238987Y309909D01*
X237920Y310692D01*
X237915Y310694D01*
X237910Y310697D01*
X236707Y311164D01*
X235466Y311647D01*
X235461Y311648D01*
X235456Y311650D01*
X234160Y311791D01*
X232849Y311935D01*
X232843Y311934D01*
X232838Y311934D01*
X231540Y311734D01*
X231363Y311706D01*
X230918Y311675D01*
X229737Y311604D01*
X229531Y311602D01*
X229139Y311548D01*
X228743Y311566D01*
X227839Y311367D01*
X226923Y311240D01*
X226558Y311086D01*
X226172Y311001D01*
X225350Y310575D01*
X224497Y310215D01*
X224185Y309972D01*
X223834Y309790D01*
X223150Y309166D01*
X222420Y308598D01*
X222181Y308282D01*
X221889Y308015D01*
X221390Y307236D01*
X220935Y306634D01*
X148679D01*
X148014Y307501D01*
X148000Y307520D01*
Y312500D01*
X165000D01*
Y382500D01*
D02*
G37*
G36*
X1301270Y321305D02*
Y313970D01*
X1308604D01*
X1308051Y316035D01*
X1306914Y318005D01*
X1305305Y319614D01*
X1303335Y320751D01*
X1301270Y321305D01*
D02*
G37*
G36*
X1298730Y321305D02*
X1296665Y320751D01*
X1294695Y319614D01*
X1293086Y318005D01*
X1291949Y316035D01*
X1291396Y313970D01*
X1298730D01*
Y321305D01*
D02*
G37*
G36*
X1331270Y321305D02*
Y313970D01*
X1338604D01*
X1338051Y316035D01*
X1336914Y318005D01*
X1335305Y319614D01*
X1333335Y320751D01*
X1331270Y321305D01*
D02*
G37*
G36*
X1328730Y321305D02*
X1326665Y320751D01*
X1324695Y319614D01*
X1323086Y318005D01*
X1321949Y316035D01*
X1321396Y313970D01*
X1328730D01*
Y321305D01*
D02*
G37*
G36*
X1338604Y311430D02*
X1331270D01*
Y304096D01*
X1333335Y304649D01*
X1335305Y305786D01*
X1336914Y307395D01*
X1338051Y309365D01*
X1338604Y311430D01*
D02*
G37*
G36*
X1308604Y311430D02*
X1301270D01*
Y304096D01*
X1303335Y304649D01*
X1305305Y305786D01*
X1306914Y307395D01*
X1308051Y309365D01*
X1308604Y311430D01*
D02*
G37*
G36*
X1298730D02*
X1291396D01*
X1291949Y309365D01*
X1293086Y307395D01*
X1294695Y305786D01*
X1296665Y304649D01*
X1298730Y304095D01*
Y311430D01*
D02*
G37*
G36*
X1328730Y311430D02*
X1321396D01*
X1321949Y309365D01*
X1323086Y307395D01*
X1324695Y305786D01*
X1326665Y304649D01*
X1328730Y304095D01*
Y311430D01*
D02*
G37*
G36*
X1301270Y295905D02*
Y288570D01*
X1308604D01*
X1308051Y290635D01*
X1306914Y292605D01*
X1305305Y294214D01*
X1303335Y295351D01*
X1301270Y295905D01*
D02*
G37*
G36*
X1298730Y295905D02*
X1296665Y295351D01*
X1294695Y294214D01*
X1293086Y292605D01*
X1291949Y290635D01*
X1291396Y288570D01*
X1298730D01*
Y295905D01*
D02*
G37*
G36*
X1331270Y295905D02*
Y288570D01*
X1338604D01*
X1338051Y290635D01*
X1336914Y292605D01*
X1335305Y294214D01*
X1333335Y295351D01*
X1331270Y295905D01*
D02*
G37*
G36*
X1328730Y295905D02*
X1326665Y295351D01*
X1324695Y294214D01*
X1323086Y292605D01*
X1321949Y290635D01*
X1321396Y288570D01*
X1328730D01*
Y295905D01*
D02*
G37*
G36*
X1338604Y286030D02*
X1331270D01*
Y278696D01*
X1333335Y279249D01*
X1335305Y280386D01*
X1336914Y281995D01*
X1338051Y283965D01*
X1338604Y286030D01*
D02*
G37*
G36*
X1308604Y286030D02*
X1301270D01*
Y278696D01*
X1303335Y279249D01*
X1305305Y280386D01*
X1306914Y281995D01*
X1308051Y283965D01*
X1308604Y286030D01*
D02*
G37*
G36*
X1298730D02*
X1291396D01*
X1291949Y283965D01*
X1293086Y281995D01*
X1294695Y280386D01*
X1296665Y279249D01*
X1298730Y278696D01*
Y286030D01*
D02*
G37*
G36*
X1328730Y286030D02*
X1321396D01*
X1321949Y283965D01*
X1323086Y281995D01*
X1324695Y280386D01*
X1326665Y279249D01*
X1328730Y278696D01*
Y286030D01*
D02*
G37*
G36*
X1301270Y270504D02*
Y263170D01*
X1308604D01*
X1308051Y265235D01*
X1306914Y267205D01*
X1305305Y268814D01*
X1303335Y269951D01*
X1301270Y270504D01*
D02*
G37*
G36*
X1298730Y270504D02*
X1296665Y269951D01*
X1294695Y268814D01*
X1293086Y267205D01*
X1291949Y265235D01*
X1291396Y263170D01*
X1298730D01*
Y270504D01*
D02*
G37*
G36*
X1331270Y270504D02*
Y263170D01*
X1338604D01*
X1338051Y265235D01*
X1336914Y267205D01*
X1335305Y268814D01*
X1333335Y269951D01*
X1331270Y270504D01*
D02*
G37*
G36*
X1328730Y270504D02*
X1326665Y269951D01*
X1324695Y268814D01*
X1323086Y267205D01*
X1321949Y265235D01*
X1321396Y263170D01*
X1328730D01*
Y270504D01*
D02*
G37*
G36*
X1338604Y260630D02*
X1331270D01*
Y253296D01*
X1333335Y253849D01*
X1335305Y254986D01*
X1336914Y256595D01*
X1338051Y258565D01*
X1338604Y260630D01*
D02*
G37*
G36*
X1308604Y260630D02*
X1301270D01*
Y253296D01*
X1303335Y253849D01*
X1305305Y254986D01*
X1306914Y256595D01*
X1308051Y258565D01*
X1308604Y260630D01*
D02*
G37*
G36*
X1298730D02*
X1291396D01*
X1291949Y258565D01*
X1293086Y256595D01*
X1294695Y254986D01*
X1296665Y253849D01*
X1298730Y253295D01*
Y260630D01*
D02*
G37*
G36*
X1328730Y260630D02*
X1321396D01*
X1321949Y258565D01*
X1323086Y256595D01*
X1324695Y254986D01*
X1326665Y253849D01*
X1328730Y253295D01*
Y260630D01*
D02*
G37*
G36*
X1301270Y245105D02*
Y237770D01*
X1308604D01*
X1308051Y239835D01*
X1306914Y241805D01*
X1305305Y243414D01*
X1303335Y244551D01*
X1301270Y245105D01*
D02*
G37*
G36*
X1298730Y245105D02*
X1296665Y244551D01*
X1294695Y243414D01*
X1293086Y241805D01*
X1291949Y239835D01*
X1291396Y237770D01*
X1298730D01*
Y245105D01*
D02*
G37*
G36*
X1331270Y245105D02*
Y237770D01*
X1338604D01*
X1338051Y239835D01*
X1336914Y241805D01*
X1335305Y243414D01*
X1333335Y244551D01*
X1331270Y245105D01*
D02*
G37*
G36*
X1328730Y245105D02*
X1326665Y244551D01*
X1324695Y243414D01*
X1323086Y241805D01*
X1321949Y239835D01*
X1321396Y237770D01*
X1328730D01*
Y245105D01*
D02*
G37*
G36*
X1338604Y235230D02*
X1331270D01*
Y227896D01*
X1333335Y228449D01*
X1335305Y229586D01*
X1336914Y231195D01*
X1338051Y233165D01*
X1338604Y235230D01*
D02*
G37*
G36*
X1308604Y235230D02*
X1301270D01*
Y227896D01*
X1303335Y228449D01*
X1305305Y229586D01*
X1306914Y231195D01*
X1308051Y233165D01*
X1308604Y235230D01*
D02*
G37*
G36*
X1298730D02*
X1291396D01*
X1291949Y233165D01*
X1293086Y231195D01*
X1294695Y229586D01*
X1296665Y228449D01*
X1298730Y227896D01*
Y235230D01*
D02*
G37*
G36*
X1328730Y235230D02*
X1321396D01*
X1321949Y233165D01*
X1323086Y231195D01*
X1324695Y229586D01*
X1326665Y228449D01*
X1328730Y227896D01*
Y235230D01*
D02*
G37*
G36*
X168770Y230470D02*
Y226270D01*
X172970D01*
X172197Y228138D01*
X170638Y229697D01*
X168770Y230470D01*
D02*
G37*
G36*
X166230D02*
X164362Y229697D01*
X162803Y228138D01*
X162030Y226270D01*
X166230D01*
Y230470D01*
D02*
G37*
G36*
X151270D02*
Y226270D01*
X155470D01*
X154697Y228138D01*
X153138Y229697D01*
X151270Y230470D01*
D02*
G37*
G36*
X148730D02*
X146862Y229697D01*
X145303Y228138D01*
X144530Y226270D01*
X148730D01*
Y230470D01*
D02*
G37*
G36*
X135510D02*
Y226270D01*
X139711D01*
X138937Y228138D01*
X137379Y229697D01*
X135510Y230470D01*
D02*
G37*
G36*
X132970D02*
X131102Y229697D01*
X129544Y228138D01*
X128770Y226270D01*
X132970D01*
Y230470D01*
D02*
G37*
G36*
X121270D02*
Y226270D01*
X125470D01*
X124697Y228138D01*
X123138Y229697D01*
X121270Y230470D01*
D02*
G37*
G36*
X118730D02*
X116862Y229697D01*
X115303Y228138D01*
X114530Y226270D01*
X118730D01*
Y230470D01*
D02*
G37*
G36*
X172970Y223730D02*
X168770D01*
Y219530D01*
X170638Y220303D01*
X172197Y221862D01*
X172970Y223730D01*
D02*
G37*
G36*
X166230D02*
X162030D01*
X162803Y221862D01*
X164362Y220303D01*
X166230Y219530D01*
Y223730D01*
D02*
G37*
G36*
X155470D02*
X151270D01*
Y219530D01*
X153138Y220303D01*
X154697Y221862D01*
X155470Y223730D01*
D02*
G37*
G36*
X148730D02*
X144530D01*
X145303Y221862D01*
X146862Y220303D01*
X148730Y219530D01*
Y223730D01*
D02*
G37*
G36*
X139711D02*
X135510D01*
Y219530D01*
X137379Y220303D01*
X138937Y221862D01*
X139711Y223730D01*
D02*
G37*
G36*
X132970D02*
X128770D01*
X129544Y221862D01*
X131102Y220303D01*
X132970Y219530D01*
Y223730D01*
D02*
G37*
G36*
X125470D02*
X121270D01*
Y219530D01*
X123138Y220303D01*
X124697Y221862D01*
X125470Y223730D01*
D02*
G37*
G36*
X118730D02*
X114530D01*
X115303Y221862D01*
X116862Y220303D01*
X118730Y219530D01*
Y223730D01*
D02*
G37*
G36*
X357500Y271134D02*
X355153Y270667D01*
X353163Y269337D01*
X351833Y267347D01*
X351366Y265000D01*
Y245500D01*
X351833Y243153D01*
X353163Y241163D01*
X362635Y231691D01*
X362585Y231199D01*
X361937Y229874D01*
X360501Y229685D01*
X358677Y228930D01*
X357110Y227728D01*
X355908Y226161D01*
X355152Y224336D01*
X354894Y222378D01*
Y199562D01*
X354527Y199254D01*
X353479Y199145D01*
X352110Y199498D01*
X351732Y199990D01*
X351636Y200064D01*
X351559Y200158D01*
X350593Y200864D01*
X349643Y201593D01*
X349531Y201639D01*
X349432Y201711D01*
X348316Y202142D01*
X347211Y202600D01*
X347090Y202616D01*
X346977Y202660D01*
X345786Y202788D01*
X344600Y202944D01*
X340400D01*
X339214Y202788D01*
X338023Y202660D01*
X337910Y202616D01*
X337789Y202600D01*
X336684Y202142D01*
X335568Y201711D01*
X335469Y201639D01*
X335357Y201593D01*
X334407Y200864D01*
X333441Y200158D01*
X333364Y200064D01*
X333268Y199990D01*
X332539Y199040D01*
X331788Y198108D01*
X331739Y197997D01*
X331665Y197901D01*
X331207Y196795D01*
X330723Y195701D01*
X330704Y195581D01*
X330657Y195468D01*
X330618Y195170D01*
X330523Y195160D01*
X330410Y195116D01*
X330289Y195100D01*
X329184Y194642D01*
X328068Y194211D01*
X327969Y194139D01*
X327857Y194093D01*
X326907Y193364D01*
X325941Y192658D01*
X325864Y192564D01*
X325768Y192490D01*
X325039Y191540D01*
X324288Y190609D01*
X324239Y190497D01*
X324165Y190401D01*
X323707Y189295D01*
X323223Y188201D01*
X323204Y188081D01*
X323157Y187968D01*
X323001Y186782D01*
X322817Y185599D01*
X322830Y185478D01*
X322814Y185358D01*
X322970Y184172D01*
X323017Y183730D01*
X322957Y183705D01*
X322860Y183631D01*
X322749Y183582D01*
X321818Y182831D01*
X320868Y182102D01*
X319084Y180319D01*
X315665Y183738D01*
X315721Y183872D01*
X316190Y184892D01*
X316223Y185085D01*
X316252Y185154D01*
X316375Y185314D01*
X316422Y185427D01*
X316493Y185525D01*
X316925Y186641D01*
X317383Y187747D01*
X317398Y187868D01*
X317442Y187981D01*
X317570Y189171D01*
X317726Y190358D01*
X317710Y190478D01*
X317723Y190599D01*
X317539Y191782D01*
X317383Y192968D01*
X317336Y193081D01*
X317317Y193201D01*
X316833Y194295D01*
X316375Y195401D01*
X316301Y195497D01*
X316252Y195608D01*
X315501Y196540D01*
X314772Y197490D01*
X314676Y197564D01*
X314599Y197658D01*
X313633Y198364D01*
X312683Y199093D01*
X312571Y199139D01*
X312472Y199211D01*
X311356Y199642D01*
X310250Y200100D01*
X310130Y200116D01*
X310016Y200160D01*
X308826Y200288D01*
X307640Y200444D01*
X303440D01*
X302254Y200288D01*
X301063Y200160D01*
X300950Y200116D01*
X300830Y200100D01*
X299724Y199642D01*
X298608Y199211D01*
X298509Y199139D01*
X298397Y199093D01*
X297447Y198364D01*
X296481Y197658D01*
X296404Y197564D01*
X296308Y197490D01*
X295579Y196540D01*
X294828Y195608D01*
X294779Y195497D01*
X294705Y195401D01*
X294247Y194295D01*
X293763Y193201D01*
X293744Y193081D01*
X293697Y192968D01*
X293541Y191782D01*
X293357Y190599D01*
X293370Y190478D01*
X293354Y190358D01*
X293510Y189172D01*
X293638Y187981D01*
X293682Y187868D01*
X293697Y187747D01*
X294155Y186642D01*
X294587Y185525D01*
X294659Y185427D01*
X294705Y185314D01*
X294828Y185154D01*
X294857Y185085D01*
X294890Y184892D01*
X295359Y183872D01*
X295789Y182834D01*
X295909Y182678D01*
X295991Y182500D01*
X296708Y181636D01*
X297392Y180745D01*
X297548Y180626D01*
X297673Y180474D01*
X298590Y179826D01*
X299481Y179142D01*
X299662Y179067D01*
X299823Y178954D01*
X300876Y178564D01*
X301914Y178135D01*
X302108Y178109D01*
X302292Y178041D01*
X303411Y177938D01*
X304223Y177831D01*
X321366Y160688D01*
Y135429D01*
X285359Y99422D01*
X285029Y99478D01*
X284833Y99460D01*
X284638Y99486D01*
X283525Y99339D01*
X282407Y99236D01*
X282222Y99167D01*
X282028Y99142D01*
X280990Y98712D01*
X279937Y98323D01*
X279777Y98209D01*
X279708Y98181D01*
X279507Y98154D01*
X279395Y98108D01*
X279275Y98089D01*
X278180Y97605D01*
X277075Y97147D01*
X276978Y97073D01*
X276867Y97024D01*
X275935Y96273D01*
X274986Y95544D01*
X274912Y95448D01*
X274817Y95371D01*
X274111Y94404D01*
X273383Y93455D01*
X273337Y93343D01*
X273265Y93245D01*
X272833Y92128D01*
X272375Y91022D01*
X272360Y90902D01*
X272316Y90789D01*
X272188Y89599D01*
X272032Y88412D01*
X272048Y88291D01*
X272034Y88171D01*
X272219Y86988D01*
X272375Y85801D01*
X272422Y85689D01*
X272440Y85569D01*
X272925Y84475D01*
X273383Y83369D01*
X273457Y83272D01*
X273506Y83161D01*
X273707Y82912D01*
X272857Y81134D01*
X266852D01*
X266335Y81808D01*
X265818Y82598D01*
X265536Y82849D01*
X265307Y83148D01*
X264558Y83723D01*
X263853Y84352D01*
X263517Y84522D01*
X263218Y84751D01*
X262346Y85112D01*
X261502Y85538D01*
X261133Y85614D01*
X260785Y85759D01*
X260660Y85775D01*
X260349Y86047D01*
X259936Y86454D01*
X259440Y86829D01*
X258763Y87506D01*
X256126Y89268D01*
X253196Y90481D01*
X250086Y91100D01*
X246914D01*
X243804Y90481D01*
X240874Y89268D01*
X238237Y87506D01*
X237023Y86292D01*
X235800Y85404D01*
X234577Y86292D01*
X233363Y87506D01*
X230726Y89268D01*
X227796Y90481D01*
X224686Y91100D01*
X221514D01*
X218404Y90481D01*
X215474Y89268D01*
X212837Y87506D01*
X211623Y86292D01*
X210400Y85404D01*
X209177Y86292D01*
X207963Y87506D01*
X205326Y89268D01*
X202396Y90481D01*
X199286Y91100D01*
X196114D01*
X193004Y90481D01*
X190074Y89268D01*
X187437Y87506D01*
X186223Y86292D01*
X185000Y85404D01*
X183777Y86292D01*
X182563Y87506D01*
X179926Y89268D01*
X176996Y90481D01*
X173886Y91100D01*
X170714D01*
X167604Y90481D01*
X164674Y89268D01*
X162037Y87506D01*
X160823Y86292D01*
X159600Y85404D01*
X158377Y86292D01*
X157163Y87506D01*
X154526Y89268D01*
X151596Y90481D01*
X148486Y91100D01*
X145314D01*
X142204Y90481D01*
X139274Y89268D01*
X139168Y89197D01*
X137600Y90035D01*
Y91100D01*
X105400D01*
Y58900D01*
X122342D01*
X122526Y58759D01*
X122609Y58725D01*
X122680Y58672D01*
X123824Y58221D01*
X124959Y57751D01*
X125047Y57739D01*
X125130Y57707D01*
X126350Y57568D01*
X127570Y57407D01*
X127658Y57419D01*
X127746Y57409D01*
X128961Y57591D01*
X130087Y57739D01*
X142059Y45767D01*
X144049Y44437D01*
X146396Y43970D01*
X324855D01*
X335663Y33163D01*
X337653Y31833D01*
X340000Y31366D01*
X346303D01*
X347431Y29992D01*
X347380Y29735D01*
Y26265D01*
X348057Y22860D01*
X349385Y19654D01*
X351314Y16768D01*
X353768Y14314D01*
X356654Y12385D01*
X359860Y11057D01*
X363265Y10380D01*
X366735D01*
X370140Y11057D01*
X373346Y12385D01*
X376232Y14314D01*
X378686Y16768D01*
X380615Y19654D01*
X381943Y22860D01*
X382620Y26265D01*
Y29735D01*
X381943Y33140D01*
X380615Y36346D01*
X378686Y39232D01*
X376232Y41686D01*
X374220Y43031D01*
X373862Y45187D01*
X382337Y53663D01*
X383667Y55653D01*
X384134Y58000D01*
Y225000D01*
X383667Y227347D01*
X382337Y229337D01*
X363634Y248041D01*
Y265000D01*
X363167Y267347D01*
X361837Y269337D01*
X359847Y270667D01*
X357500Y271134D01*
D02*
G37*
G36*
X1253000Y791321D02*
X1110000D01*
X1107390Y790978D01*
X1104957Y789970D01*
X1102868Y788367D01*
X1101265Y786278D01*
X1100257Y783846D01*
X1099914Y781235D01*
Y88765D01*
X1100257Y86154D01*
X1101265Y83722D01*
X1102868Y81633D01*
X1104957Y80030D01*
X1107390Y79022D01*
X1110000Y78679D01*
X1253000D01*
X1255611Y79022D01*
X1258043Y80030D01*
X1260132Y81633D01*
X1261735Y83722D01*
X1262743Y86154D01*
X1263086Y88765D01*
Y781235D01*
X1262743Y783846D01*
X1261735Y786278D01*
X1260132Y788367D01*
X1258043Y789970D01*
X1255611Y790978D01*
X1253000Y791321D01*
D02*
G37*
G36*
X1232586Y70090D02*
X1229614D01*
X1226698Y69510D01*
X1223952Y68373D01*
X1221481Y66721D01*
X1219379Y64619D01*
X1217727Y62148D01*
X1216590Y59402D01*
X1216010Y56486D01*
Y53514D01*
X1216590Y50598D01*
X1217727Y47852D01*
X1219379Y45381D01*
X1221481Y43279D01*
X1223952Y41627D01*
X1226698Y40490D01*
X1229614Y39910D01*
X1232586D01*
X1235502Y40490D01*
X1238248Y41627D01*
X1240719Y43279D01*
X1242821Y45381D01*
X1244473Y47852D01*
X1245610Y50598D01*
X1246190Y53514D01*
Y56486D01*
X1245610Y59402D01*
X1244473Y62148D01*
X1242821Y64619D01*
X1240719Y66721D01*
X1238248Y68373D01*
X1235502Y69510D01*
X1232586Y70090D01*
D02*
G37*
G36*
X598962Y75940D02*
X594838D01*
X590792Y75135D01*
X586981Y73557D01*
X583551Y71265D01*
X580635Y68348D01*
X578343Y64919D01*
X576765Y61108D01*
X575960Y57062D01*
Y52938D01*
X576765Y48892D01*
X578343Y45081D01*
X580635Y41652D01*
X583551Y38735D01*
X586981Y36443D01*
X590792Y34865D01*
X594838Y34060D01*
X598962D01*
X603008Y34865D01*
X606819Y36443D01*
X610248Y38735D01*
X613165Y41652D01*
X615457Y45081D01*
X617035Y48892D01*
X617840Y52938D01*
Y57062D01*
X617035Y61108D01*
X615457Y64919D01*
X613165Y68348D01*
X610248Y71265D01*
X606819Y73557D01*
X603008Y75135D01*
X598962Y75940D01*
D02*
G37*
G36*
X396338Y38160D02*
X396270D01*
Y29270D01*
X405160D01*
Y29338D01*
X404468Y31922D01*
X403130Y34238D01*
X401238Y36130D01*
X398922Y37468D01*
X396338Y38160D01*
D02*
G37*
G36*
X393730D02*
X393662D01*
X391078Y37468D01*
X388762Y36130D01*
X386870Y34238D01*
X385532Y31922D01*
X384840Y29338D01*
Y29270D01*
X393730D01*
Y38160D01*
D02*
G37*
G36*
X405160Y26730D02*
X396270D01*
Y17840D01*
X396338D01*
X398922Y18532D01*
X401238Y19870D01*
X403130Y21762D01*
X404468Y24078D01*
X405160Y26662D01*
Y26730D01*
D02*
G37*
G36*
X393730D02*
X384840D01*
Y26662D01*
X385532Y24078D01*
X386870Y21762D01*
X388762Y19870D01*
X391078Y18532D01*
X393662Y17840D01*
X393730D01*
Y26730D01*
D02*
G37*
%LPD*%
G36*
X290709Y837274D02*
X291101Y837020D01*
X291555Y836796D01*
X292070Y836603D01*
X292645Y836442D01*
X293282Y836311D01*
X293980Y836212D01*
X295558Y836106D01*
X296439Y836100D01*
X290400Y830061D01*
X290394Y830942D01*
X290288Y832520D01*
X290189Y833218D01*
X290058Y833855D01*
X289897Y834430D01*
X289704Y834945D01*
X289481Y835398D01*
X289226Y835791D01*
X288941Y836123D01*
X290377Y837560D01*
X290709Y837274D01*
D02*
G37*
G36*
X302606Y799058D02*
X302712Y797480D01*
X302811Y796782D01*
X302942Y796145D01*
X303103Y795570D01*
X303296Y795055D01*
X303519Y794602D01*
X303774Y794209D01*
X304060Y793877D01*
X302623Y792440D01*
X302291Y792726D01*
X301898Y792981D01*
X301445Y793204D01*
X300930Y793397D01*
X300355Y793558D01*
X299718Y793689D01*
X299020Y793788D01*
X297442Y793894D01*
X296561Y793900D01*
X302600Y799939D01*
X302606Y799058D01*
D02*
G37*
G36*
X165552Y795016D02*
X164510Y793826D01*
X164088Y793262D01*
X163729Y792719D01*
X163437Y792198D01*
X163209Y791698D01*
X163046Y791219D01*
X162948Y790762D01*
X162916Y790325D01*
X160884D01*
X160851Y790762D01*
X160754Y791219D01*
X160591Y791698D01*
X160363Y792198D01*
X160070Y792719D01*
X159713Y793262D01*
X159290Y793826D01*
X158248Y795016D01*
X157630Y795644D01*
X166170D01*
X165552Y795016D01*
D02*
G37*
G36*
X150336Y788694D02*
X150366Y788670D01*
X150446Y788564D01*
X150853Y788151D01*
X151125Y787840D01*
X151141Y787715D01*
X151286Y787367D01*
X151362Y786998D01*
X151788Y786154D01*
X152149Y785282D01*
X152379Y784983D01*
X152548Y784647D01*
X153177Y783942D01*
X153752Y783193D01*
X154051Y782964D01*
X154302Y782683D01*
X155092Y782165D01*
X155766Y781648D01*
Y614441D01*
X66330Y525004D01*
X65000Y523014D01*
X64533Y520667D01*
Y496648D01*
X63717Y496021D01*
X62800Y495373D01*
X62675Y495222D01*
X62519Y495102D01*
X61835Y494211D01*
X61448Y493745D01*
X59766Y494200D01*
X59670Y494277D01*
Y521996D01*
X123337Y585663D01*
X124667Y587653D01*
X125134Y590000D01*
Y786188D01*
X126912Y787043D01*
X128874Y785732D01*
X131804Y784519D01*
X134914Y783900D01*
X138086D01*
X141196Y784519D01*
X144126Y785732D01*
X146763Y787494D01*
X147977Y788708D01*
X148045Y788758D01*
X149186Y788928D01*
X150336Y788694D01*
D02*
G37*
G36*
X323527Y657343D02*
X323559Y657070D01*
X323614Y656804D01*
X323689Y656545D01*
X323787Y656294D01*
X323906Y656049D01*
X324047Y655812D01*
X324210Y655582D01*
X324394Y655359D01*
X324600Y655142D01*
X320400D01*
X320606Y655359D01*
X320790Y655582D01*
X320953Y655812D01*
X321094Y656049D01*
X321213Y656294D01*
X321311Y656545D01*
X321386Y656804D01*
X321441Y657070D01*
X321473Y657343D01*
X321484Y657623D01*
X323516D01*
X323527Y657343D01*
D02*
G37*
G36*
X71694Y487690D02*
X71726Y487417D01*
X71781Y487151D01*
X71856Y486893D01*
X71954Y486641D01*
X72073Y486397D01*
X72214Y486159D01*
X72377Y485929D01*
X72561Y485706D01*
X72767Y485490D01*
X68567D01*
X68773Y485706D01*
X68957Y485929D01*
X69120Y486159D01*
X69261Y486397D01*
X69380Y486641D01*
X69478Y486893D01*
X69553Y487151D01*
X69608Y487417D01*
X69640Y487690D01*
X69651Y487970D01*
X71683D01*
X71694Y487690D01*
D02*
G37*
G36*
X137960Y302339D02*
X138021Y302166D01*
X138125Y302014D01*
X138269Y301882D01*
X138455Y301770D01*
X138681Y301679D01*
X138950Y301607D01*
X139259Y301557D01*
X139610Y301526D01*
X140001Y301516D01*
Y299484D01*
X139610Y299474D01*
X139259Y299443D01*
X138950Y299393D01*
X138681Y299321D01*
X138455Y299230D01*
X138269Y299118D01*
X138125Y298986D01*
X138021Y298834D01*
X137960Y298661D01*
X137939Y298468D01*
Y302532D01*
X137960Y302339D01*
D02*
G37*
G36*
X231095Y298253D02*
X231019Y298486D01*
X230919Y298696D01*
X230795Y298881D01*
X230646Y299041D01*
X230472Y299176D01*
X230275Y299287D01*
X230052Y299373D01*
X229806Y299435D01*
X229535Y299472D01*
X229239Y299484D01*
X229602Y301516D01*
X230076Y301519D01*
X232021Y301637D01*
X232325Y301680D01*
X232847Y301787D01*
X233065Y301851D01*
X231095Y298253D01*
D02*
G37*
G36*
X344394Y192642D02*
X344210Y192418D01*
X344047Y192188D01*
X343906Y191951D01*
X343787Y191706D01*
X343689Y191455D01*
X343614Y191196D01*
X343559Y190930D01*
X343527Y190657D01*
X343516Y190377D01*
X341484D01*
X341473Y190657D01*
X341441Y190930D01*
X341386Y191196D01*
X341311Y191455D01*
X341213Y191706D01*
X341094Y191951D01*
X340953Y192188D01*
X340790Y192418D01*
X340606Y192642D01*
X340400Y192858D01*
X344600D01*
X344394Y192642D01*
D02*
G37*
G36*
X307434Y190142D02*
X307250Y189918D01*
X307087Y189688D01*
X306946Y189451D01*
X306827Y189206D01*
X306729Y188955D01*
X306654Y188696D01*
X306599Y188430D01*
X306567Y188157D01*
X306556Y187877D01*
X304524D01*
X304513Y188157D01*
X304481Y188430D01*
X304426Y188696D01*
X304351Y188955D01*
X304253Y189206D01*
X304134Y189451D01*
X303993Y189688D01*
X303830Y189918D01*
X303646Y190142D01*
X303440Y190358D01*
X307640D01*
X307434Y190142D01*
D02*
G37*
G36*
X349389Y184563D02*
X349346Y184560D01*
X349286Y184536D01*
X349209Y184492D01*
X349116Y184428D01*
X349007Y184342D01*
X348741Y184110D01*
X348218Y183607D01*
X346782Y185044D01*
X346922Y185187D01*
X347238Y185554D01*
X347309Y185654D01*
X347362Y185744D01*
X347398Y185824D01*
X347417Y185893D01*
X347419Y185951D01*
X347403Y185998D01*
X349389Y184563D01*
D02*
G37*
G36*
X336894Y185142D02*
X336710Y184918D01*
X336547Y184688D01*
X336406Y184451D01*
X336287Y184206D01*
X336189Y183955D01*
X336114Y183696D01*
X336059Y183430D01*
X336027Y183157D01*
X336016Y182877D01*
X333984D01*
X333973Y183157D01*
X333941Y183430D01*
X333886Y183696D01*
X333811Y183955D01*
X333713Y184206D01*
X333594Y184451D01*
X333453Y184688D01*
X333290Y184918D01*
X333106Y185142D01*
X332900Y185358D01*
X337100D01*
X336894Y185142D01*
D02*
G37*
G36*
X328007Y174672D02*
X328035Y174384D01*
X328082Y174106D01*
X328151Y173838D01*
X328239Y173581D01*
X328348Y173334D01*
X328477Y173098D01*
X328627Y172871D01*
X328797Y172655D01*
X328987Y172450D01*
X327550Y171013D01*
X327345Y171203D01*
X327129Y171373D01*
X326902Y171523D01*
X326666Y171652D01*
X326419Y171761D01*
X326162Y171849D01*
X325894Y171918D01*
X325616Y171966D01*
X325328Y171993D01*
X325030Y172000D01*
X328000Y174970D01*
X328007Y174672D01*
D02*
G37*
G36*
X371866Y220721D02*
Y60541D01*
X361574Y50249D01*
X360745Y50308D01*
X359627Y50816D01*
X359254Y51716D01*
X358823Y52833D01*
X358751Y52931D01*
X358705Y53043D01*
X357976Y53993D01*
X357271Y54959D01*
X357176Y55036D01*
X357102Y55132D01*
X356152Y55861D01*
X355220Y56612D01*
X355110Y56661D01*
X355013Y56735D01*
X353907Y57193D01*
X352813Y57677D01*
X352693Y57696D01*
X352580Y57743D01*
X352380Y57769D01*
X352311Y57797D01*
X352151Y57911D01*
X351097Y58300D01*
X350060Y58730D01*
X349865Y58755D01*
X349681Y58824D01*
X348563Y58927D01*
X347450Y59074D01*
X347255Y59048D01*
X347059Y59066D01*
X345952Y58876D01*
X344933Y58742D01*
X321134Y82541D01*
Y83116D01*
X321743Y83909D01*
X322498Y85733D01*
X322660Y86962D01*
X323975Y88277D01*
X326439Y88226D01*
X326862Y87803D01*
X328730Y87030D01*
Y92500D01*
X330000D01*
Y93770D01*
X335470D01*
X334697Y95638D01*
X333138Y97197D01*
X333098Y97400D01*
X367808Y132110D01*
X367808Y132110D01*
X369010Y133677D01*
X369766Y135501D01*
X370024Y137459D01*
X370024Y137459D01*
Y219769D01*
X371802Y220761D01*
X371866Y220721D01*
D02*
G37*
G36*
X286075Y87962D02*
X285885Y87757D01*
X285715Y87541D01*
X285565Y87315D01*
X285436Y87078D01*
X285327Y86831D01*
X285238Y86574D01*
X285170Y86306D01*
X285122Y86029D01*
X285095Y85740D01*
X285088Y85442D01*
X282118Y88412D01*
X282416Y88419D01*
X282704Y88447D01*
X282982Y88494D01*
X283250Y88563D01*
X283507Y88651D01*
X283754Y88760D01*
X283990Y88889D01*
X284217Y89039D01*
X284433Y89209D01*
X284638Y89399D01*
X286075Y87962D01*
D02*
G37*
G36*
X253484Y78652D02*
X254675Y77610D01*
X255238Y77187D01*
X255781Y76830D01*
X256302Y76537D01*
X256802Y76309D01*
X257281Y76146D01*
X257738Y76048D01*
X258175Y76016D01*
Y73984D01*
X257738Y73951D01*
X257281Y73854D01*
X256802Y73691D01*
X256302Y73463D01*
X255781Y73170D01*
X255238Y72812D01*
X254675Y72389D01*
X253484Y71348D01*
X252856Y70730D01*
Y79270D01*
X253484Y78652D01*
D02*
G37*
G36*
X127455Y71646D02*
X127397Y71459D01*
Y71244D01*
X127455Y70999D01*
X127570Y70726D01*
X127742Y70425D01*
X127972Y70094D01*
X128259Y69735D01*
X129006Y68931D01*
X127570Y67494D01*
X127153Y67896D01*
X126406Y68528D01*
X126075Y68758D01*
X125773Y68931D01*
X125500Y69045D01*
X125256Y69103D01*
X125041D01*
X124854Y69045D01*
X124696Y68931D01*
X127570Y71804D01*
X127455Y71646D01*
D02*
G37*
G36*
X229206Y74058D02*
X229312Y72480D01*
X229411Y71782D01*
X229542Y71145D01*
X229703Y70570D01*
X229896Y70055D01*
X230119Y69601D01*
X230374Y69209D01*
X230660Y68877D01*
X229223Y67441D01*
X228891Y67726D01*
X228498Y67981D01*
X228045Y68204D01*
X227530Y68397D01*
X226955Y68558D01*
X226318Y68689D01*
X225620Y68788D01*
X224042Y68894D01*
X223161Y68900D01*
X229200Y74939D01*
X229206Y74058D01*
D02*
G37*
G36*
X203806D02*
X203912Y72480D01*
X204011Y71782D01*
X204142Y71145D01*
X204303Y70570D01*
X204496Y70055D01*
X204719Y69601D01*
X204974Y69209D01*
X205259Y68877D01*
X203823Y67441D01*
X203491Y67726D01*
X203099Y67981D01*
X202645Y68204D01*
X202130Y68397D01*
X201555Y68558D01*
X200918Y68689D01*
X200220Y68788D01*
X198642Y68894D01*
X197761Y68900D01*
X203800Y74939D01*
X203806Y74058D01*
D02*
G37*
G36*
X178406D02*
X178512Y72480D01*
X178611Y71782D01*
X178742Y71145D01*
X178903Y70570D01*
X179096Y70055D01*
X179319Y69601D01*
X179574Y69209D01*
X179860Y68877D01*
X178423Y67441D01*
X178091Y67726D01*
X177698Y67981D01*
X177245Y68204D01*
X176730Y68397D01*
X176155Y68558D01*
X175518Y68689D01*
X174820Y68788D01*
X173242Y68894D01*
X172361Y68900D01*
X178400Y74939D01*
X178406Y74058D01*
D02*
G37*
G36*
X153006D02*
X153112Y72480D01*
X153211Y71782D01*
X153342Y71145D01*
X153503Y70570D01*
X153696Y70055D01*
X153919Y69601D01*
X154174Y69209D01*
X154459Y68877D01*
X153023Y67441D01*
X152691Y67726D01*
X152298Y67981D01*
X151845Y68204D01*
X151330Y68397D01*
X150755Y68558D01*
X150118Y68689D01*
X149420Y68788D01*
X147842Y68894D01*
X146961Y68900D01*
X153000Y74939D01*
X153006Y74058D01*
D02*
G37*
G36*
X328493Y57832D02*
X327617Y56194D01*
X327396Y56238D01*
X294736D01*
X294055Y57881D01*
X311250Y75075D01*
X328493Y57832D01*
D02*
G37*
G36*
X347655Y48797D02*
X347871Y48627D01*
X348098Y48477D01*
X348334Y48348D01*
X348581Y48239D01*
X348838Y48151D01*
X349106Y48082D01*
X349384Y48035D01*
X349672Y48007D01*
X349970Y48000D01*
X347000Y45030D01*
X346993Y45328D01*
X346965Y45616D01*
X346918Y45894D01*
X346850Y46162D01*
X346761Y46419D01*
X346652Y46666D01*
X346523Y46902D01*
X346373Y47129D01*
X346203Y47345D01*
X346013Y47550D01*
X347450Y48987D01*
X347655Y48797D01*
D02*
G37*
%LPC*%
G36*
X335470Y91230D02*
X331270D01*
Y87030D01*
X333138Y87803D01*
X334697Y89362D01*
X335470Y91230D01*
D02*
G37*
%LPD*%
G36*
X1253000Y88765D02*
X1110000D01*
Y781235D01*
X1253000D01*
Y88765D01*
D02*
G37*
%LPC*%
G36*
X1232866Y749065D02*
X1232370D01*
Y736920D01*
X1244515D01*
Y737416D01*
X1243601Y740828D01*
X1241835Y743887D01*
X1239337Y746385D01*
X1236278Y748151D01*
X1232866Y749065D01*
D02*
G37*
G36*
X1229830D02*
X1229334D01*
X1225922Y748151D01*
X1222863Y746385D01*
X1220365Y743887D01*
X1218599Y740828D01*
X1217685Y737416D01*
Y736920D01*
X1229830D01*
Y749065D01*
D02*
G37*
G36*
X1244515Y734380D02*
X1232370D01*
Y722235D01*
X1232866D01*
X1236278Y723149D01*
X1239337Y724915D01*
X1241835Y727413D01*
X1243601Y730472D01*
X1244515Y733884D01*
Y734380D01*
D02*
G37*
G36*
X1229830D02*
X1217685D01*
Y733884D01*
X1218599Y730472D01*
X1220365Y727413D01*
X1222863Y724915D01*
X1225922Y723149D01*
X1229334Y722235D01*
X1229830D01*
Y734380D01*
D02*
G37*
G36*
X1150780Y659240D02*
X1147020D01*
X1143332Y658506D01*
X1139857Y657067D01*
X1136731Y654978D01*
X1134072Y652319D01*
X1131983Y649193D01*
X1130544Y645718D01*
X1129810Y642030D01*
Y638270D01*
X1130544Y634582D01*
X1131983Y631107D01*
X1134072Y627981D01*
X1136731Y625322D01*
X1139857Y623233D01*
X1143332Y621794D01*
X1147020Y621060D01*
X1150780D01*
X1154468Y621794D01*
X1157943Y623233D01*
X1161069Y625322D01*
X1163728Y627981D01*
X1165817Y631107D01*
X1167256Y634582D01*
X1167990Y638270D01*
Y642030D01*
X1167256Y645718D01*
X1165817Y649193D01*
X1163728Y652319D01*
X1161069Y654978D01*
X1157943Y657067D01*
X1154468Y658506D01*
X1150780Y659240D01*
D02*
G37*
G36*
X1232866Y557765D02*
X1232370D01*
Y545620D01*
X1244515D01*
Y546116D01*
X1243601Y549528D01*
X1241835Y552587D01*
X1239337Y555085D01*
X1236278Y556851D01*
X1232866Y557765D01*
D02*
G37*
G36*
X1229830D02*
X1229334D01*
X1225922Y556851D01*
X1222863Y555085D01*
X1220365Y552587D01*
X1218599Y549528D01*
X1217685Y546116D01*
Y545620D01*
X1229830D01*
Y557765D01*
D02*
G37*
G36*
X1244515Y543080D02*
X1232370D01*
Y530935D01*
X1232866D01*
X1236278Y531849D01*
X1239337Y533615D01*
X1241835Y536113D01*
X1243601Y539172D01*
X1244515Y542584D01*
Y543080D01*
D02*
G37*
G36*
X1229830D02*
X1217685D01*
Y542584D01*
X1218599Y539172D01*
X1220365Y536113D01*
X1222863Y533615D01*
X1225922Y531849D01*
X1229334Y530935D01*
X1229830D01*
Y543080D01*
D02*
G37*
G36*
X1232586Y480090D02*
X1229614D01*
X1226698Y479510D01*
X1223952Y478373D01*
X1221481Y476721D01*
X1219379Y474619D01*
X1217727Y472148D01*
X1216590Y469402D01*
X1216010Y466486D01*
Y463514D01*
X1216590Y460598D01*
X1217727Y457852D01*
X1219379Y455381D01*
X1221481Y453279D01*
X1223952Y451627D01*
X1226698Y450490D01*
X1229614Y449910D01*
X1232586D01*
X1235502Y450490D01*
X1238248Y451627D01*
X1240719Y453279D01*
X1242821Y455381D01*
X1244473Y457852D01*
X1245610Y460598D01*
X1246190Y463514D01*
Y466486D01*
X1245610Y469402D01*
X1244473Y472148D01*
X1242821Y474619D01*
X1240719Y476721D01*
X1238248Y478373D01*
X1235502Y479510D01*
X1232586Y480090D01*
D02*
G37*
G36*
X1150962Y425940D02*
X1146838D01*
X1142792Y425135D01*
X1138981Y423557D01*
X1135552Y421265D01*
X1132635Y418349D01*
X1130343Y414919D01*
X1128765Y411108D01*
X1127960Y407062D01*
Y402938D01*
X1128765Y398892D01*
X1130343Y395081D01*
X1132635Y391651D01*
X1135552Y388735D01*
X1138981Y386443D01*
X1142792Y384865D01*
X1146838Y384060D01*
X1150962D01*
X1155008Y384865D01*
X1158819Y386443D01*
X1162249Y388735D01*
X1165165Y391651D01*
X1167457Y395081D01*
X1169035Y398892D01*
X1169840Y402938D01*
Y407062D01*
X1169035Y411108D01*
X1167457Y414919D01*
X1165165Y418349D01*
X1162249Y421265D01*
X1158819Y423557D01*
X1155008Y425135D01*
X1150962Y425940D01*
D02*
G37*
G36*
X1232866Y339065D02*
X1232370D01*
Y326920D01*
X1244515D01*
Y327416D01*
X1243601Y330828D01*
X1241835Y333887D01*
X1239337Y336385D01*
X1236278Y338151D01*
X1232866Y339065D01*
D02*
G37*
G36*
X1229830D02*
X1229334D01*
X1225922Y338151D01*
X1222863Y336385D01*
X1220365Y333887D01*
X1218599Y330828D01*
X1217685Y327416D01*
Y326920D01*
X1229830D01*
Y339065D01*
D02*
G37*
G36*
X1244515Y324380D02*
X1232370D01*
Y312235D01*
X1232866D01*
X1236278Y313149D01*
X1239337Y314915D01*
X1241835Y317413D01*
X1243601Y320472D01*
X1244515Y323884D01*
Y324380D01*
D02*
G37*
G36*
X1229830D02*
X1217685D01*
Y323884D01*
X1218599Y320472D01*
X1220365Y317413D01*
X1222863Y314915D01*
X1225922Y313149D01*
X1229334Y312235D01*
X1229830D01*
Y324380D01*
D02*
G37*
G36*
X1150780Y249240D02*
X1147020D01*
X1143332Y248506D01*
X1139857Y247067D01*
X1136731Y244978D01*
X1134072Y242319D01*
X1131983Y239193D01*
X1130544Y235718D01*
X1129810Y232030D01*
Y228270D01*
X1130544Y224582D01*
X1131983Y221108D01*
X1134072Y217981D01*
X1136731Y215322D01*
X1139857Y213233D01*
X1143332Y211794D01*
X1147020Y211060D01*
X1150780D01*
X1154468Y211794D01*
X1157943Y213233D01*
X1161069Y215322D01*
X1163728Y217981D01*
X1165817Y221108D01*
X1167256Y224582D01*
X1167990Y228270D01*
Y232030D01*
X1167256Y235718D01*
X1165817Y239193D01*
X1163728Y242319D01*
X1161069Y244978D01*
X1157943Y247067D01*
X1154468Y248506D01*
X1150780Y249240D01*
D02*
G37*
G36*
X1232866Y147765D02*
X1232370D01*
Y135620D01*
X1244515D01*
Y136116D01*
X1243601Y139528D01*
X1241835Y142587D01*
X1239337Y145085D01*
X1236278Y146851D01*
X1232866Y147765D01*
D02*
G37*
G36*
X1229830D02*
X1229334D01*
X1225922Y146851D01*
X1222863Y145085D01*
X1220365Y142587D01*
X1218599Y139528D01*
X1217685Y136116D01*
Y135620D01*
X1229830D01*
Y147765D01*
D02*
G37*
G36*
X1244515Y133080D02*
X1232370D01*
Y120935D01*
X1232866D01*
X1236278Y121849D01*
X1239337Y123615D01*
X1241835Y126113D01*
X1243601Y129172D01*
X1244515Y132584D01*
Y133080D01*
D02*
G37*
G36*
X1229830D02*
X1217685D01*
Y132584D01*
X1218599Y129172D01*
X1220365Y126113D01*
X1222863Y123615D01*
X1225922Y121849D01*
X1229334Y120935D01*
X1229830D01*
Y133080D01*
D02*
G37*
G36*
X510666Y557765D02*
X510170D01*
Y545620D01*
X522315D01*
Y546116D01*
X521401Y549528D01*
X519635Y552587D01*
X517137Y555085D01*
X514078Y556851D01*
X510666Y557765D01*
D02*
G37*
G36*
X507630D02*
X507134D01*
X503722Y556851D01*
X500663Y555085D01*
X498165Y552587D01*
X496399Y549528D01*
X495485Y546116D01*
Y545620D01*
X507630D01*
Y557765D01*
D02*
G37*
G36*
X522315Y543080D02*
X510170D01*
Y530935D01*
X510666D01*
X514078Y531849D01*
X517137Y533615D01*
X519635Y536113D01*
X521401Y539172D01*
X522315Y542584D01*
Y543080D01*
D02*
G37*
G36*
X507630D02*
X495485D01*
Y542584D01*
X496399Y539172D01*
X498165Y536113D01*
X500663Y533615D01*
X503722Y531849D01*
X507134Y530935D01*
X507630D01*
Y543080D01*
D02*
G37*
G36*
X510956Y346525D02*
X506844D01*
X502811Y345723D01*
X499012Y344149D01*
X495593Y341865D01*
X492685Y338957D01*
X490401Y335538D01*
X488827Y331739D01*
X488025Y327706D01*
Y323594D01*
X488827Y319561D01*
X490401Y315762D01*
X492685Y312343D01*
X495593Y309435D01*
X499012Y307151D01*
X502811Y305577D01*
X506844Y304775D01*
X510956D01*
X514989Y305577D01*
X518788Y307151D01*
X522207Y309435D01*
X525115Y312343D01*
X527399Y315762D01*
X528973Y319561D01*
X529775Y323594D01*
Y327706D01*
X528973Y331739D01*
X527399Y335538D01*
X525115Y338957D01*
X522207Y341865D01*
X518788Y344149D01*
X514989Y345723D01*
X510956Y346525D01*
D02*
G37*
G36*
X510666Y147765D02*
X510170D01*
Y135620D01*
X522315D01*
Y136116D01*
X521401Y139528D01*
X519635Y142587D01*
X517137Y145085D01*
X514078Y146851D01*
X510666Y147765D01*
D02*
G37*
G36*
X507630D02*
X507134D01*
X503722Y146851D01*
X500663Y145085D01*
X498165Y142587D01*
X496399Y139528D01*
X495485Y136116D01*
Y135620D01*
X507630D01*
Y147765D01*
D02*
G37*
G36*
X522315Y133080D02*
X510170D01*
Y120935D01*
X510666D01*
X514078Y121849D01*
X517137Y123615D01*
X519635Y126113D01*
X521401Y129172D01*
X522315Y132584D01*
Y133080D01*
D02*
G37*
G36*
X507630D02*
X495485D01*
Y132584D01*
X496399Y129172D01*
X498165Y126113D01*
X500663Y123615D01*
X503722Y121849D01*
X507134Y120935D01*
X507630D01*
Y133080D01*
D02*
G37*
%LPD*%
D59*
X357500Y37500D02*
X378000Y58000D01*
X357500Y245500D02*
X378000Y225000D01*
Y58000D02*
Y225000D01*
X357500Y245500D02*
Y265000D01*
X340000Y37500D02*
X357500D01*
X315000Y80000D02*
X350000Y45000D01*
X104000Y838000D02*
X126000Y860000D01*
X342700D02*
X372700Y830000D01*
X126000Y860000D02*
X342700D01*
X280289Y269711D02*
X312200D01*
X267500Y282500D02*
X280289Y269711D01*
X305250Y259250D02*
X314250D01*
X341000Y286000D01*
X431000D01*
X38749Y450251D02*
X47000Y442000D01*
X50000Y425000D02*
Y425174D01*
X47000Y428174D02*
X50000Y425174D01*
X47000Y428174D02*
Y442000D01*
X70667Y520667D02*
X161900Y611900D01*
X70667Y483347D02*
Y520667D01*
X161900Y611900D02*
Y800000D01*
X53536Y524536D02*
X119000Y590000D01*
X53000Y456000D02*
X53536Y456536D01*
Y524536D01*
X38749Y530749D02*
X104000Y596000D01*
X38749Y450251D02*
Y530749D01*
X104000Y596000D02*
Y838000D01*
X119000Y590000D02*
Y832000D01*
X132000Y845000D01*
X281500D01*
X296500Y830000D01*
X50000Y425000D02*
X60000Y415000D01*
X242500D01*
X267500Y282500D02*
Y390000D01*
X242500Y415000D02*
X267500Y390000D01*
X263500Y625000D02*
X270500Y618000D01*
X292500D01*
X322500Y653000D02*
Y774000D01*
X296500Y800000D02*
X322500Y774000D01*
X402000Y600000D02*
X434000D01*
X444000Y663000D02*
Y754100D01*
X398100Y800000D02*
X444000Y754100D01*
X287500Y92888D02*
X327500Y132888D01*
X305540Y185189D02*
X327500Y163228D01*
Y132888D02*
Y163228D01*
X325000Y175000D02*
X332500Y167500D01*
X292500Y92500D02*
X332500Y132500D01*
X335000Y172500D02*
X337500Y170000D01*
X332500Y132500D02*
Y167500D01*
X337500Y131695D02*
Y170000D01*
X297903Y92097D02*
X337500Y131695D01*
X335000Y172500D02*
Y187500D01*
X282088Y85412D02*
X287500Y90824D01*
Y92888D01*
X292500Y86553D02*
Y92500D01*
X280947Y75000D02*
X292500Y86553D01*
X276679Y65344D02*
X297903Y86567D01*
Y92097D01*
X315000Y80000D02*
Y87500D01*
X167986Y53914D02*
X281414D01*
X315000Y87500D01*
X278258Y61534D02*
X303097Y86373D01*
X307041Y84929D02*
Y90459D01*
X189576Y57724D02*
X279836D01*
X211166Y61534D02*
X278258D01*
X307041Y90459D02*
X347500Y130918D01*
X232756Y65344D02*
X276679D01*
X279836Y57724D02*
X307041Y84929D01*
X347500Y130918D02*
Y184326D01*
X303097Y91903D02*
X342500Y131307D01*
X303097Y86373D02*
Y91903D01*
X342500Y131307D02*
Y195000D01*
X347500Y184326D02*
X350000Y186826D01*
Y187500D01*
X146396Y50104D02*
X327396D01*
X340000Y37500D01*
X146900Y75000D02*
X167986Y53914D01*
X197700Y75000D02*
X211166Y61534D01*
X248500Y75000D02*
X280947D01*
X121500D02*
X146396Y50104D01*
X223100Y75000D02*
X232756Y65344D01*
X172300Y75000D02*
X189576Y57724D01*
X305540Y185189D02*
Y192500D01*
X113000Y300500D02*
X231426D01*
X232926Y299000D02*
X234000D01*
X231426Y300500D02*
X232926Y299000D01*
D60*
X315000Y87500D02*
X315191Y87691D01*
Y90191D01*
X362459Y137459D01*
Y222378D01*
D63*
X25000Y195000D02*
D03*
Y275000D02*
D03*
D64*
Y215000D02*
D03*
Y235000D02*
D03*
Y255000D02*
D03*
D65*
X395000Y28000D02*
D03*
X365000D02*
D03*
D66*
X121500Y75000D02*
D03*
X423500Y830000D02*
D03*
Y800000D02*
D03*
X263500Y800000D02*
D03*
Y830000D02*
D03*
D67*
X146900Y75000D02*
D03*
X172300D02*
D03*
X197700D02*
D03*
X223100D02*
D03*
X248500D02*
D03*
X398100Y830000D02*
D03*
X372700D02*
D03*
X347300D02*
D03*
X321900D02*
D03*
X296500D02*
D03*
X398100Y800000D02*
D03*
X372700D02*
D03*
X347300D02*
D03*
X321900D02*
D03*
X296500D02*
D03*
X238100Y800000D02*
D03*
X212700D02*
D03*
X187300D02*
D03*
X161900D02*
D03*
X136500D02*
D03*
X238100Y830000D02*
D03*
X212700D02*
D03*
X187300D02*
D03*
X161900D02*
D03*
X136500D02*
D03*
X1330000Y608100D02*
D03*
Y582700D02*
D03*
Y557300D02*
D03*
Y531900D02*
D03*
Y506500D02*
D03*
X1300000Y608100D02*
D03*
Y582700D02*
D03*
Y557300D02*
D03*
Y531900D02*
D03*
Y506500D02*
D03*
X1330000Y338100D02*
D03*
Y312700D02*
D03*
Y287300D02*
D03*
Y261900D02*
D03*
Y236500D02*
D03*
X1300000Y338100D02*
D03*
Y312700D02*
D03*
Y287300D02*
D03*
Y261900D02*
D03*
Y236500D02*
D03*
D68*
X195000Y375200D02*
D03*
D69*
Y349800D02*
D03*
D70*
X145000Y347500D02*
D03*
X83000D02*
D03*
D71*
X113000Y300500D02*
D03*
D72*
X1330000Y633500D02*
D03*
X1300000D02*
D03*
X1330000Y363500D02*
D03*
X1300000D02*
D03*
D73*
X1148900Y640150D02*
D03*
X596900D02*
D03*
X1148900Y230150D02*
D03*
X596900D02*
D03*
D74*
X1231100Y465000D02*
D03*
Y55000D02*
D03*
D75*
X596900Y465000D02*
D03*
X1148900Y815000D02*
D03*
X596900Y55000D02*
D03*
X1148900Y405000D02*
D03*
D76*
X1231100Y735650D02*
D03*
X508900D02*
D03*
Y544350D02*
D03*
X1231100D02*
D03*
Y325650D02*
D03*
X508900D02*
D03*
Y134350D02*
D03*
X1231100D02*
D03*
D77*
X442000Y82000D02*
D03*
X447000Y90000D02*
D03*
X432000Y82000D02*
D03*
X422000D02*
D03*
X437000Y90000D02*
D03*
X427000D02*
D03*
X417000D02*
D03*
X407000D02*
D03*
X447000Y98000D02*
D03*
X437000D02*
D03*
X427000D02*
D03*
X417000D02*
D03*
X407000D02*
D03*
X187314Y146061D02*
D03*
X167174Y146059D02*
D03*
X207452Y146061D02*
D03*
X120000Y225000D02*
D03*
X134240D02*
D03*
X150000D02*
D03*
X167500D02*
D03*
X362459Y222378D02*
D03*
X350000Y45000D02*
D03*
X312200Y269711D02*
D03*
X305250Y259250D02*
D03*
X431000Y286000D02*
D03*
X450832Y755689D02*
D03*
X370000Y775000D02*
D03*
Y755000D02*
D03*
X292832Y775689D02*
D03*
X293520Y758000D02*
D03*
X292832Y739689D02*
D03*
X263500Y625000D02*
D03*
X292500Y618000D02*
D03*
X322500Y653000D02*
D03*
X70667Y483347D02*
D03*
X387500Y555000D02*
D03*
X387500Y573000D02*
D03*
X248500Y569000D02*
D03*
Y588000D02*
D03*
X53000Y456000D02*
D03*
X50000Y425000D02*
D03*
X402000Y600000D02*
D03*
X434000D02*
D03*
X444000Y663000D02*
D03*
X282088Y85412D02*
D03*
X349994Y187976D02*
D03*
X357500Y265000D02*
D03*
X330000Y92500D02*
D03*
X315000Y87500D02*
D03*
X335000Y187500D02*
D03*
X342500Y195000D02*
D03*
X305540Y192500D02*
D03*
X325000Y175000D02*
D03*
X234000Y299000D02*
D03*
M02*
