G04*
G04 #@! TF.GenerationSoftware,Altium Limited,Altium Designer,24.5.2 (23)*
G04*
G04 Layer_Color=8388736*
%FSLAX44Y44*%
%MOMM*%
G71*
G04*
G04 #@! TF.SameCoordinates,3DCBDF99-3535-49DB-9263-CEB5A80537B2*
G04*
G04*
G04 #@! TF.FilePolarity,Negative*
G04*
G01*
G75*
G04:AMPARAMS|DCode=23|XSize=2.7032mm|YSize=1.0032mm|CornerRadius=0.5016mm|HoleSize=0mm|Usage=FLASHONLY|Rotation=90.000|XOffset=0mm|YOffset=0mm|HoleType=Round|Shape=RoundedRectangle|*
%AMROUNDEDRECTD23*
21,1,2.7032,0.0000,0,0,90.0*
21,1,1.7000,1.0032,0,0,90.0*
1,1,1.0032,0.0000,0.8500*
1,1,1.0032,0.0000,-0.8500*
1,1,1.0032,0.0000,-0.8500*
1,1,1.0032,0.0000,0.8500*
%
%ADD23ROUNDEDRECTD23*%
%ADD24R,1.3032X1.3032*%
G04:AMPARAMS|DCode=25|XSize=2.7032mm|YSize=1.0032mm|CornerRadius=0.5016mm|HoleSize=0mm|Usage=FLASHONLY|Rotation=180.000|XOffset=0mm|YOffset=0mm|HoleType=Round|Shape=RoundedRectangle|*
%AMROUNDEDRECTD25*
21,1,2.7032,0.0000,0,0,180.0*
21,1,1.7000,1.0032,0,0,180.0*
1,1,1.0032,-0.8500,0.0000*
1,1,1.0032,0.8500,0.0000*
1,1,1.0032,0.8500,0.0000*
1,1,1.0032,-0.8500,0.0000*
%
%ADD25ROUNDEDRECTD25*%
%ADD26R,3.2032X2.2032*%
%ADD27R,0.4032X1.0532*%
%ADD28R,1.0532X0.4032*%
%ADD29R,4.2032X4.2032*%
%ADD30R,1.2532X2.4032*%
%ADD31R,1.2032X1.2532*%
G36*
X505133Y-358991D02*
X505263Y-359016D01*
X505390Y-359059D01*
X505509Y-359118D01*
X505620Y-359192D01*
X505720Y-359280D01*
X505808Y-359380D01*
X505882Y-359491D01*
X505941Y-359610D01*
X505984Y-359736D01*
X506009Y-359867D01*
X506018Y-360000D01*
Y-388982D01*
X515000D01*
X515133Y-388991D01*
X515263Y-389016D01*
X515390Y-389059D01*
X515509Y-389118D01*
X515620Y-389192D01*
X515720Y-389280D01*
X515808Y-389380D01*
X515882Y-389491D01*
X515941Y-389610D01*
X515984Y-389736D01*
X516009Y-389867D01*
X516018Y-390000D01*
Y-430000D01*
X516009Y-430133D01*
X515984Y-430263D01*
X515941Y-430390D01*
X515882Y-430509D01*
X515808Y-430620D01*
X515720Y-430720D01*
X515620Y-430808D01*
X515509Y-430882D01*
X515390Y-430941D01*
X515263Y-430983D01*
X515133Y-431009D01*
X515000Y-431018D01*
X455000D01*
X454867Y-431009D01*
X454737Y-430983D01*
X454610Y-430941D01*
X454491Y-430882D01*
X454380Y-430808D01*
X454280Y-430720D01*
X454192Y-430620D01*
X454118Y-430509D01*
X454059Y-430390D01*
X454016Y-430263D01*
X453991Y-430133D01*
X453982Y-430000D01*
Y-390000D01*
X453991Y-389867D01*
X454016Y-389736D01*
X454059Y-389610D01*
X454118Y-389491D01*
X454192Y-389380D01*
X454280Y-389280D01*
X454380Y-389192D01*
X454491Y-389118D01*
X454610Y-389059D01*
X454737Y-389016D01*
X454867Y-388991D01*
X455000Y-388982D01*
X463982D01*
Y-360000D01*
X463991Y-359867D01*
X464016Y-359736D01*
X464059Y-359610D01*
X464118Y-359491D01*
X464192Y-359380D01*
X464280Y-359280D01*
X464380Y-359192D01*
X464491Y-359118D01*
X464610Y-359059D01*
X464737Y-359016D01*
X464867Y-358991D01*
X465000Y-358982D01*
X505000D01*
X505133Y-358991D01*
D02*
G37*
G36*
X285133Y-358991D02*
X285264Y-359016D01*
X285390Y-359059D01*
X285509Y-359118D01*
X285620Y-359192D01*
X285720Y-359280D01*
X285808Y-359380D01*
X285882Y-359491D01*
X285941Y-359610D01*
X285984Y-359736D01*
X286010Y-359867D01*
X286018Y-360000D01*
Y-388982D01*
X295000D01*
X295133Y-388991D01*
X295264Y-389016D01*
X295390Y-389059D01*
X295509Y-389118D01*
X295620Y-389192D01*
X295720Y-389280D01*
X295808Y-389380D01*
X295882Y-389491D01*
X295941Y-389610D01*
X295984Y-389737D01*
X296010Y-389867D01*
X296018Y-390000D01*
Y-430000D01*
X296010Y-430133D01*
X295984Y-430263D01*
X295941Y-430390D01*
X295882Y-430509D01*
X295808Y-430620D01*
X295720Y-430720D01*
X295620Y-430808D01*
X295509Y-430882D01*
X295390Y-430941D01*
X295264Y-430984D01*
X295133Y-431009D01*
X295000Y-431018D01*
X235000D01*
X234867Y-431009D01*
X234736Y-430984D01*
X234610Y-430941D01*
X234491Y-430882D01*
X234380Y-430808D01*
X234280Y-430720D01*
X234192Y-430620D01*
X234118Y-430509D01*
X234059Y-430390D01*
X234016Y-430263D01*
X233990Y-430133D01*
X233982Y-430000D01*
Y-390000D01*
X233990Y-389867D01*
X234016Y-389737D01*
X234059Y-389610D01*
X234118Y-389491D01*
X234192Y-389380D01*
X234280Y-389280D01*
X234380Y-389192D01*
X234491Y-389118D01*
X234610Y-389059D01*
X234736Y-389016D01*
X234867Y-388991D01*
X235000Y-388982D01*
X243982D01*
Y-360000D01*
X243990Y-359867D01*
X244016Y-359736D01*
X244059Y-359610D01*
X244118Y-359491D01*
X244192Y-359380D01*
X244280Y-359280D01*
X244380Y-359192D01*
X244491Y-359118D01*
X244610Y-359059D01*
X244736Y-359016D01*
X244867Y-358991D01*
X245000Y-358982D01*
X285000D01*
X285133Y-358991D01*
D02*
G37*
G36*
X295133Y431009D02*
X295264Y430984D01*
X295390Y430941D01*
X295509Y430882D01*
X295620Y430808D01*
X295720Y430720D01*
X295808Y430620D01*
X295882Y430509D01*
X295941Y430390D01*
X295984Y430263D01*
X296010Y430133D01*
X296018Y430000D01*
Y390000D01*
X296010Y389867D01*
X295984Y389737D01*
X295941Y389610D01*
X295882Y389491D01*
X295808Y389380D01*
X295720Y389280D01*
X295620Y389192D01*
X295509Y389118D01*
X295390Y389059D01*
X295264Y389016D01*
X295133Y388991D01*
X295000Y388982D01*
X286018D01*
Y360000D01*
X286010Y359867D01*
X285984Y359737D01*
X285941Y359610D01*
X285882Y359491D01*
X285808Y359380D01*
X285720Y359280D01*
X285620Y359192D01*
X285509Y359118D01*
X285390Y359059D01*
X285264Y359016D01*
X285133Y358991D01*
X285000Y358982D01*
X245000D01*
X244867Y358991D01*
X244736Y359016D01*
X244610Y359059D01*
X244491Y359118D01*
X244380Y359192D01*
X244280Y359280D01*
X244192Y359380D01*
X244118Y359491D01*
X244059Y359610D01*
X244016Y359737D01*
X243990Y359867D01*
X243982Y360000D01*
Y388982D01*
X235000D01*
X234867Y388991D01*
X234736Y389016D01*
X234610Y389059D01*
X234491Y389118D01*
X234380Y389192D01*
X234280Y389280D01*
X234192Y389380D01*
X234118Y389491D01*
X234059Y389610D01*
X234016Y389737D01*
X233990Y389867D01*
X233982Y390000D01*
Y430000D01*
X233990Y430133D01*
X234016Y430263D01*
X234059Y430390D01*
X234118Y430509D01*
X234192Y430620D01*
X234280Y430720D01*
X234380Y430808D01*
X234491Y430882D01*
X234610Y430941D01*
X234736Y430984D01*
X234867Y431009D01*
X235000Y431018D01*
X295000D01*
X295133Y431009D01*
D02*
G37*
G36*
X515133Y431009D02*
X515263Y430984D01*
X515390Y430941D01*
X515509Y430882D01*
X515620Y430808D01*
X515720Y430720D01*
X515808Y430620D01*
X515882Y430509D01*
X515941Y430390D01*
X515984Y430264D01*
X516009Y430133D01*
X516018Y430000D01*
Y390000D01*
X516009Y389867D01*
X515984Y389737D01*
X515941Y389610D01*
X515882Y389491D01*
X515808Y389380D01*
X515720Y389280D01*
X515620Y389192D01*
X515509Y389118D01*
X515390Y389059D01*
X515263Y389016D01*
X515133Y388991D01*
X515000Y388982D01*
X506018D01*
Y360000D01*
X506009Y359867D01*
X505984Y359737D01*
X505941Y359610D01*
X505882Y359491D01*
X505808Y359380D01*
X505720Y359280D01*
X505620Y359192D01*
X505509Y359118D01*
X505390Y359059D01*
X505263Y359016D01*
X505133Y358991D01*
X505000Y358982D01*
X465000D01*
X464867Y358991D01*
X464737Y359016D01*
X464610Y359059D01*
X464491Y359118D01*
X464380Y359192D01*
X464280Y359280D01*
X464192Y359380D01*
X464118Y359491D01*
X464059Y359610D01*
X464016Y359737D01*
X463991Y359867D01*
X463982Y360000D01*
Y388982D01*
X455000D01*
X454867Y388991D01*
X454737Y389016D01*
X454610Y389059D01*
X454491Y389118D01*
X454380Y389192D01*
X454280Y389280D01*
X454192Y389380D01*
X454118Y389491D01*
X454059Y389610D01*
X454016Y389737D01*
X453991Y389867D01*
X453982Y390000D01*
Y430000D01*
X453991Y430133D01*
X454016Y430264D01*
X454059Y430390D01*
X454118Y430509D01*
X454192Y430620D01*
X454280Y430720D01*
X454380Y430808D01*
X454491Y430882D01*
X454610Y430941D01*
X454737Y430984D01*
X454867Y431009D01*
X455000Y431018D01*
X515000D01*
X515133Y431009D01*
D02*
G37*
D23*
X-505000Y147500D02*
D03*
X-492000D02*
D03*
Y-167500D02*
D03*
X-505000D02*
D03*
X-601000Y147500D02*
D03*
X-588000D02*
D03*
X-575000D02*
D03*
X-562000D02*
D03*
X-549000D02*
D03*
X-536000D02*
D03*
X-523000D02*
D03*
X-479000D02*
D03*
X-466000D02*
D03*
X-453000D02*
D03*
X-440000D02*
D03*
X-427000D02*
D03*
X-414000D02*
D03*
X-401000D02*
D03*
X-388000D02*
D03*
X-375000D02*
D03*
X-362000D02*
D03*
X-349000D02*
D03*
Y-167500D02*
D03*
X-362000D02*
D03*
X-375000D02*
D03*
X-388000D02*
D03*
X-401000D02*
D03*
X-414000D02*
D03*
X-427000D02*
D03*
X-440000D02*
D03*
X-453000D02*
D03*
X-466000D02*
D03*
X-479000D02*
D03*
X-523000D02*
D03*
X-536000D02*
D03*
X-549000D02*
D03*
X-562000D02*
D03*
X-575000D02*
D03*
X-588000D02*
D03*
X-601000D02*
D03*
D24*
X-365000Y-140000D02*
D03*
X-385000D02*
D03*
X-405000D02*
D03*
X-425000D02*
D03*
X-445000D02*
D03*
X-466000D02*
D03*
X-485000D02*
D03*
X-505000D02*
D03*
X-525000D02*
D03*
X-545000D02*
D03*
X-565000D02*
D03*
X-585000D02*
D03*
X-365000Y-120000D02*
D03*
X-385000D02*
D03*
X-405000D02*
D03*
X-425000D02*
D03*
X-445000D02*
D03*
X-465000D02*
D03*
X-485000D02*
D03*
X-505000D02*
D03*
X-525000D02*
D03*
X-545000D02*
D03*
X-565000D02*
D03*
X-585000D02*
D03*
X-459000Y-34000D02*
D03*
X-475000D02*
D03*
X-491000D02*
D03*
X-459000Y-18000D02*
D03*
X-475000D02*
D03*
X-491000D02*
D03*
X-459000Y-2000D02*
D03*
X-475000D02*
D03*
X-491000D02*
D03*
X-459000Y14000D02*
D03*
X-475000D02*
D03*
X-491000D02*
D03*
D25*
X-332500Y-131500D02*
D03*
Y-118500D02*
D03*
X-617500Y-131500D02*
D03*
Y-118500D02*
D03*
Y-105500D02*
D03*
Y-92500D02*
D03*
Y-79500D02*
D03*
Y-66500D02*
D03*
Y-53500D02*
D03*
Y-40500D02*
D03*
Y-27500D02*
D03*
Y-14500D02*
D03*
Y-1500D02*
D03*
Y11500D02*
D03*
Y24500D02*
D03*
Y37500D02*
D03*
Y50500D02*
D03*
Y63500D02*
D03*
Y76500D02*
D03*
Y89500D02*
D03*
Y102500D02*
D03*
Y115500D02*
D03*
X-332500D02*
D03*
Y102500D02*
D03*
Y89500D02*
D03*
Y76500D02*
D03*
Y63500D02*
D03*
Y50500D02*
D03*
Y37500D02*
D03*
Y24500D02*
D03*
Y11500D02*
D03*
Y-1500D02*
D03*
Y-14500D02*
D03*
Y-27500D02*
D03*
Y-40500D02*
D03*
Y-53500D02*
D03*
Y-66500D02*
D03*
Y-79500D02*
D03*
Y-92500D02*
D03*
Y-105500D02*
D03*
D26*
X-379000Y-92000D02*
D03*
X-427000D02*
D03*
X-475000D02*
D03*
X-523000D02*
D03*
X-571000D02*
D03*
X-379000Y-60000D02*
D03*
X-427000D02*
D03*
X-475000D02*
D03*
X-523000D02*
D03*
X-571000D02*
D03*
X-379000Y-26000D02*
D03*
X-427000D02*
D03*
X-523000Y-27500D02*
D03*
X-571000Y-26000D02*
D03*
X-379000Y6000D02*
D03*
X-427000D02*
D03*
X-523000D02*
D03*
X-571000D02*
D03*
X-379000Y40000D02*
D03*
X-427000D02*
D03*
X-475000D02*
D03*
X-523000D02*
D03*
X-571000D02*
D03*
X-379000Y72000D02*
D03*
X-427000D02*
D03*
X-475000D02*
D03*
X-523000D02*
D03*
X-571000D02*
D03*
D27*
X-216000Y210750D02*
D03*
X-212000D02*
D03*
X-208000D02*
D03*
X-204000D02*
D03*
X-200000D02*
D03*
X-196000D02*
D03*
X-192000D02*
D03*
X-188000D02*
D03*
X-184000D02*
D03*
X-192000Y279250D02*
D03*
X-216000D02*
D03*
X-212000D02*
D03*
X-208000D02*
D03*
X-204000D02*
D03*
X-200000D02*
D03*
X-196000D02*
D03*
X-188000D02*
D03*
X-180000Y210750D02*
D03*
X-176000D02*
D03*
X-172000D02*
D03*
X-168000D02*
D03*
X-164000D02*
D03*
X-184000Y279250D02*
D03*
X-180000D02*
D03*
X-176000D02*
D03*
X-172000D02*
D03*
X-168000D02*
D03*
X-164000D02*
D03*
D28*
X-224250Y219000D02*
D03*
Y223000D02*
D03*
Y227000D02*
D03*
Y231000D02*
D03*
Y235000D02*
D03*
Y239000D02*
D03*
Y243000D02*
D03*
Y247000D02*
D03*
Y251000D02*
D03*
Y255000D02*
D03*
Y259000D02*
D03*
Y263000D02*
D03*
Y267000D02*
D03*
Y271000D02*
D03*
X-155750Y219000D02*
D03*
Y223000D02*
D03*
Y227000D02*
D03*
Y231000D02*
D03*
Y235000D02*
D03*
Y239000D02*
D03*
Y243000D02*
D03*
Y247000D02*
D03*
Y251000D02*
D03*
Y255000D02*
D03*
Y259000D02*
D03*
Y263000D02*
D03*
Y267000D02*
D03*
Y271000D02*
D03*
D29*
X-190000Y245000D02*
D03*
D30*
X-100500D02*
D03*
X-130000D02*
D03*
D31*
X-115250Y229750D02*
D03*
M02*
