G04*
G04 #@! TF.GenerationSoftware,Altium Limited,Altium Designer,24.5.2 (23)*
G04*
G04 Layer_Color=65535*
%FSLAX44Y44*%
%MOMM*%
G71*
G04*
G04 #@! TF.SameCoordinates,3DCBDF99-3535-49DB-9263-CEB5A80537B2*
G04*
G04*
G04 #@! TF.FilePolarity,Positive*
G04*
G01*
G75*
%ADD10C,0.2500*%
%ADD11C,0.2000*%
%ADD12C,0.1270*%
%ADD13C,0.2540*%
D10*
X-232250Y280500D02*
G03*
X-232250Y280500I-1250J0D01*
G01*
X165000Y-390000D02*
X225000D01*
X165000D02*
Y390000D01*
X225000D01*
X305000D02*
X365000D01*
X305000Y-390000D02*
X365000D01*
Y390000D01*
X165000Y-390000D02*
X225000D01*
X165000D02*
Y390000D01*
X225000D01*
X305000D02*
X365000D01*
X305000Y-390000D02*
X365000D01*
Y390000D01*
X525000D02*
X585000D01*
Y-390000D02*
Y390000D01*
X525000Y-390000D02*
X585000D01*
X385000D02*
X445000D01*
X385000Y390000D02*
X445000D01*
X385000Y-390000D02*
Y390000D01*
D11*
X-645000Y175000D02*
X-645000Y-195000D01*
X-645000Y175000D02*
X-305000Y175000D01*
X-305000Y-195000D01*
X-645000Y-195000D02*
X-305000Y-195000D01*
X-630000Y-195000D02*
Y-195000D01*
X-645000Y-180000D02*
X-630000Y-195000D01*
X-645000Y-182500D02*
Y-180000D01*
Y-182500D02*
X-632500Y-195000D01*
X-634516D02*
X-632500D01*
X-644714Y-184802D02*
X-634516Y-195000D01*
X-644714Y-187357D02*
Y-184802D01*
Y-187357D02*
X-637329Y-194742D01*
X-639034D02*
X-637329D01*
X-644288Y-189488D02*
X-639034Y-194742D01*
X-644288Y-191334D02*
Y-189488D01*
Y-191334D02*
X-640880Y-194742D01*
X-643437D02*
X-640880D01*
X-644572Y-193607D02*
X-643437Y-194742D01*
X-644572Y-193607D02*
Y-185512D01*
X-644004Y-184944D01*
X-227000Y208000D02*
X-221000D01*
X-227000D02*
Y214000D01*
X-159000Y208000D02*
X-153000D01*
Y214000D01*
Y276000D02*
Y282000D01*
X-159000D02*
X-153000D01*
X-227000D02*
X-221000D01*
X-227000Y276000D02*
Y282000D01*
D12*
X-128250Y230800D02*
X-123450D01*
X-107050D02*
X-102250D01*
X-128250Y259200D02*
X-102250D01*
D13*
X164250Y458829D02*
Y443594D01*
X171868D01*
X174407Y446133D01*
Y456290D01*
X171868Y458829D01*
X164250D01*
X187103Y443594D02*
X182024D01*
X179485Y446133D01*
Y451212D01*
X182024Y453751D01*
X187103D01*
X189642Y451212D01*
Y448672D01*
X179485D01*
X194720Y443594D02*
X202338D01*
X204877Y446133D01*
X202338Y448672D01*
X197259D01*
X194720Y451212D01*
X197259Y453751D01*
X204877D01*
X209955Y443594D02*
X215034D01*
X212494D01*
Y453751D01*
X209955D01*
X227729Y438516D02*
X230269D01*
X232808Y441055D01*
Y453751D01*
X225190D01*
X222651Y451212D01*
Y446133D01*
X225190Y443594D01*
X232808D01*
X237886D02*
Y453751D01*
X245504D01*
X248043Y451212D01*
Y443594D01*
X255660Y453751D02*
X260739D01*
X263278Y451212D01*
Y443594D01*
X255660D01*
X253121Y446133D01*
X255660Y448672D01*
X263278D01*
X270896Y456290D02*
Y453751D01*
X268356D01*
X273435D01*
X270896D01*
Y446133D01*
X273435Y443594D01*
X283591D02*
X288670D01*
X291209Y446133D01*
Y451212D01*
X288670Y453751D01*
X283591D01*
X281052Y451212D01*
Y446133D01*
X283591Y443594D01*
X296287Y453751D02*
Y443594D01*
Y448672D01*
X298827Y451212D01*
X301366Y453751D01*
X303905D01*
X311522Y446133D02*
X314062Y443594D01*
X319140D01*
X321679Y446133D01*
Y456290D01*
X319140Y458829D01*
X314062D01*
X311522Y456290D01*
Y453751D01*
X314062Y451212D01*
X321679D01*
X164250Y458829D02*
Y443594D01*
X171868D01*
X174407Y446133D01*
Y456290D01*
X171868Y458829D01*
X164250D01*
X187103Y443594D02*
X182024D01*
X179485Y446133D01*
Y451212D01*
X182024Y453751D01*
X187103D01*
X189642Y451212D01*
Y448672D01*
X179485D01*
X194720Y443594D02*
X202338D01*
X204877Y446133D01*
X202338Y448672D01*
X197259D01*
X194720Y451212D01*
X197259Y453751D01*
X204877D01*
X209955Y443594D02*
X215034D01*
X212494D01*
Y453751D01*
X209955D01*
X227729Y438516D02*
X230269D01*
X232808Y441055D01*
Y453751D01*
X225190D01*
X222651Y451212D01*
Y446133D01*
X225190Y443594D01*
X232808D01*
X237886D02*
Y453751D01*
X245504D01*
X248043Y451212D01*
Y443594D01*
X255660Y453751D02*
X260739D01*
X263278Y451212D01*
Y443594D01*
X255660D01*
X253121Y446133D01*
X255660Y448672D01*
X263278D01*
X270896Y456290D02*
Y453751D01*
X268356D01*
X273435D01*
X270896D01*
Y446133D01*
X273435Y443594D01*
X283591D02*
X288670D01*
X291209Y446133D01*
Y451212D01*
X288670Y453751D01*
X283591D01*
X281052Y451212D01*
Y446133D01*
X283591Y443594D01*
X296287Y453751D02*
Y443594D01*
Y448672D01*
X298827Y451212D01*
X301366Y453751D01*
X303905D01*
X311522Y456290D02*
X314062Y458829D01*
X319140D01*
X321679Y456290D01*
Y453751D01*
X319140Y451212D01*
X321679Y448672D01*
Y446133D01*
X319140Y443594D01*
X314062D01*
X311522Y446133D01*
Y448672D01*
X314062Y451212D01*
X311522Y453751D01*
Y456290D01*
X314062Y451212D02*
X319140D01*
X384214Y458829D02*
Y443594D01*
X391832D01*
X394371Y446133D01*
Y456290D01*
X391832Y458829D01*
X384214D01*
X407067Y443594D02*
X401988D01*
X399449Y446133D01*
Y451212D01*
X401988Y453751D01*
X407067D01*
X409606Y451212D01*
Y448672D01*
X399449D01*
X414684Y443594D02*
X422302D01*
X424841Y446133D01*
X422302Y448672D01*
X417223D01*
X414684Y451212D01*
X417223Y453751D01*
X424841D01*
X429919Y443594D02*
X434998D01*
X432458D01*
Y453751D01*
X429919D01*
X447693Y438516D02*
X450233D01*
X452772Y441055D01*
Y453751D01*
X445154D01*
X442615Y451212D01*
Y446133D01*
X445154Y443594D01*
X452772D01*
X457850D02*
Y453751D01*
X465468D01*
X468007Y451212D01*
Y443594D01*
X475624Y453751D02*
X480703D01*
X483242Y451212D01*
Y443594D01*
X475624D01*
X473085Y446133D01*
X475624Y448672D01*
X483242D01*
X490859Y456290D02*
Y453751D01*
X488320D01*
X493399D01*
X490859D01*
Y446133D01*
X493399Y443594D01*
X503555D02*
X508634D01*
X511173Y446133D01*
Y451212D01*
X508634Y453751D01*
X503555D01*
X501016Y451212D01*
Y446133D01*
X503555Y443594D01*
X516251Y453751D02*
Y443594D01*
Y448672D01*
X518791Y451212D01*
X521330Y453751D01*
X523869D01*
X531486Y458829D02*
X541643D01*
Y456290D01*
X531486Y446133D01*
Y443594D01*
X-233514Y309223D02*
Y296527D01*
X-230975Y293988D01*
X-225896D01*
X-223357Y296527D01*
Y309223D01*
X-208122Y293988D02*
X-218279D01*
X-208122Y304145D01*
Y306684D01*
X-210661Y309223D01*
X-215740D01*
X-218279Y306684D01*
X-643470Y183498D02*
Y198733D01*
X-638392Y193655D01*
X-633313Y198733D01*
Y183498D01*
X-628235D02*
X-623157D01*
X-625696D01*
Y198733D01*
X-628235Y196194D01*
X-125313Y283569D02*
X-130392D01*
X-127852D01*
Y270873D01*
X-130392Y268334D01*
X-132931D01*
X-135470Y270873D01*
X-120235Y268334D02*
X-115157D01*
X-117696D01*
Y283569D01*
X-120235Y281030D01*
M02*
