G04*
G04 #@! TF.GenerationSoftware,Altium Limited,Altium Designer,24.5.2 (23)*
G04*
G04 Layer_Color=16711935*
%FSLAX44Y44*%
%MOMM*%
G71*
G04*
G04 #@! TF.SameCoordinates,3DCBDF99-3535-49DB-9263-CEB5A80537B2*
G04*
G04*
G04 #@! TF.FilePolarity,Positive*
G04*
G01*
G75*
%ADD34C,0.1000*%
D34*
X-685030Y255000D02*
G03*
X-595030Y347470I-1235J91235D01*
G01*
X-670000Y-21000D02*
G03*
X-670000Y21000I0J21000D01*
G01*
X670000D02*
G03*
X670000Y-21000I0J-21000D01*
G01*
X-595030Y-347470D02*
G03*
X-685030Y-255000I-91235J1235D01*
G01*
X-585000Y435000D02*
G03*
X-595000Y425000I0J-10000D01*
G01*
X685030Y-255000D02*
G03*
X595030Y-347470I1235J-91235D01*
G01*
X-595000Y-425000D02*
G03*
X-585000Y-435000I10000J0D01*
G01*
X595000Y425000D02*
G03*
X585000Y435000I-10000J0D01*
G01*
Y-435000D02*
G03*
X595000Y-425000I0J10000D01*
G01*
X595034Y347466D02*
G03*
X685026Y255004I91227J-1235D01*
G01*
X-685030Y21030D02*
Y255000D01*
X595030Y-424970D02*
Y-347470D01*
X-685000Y-254970D02*
Y-21000D01*
X670000Y-21000D02*
X685000D01*
X-585000Y-435000D02*
X585000D01*
X-595030Y-424970D02*
Y-347470D01*
X685026Y255004D02*
X685030Y255000D01*
X670000Y21000D02*
X685000D01*
X595030Y424970D02*
X595034Y347466D01*
X685000Y21000D02*
Y254978D01*
X-685000Y-21000D02*
X-670000D01*
X-585000Y435000D02*
X585000D01*
X685000Y-254970D02*
Y-21000D01*
X-685000Y21000D02*
X-670000D01*
X-595030Y347470D02*
Y424970D01*
M02*
